<svg xmlns="http://www.w3.org/2000/svg" width="19.018" height="16.969" viewBox="0 0 19.018 16.969"><path d="M5.23 4.082a6.551 6.551 0 0 0-2.59 3.435h-.394a1.746 1.746 0 0 0 0 3.491h.169a7.339 7.339 0 0 0 14.19 0h.169a1.746 1.746 0 1 0 0-3.491h-.394a6.853 6.853 0 0 0-2.59-3.435" fill="none" stroke="#4b4376" stroke-linecap="round" stroke-linejoin="round" stroke-miterlimit="10"/><circle cx=".676" cy=".676" r=".676" fill="#4b4376" transform="translate(11.198 9.656)"/><circle cx=".676" cy=".676" r=".676" fill="#4b4376" transform="translate(6.75 9.656)"/><path d="M11.48 13.148l-.113.056a3.558 3.558 0 0 1-3.66 0l-.113-.056" fill="none" stroke="#4b4376" stroke-linecap="round" stroke-linejoin="round" stroke-miterlimit="10"/><g transform="translate(5.286 .512)" fill="none" stroke="#4b4376" stroke-linecap="round" stroke-linejoin="round" stroke-miterlimit="10"><circle cx="1.07" cy="1.07" r="1.07" transform="translate(3.21 1.205)"/><path d="M4.279 1.205L7.094.079a1.066 1.066 0 0 1 1.464.957v2.365a1.051 1.051 0 0 1-1.464.957L4.279 3.232M4.279 3.289L1.464 4.415A1.066 1.066 0 0 1 0 3.458V1.097A1.051 1.051 0 0 1 1.464.14l2.815 1.126"/></g></svg>