<svg xmlns="http://www.w3.org/2000/svg" width="22.7" height="10.733" viewBox="0 0 22.7 10.733"><g fill="none" stroke="#4b4376" stroke-miterlimit="10"><path d="M21.876 6.191L10.645.563A.591.591 0 0 0 10.381.5h-1.95a.585.585 0 0 0-.476.244l-1.08 1.5a.587.587 0 0 1-.476.243H4.292a.587.587 0 0 1-.587-.586v-.809a.587.587 0 0 0-.586-.587h-1.5A1.122 1.122 0 0 0 .497 1.627v6.238a2.375 2.375 0 0 0 2.375 2.374h16.95a2.374 2.374 0 0 0 2.375-2.374V6.711a.586.586 0 0 0-.321-.52zM.49 8.006H22.2"/><path d="M.472 5.277h1.679a1.4 1.4 0 0 1 1.4 1.4v1.175M11.774 3.777l1.082-2.259M13.626 4.829l1.082-2.259M15.477 5.74l1.082-2.259"/></g></svg>