<svg viewBox="0 0 100 100" xmlns="http://www.w3.org/2000/svg"><symbol viewBox="0 0 19.018 16.969" id="icon-baby"><title>baby</title><g transform="translate(-928 -2002.148)"><g transform="translate(928.5 2006.23)"><path d="M933.23,2009a6.551,6.551,0,0,0-2.59,3.435h-.394a1.746,1.746,0,0,0,0,3.491h.169a7.339,7.339,0,0,0,14.19,0h.169a1.746,1.746,0,1,0,0-3.491h-.394a6.853,6.853,0,0,0-2.59-3.435" transform="translate(-928.5 -2009)" fill="none" stroke="#4b4376" stroke-linecap="round" stroke-linejoin="round" stroke-miterlimit="10" stroke-width="1"/><g transform="translate(10.698 5.574)"><circle cx="0.676" cy="0.676" r="0.676" fill="#4b4376"/></g><g transform="translate(6.25 5.574)"><circle cx="0.676" cy="0.676" r="0.676" fill="#4b4376"/></g><path d="M944.985,2025.1l-.113.056a3.558,3.558,0,0,1-3.66,0l-.113-.056" transform="translate(-934.005 -2016.034)" fill="none" stroke="#4b4376" stroke-linecap="round" stroke-linejoin="round" stroke-miterlimit="10" stroke-width="1"/></g><g transform="translate(933.286 2002.66)"><circle cx="1.07" cy="1.07" r="1.07" transform="translate(3.21 1.205)" fill="none" stroke="#4b4376" stroke-linecap="round" stroke-linejoin="round" stroke-miterlimit="10" stroke-width="1"/><path d="M944.6,2003.865l2.815-1.126a1.066,1.066,0,0,1,1.464.957v2.365a1.051,1.051,0,0,1-1.464.957l-2.815-1.126" transform="translate(-940.321 -2002.66)" fill="none" stroke="#4b4376" stroke-linecap="round" stroke-linejoin="round" stroke-miterlimit="10" stroke-width="1"/><path d="M941.279,2005.992l-2.815,1.126a1.066,1.066,0,0,1-1.464-.957V2003.8a1.051,1.051,0,0,1,1.464-.957l2.815,1.126" transform="translate(-937 -2002.703)" fill="none" stroke="#4b4376" stroke-linecap="round" stroke-linejoin="round" stroke-miterlimit="10" stroke-width="1"/></g></g></symbol><symbol viewBox="0 0 14.129 19" id="icon-pant"><title>pant</title><g transform="translate(-248.682 -397.082)"><line x2="13.185" transform="translate(248.839 400.234)" fill="none" stroke="#4b4376" stroke-miterlimit="10" stroke-width="1"/><path d="M261.122,397.582h-10.9a.994.994,0,0,0-1.08.874v17.126h4.711v-8.834a1.858,1.858,0,0,1,3.635,0v8.834H262.2V398.456A.994.994,0,0,0,261.122,397.582Z" transform="translate(0.073 0)" fill="none" stroke="#4b4376" stroke-miterlimit="10" stroke-width="1"/><line y1="5.493" transform="translate(255.431 400.083)" fill="none" stroke="#4b4376" stroke-miterlimit="10" stroke-width="1"/><line y1="4.934" x2="4.934" transform="translate(249.035 400.053)" fill="none" stroke="#4b4376" stroke-miterlimit="10" stroke-width="1"/><line x1="4.934" y1="4.934" transform="translate(257.522 400.053)" fill="none" stroke="#4b4376" stroke-miterlimit="10" stroke-width="1"/></g></symbol><symbol viewBox="0 0 22.7 10.733" id="icon-shoe"><title>shoe</title><g transform="translate(-267.586 -396.889)"><path d="M289.462,403.08l-11.231-5.628a.591.591,0,0,0-.264-.063h-1.95a.585.585,0,0,0-.476.244l-1.08,1.5a.587.587,0,0,1-.476.243h-2.107a.587.587,0,0,1-.587-.586v-.809a.587.587,0,0,0-.586-.587h-1.5a1.122,1.122,0,0,0-1.122,1.122v6.238a2.375,2.375,0,0,0,2.375,2.374h16.95a2.374,2.374,0,0,0,2.375-2.374V403.6A.586.586,0,0,0,289.462,403.08Z" transform="translate(0 0)" fill="none" stroke="#4b4376" stroke-miterlimit="10" stroke-width="1"/><line x2="21.71" transform="translate(268.076 404.895)" fill="none" stroke="#4b4376" stroke-miterlimit="10" stroke-width="1"/><path d="M268.058,401.554h1.679a1.4,1.4,0,0,1,1.4,1.4v1.175" transform="translate(0 0.612)" fill="none" stroke="#4b4376" stroke-miterlimit="10" stroke-width="1"/><line y1="2.259" x2="1.082" transform="translate(279.36 398.407)" fill="none" stroke="#4b4376" stroke-miterlimit="10" stroke-width="1"/><line y1="2.259" x2="1.082" transform="translate(281.212 399.459)" fill="none" stroke="#4b4376" stroke-miterlimit="10" stroke-width="1"/><line y1="2.259" x2="1.082" transform="translate(283.063 400.37)" fill="none" stroke="#4b4376" stroke-miterlimit="10" stroke-width="1"/></g></symbol><symbol viewBox="0 0 19.936 17.5" id="icon-tshirt"><title>tshirt</title><g transform="translate(-0.5 -3.459)"><path d="M12.794,3.959a2.105,2.105,0,0,1-2.325,1.883A2.1,2.1,0,0,1,8.143,3.959C3.769,3.959,1,8.887,1,8.887l3.378,2.16L5.6,9.551V20.459h9.746V9.551l1.218,1.5,3.378-2.16S17.167,3.959,12.794,3.959Z" fill="none" stroke="#4b4376" stroke-linecap="round" stroke-linejoin="round" stroke-width="1"/></g></symbol></svg>