<svg viewBox="0 0 100 100" xmlns="http://www.w3.org/2000/svg"><symbol viewBox="0 0 62.529 62.472" id="icon-ico-edit"><title>ico-edit</title> <path d="M51.824,1.801C50.625,0.601,48.972,0,47.398,0s-3.227,0.601-4.426,1.801L10.574,34.199l17.699,17.699L60.671,19.5
	c2.477-2.477,2.477-6.375,0-8.852L51.824,1.801z"/> <polygon points="23.625,56.097 6.375,38.847 0,62.472 "/> </symbol><symbol viewBox="0 0 48.82 54.524" id="icon-ico-item"><title>ico-item</title> <path d="M27.41,46.789V28.996l15.41-8.898v17.797L27.41,46.789z M6,37.895V20.098l15.41,8.898v17.797L6,37.895z M24.41,6
	l15.41,8.899l-15.41,8.898L9,14.899L24.41,6z M45.82,11.438L27.41,0.805C26.48,0.27,25.445,0,24.41,0s-2.074,0.27-3,0.805L3,11.438
	c-1.856,1.07-3,3.051-3,5.195v21.262c0,2.144,1.144,4.125,3,5.195l18.41,10.629c0.93,0.535,1.965,0.805,3,0.805s2.07-0.27,3-0.805
	L45.82,43.09c1.856-1.074,3-3.051,3-5.195V16.633C48.82,14.489,47.676,12.508,45.82,11.438z"/> </symbol><symbol viewBox="0 0 27.5 36.484" id="icon-ico-trash"><title>ico-trash</title> <path d="M0.703,10.781l3.125,23.984c0,0.938,0.781,1.719,1.797,1.719h16.25c1.016,0,1.797-0.781,1.797-1.719l3.125-23.984H0.703z"/> <path d="M24.922,2.578c1.406,0,2.578,0.547,2.578,1.25v2.734c0,0.703-1.172,0.547-2.578,0.547H2.578C1.172,7.109,0,7.265,0,6.562
	V3.828c0-0.703,1.172-1.25,2.578-1.25l5.156-0.469L9.609,0h8.047l1.953,2.109L24.922,2.578z"/> </symbol><symbol viewBox="0 0 50.815 59.998" id="icon-ico-user"><title>ico-user</title> <path d="M50.759,48.926c-1.469-9.254-9.176-16.25-17.965-18.836c3.777-4.183,5.785-11.008,5.793-15.633
	C38.598,7.364,32.747,0,25.29,0S11.981,7.367,11.993,14.457c0.008,4.645,2.035,11.508,5.844,15.688
	C9.126,32.774,1.512,39.739,0.055,48.926c-0.601,3.805,3.84,6.332,6.711,7.625c5.637,2.539,12.079,3.402,18.215,3.445
	c6.211,0.047,12.703-0.757,18.461-3.187C46.466,55.535,51.395,52.949,50.759,48.926z"/> </symbol><symbol viewBox="0 0 67.344 67.496" id="icon-link"><title>link</title> <path d="M59.996,48.676c0,1.273-0.449,2.398-1.273,3.226l-6.899,6.977c-1.648,1.648-4.574,1.648-6.3,0l-9.227-9.305
	c-0.824-0.824-1.352-1.949-1.352-3.148c0-1.199,0.524-2.324,1.352-3.149l0.824-0.898c0,0,4.125,4.125,4.352,4.273
	c1.426,1.426,3.75,1.426,5.176,0c1.5-1.425,1.5-3.75,0-5.25c-0.075-0.226-4.274-4.273-4.274-4.273l0.899-0.824
	c0.75-0.899,1.949-1.352,3.148-1.352s2.324,0.524,3.148,1.352l9.227,9.148C59.547,46.426,59.996,47.477,59.996,48.676z
	 M24.149,31.199c-1.649,1.649-4.649,1.649-6.375,0l-9.079-9.222c-0.898-0.899-1.351-1.95-1.351-3.149
	c0-1.199,0.449-2.324,1.351-3.148l6.977-6.977c0.75-0.824,1.949-1.273,3.148-1.273c1.2,0,2.325,0.449,3.149,1.273l9.226,9.227
	c0.825,0.898,1.274,1.949,1.274,3.148c0,1.199-0.449,2.324-1.274,3.227l-0.898,0.824l-4.273-4.274c-1.352-1.425-3.75-1.425-5.25,0
	c-1.426,1.426-1.426,3.75,0,5.25l4.273,4.274L24.149,31.199z M54.672,31.199c-2.176-2.25-5.176-3.449-8.324-3.449
	c-3.149,0-6.149,1.199-8.399,3.449l-0.898,0.824l-1.649-1.648l0.899-0.824c2.25-2.25,3.449-5.25,3.449-8.477
	c0-3.148-1.199-6.074-3.449-8.324L27.07,3.449C24.899,1.273,21.899,0,18.746,0c-3.226,0-6.148,1.199-8.398,3.449l-6.899,6.977
	C1.199,12.676,0,15.602,0,18.824c0,3.149,1.199,6.149,3.449,8.399l9.227,9.226c2.324,2.176,5.25,3.449,8.398,3.449
	c3.149,0,6.075-1.199,8.399-3.449l0.75-0.898l1.726,1.648l-0.824,0.899c-2.176,2.175-3.449,5.25-3.449,8.398
	c0,3.149,1.273,6.149,3.449,8.324l9.074,9.227c2.325,2.176,5.25,3.449,8.399,3.449c3.148,0,6.074-1.199,8.398-3.449l6.899-6.899
	c2.25-2.324,3.449-5.25,3.449-8.476c0-3.149-1.199-6.074-3.449-8.324L54.672,31.199z"/> </symbol></svg>