<?xml version="1.0" standalone="no"?>
<!DOCTYPE svg PUBLIC "-//W3C//DTD SVG 20010904//EN"
 "http://www.w3.org/TR/2001/REC-SVG-20010904/DTD/svg10.dtd">
<svg version="1.0" xmlns="http://www.w3.org/2000/svg"
 width="700.000000pt" height="700.000000pt" viewBox="0 0 700.000000 700.000000"
 preserveAspectRatio="xMidYMid meet">
<metadata>
Created by potrace 1.11, written by Peter Selinger 2001-2013
</metadata>
<g transform="translate(0.000000,700.000000) scale(0.100000,-0.100000)"
fill="#000000" stroke="none">
<path d="M3817 6674 c-1 -1 -38 -4 -82 -8 -195 -16 -347 -46 -537 -107 -441
-141 -862 -444 -1238 -889 -30 -36 -58 -67 -61 -70 -21 -16 -276 -367 -363
-498 -166 -253 -188 -289 -285 -457 -306 -531 -467 -993 -508 -1460 -13 -144
-4 -567 13 -596 1 -3 6 -28 9 -55 4 -27 8 -56 10 -64 2 -8 7 -31 10 -50 26
-156 105 -391 186 -557 158 -324 378 -572 693 -781 228 -152 519 -288 841
-393 72 -23 146 -48 165 -54 19 -7 80 -25 135 -40 55 -14 123 -33 150 -40 28
-8 102 -26 165 -41 63 -14 122 -27 130 -29 50 -12 362 -74 395 -79 43 -7 81
-13 130 -21 17 -3 66 -9 110 -15 44 -5 94 -12 110 -14 17 -2 64 -7 105 -10 41
-4 95 -9 120 -12 117 -13 515 -6 630 11 14 2 45 7 70 10 91 13 237 47 324 76
348 117 569 313 735 651 61 126 142 363 167 493 2 11 6 31 9 45 22 99 41 208
51 288 3 26 7 58 9 72 6 34 21 185 31 305 14 175 19 406 19 900 0 570 -7 809
-30 1040 -2 28 -7 82 -10 120 -3 39 -8 86 -10 105 -3 19 -7 58 -11 85 -3 28
-12 91 -20 140 -8 50 -17 104 -20 120 -3 17 -7 37 -9 45 -2 8 -7 31 -10 50
-29 173 -124 469 -209 655 -285 615 -851 997 -1646 1109 -104 14 -460 30 -473
20z"/>
</g>
</svg>
