<svg xmlns="http://www.w3.org/2000/svg" xmlns:xlink="http://www.w3.org/1999/xlink" viewBox="0 0 750 500"><defs><style>.a{isolation:isolate;}.b{fill:#f7fbfc;}.c,.d,.e,.f,.h,.j,.k,.m,.n,.p,.r,.t,.v{opacity:0.5;mix-blend-mode:multiply;}.c{fill:url(#a);}.d{fill:url(#b);}.e{fill:url(#c);}.f{fill:url(#d);}.g{fill:url(#e);}.h{fill:url(#f);}.i{fill:#fff;}.j{fill:url(#g);}.k{fill:url(#h);}.l{fill:url(#i);}.m{fill:url(#j);}.n{fill:url(#k);}.o{fill:url(#l);}.p{fill:url(#m);}.q{fill:url(#n);}.r{fill:url(#o);}.s{fill:url(#p);}.t{fill:url(#q);}.u{fill:url(#r);}.v{fill:url(#s);}.w{fill:url(#t);}</style><linearGradient id="a" x1="373.57" y1="275.33" x2="353.29" y2="633.47" gradientUnits="userSpaceOnUse"><stop offset="0" stop-color="#fff" stop-opacity="0"/><stop offset="1" stop-color="#59595b"/></linearGradient><linearGradient id="b" x1="448.5" y1="413.76" x2="320.11" y2="127.69" xlink:href="#a"/><linearGradient id="c" x1="398.18" y1="276.66" x2="285.56" y2="147.14" xlink:href="#a"/><linearGradient id="d" x1="387.56" y1="338.9" x2="321.68" y2="-127.36" xlink:href="#a"/><linearGradient id="e" x1="454.28" y1="353.32" x2="390.08" y2="195.65" gradientUnits="userSpaceOnUse"><stop offset="0" stop-color="#fff" stop-opacity="0"/><stop offset="1" stop-color="#fff"/></linearGradient><linearGradient id="f" x1="502.03" y1="337.63" x2="511.04" y2="418.72" xlink:href="#a"/><linearGradient id="g" x1="536.63" y1="370.49" x2="549.02" y2="459.46" xlink:href="#a"/><linearGradient id="h" x1="473.07" y1="438.6" x2="476.45" y2="527.57" xlink:href="#a"/><linearGradient id="i" x1="194.14" y1="412.34" x2="750" y2="412.34" xlink:href="#e"/><linearGradient id="j" x1="339.91" y1="221.93" x2="120.3" y2="46.24" xlink:href="#a"/><linearGradient id="k" x1="360.18" y1="192.62" x2="307.81" y2="-10.11" xlink:href="#a"/><linearGradient id="l" x1="403.35" y1="299.62" x2="349.29" y2="171.23" xlink:href="#e"/><linearGradient id="m" x1="300.55" y1="240.21" x2="103.96" y2="43.62" xlink:href="#a"/><linearGradient id="n" x1="249.48" y1="144.24" x2="331.51" y2="275.72" xlink:href="#e"/><linearGradient id="o" x1="137.87" y1="213.26" x2="61.29" y2="120.91" xlink:href="#a"/><linearGradient id="p" x1="98.65" y1="192.93" x2="158.34" y2="241.35" xlink:href="#e"/><linearGradient id="q" x1="125.25" y1="194.39" x2="-52.13" y2="91.34" xlink:href="#a"/><linearGradient id="r" x1="50.2" y1="143.59" x2="163.95" y2="216.8" xlink:href="#e"/><linearGradient id="s" x1="85.57" y1="48.52" x2="-2.65" y2="-37.76" xlink:href="#a"/><linearGradient id="t" x1="112.03" y1="29.12" x2="115.4" y2="49.91" xlink:href="#e"/></defs><title>background</title><g class="a"><rect class="b" width="750" height="500"/><rect class="c" width="750" height="500"/><rect class="d" width="750" height="500"/><path class="b" d="M750,0V175.81c-36.27,24.87-83.63,36.09-128.46,39.2-65.11,4.51-131.72-3.43-194.93,12.82-79,20.31-145,77.37-190,145.48C208.22,416.4,185.8,465.72,148.21,500H0V0Z"/><path class="e" d="M750,0V175.81c-36.27,24.87-83.63,36.09-128.46,39.2-65.11,4.51-131.72-3.43-194.93,12.82-79,20.31-145,77.37-190,145.48C208.22,416.4,185.8,465.72,148.21,500H0V0Z"/><path class="f" d="M750,0V175.81c-36.27,24.87-83.63,36.09-128.46,39.2-65.11,4.51-131.72-3.43-194.93,12.82-79,20.31-145,77.37-190,145.48C208.22,416.4,185.8,465.72,148.21,500H0V0Z"/><path class="g" d="M750,173v2.78c-36.27,24.87-83.63,36.09-128.46,39.2-65.11,4.51-131.72-3.43-194.93,12.82-79,20.31-145,77.37-190,145.48C208.22,416.4,185.8,465.72,148.21,500h-3.34c39-34.35,61.73-84.79,90.73-128.74,44.93-68.12,110.93-125.17,190-145.48,63.21-16.25,129.82-8.31,194.92-12.82C665.75,209.82,713.6,198.41,750,173Z"/><path class="b" d="M750,285.19V500H266.28c2.16-36.05,8.91-73.42,32.16-100.79a103.78,103.78,0,0,1,18-16.65c.71-.53,1.42-1,2.14-1.53,33.18-23.09,78.71-27.9,120.12-24.32,4.34.37,8.68.82,13,1.32,1.86.21,3.72.44,5.58.67,44.32,5.55,88.45,15.89,132.8,11.61,1.86-.18,3.71-.38,5.56-.62s3.6-.47,5.4-.75C658.16,360.25,710.19,327.55,750,285.19Z"/><path class="h" d="M750,285.19V500H266.28c2.16-36.05,8.91-73.42,32.16-100.79a103.78,103.78,0,0,1,18-16.65c.71-.53,1.42-1,2.14-1.53,33.18-23.09,78.71-27.9,120.12-24.32,4.34.37,8.68.82,13,1.32,1.86.21,3.72.44,5.58.67,44.32,5.55,88.45,15.89,132.8,11.61,1.86-.18,3.71-.38,5.56-.62s3.6-.47,5.4-.75C658.16,360.25,710.19,327.55,750,285.19Z"/><path class="i" d="M750,285.19v1.63c-38.62,41-88.68,72.92-143.76,82.68-1.69.31-3.37.59-5.07.84q-5.43.82-10.91,1.36c-46.22,4.47-92.19-6.95-138.39-12.27-1.74-.21-3.48-.4-5.23-.58q-3.88-.42-7.77-.75c-40.5-3.49-84.95,1-117.93,22.83-.75.49-1.49,1-2.23,1.51a104.38,104.38,0,0,0-20.06,18.16c-22.95,27-29.81,63.78-32.06,99.4h-.31c2.16-36.05,8.91-73.42,32.16-100.79a103.78,103.78,0,0,1,18-16.65c.71-.53,1.42-1,2.14-1.53,33.18-23.09,78.71-27.9,120.12-24.32,4.34.37,8.68.82,13,1.32,1.86.21,3.72.44,5.58.67,44.32,5.55,88.45,15.89,132.8,11.61,1.86-.18,3.71-.38,5.56-.62s3.6-.47,5.4-.75C658.16,360.25,710.19,327.55,750,285.19Z"/><path class="b" d="M750,341.38V500H337.24c2.16-36.05,8.9-73.42,32.15-100.79A103.37,103.37,0,0,1,380,388.46l1.3-1.12c18.16-15.41,41.06-24.25,65.37-28.49,1.67-.3,3.34-.57,5-.82a251,251,0,0,1,57.94-1.32c30.54,2.63,61,8.82,91.4,12.23,1.74.2,3.49.39,5.23.56,18.23,1.85,36.48,2.58,54.76.81a212.38,212.38,0,0,0,49.19-10.89l3-1.06A247,247,0,0,0,750,341.38Z"/><path class="j" d="M750,341.38V500H337.24c2.16-36.05,8.9-73.42,32.15-100.79A103.37,103.37,0,0,1,380,388.46l1.3-1.12c18.16-15.41,41.06-24.25,65.37-28.49,1.67-.3,3.34-.57,5-.82a251,251,0,0,1,57.94-1.32c30.54,2.63,61,8.82,91.4,12.23,1.74.2,3.49.39,5.23.56,18.23,1.85,36.48,2.58,54.76.81a212.38,212.38,0,0,0,49.19-10.89l3-1.06A247,247,0,0,0,750,341.38Z"/><path class="i" d="M750,341.38v1.52a245.87,245.87,0,0,1-39.91,18l-2.94,1a210.88,210.88,0,0,1-45.94,9.79c-20,1.94-40,.89-60-1.36q-2.77-.3-5.56-.65c-28.56-3.5-57.12-9.11-85.79-11.59a256.81,256.81,0,0,0-52.57.6q-2.7.33-5.38.73c-25.6,3.79-49.9,12.45-69.12,28.25-.44.36-.89.73-1.32,1.11A102.26,102.26,0,0,0,369.6,400.6c-22.94,27-29.81,63.78-32.06,99.4h-.3c2.16-36.05,8.9-73.42,32.15-100.79A103.37,103.37,0,0,1,380,388.46l1.3-1.12c18.16-15.41,41.06-24.25,65.37-28.49,1.67-.3,3.34-.57,5-.82a251,251,0,0,1,57.94-1.32c30.54,2.63,61,8.82,91.4,12.23,1.74.2,3.49.39,5.23.56,18.23,1.85,36.48,2.58,54.76.81a212.38,212.38,0,0,0,49.19-10.89l3-1.06A247,247,0,0,0,750,341.38Z"/><path class="b" d="M750,324.69V500H194.14c7.64-34,20-68.17,46.12-90.85,21.65-18.82,49.37-26.85,78.28-28.12l2.4-.1c20.14-.62,40.79,2,60.33,6.41l1.48.34,2.53.6c49.36,11.94,96.91,33.47,147.61,36.27,63.05,3.47,125.06-23,174.26-62.64l.83-.67c.74-.6,1.48-1.2,2.21-1.82C723.68,348.32,736.66,336.18,750,324.69Z"/><path class="k" d="M750,324.69V500H194.14c7.64-34,20-68.17,46.12-90.85,21.65-18.82,49.37-26.85,78.28-28.12l2.4-.1c20.14-.62,40.79,2,60.33,6.41l1.48.34,2.53.6c49.36,11.94,96.91,33.47,147.61,36.27,63.05,3.47,125.06-23,174.26-62.64l.83-.67c.74-.6,1.48-1.2,2.21-1.82C723.68,348.32,736.66,336.18,750,324.69Z"/><path class="l" d="M750,324.69v1.41c-12.35,10.64-24.39,21.85-36.82,32.26-1,.86-2,1.72-3.09,2.56-.7.58-1.4,1.16-2.11,1.73-49.33,40-111.69,66.8-175.09,63.31-50.7-2.79-98.25-24.32-147.61-36.27-1.28-.31-2.56-.61-3.85-.9-.49-.12-1-.23-1.46-.33-19.88-4.43-40.87-6.91-61.26-6l-2.31.12c-28.14,1.56-55,9.65-76.14,28-25.73,22.37-38.13,55.88-45.8,89.44h-.32c7.64-34,20-68.17,46.12-90.85,21.65-18.82,49.37-26.85,78.28-28.12l2.4-.1c20.14-.62,40.79,2,60.33,6.41l1.48.34,2.53.6c49.36,11.94,96.91,33.47,147.61,36.27,63.05,3.47,125.06-23,174.26-62.64l.83-.67c.74-.6,1.48-1.2,2.21-1.82C723.68,348.32,736.66,336.18,750,324.69Z"/><path class="b" d="M750,0V66.45A144.94,144.94,0,0,1,733.26,107c-34.11,55.65-104.58,77.2-169.69,81.63S431.85,185,368.63,201.21c-79.05,20.22-145.13,77.2-190.13,145.26-32.46,49.08-57.13,106.26-105.33,140A138.73,138.73,0,0,1,49,500H0V0Z"/><path class="m" d="M750,0V66.45A144.94,144.94,0,0,1,733.26,107c-34.11,55.65-104.58,77.2-169.69,81.63S431.85,185,368.63,201.21c-79.05,20.22-145.13,77.2-190.13,145.26-32.46,49.08-57.13,106.26-105.33,140A138.73,138.73,0,0,1,49,500H0V0Z"/><path class="n" d="M750,0V66.45A144.94,144.94,0,0,1,733.26,107c-34.11,55.65-104.58,77.2-169.69,81.63S431.85,185,368.63,201.21c-79.05,20.22-145.13,77.2-190.13,145.26-32.46,49.08-57.13,106.26-105.33,140A138.73,138.73,0,0,1,49,500H0V0Z"/><path class="o" d="M750,63.36v3.09A144.94,144.94,0,0,1,733.26,107c-34.11,55.65-104.58,77.2-169.69,81.63S431.85,185,368.63,201.21c-79.05,20.22-145.13,77.2-190.13,145.26-32.46,49.08-57.13,106.26-105.33,140A138.73,138.73,0,0,1,49,500H41.6a141.41,141.41,0,0,0,31.56-16.53c48.2-33.75,72.87-90.93,105.32-140,45-68.06,111.08-125,190.13-145.26C431.84,182,498.44,190,563.55,185.61s135.59-26,169.69-81.63A145,145,0,0,0,750,63.36Z"/><path class="b" d="M620.68,0q-.76,2.13-1.62,4.23c-24.51,60.5-90.48,93.33-154,108.4s-130.52,18.12-190.23,44.45c-74.65,32.94-130.47,100-163.67,174.53-24,53.75-38.9,114.2-80.9,155.41A136,136,0,0,1,15,500H0V0Z"/><path class="p" d="M620.68,0q-.76,2.13-1.62,4.23c-24.51,60.5-90.48,93.33-154,108.4s-130.52,18.12-190.23,44.45c-74.65,32.94-130.47,100-163.67,174.53-24,53.75-38.9,114.2-80.9,155.41A136,136,0,0,1,15,500H0V0Z"/><path class="q" d="M620.68,0q-.76,2.13-1.62,4.23c-24.51,60.5-90.48,93.33-154,108.4s-130.52,18.12-190.23,44.45c-74.65,32.94-130.47,100-163.67,174.53-24,53.75-38.9,114.2-80.9,155.41A136,136,0,0,1,15,500H10.25a139.68,139.68,0,0,0,19.54-15.94c42-41.21,56.94-101.67,80.88-155.42,33.22-74.53,89-141.59,163.68-174.52,59.71-26.34,126.72-29.38,190.22-44.45s129.48-47.92,154-108.41c.17-.42.34-.84.5-1.26Z"/><path class="b" d="M336.35,18.2c-5.33,50.5-47.61,89.23-91.86,114.15s-93.72,41.58-132.71,74.11C63,247.12,35.69,309.27,26.86,372.14c-6.07,43.18-4.7,89.16-24,127.86H0V56.19L117.89,0H336.67A106.54,106.54,0,0,1,336.35,18.2Z"/><path class="r" d="M336.35,18.2c-5.33,50.5-47.61,89.23-91.86,114.15s-93.72,41.58-132.71,74.11C63,247.12,35.69,309.27,26.86,372.14c-6.07,43.18-4.7,89.16-24,127.86H0V56.19L117.89,0H336.67A106.54,106.54,0,0,1,336.35,18.2Z"/><path class="s" d="M336.35,18.2c-5.33,50.5-47.61,89.23-91.86,114.15s-93.72,41.58-132.71,74.11C63,247.12,35.69,309.27,26.86,372.14c-6.07,43.18-4.7,89.16-24,127.86H1.32c19.9-38.91,18.46-85.32,24.58-128.89,8.82-62.88,36.16-125,84.91-165.69,39-32.53,88.46-49.19,132.71-74.11s86.54-63.64,91.86-114.14A106.08,106.08,0,0,0,335.77,0h.9A106.54,106.54,0,0,1,336.35,18.2Z"/><path class="b" d="M330.25,0C312.15,24.07,285.88,43.43,259,57.8,214.23,81.74,164.42,97.33,124.72,129c-49.63,39.59-78.3,101.13-88.49,163.8-7.35,45.19-6.59,93.64-30,133A107,107,0,0,1,0,435.1V0Z"/><path class="t" d="M330.25,0C312.15,24.07,285.88,43.43,259,57.8,214.23,81.74,164.42,97.33,124.72,129c-49.63,39.59-78.3,101.13-88.49,163.8-7.35,45.19-6.59,93.64-30,133A107,107,0,0,1,0,435.1V0Z"/><path class="u" d="M330.25,0C312.15,24.07,285.88,43.43,259,57.8,214.23,81.74,164.42,97.33,124.72,129c-49.63,39.59-78.3,101.13-88.49,163.8-7.35,45.19-6.59,93.64-30,133A107,107,0,0,1,0,435.1v-2.32q2.82-3.88,5.29-8c23.41-39.34,22.65-87.8,30-133,10.19-62.66,38.86-124.2,88.49-163.8,39.7-31.67,89.51-47.26,134.29-71.21C284.55,42.59,310.44,23.58,328.52,0Z"/><path class="b" d="M241.51,0c-18.1,24.07-44.37,43.43-71.24,57.8C125.49,81.74,75.68,97.33,36,129A212,212,0,0,0,0,165.88V0Z"/><path class="v" d="M241.51,0c-18.1,24.07-44.37,43.43-71.24,57.8C125.49,81.74,75.68,97.33,36,129A212,212,0,0,0,0,165.88V0Z"/><path class="w" d="M241.51,0c-18.1,24.07-44.37,43.43-71.24,57.8C125.49,81.74,75.68,97.33,36,129A212,212,0,0,0,0,165.88v-2.27A211.83,211.83,0,0,1,35,128c39.7-31.67,89.51-47.26,134.29-71.21C195.81,42.59,221.7,23.58,239.78,0Z"/></g></svg>