<?xml version="1.0" encoding="utf-8"?>
<!-- Generator: Adobe Illustrator 17.0.0, SVG Export Plug-In . SVG Version: 6.00 Build 0)  -->
<!DOCTYPE svg PUBLIC "-//W3C//DTD SVG 1.1//EN" "http://www.w3.org/Graphics/SVG/1.1/DTD/svg11.dtd">
<svg version="1.1" id="Calque_1" xmlns="http://www.w3.org/2000/svg" xmlns:xlink="http://www.w3.org/1999/xlink" x="0px" y="0px"
	 width="50.815px" height="59.998px" viewBox="0 0 50.815 59.998" enable-background="new 0 0 50.815 59.998" xml:space="preserve">
<path d="M50.759,48.926c-1.469-9.254-9.176-16.25-17.965-18.836c3.777-4.183,5.785-11.008,5.793-15.633
	C38.598,7.364,32.747,0,25.29,0S11.981,7.367,11.993,14.457c0.008,4.645,2.035,11.508,5.844,15.688
	C9.126,32.774,1.512,39.739,0.055,48.926c-0.601,3.805,3.84,6.332,6.711,7.625c5.637,2.539,12.079,3.402,18.215,3.445
	c6.211,0.047,12.703-0.757,18.461-3.187C46.466,55.535,51.395,52.949,50.759,48.926z"/>
</svg>
