<?xml version="1.0" encoding="utf-8"?>
<!-- Generator: Adobe Illustrator 17.0.0, SVG Export Plug-In . SVG Version: 6.00 Build 0)  -->
<!DOCTYPE svg PUBLIC "-//W3C//DTD SVG 1.1//EN" "http://www.w3.org/Graphics/SVG/1.1/DTD/svg11.dtd">
<svg version="1.1" id="Calque_1" xmlns="http://www.w3.org/2000/svg" xmlns:xlink="http://www.w3.org/1999/xlink" x="0px" y="0px"
	 width="48.82px" height="54.524px" viewBox="0 0 48.82 54.524" enable-background="new 0 0 48.82 54.524" xml:space="preserve">
<path d="M27.41,46.789V28.996l15.41-8.898v17.797L27.41,46.789z M6,37.895V20.098l15.41,8.898v17.797L6,37.895z M24.41,6
	l15.41,8.899l-15.41,8.898L9,14.899L24.41,6z M45.82,11.438L27.41,0.805C26.48,0.27,25.445,0,24.41,0s-2.074,0.27-3,0.805L3,11.438
	c-1.856,1.07-3,3.051-3,5.195v21.262c0,2.144,1.144,4.125,3,5.195l18.41,10.629c0.93,0.535,1.965,0.805,3,0.805s2.07-0.27,3-0.805
	L45.82,43.09c1.856-1.074,3-3.051,3-5.195V16.633C48.82,14.489,47.676,12.508,45.82,11.438z"/>
</svg>
