<?xml version="1.0" encoding="utf-8"?>
<!-- Generator: Adobe Illustrator 17.0.0, SVG Export Plug-In . SVG Version: 6.00 Build 0)  -->
<!DOCTYPE svg PUBLIC "-//W3C//DTD SVG 1.1//EN" "http://www.w3.org/Graphics/SVG/1.1/DTD/svg11.dtd">
<svg version="1.1" id="Calque_1" xmlns="http://www.w3.org/2000/svg" xmlns:xlink="http://www.w3.org/1999/xlink" x="0px" y="0px"
	 width="27.5px" height="36.484px" viewBox="0 0 27.5 36.484" enable-background="new 0 0 27.5 36.484" xml:space="preserve">
<path d="M0.703,10.781l3.125,23.984c0,0.938,0.781,1.719,1.797,1.719h16.25c1.016,0,1.797-0.781,1.797-1.719l3.125-23.984H0.703z"/>
<path d="M24.922,2.578c1.406,0,2.578,0.547,2.578,1.25v2.734c0,0.703-1.172,0.547-2.578,0.547H2.578C1.172,7.109,0,7.265,0,6.562
	V3.828c0-0.703,1.172-1.25,2.578-1.25l5.156-0.469L9.609,0h8.047l1.953,2.109L24.922,2.578z"/>
</svg>
