<?xml version="1.0" encoding="utf-8"?>
<!-- Generator: Adobe Illustrator 17.0.0, SVG Export Plug-In . SVG Version: 6.00 Build 0)  -->
<!DOCTYPE svg PUBLIC "-//W3C//DTD SVG 1.1//EN" "http://www.w3.org/Graphics/SVG/1.1/DTD/svg11.dtd">
<svg version="1.1" id="Calque_1" xmlns="http://www.w3.org/2000/svg" xmlns:xlink="http://www.w3.org/1999/xlink" x="0px" y="0px"
	 width="67.344px" height="67.496px" viewBox="0 0 67.344 67.496" enable-background="new 0 0 67.344 67.496" xml:space="preserve">
<path d="M59.996,48.676c0,1.273-0.449,2.398-1.273,3.226l-6.899,6.977c-1.648,1.648-4.574,1.648-6.3,0l-9.227-9.305
	c-0.824-0.824-1.352-1.949-1.352-3.148c0-1.199,0.524-2.324,1.352-3.149l0.824-0.898c0,0,4.125,4.125,4.352,4.273
	c1.426,1.426,3.75,1.426,5.176,0c1.5-1.425,1.5-3.75,0-5.25c-0.075-0.226-4.274-4.273-4.274-4.273l0.899-0.824
	c0.75-0.899,1.949-1.352,3.148-1.352s2.324,0.524,3.148,1.352l9.227,9.148C59.547,46.426,59.996,47.477,59.996,48.676z
	 M24.149,31.199c-1.649,1.649-4.649,1.649-6.375,0l-9.079-9.222c-0.898-0.899-1.351-1.95-1.351-3.149
	c0-1.199,0.449-2.324,1.351-3.148l6.977-6.977c0.75-0.824,1.949-1.273,3.148-1.273c1.2,0,2.325,0.449,3.149,1.273l9.226,9.227
	c0.825,0.898,1.274,1.949,1.274,3.148c0,1.199-0.449,2.324-1.274,3.227l-0.898,0.824l-4.273-4.274c-1.352-1.425-3.75-1.425-5.25,0
	c-1.426,1.426-1.426,3.75,0,5.25l4.273,4.274L24.149,31.199z M54.672,31.199c-2.176-2.25-5.176-3.449-8.324-3.449
	c-3.149,0-6.149,1.199-8.399,3.449l-0.898,0.824l-1.649-1.648l0.899-0.824c2.25-2.25,3.449-5.25,3.449-8.477
	c0-3.148-1.199-6.074-3.449-8.324L27.07,3.449C24.899,1.273,21.899,0,18.746,0c-3.226,0-6.148,1.199-8.398,3.449l-6.899,6.977
	C1.199,12.676,0,15.602,0,18.824c0,3.149,1.199,6.149,3.449,8.399l9.227,9.226c2.324,2.176,5.25,3.449,8.398,3.449
	c3.149,0,6.075-1.199,8.399-3.449l0.75-0.898l1.726,1.648l-0.824,0.899c-2.176,2.175-3.449,5.25-3.449,8.398
	c0,3.149,1.273,6.149,3.449,8.324l9.074,9.227c2.325,2.176,5.25,3.449,8.399,3.449c3.148,0,6.074-1.199,8.398-3.449l6.899-6.899
	c2.25-2.324,3.449-5.25,3.449-8.476c0-3.149-1.199-6.074-3.449-8.324L54.672,31.199z"/>
</svg>
