<?xml version="1.0" encoding="utf-8"?>
<!-- Generator: Adobe Illustrator 17.0.0, SVG Export Plug-In . SVG Version: 6.00 Build 0)  -->
<!DOCTYPE svg PUBLIC "-//W3C//DTD SVG 1.1//EN" "http://www.w3.org/Graphics/SVG/1.1/DTD/svg11.dtd">
<svg version="1.1" id="objects" xmlns="http://www.w3.org/2000/svg" xmlns:xlink="http://www.w3.org/1999/xlink" x="0px" y="0px"
	 width="412.861px" height="325.144px" viewBox="0 0 412.861 325.144" enable-background="new 0 0 412.861 325.144"
	 xml:space="preserve">
<g>
	<g>
		<g>
			<path fill="#BCBEC0" d="M225.534,96.893c0-6.775-5.492-12.266-12.268-12.266c-6.773,0-12.266,5.491-12.266,12.266
				c0,0.16,0.018,0.317,0.024,0.476h24.484C225.517,97.21,225.534,97.053,225.534,96.893z"/>
			<g>
				<g>
					<path fill="#BCBEC0" d="M209.225,96.205c1.2-2.08,0.488-4.739-1.592-5.94l-19.47-11.241l-1.435-23.434
						c-0.112-1.844-1.698-3.247-3.542-3.134c-1.845,0.113-3.247,1.698-3.135,3.543l1.163,19.013l-6.685-3.86l-1.407-17.301
						c-0.15-1.841-1.764-3.213-3.606-3.063c-1.841,0.15-3.214,1.764-3.063,3.606l1.032,12.692l-6.339-3.66l-1.355-12.464
						c-0.2-1.837-1.851-3.164-3.688-2.964c-1.837,0.2-3.164,1.85-2.964,3.688l0.825,7.594l-7.447-4.3
						c-0.193-2.674-1.665-5.21-4.163-6.652c-3.999-2.309-9.114-0.938-11.423,3.062c-2.31,4-0.939,9.115,3.061,11.424
						c2.74,1.582,6.003,1.436,8.529-0.098l7.021,4.055l-6.779,2.918c-1.698,0.732-2.481,2.7-1.75,4.396
						c0.73,1.697,2.699,2.48,4.396,1.749l11.36-4.892l6.345,3.664l-11.349,5.259c-1.675,0.775-2.404,2.764-1.628,4.442
						c0.776,1.676,2.765,2.406,4.441,1.629l15.622-7.239l6.701,3.869l-16.946,8.272c-1.661,0.812-2.349,2.814-1.539,4.474
						c0.81,1.66,2.814,2.349,4.474,1.539l20.999-10.25l18.652,10.769h5.699C208.622,97.05,208.96,96.663,209.225,96.205z"/>
				</g>
				<g>
					<path fill="#BCBEC0" d="M223.821,96.81l19.47-11.24l21.011,10.474c1.654,0.825,3.662,0.152,4.486-1.501
						c0.826-1.653,0.154-3.661-1.501-4.486l-17.046-8.498l6.684-3.86l15.688,7.433c1.67,0.79,3.664,0.079,4.456-1.591
						c0.791-1.669,0.08-3.666-1.59-4.455l-11.509-5.453l6.338-3.66l11.475,5.058c1.689,0.746,3.665-0.021,4.41-1.711
						c0.745-1.691-0.021-3.665-1.713-4.411l-6.988-3.081l7.446-4.3c2.413,1.171,5.344,1.164,7.842-0.277
						c4-2.31,5.37-7.425,3.061-11.425c-2.31-4-7.424-5.371-11.425-3.062c-2.74,1.582-4.245,4.48-4.18,7.435l-7.023,4.055
						l0.862-7.331c0.215-1.836-1.098-3.498-2.934-3.713c-1.832-0.216-3.495,1.097-3.712,2.933l-1.443,12.284l-6.344,3.663
						l1.118-12.457c0.165-1.838-1.19-3.465-3.032-3.631c-1.841-0.165-3.466,1.193-3.632,3.032l-1.54,17.147l-6.701,3.869
						l1.309-18.812c0.127-1.844-1.264-3.442-3.105-3.57c-1.842-0.128-3.441,1.263-3.569,3.106l-1.622,23.31l-19.395,11.199
						c-2.081,1.201-2.794,3.86-1.592,5.94c0.729,1.263,1.996,2.017,3.344,2.15h0.854C222.675,97.31,223.269,97.13,223.821,96.81z"/>
					<path fill="#BCBEC0" d="M222.079,97.369h-0.854C221.509,97.396,221.793,97.397,222.079,97.369z"/>
				</g>
				<g>
					<path fill="#BCBEC0" d="M238.136,48.788c-1.02-1.541-3.094-1.964-4.636-0.944l-15.884,10.515v-7.72l14.28-9.869
						c1.52-1.05,1.9-3.134,0.85-4.654c-1.05-1.52-3.135-1.902-4.653-0.851l-10.477,7.24v-7.32l10.117-7.406
						c1.49-1.091,1.814-3.185,0.723-4.675c-1.092-1.492-3.185-1.815-4.675-0.724l-6.165,4.513v-8.601
						c2.221-1.503,3.681-4.045,3.681-6.929c0-4.619-3.745-8.363-8.363-8.363c-4.62,0-8.363,3.745-8.363,8.363
						c0,3.163,1.756,5.917,4.349,7.337v8.109L203,22.397c-1.483-1.104-3.577-0.799-4.68,0.683c-1.105,1.482-0.799,3.578,0.683,4.682
						l9.916,7.392v7.326l-10.229-7.198c-1.509-1.063-3.596-0.701-4.661,0.811c-1.062,1.511-0.7,3.598,0.811,4.661l14.08,9.908v7.738
						L193.282,47.86c-1.534-1.033-3.612-0.627-4.644,0.904c-1.033,1.532-0.627,3.611,0.903,4.644l19.378,13.061v22.396
						c0,2.402,1.947,4.348,4.348,4.348c2.402,0,4.35-1.946,4.35-4.348V66.382l19.577-12.958
						C238.734,52.403,239.156,50.328,238.136,48.788z"/>
				</g>
			</g>
			<path fill="#BCBEC0" d="M196.885,87.454l16.674-9.704l16.741,9.589l0.034,10.03h6.023l-0.041-11.789
				c-0.003-1.076-0.58-2.067-1.515-2.603l-19.758-11.316c-0.934-0.535-2.082-0.531-3.011,0.01l-19.679,11.452
				c-0.93,0.541-1.501,1.537-1.497,2.612l0.04,11.633h6.022L196.885,87.454z"/>
			<g>
				<circle fill="#BCBEC0" cx="177.251" cy="36.039" r="6.914"/>
				<path fill="#BCBEC0" d="M137.626,96.893c0-3.818-3.096-6.914-6.914-6.914c-3.818,0-6.914,3.096-6.914,6.914
					c0,0.16,0.013,0.318,0.024,0.476h13.78C137.613,97.211,137.626,97.053,137.626,96.893z"/>
				<path fill="#BCBEC0" d="M301.325,97.043c0-3.818-3.096-6.914-6.915-6.914c-3.817,0-6.912,3.095-6.912,6.914
					c0,0.11,0.01,0.218,0.016,0.326h13.796C301.314,97.26,301.325,97.153,301.325,97.043z"/>
				<circle fill="#BCBEC0" cx="250.953" cy="36.039" r="6.913"/>
			</g>
		</g>
		<g>
			<path fill="#BCBEC0" d="M147.773,145.094l-2.582-12.403l-8.1,12.403l-7.999-12.859l-3.291,12.859h-13.568l8.859-35.893h10.176
				l7.138,16.099c1.485-2.43,2.928-4.987,4.329-7.67c1.4-2.683,2.759-5.493,4.075-8.429h9.821c0.506,6.21,1.266,12.311,2.278,18.301
				c1.012,5.991,2.345,11.855,4,17.592H147.773z"/>
			<path fill="#BCBEC0" d="M184.856,118.187c-2.109-0.051-4.228,0.009-6.354,0.177c-0.034,0.675-0.051,1.367-0.051,2.076
				c0,0.708,0,1.417,0,2.126c2.093,0.135,4.177,0.177,6.252,0.126c2.076-0.05,4.143-0.244,6.202-0.582l-2.126,9.568h-10.379
				c0,0.337,0.008,0.683,0.025,1.038c0.017,0.354,0.025,0.718,0.025,1.088c0,0.338,0.008,0.684,0.025,1.038
				c0.017,0.354,0.025,0.717,0.025,1.088c2.092,0.135,4.177,0.177,6.252,0.126c2.076-0.051,4.143-0.245,6.202-0.582l-2.127,9.619
				c-2.093,0-4.176,0-6.252,0c-2.075,0-4.16,0-6.252,0c-2.093,0-4.177,0-6.252,0c-2.076,0-4.16,0-6.253,0
				c0.135-3.003,0.229-5.999,0.278-8.986c0.051-2.987,0.076-5.982,0.076-8.986c0-2.969-0.034-5.956-0.101-8.96
				c-0.068-3.003-0.152-5.99-0.254-8.96c2.093,0,4.185,0,6.277,0s4.202,0,6.329,0c2.092,0,4.184,0,6.277,0c2.092,0,4.185,0,6.277,0
				l2.126,9.568C189.049,118.432,186.964,118.237,184.856,118.187z"/>
			<path fill="#BCBEC0" d="M216.977,145.803c-1.216-1.316-2.372-2.7-3.469-4.151c-1.097-1.451-2.169-2.902-3.214-4.354
				c-0.304-0.405-0.591-0.801-0.861-1.189c-0.27-0.388-0.54-0.785-0.81-1.19c-0.202-0.27-0.405-0.548-0.607-0.835
				c-0.202-0.287-0.405-0.565-0.607-0.835c0,0.708-0.025,1.511-0.076,2.405c-0.051,0.895-0.093,1.797-0.126,2.708
				c-0.034,0.304-0.06,0.599-0.076,0.886c-0.018,0.287-0.025,0.582-0.025,0.886c-0.068,1.047-0.127,2.009-0.178,2.886
				c-0.05,0.878-0.093,1.569-0.126,2.076h-13.112c0.169-1.89,0.295-3.864,0.38-5.923c0.084-2.058,0.127-4.167,0.127-6.328
				c0-0.979-0.009-1.965-0.025-2.961c-0.018-0.995-0.043-1.982-0.076-2.961c-0.102-3.105-0.245-6.167-0.431-9.188
				c-0.186-3.02-0.396-5.864-0.633-8.53h14.834c0.674,0,1.366,0.008,2.075,0.025c0.708,0.018,1.434,0.043,2.177,0.076
				c1.89,0.068,3.661,0.186,5.315,0.354c1.653,0.169,2.767,0.439,3.342,0.81c1.586,1.046,2.978,2.126,4.176,3.24
				s2.169,2.312,2.911,3.595c0.169,0.304,0.312,0.599,0.431,0.886c0.117,0.287,0.21,0.565,0.278,0.835
				c0.067,0.271,0.118,0.549,0.151,0.835c0.033,0.287,0.051,0.583,0.051,0.886c0,1.654-0.473,3.24-1.417,4.759
				c-0.945,1.519-1.992,2.919-3.139,4.202c-0.338,0.372-0.718,0.701-1.14,0.987c-0.422,0.287-0.886,0.532-1.392,0.734
				c0.404,1.013,0.919,2.194,1.544,3.544c0.624,1.35,1.392,2.717,2.304,4.101c0.573,0.844,1.197,1.679,1.873,2.506
				c0.675,0.828,1.399,1.629,2.177,2.405L216.977,145.803z M213.888,123.021c0.067-0.168,0.102-0.32,0.102-0.456
				c0-0.134-0.025-0.253-0.076-0.354c-0.051-0.101-0.126-0.202-0.228-0.304c-0.068-0.101-0.161-0.202-0.278-0.304
				c-0.119-0.101-0.245-0.219-0.38-0.354c-0.709-0.641-1.451-1.147-2.228-1.519c-0.776-0.371-1.553-0.725-2.328-1.063
				c-0.17-0.067-0.338-0.135-0.507-0.203c-0.169-0.067-0.338-0.134-0.506-0.203c-0.034,0.979-0.076,1.898-0.127,2.759
				s-0.076,1.696-0.076,2.506c-0.033,0.844-0.05,1.696-0.05,2.557s0,1.781,0,2.759c1.383-0.371,2.614-0.995,3.695-1.874
				c1.079-0.877,1.974-1.974,2.683-3.291C213.719,123.41,213.82,123.19,213.888,123.021z"/>
			<path fill="#BCBEC0" d="M257.224,145.803c-1.216-1.316-2.372-2.7-3.469-4.151c-1.097-1.451-2.169-2.902-3.214-4.354
				c-0.304-0.405-0.591-0.801-0.861-1.189c-0.271-0.388-0.54-0.785-0.81-1.19c-0.202-0.27-0.405-0.548-0.607-0.835
				c-0.203-0.287-0.405-0.565-0.607-0.835c0,0.708-0.025,1.511-0.076,2.405c-0.051,0.895-0.094,1.797-0.127,2.708
				c-0.033,0.304-0.059,0.599-0.075,0.886c-0.018,0.287-0.025,0.582-0.025,0.886c-0.068,1.047-0.127,2.009-0.178,2.886
				c-0.051,0.878-0.093,1.569-0.126,2.076h-13.112c0.169-1.89,0.295-3.864,0.38-5.923c0.084-2.058,0.126-4.167,0.126-6.328
				c0-0.979-0.008-1.965-0.024-2.961c-0.018-0.995-0.043-1.982-0.076-2.961c-0.102-3.105-0.245-6.167-0.431-9.188
				c-0.186-3.02-0.396-5.864-0.633-8.53h14.833c0.675,0,1.367,0.008,2.076,0.025c0.708,0.018,1.434,0.043,2.177,0.076
				c1.89,0.068,3.661,0.186,5.315,0.354c1.653,0.169,2.767,0.439,3.342,0.81c1.586,1.046,2.978,2.126,4.176,3.24
				s2.169,2.312,2.911,3.595c0.169,0.304,0.312,0.599,0.431,0.886c0.117,0.287,0.21,0.565,0.278,0.835
				c0.067,0.271,0.118,0.549,0.151,0.835c0.033,0.287,0.051,0.583,0.051,0.886c0,1.654-0.473,3.24-1.417,4.759
				c-0.945,1.519-1.992,2.919-3.139,4.202c-0.338,0.372-0.718,0.701-1.14,0.987c-0.422,0.287-0.886,0.532-1.392,0.734
				c0.404,1.013,0.919,2.194,1.544,3.544c0.624,1.35,1.392,2.717,2.304,4.101c0.573,0.844,1.197,1.679,1.873,2.506
				c0.675,0.828,1.399,1.629,2.177,2.405L257.224,145.803z M254.135,123.021c0.067-0.168,0.102-0.32,0.102-0.456
				c0-0.134-0.025-0.253-0.076-0.354c-0.051-0.101-0.126-0.202-0.228-0.304c-0.068-0.101-0.161-0.202-0.278-0.304
				c-0.119-0.101-0.245-0.219-0.38-0.354c-0.709-0.641-1.451-1.147-2.228-1.519c-0.776-0.371-1.553-0.725-2.329-1.063
				c-0.169-0.067-0.338-0.135-0.506-0.203c-0.169-0.067-0.338-0.134-0.506-0.203c-0.034,0.979-0.076,1.898-0.127,2.759
				s-0.076,1.696-0.076,2.506c-0.034,0.844-0.051,1.696-0.051,2.557s0,1.781,0,2.759c1.384-0.371,2.615-0.995,3.696-1.874
				c1.079-0.877,1.974-1.974,2.683-3.291C253.966,123.41,254.068,123.19,254.135,123.021z"/>
			<path fill="#BCBEC0" d="M294.281,145.094h-14.732l5.265-11.948l-10.884-23.945h13.618l4.404,10.833l4.101-10.833h12.353
				L294.281,145.094z"/>
		</g>
		<g>
			<path fill="#BCBEC0" d="M88.949,194.171c-5.717-0.926-10.483-3.065-14.298-6.418c-3.816-3.353-5.724-7.201-5.724-11.543
				c0-4.215,1.788-7.959,5.365-11.233c3.576-3.272,8.062-5.452,13.459-6.538l5.939,9.867c-2.619,0.543-4.766,1.509-6.442,2.898
				c-1.676,1.389-2.515,2.962-2.515,4.718c0,1.756,0.854,3.329,2.562,4.718c1.708,1.389,3.872,2.355,6.491,2.898L88.949,194.171z"/>
			<path fill="#BCBEC0" d="M115.197,193.453c0.064-1.852,0.12-3.696,0.168-5.532c0.048-1.836,0.087-3.68,0.12-5.533h-6.754
				c0.031,1.853,0.072,3.697,0.12,5.533c0.048,1.836,0.104,3.681,0.168,5.532H94.888c0.127-2.842,0.216-5.676,0.264-8.502
				c0.048-2.826,0.072-5.66,0.072-8.502c0-2.81-0.032-5.636-0.096-8.478c-0.064-2.842-0.144-5.668-0.24-8.479h14.131
				c-0.064,1.789-0.12,3.593-0.168,5.413c-0.048,1.82-0.088,3.641-0.12,5.461h6.754c-0.032-1.82-0.072-3.641-0.12-5.461
				c-0.048-1.82-0.104-3.624-0.168-5.413h14.13c-0.096,2.811-0.176,5.637-0.239,8.479c-0.064,2.842-0.096,5.668-0.096,8.478
				c0,2.843,0.024,5.676,0.072,8.502c0.048,2.826,0.135,5.66,0.263,8.502H115.197z"/>
			<path fill="#BCBEC0" d="M154.379,194.124c-1.149-1.245-2.244-2.554-3.281-3.928c-1.038-1.373-2.052-2.746-3.042-4.119
				c-0.288-0.383-0.559-0.758-0.814-1.125c-0.256-0.367-0.511-0.743-0.766-1.126c-0.192-0.255-0.383-0.519-0.575-0.79
				c-0.191-0.271-0.383-0.535-0.575-0.791c0,0.67-0.024,1.43-0.072,2.275c-0.048,0.846-0.088,1.7-0.12,2.562
				c-0.032,0.287-0.056,0.567-0.072,0.838c-0.017,0.271-0.024,0.551-0.024,0.838c-0.064,0.99-0.12,1.9-0.168,2.73
				c-0.048,0.831-0.088,1.485-0.12,1.964h-12.406c0.159-1.788,0.279-3.656,0.359-5.604c0.08-1.947,0.12-3.943,0.12-5.987
				c0-0.926-0.008-1.86-0.024-2.802c-0.017-0.941-0.041-1.875-0.072-2.802c-0.096-2.938-0.232-5.836-0.407-8.694
				c-0.176-2.857-0.375-5.548-0.599-8.071h14.035c0.639,0,1.293,0.008,1.964,0.024c0.671,0.017,1.357,0.041,2.06,0.072
				c1.788,0.064,3.465,0.176,5.03,0.335c1.564,0.16,2.618,0.416,3.161,0.767c1.501,0.99,2.818,2.012,3.952,3.065
				c1.133,1.054,2.052,2.188,2.754,3.401c0.16,0.288,0.295,0.567,0.407,0.838c0.111,0.271,0.199,0.535,0.264,0.79
				c0.063,0.256,0.111,0.52,0.144,0.791c0.031,0.271,0.048,0.551,0.048,0.838c0,1.565-0.447,3.065-1.341,4.502
				c-0.895,1.437-1.885,2.762-2.97,3.976c-0.32,0.352-0.679,0.663-1.078,0.934c-0.4,0.271-0.838,0.503-1.317,0.694
				c0.383,0.958,0.87,2.076,1.461,3.353c0.591,1.278,1.317,2.571,2.18,3.88c0.543,0.799,1.133,1.589,1.772,2.371
				c0.639,0.783,1.324,1.541,2.06,2.275L154.379,194.124z M151.457,172.569c0.063-0.159,0.096-0.303,0.096-0.431
				c0-0.127-0.024-0.239-0.072-0.335c-0.048-0.096-0.12-0.191-0.215-0.287c-0.064-0.096-0.152-0.192-0.264-0.288
				c-0.112-0.096-0.232-0.207-0.359-0.335c-0.67-0.606-1.373-1.085-2.107-1.437c-0.735-0.351-1.469-0.687-2.204-1.006
				c-0.16-0.064-0.319-0.127-0.479-0.192c-0.16-0.063-0.319-0.127-0.479-0.191c-0.032,0.926-0.072,1.796-0.12,2.61
				s-0.072,1.604-0.072,2.371c-0.032,0.799-0.048,1.604-0.048,2.419s0,1.685,0,2.61c1.309-0.351,2.474-0.941,3.497-1.772
				c1.021-0.83,1.868-1.868,2.539-3.114C151.297,172.937,151.392,172.729,151.457,172.569z"/>
			<path fill="#BCBEC0" d="M170.856,193.453c0.097-2.842,0.176-5.676,0.24-8.502c0.063-2.826,0.096-5.66,0.096-8.502
				c0-2.81-0.032-5.636-0.096-8.478c-0.064-2.842-0.144-5.668-0.24-8.479h14.131c-0.096,2.811-0.176,5.637-0.239,8.479
				c-0.064,2.842-0.096,5.668-0.096,8.478c0,2.843,0.023,5.676,0.071,8.502c0.048,2.826,0.136,5.66,0.264,8.502H170.856z"/>
			<path fill="#BCBEC0" d="M202.734,192.184c-1.709,1.102-3.601,2.02-5.677,2.754l-11.304-6.179c2.171-0.606,3.808-1.42,4.909-2.443
				c1.102-1.021,1.637-2.219,1.604-3.592c0-0.606-0.096-1.246-0.287-1.916s-0.511-1.357-0.958-2.06
				c-0.256-0.447-0.551-0.878-0.886-1.293c-0.336-0.415-0.663-0.83-0.982-1.245l-0.048-0.048c-0.383-0.447-0.75-0.91-1.102-1.389
				s-0.671-0.974-0.958-1.485c-0.352-0.671-0.606-1.317-0.767-1.94c-0.16-0.623-0.239-1.237-0.239-1.844
				c0-1.15,0.271-2.243,0.814-3.281c0.543-1.037,1.229-2.003,2.06-2.898c0.926-1.021,2.06-1.892,3.401-2.61
				c1.341-0.719,2.874-1.365,4.598-1.94l9.58,5.796c-0.99,0.607-1.868,1.262-2.635,1.964c-0.766,0.703-1.357,1.485-1.771,2.347
				c-0.064,0.128-0.12,0.248-0.168,0.359c-0.048,0.112-0.089,0.232-0.12,0.359c-0.064,0.256-0.112,0.503-0.144,0.742
				c-0.032,0.24-0.048,0.472-0.048,0.695c0,0.607,0.111,1.19,0.335,1.748c0.224,0.559,0.543,1.062,0.958,1.509
				c1.214,1.31,2.22,2.603,3.019,3.88c0.798,1.277,1.341,2.539,1.628,3.784c0.063,0.32,0.111,0.639,0.144,0.958
				c0.032,0.32,0.048,0.639,0.048,0.958c0,0.671-0.088,1.341-0.263,2.012c-0.176,0.671-0.439,1.341-0.791,2.012
				C205.759,189.653,204.442,191.082,202.734,192.184z"/>
			<path fill="#BCBEC0" d="M238.25,171.18c-0.543,0-1.094-0.031-1.652-0.096c-0.56-0.063-1.126-0.144-1.7-0.239
				c-0.032,0-0.057,0-0.072,0c-0.017,0-0.04,0-0.071,0c-0.575-0.064-1.15-0.127-1.725-0.192c-0.575-0.063-1.149-0.096-1.725-0.096
				c-0.032,2.203-0.048,4.455-0.048,6.754s0.031,4.615,0.096,6.945c0.031,1.533,0.063,3.074,0.096,4.623
				c0.031,1.549,0.079,3.074,0.144,4.574h-13.651c0.063-1.533,0.12-3.081,0.168-4.646c0.048-1.564,0.072-3.145,0.072-4.742
				c0.063-2.267,0.096-4.527,0.096-6.778c0-2.251-0.017-4.462-0.048-6.634c-0.097,0-0.185,0-0.264,0c-0.08,0-0.168,0-0.264,0
				c-1.31,0.032-2.619,0.08-3.928,0.144c-1.31,0.064-2.604,0.272-3.88,0.623l0.958-11.927h29.89L238.25,171.18z"/>
			<path fill="#BCBEC0" d="M277.433,193.453l-2.443-11.735l-7.664,11.735l-7.568-12.167l-3.113,12.167h-12.837l8.383-33.961h9.627
				l6.754,15.232c1.405-2.299,2.771-4.718,4.096-7.256c1.325-2.539,2.61-5.197,3.856-7.976h9.292
				c0.479,5.876,1.197,11.648,2.155,17.316c0.958,5.668,2.22,11.217,3.784,16.645H277.433z"/>
			<path fill="#BCBEC0" d="M320.877,193.453l-2.204-5.413h-11.304l-1.964,5.413h-12.693l13.411-33.961h12.358l16.047,33.961H320.877
				z M312.638,173.527l-1.964,5.365h4.215L312.638,173.527z"/>
			<path fill="#BCBEC0" d="M350.886,192.184c-1.709,1.102-3.601,2.02-5.676,2.754l-11.305-6.179c2.171-0.606,3.808-1.42,4.91-2.443
				c1.102-1.021,1.636-2.219,1.604-3.592c0-0.606-0.096-1.246-0.288-1.916c-0.191-0.67-0.511-1.357-0.958-2.06
				c-0.256-0.447-0.551-0.878-0.886-1.293c-0.335-0.415-0.663-0.83-0.981-1.245l-0.049-0.048c-0.383-0.447-0.75-0.91-1.102-1.389
				s-0.67-0.974-0.958-1.485c-0.352-0.671-0.606-1.317-0.766-1.94c-0.16-0.623-0.24-1.237-0.24-1.844
				c0-1.15,0.271-2.243,0.814-3.281c0.543-1.037,1.229-2.003,2.06-2.898c0.926-1.021,2.06-1.892,3.401-2.61
				c1.341-0.719,2.874-1.365,4.599-1.94l9.579,5.796c-0.99,0.607-1.868,1.262-2.634,1.964c-0.767,0.703-1.358,1.485-1.772,2.347
				c-0.064,0.128-0.12,0.248-0.168,0.359c-0.048,0.112-0.088,0.232-0.119,0.359c-0.064,0.256-0.112,0.503-0.145,0.742
				c-0.032,0.24-0.048,0.472-0.048,0.695c0,0.607,0.112,1.19,0.336,1.748c0.223,0.559,0.542,1.062,0.958,1.509
				c1.213,1.31,2.219,2.603,3.018,3.88c0.798,1.277,1.341,2.539,1.628,3.784c0.064,0.32,0.112,0.639,0.145,0.958
				c0.031,0.32,0.048,0.639,0.048,0.958c0,0.671-0.089,1.341-0.264,2.012c-0.176,0.671-0.439,1.341-0.79,2.012
				C353.911,189.653,352.594,191.082,350.886,192.184z"/>
		</g>
		<circle fill="#BCBEC0" cx="62.748" cy="154.573" r="5.933"/>
		<g>
			<g>
				<path fill="#BCBEC0" d="M97.474,123.353c-0.527-0.668-0.263-1.215,0.588-1.215h3.779c0.851,0,1.07-0.507,0.485-1.126
					l-7.489-7.944c-0.584-0.619-0.365-1.126,0.487-1.126h3.451c0.852,0,1.048-0.486,0.438-1.08l-5.88-5.719
					c-0.61-0.594-0.413-1.08,0.438-1.08h1.52c0.852,0,1.12-0.55,0.599-1.223l-5.879-7.57c-0.523-0.672-1.374-0.67-1.892,0.005
					l-5.807,7.56c-0.518,0.675-0.246,1.228,0.605,1.228h1.52c0.852,0,1.049,0.486,0.439,1.08l-5.88,5.719
					c-0.611,0.593-0.413,1.08,0.438,1.08h3.45c0.851,0,1.07,0.507,0.485,1.126l-7.487,7.944c-0.584,0.62-0.366,1.126,0.486,1.126
					h3.748c0.851,0,1.553,0.001,1.56,0.002c0.008,0.002-0.419,0.55-0.947,1.217l-8.561,10.829c-0.528,0.668-0.263,1.215,0.588,1.215
					h12.69c0.851,0,1.547,0.696,1.547,1.548v3.784c0,0.852,0.643,1.548,1.429,1.548c0.786,0,1.905,0,2.486,0
					c0.58,0,1.055-0.696,1.055-1.548v-3.784c0-0.852,0.697-1.548,1.548-1.548h11.938c0.851,0,1.116-0.547,0.588-1.215
					L97.474,123.353z"/>
			</g>
			<g>
				<path fill="#BCBEC0" d="M339.876,126.694c-0.527-0.667-0.264-1.215,0.588-1.215h3.778c0.853,0,1.07-0.506,0.485-1.126
					l-7.488-7.943c-0.583-0.62-0.365-1.127,0.486-1.127h3.45c0.852,0,1.05-0.485,0.44-1.079l-5.881-5.719
					c-0.61-0.594-0.412-1.079,0.44-1.079h1.52c0.852,0,1.12-0.55,0.599-1.223l-5.879-7.57c-0.522-0.672-1.374-0.67-1.893,0.004
					l-5.807,7.56c-0.518,0.675-0.246,1.228,0.605,1.228h1.52c0.852,0,1.05,0.485,0.439,1.079l-5.88,5.719
					c-0.61,0.594-0.412,1.079,0.438,1.079h3.45c0.851,0,1.07,0.507,0.486,1.127l-7.487,7.943c-0.585,0.619-0.366,1.126,0.485,1.126
					h3.749c0.851,0,1.553,0.001,1.56,0.003c0.007,0.002-0.42,0.549-0.947,1.218l-8.562,10.829c-0.527,0.668-0.264,1.214,0.588,1.214
					h12.69c0.852,0,1.548,0.696,1.548,1.548v3.785c0,0.852,0.643,1.548,1.429,1.548c0.786,0,1.905,0,2.485,0
					s1.056-0.697,1.056-1.548v-3.785c0-0.852,0.696-1.548,1.549-1.548h11.938c0.851,0,1.115-0.546,0.588-1.214L339.876,126.694z"/>
			</g>
		</g>
	</g>
</g>
<g>
	<path fill="#FFFFFF" d="M223.534,93.893c0-6.775-5.492-12.266-12.268-12.266c-6.773,0-12.266,5.491-12.266,12.266
		c0,0.16,0.018,0.317,0.024,0.476h24.484C223.517,94.21,223.534,94.053,223.534,93.893z"/>
	<g>
		<g>
			<path fill="#FFFFFF" d="M207.225,93.205c1.2-2.08,0.488-4.739-1.592-5.94l-19.47-11.241l-1.435-23.434
				c-0.112-1.844-1.698-3.247-3.542-3.134c-1.845,0.113-3.247,1.698-3.135,3.543l1.163,19.013l-6.685-3.86l-1.407-17.301
				c-0.15-1.841-1.764-3.213-3.606-3.063c-1.841,0.15-3.214,1.764-3.063,3.606l1.032,12.692l-6.339-3.66l-1.355-12.464
				c-0.2-1.837-1.851-3.164-3.688-2.964c-1.837,0.2-3.164,1.85-2.964,3.688l0.825,7.594l-7.447-4.3
				c-0.193-2.674-1.665-5.21-4.163-6.652c-3.999-2.309-9.114-0.938-11.423,3.062c-2.31,4-0.939,9.115,3.061,11.424
				c2.74,1.582,6.003,1.436,8.529-0.098l7.021,4.055l-6.779,2.918c-1.698,0.732-2.481,2.7-1.75,4.396
				c0.73,1.697,2.699,2.48,4.396,1.749l11.36-4.892l6.345,3.664l-11.349,5.259c-1.675,0.775-2.404,2.764-1.628,4.442
				c0.776,1.676,2.765,2.406,4.441,1.629l15.622-7.239l6.701,3.869l-16.946,8.272c-1.661,0.812-2.349,2.814-1.539,4.474
				c0.81,1.66,2.814,2.349,4.474,1.539l20.999-10.25l18.652,10.769h5.7C206.622,94.05,206.96,93.663,207.225,93.205z"/>
		</g>
		<g>
			<path fill="#FFFFFF" d="M221.821,93.81l19.47-11.24l21.011,10.474c1.654,0.825,3.662,0.152,4.486-1.501
				c0.826-1.653,0.154-3.661-1.501-4.486l-17.046-8.498l6.684-3.86l15.688,7.433c1.67,0.79,3.664,0.079,4.456-1.591
				c0.791-1.669,0.08-3.666-1.59-4.455l-11.509-5.453l6.338-3.66l11.475,5.058c1.689,0.746,3.665-0.021,4.41-1.711
				c0.745-1.691-0.021-3.665-1.713-4.411l-6.988-3.082l7.446-4.3c2.413,1.171,5.344,1.164,7.842-0.277
				c4-2.31,5.37-7.425,3.061-11.425c-2.31-4-7.424-5.371-11.425-3.062c-2.74,1.582-4.245,4.48-4.18,7.435l-7.023,4.055l0.862-7.331
				c0.215-1.836-1.098-3.498-2.934-3.713c-1.832-0.216-3.495,1.097-3.712,2.933l-1.443,12.284l-6.344,3.663l1.118-12.457
				c0.165-1.838-1.19-3.465-3.032-3.631c-1.841-0.165-3.466,1.193-3.632,3.032l-1.54,17.147l-6.701,3.869l1.309-18.812
				c0.127-1.844-1.264-3.442-3.105-3.57c-1.842-0.128-3.441,1.263-3.569,3.106l-1.622,23.31l-19.395,11.199
				c-2.081,1.201-2.794,3.86-1.592,5.94c0.729,1.263,1.996,2.017,3.344,2.15h0.854C220.675,94.31,221.269,94.13,221.821,93.81z"/>
			<path fill="#FFFFFF" d="M220.079,94.369h-0.854C219.509,94.396,219.793,94.397,220.079,94.369z"/>
		</g>
		<g>
			<path fill="#FFFFFF" d="M236.136,45.788c-1.02-1.541-3.094-1.964-4.636-0.944l-15.884,10.515v-7.72l14.28-9.869
				c1.52-1.05,1.9-3.134,0.85-4.654c-1.05-1.519-3.135-1.902-4.653-0.851l-10.477,7.24v-7.32l10.117-7.406
				c1.49-1.091,1.814-3.185,0.723-4.675c-1.092-1.492-3.185-1.815-4.675-0.724l-6.165,4.513v-8.601
				c2.221-1.503,3.681-4.045,3.681-6.929c0-4.619-3.745-8.363-8.363-8.363c-4.62,0-8.363,3.745-8.363,8.363
				c0,3.163,1.756,5.917,4.349,7.337v8.109L201,19.397c-1.483-1.104-3.577-0.799-4.68,0.683c-1.105,1.482-0.799,3.578,0.683,4.682
				l9.916,7.392v7.326l-10.229-7.198c-1.509-1.063-3.596-0.701-4.661,0.811c-1.062,1.511-0.7,3.598,0.811,4.661l14.08,9.908v7.738
				L191.282,44.86c-1.534-1.033-3.612-0.627-4.644,0.904c-1.033,1.532-0.627,3.611,0.903,4.644l19.378,13.061v22.395
				c0,2.402,1.947,4.348,4.348,4.348c2.402,0,4.35-1.946,4.35-4.348V63.382l19.577-12.958
				C236.734,49.403,237.156,47.328,236.136,45.788z"/>
		</g>
	</g>
	<path fill="#FFFFFF" d="M194.885,84.454l16.674-9.704l16.741,9.589l0.034,10.03h6.023l-0.041-11.789
		c-0.003-1.076-0.58-2.067-1.515-2.603l-19.758-11.316c-0.934-0.535-2.082-0.531-3.011,0.01l-19.679,11.452
		c-0.93,0.541-1.501,1.537-1.497,2.612l0.04,11.633h6.022L194.885,84.454z"/>
	<g>
		<circle fill="#FFFFFF" cx="175.251" cy="33.039" r="6.914"/>
		<path fill="#FFFFFF" d="M135.626,93.893c0-3.818-3.096-6.914-6.914-6.914c-3.818,0-6.914,3.096-6.914,6.914
			c0,0.16,0.013,0.318,0.024,0.476h13.78C135.613,94.211,135.626,94.053,135.626,93.893z"/>
		<path fill="#FFFFFF" d="M299.325,94.043c0-3.818-3.096-6.914-6.915-6.914c-3.817,0-6.912,3.095-6.912,6.914
			c0,0.11,0.01,0.218,0.016,0.326h13.796C299.314,94.26,299.325,94.153,299.325,94.043z"/>
		<circle fill="#FFFFFF" cx="248.953" cy="33.039" r="6.913"/>
	</g>
</g>
<g>
	<path fill="#FFFFFF" d="M145.773,142.094l-2.582-12.403l-8.1,12.403l-7.999-12.859l-3.291,12.859h-13.568l8.859-35.893h10.176
		l7.138,16.099c1.485-2.43,2.928-4.987,4.329-7.67c1.4-2.683,2.759-5.493,4.075-8.429h9.821c0.506,6.21,1.266,12.311,2.278,18.301
		c1.012,5.991,2.345,11.855,4,17.592H145.773z"/>
	<path fill="#FFFFFF" d="M182.856,115.187c-2.109-0.051-4.228,0.009-6.354,0.177c-0.034,0.675-0.051,1.367-0.051,2.076
		c0,0.708,0,1.417,0,2.126c2.093,0.135,4.177,0.177,6.252,0.126c2.076-0.05,4.143-0.244,6.202-0.582l-2.126,9.568h-10.379
		c0,0.337,0.008,0.683,0.025,1.038c0.017,0.354,0.025,0.718,0.025,1.088c0,0.338,0.008,0.684,0.025,1.038
		c0.017,0.354,0.025,0.717,0.025,1.088c2.092,0.135,4.177,0.177,6.252,0.126c2.076-0.051,4.143-0.245,6.202-0.582l-2.127,9.619
		c-2.093,0-4.176,0-6.252,0c-2.075,0-4.16,0-6.252,0c-2.093,0-4.177,0-6.252,0c-2.076,0-4.16,0-6.253,0
		c0.135-3.003,0.229-5.999,0.278-8.986c0.051-2.987,0.076-5.982,0.076-8.986c0-2.969-0.034-5.956-0.101-8.96
		c-0.068-3.003-0.152-5.99-0.254-8.96c2.093,0,4.185,0,6.277,0s4.202,0,6.329,0c2.092,0,4.184,0,6.277,0c2.092,0,4.185,0,6.277,0
		l2.126,9.568C187.049,115.432,184.964,115.237,182.856,115.187z"/>
	<path fill="#FFFFFF" d="M214.977,142.803c-1.216-1.316-2.372-2.7-3.469-4.151c-1.097-1.451-2.169-2.902-3.214-4.354
		c-0.304-0.405-0.591-0.801-0.861-1.189c-0.27-0.388-0.54-0.785-0.81-1.19c-0.202-0.27-0.405-0.548-0.607-0.835
		c-0.202-0.287-0.405-0.565-0.607-0.835c0,0.708-0.025,1.511-0.076,2.405c-0.051,0.895-0.093,1.797-0.126,2.708
		c-0.034,0.304-0.06,0.599-0.076,0.886c-0.018,0.287-0.025,0.582-0.025,0.886c-0.068,1.047-0.127,2.009-0.178,2.886
		c-0.05,0.878-0.093,1.569-0.126,2.076h-13.112c0.169-1.89,0.295-3.864,0.38-5.923c0.084-2.058,0.127-4.167,0.127-6.328
		c0-0.979-0.009-1.965-0.025-2.961c-0.018-0.995-0.043-1.982-0.076-2.961c-0.102-3.105-0.245-6.167-0.431-9.188
		c-0.186-3.02-0.396-5.864-0.633-8.53h14.834c0.674,0,1.366,0.008,2.075,0.025c0.708,0.018,1.434,0.043,2.177,0.076
		c1.89,0.068,3.661,0.186,5.315,0.354c1.653,0.169,2.767,0.439,3.342,0.81c1.586,1.046,2.978,2.126,4.176,3.24
		s2.169,2.312,2.911,3.595c0.169,0.304,0.312,0.599,0.431,0.886c0.117,0.287,0.21,0.565,0.278,0.835
		c0.067,0.271,0.118,0.549,0.151,0.835c0.033,0.287,0.051,0.583,0.051,0.886c0,1.654-0.473,3.24-1.417,4.759
		c-0.945,1.519-1.992,2.919-3.139,4.202c-0.338,0.372-0.718,0.701-1.14,0.987c-0.422,0.287-0.886,0.532-1.392,0.734
		c0.404,1.013,0.919,2.194,1.544,3.544c0.624,1.35,1.392,2.717,2.304,4.101c0.573,0.844,1.197,1.679,1.873,2.506
		c0.675,0.828,1.399,1.629,2.177,2.405L214.977,142.803z M211.888,120.021c0.067-0.168,0.102-0.32,0.102-0.456
		c0-0.134-0.025-0.253-0.076-0.354c-0.051-0.101-0.126-0.202-0.228-0.304c-0.068-0.101-0.161-0.202-0.278-0.304
		c-0.119-0.101-0.245-0.219-0.38-0.354c-0.709-0.641-1.451-1.147-2.228-1.519c-0.776-0.371-1.553-0.725-2.328-1.063
		c-0.17-0.067-0.338-0.135-0.507-0.203c-0.169-0.067-0.338-0.134-0.506-0.203c-0.034,0.979-0.076,1.898-0.127,2.759
		s-0.076,1.696-0.076,2.506c-0.033,0.844-0.05,1.696-0.05,2.557s0,1.781,0,2.759c1.383-0.371,2.614-0.995,3.695-1.874
		c1.079-0.877,1.974-1.974,2.683-3.291C211.719,120.41,211.82,120.19,211.888,120.021z"/>
	<path fill="#FFFFFF" d="M255.224,142.803c-1.216-1.316-2.372-2.7-3.469-4.151c-1.097-1.451-2.169-2.902-3.214-4.354
		c-0.304-0.405-0.591-0.801-0.861-1.189c-0.271-0.388-0.54-0.785-0.81-1.19c-0.202-0.27-0.405-0.548-0.607-0.835
		c-0.203-0.287-0.405-0.565-0.607-0.835c0,0.708-0.025,1.511-0.076,2.405c-0.051,0.895-0.094,1.797-0.127,2.708
		c-0.033,0.304-0.059,0.599-0.075,0.886c-0.018,0.287-0.025,0.582-0.025,0.886c-0.068,1.047-0.127,2.009-0.178,2.886
		c-0.051,0.878-0.093,1.569-0.126,2.076h-13.112c0.169-1.89,0.295-3.864,0.38-5.923c0.084-2.058,0.126-4.167,0.126-6.328
		c0-0.979-0.008-1.965-0.024-2.961c-0.018-0.995-0.043-1.982-0.076-2.961c-0.102-3.105-0.245-6.167-0.431-9.188
		c-0.186-3.02-0.396-5.864-0.633-8.53h14.833c0.675,0,1.367,0.008,2.076,0.025c0.708,0.018,1.434,0.043,2.177,0.076
		c1.89,0.068,3.661,0.186,5.315,0.354c1.653,0.169,2.767,0.439,3.342,0.81c1.586,1.046,2.978,2.126,4.176,3.24
		s2.169,2.312,2.911,3.595c0.169,0.304,0.312,0.599,0.431,0.886c0.117,0.287,0.21,0.565,0.278,0.835
		c0.067,0.271,0.118,0.549,0.151,0.835c0.033,0.287,0.051,0.583,0.051,0.886c0,1.654-0.473,3.24-1.417,4.759
		c-0.945,1.519-1.992,2.919-3.139,4.202c-0.338,0.372-0.718,0.701-1.14,0.987c-0.422,0.287-0.886,0.532-1.392,0.734
		c0.404,1.013,0.919,2.194,1.544,3.544c0.624,1.35,1.392,2.717,2.304,4.101c0.573,0.844,1.197,1.679,1.873,2.506
		c0.675,0.828,1.399,1.629,2.177,2.405L255.224,142.803z M252.135,120.021c0.067-0.168,0.102-0.32,0.102-0.456
		c0-0.134-0.025-0.253-0.076-0.354c-0.051-0.101-0.126-0.202-0.228-0.304c-0.068-0.101-0.161-0.202-0.278-0.304
		c-0.119-0.101-0.245-0.219-0.38-0.354c-0.709-0.641-1.451-1.147-2.228-1.519c-0.776-0.371-1.553-0.725-2.329-1.063
		c-0.169-0.067-0.338-0.135-0.506-0.203c-0.169-0.067-0.338-0.134-0.506-0.203c-0.034,0.979-0.076,1.898-0.127,2.759
		s-0.076,1.696-0.076,2.506c-0.034,0.844-0.051,1.696-0.051,2.557s0,1.781,0,2.759c1.384-0.371,2.615-0.995,3.696-1.874
		c1.079-0.877,1.974-1.974,2.683-3.291C251.966,120.41,252.068,120.19,252.135,120.021z"/>
	<path fill="#FFFFFF" d="M292.281,142.094h-14.732l5.265-11.948l-10.884-23.945h13.618l4.404,10.833l4.101-10.833h12.353
		L292.281,142.094z"/>
</g>
<g>
	<path fill="#FFFFFF" d="M86.949,191.171c-5.717-0.926-10.483-3.065-14.298-6.418c-3.816-3.353-5.724-7.201-5.724-11.543
		c0-4.215,1.788-7.959,5.365-11.233c3.576-3.272,8.062-5.452,13.459-6.538l5.939,9.867c-2.619,0.543-4.766,1.509-6.442,2.898
		c-1.676,1.389-2.515,2.962-2.515,4.718c0,1.756,0.854,3.329,2.562,4.718c1.708,1.389,3.872,2.355,6.491,2.898L86.949,191.171z"/>
	<path fill="#FFFFFF" d="M113.197,190.453c0.064-1.852,0.12-3.696,0.168-5.532c0.048-1.836,0.087-3.68,0.12-5.533h-6.754
		c0.031,1.853,0.072,3.697,0.12,5.533c0.048,1.836,0.104,3.681,0.168,5.532H92.888c0.127-2.842,0.216-5.676,0.264-8.502
		c0.048-2.826,0.072-5.66,0.072-8.502c0-2.81-0.032-5.636-0.096-8.478c-0.064-2.842-0.144-5.668-0.24-8.479h14.131
		c-0.064,1.789-0.12,3.593-0.168,5.413c-0.048,1.82-0.088,3.641-0.12,5.461h6.754c-0.032-1.82-0.072-3.641-0.12-5.461
		c-0.048-1.82-0.104-3.624-0.168-5.413h14.13c-0.096,2.811-0.176,5.637-0.239,8.479c-0.064,2.842-0.096,5.668-0.096,8.478
		c0,2.843,0.024,5.676,0.072,8.502c0.048,2.826,0.135,5.66,0.263,8.502H113.197z"/>
	<path fill="#FFFFFF" d="M152.379,191.124c-1.149-1.245-2.244-2.554-3.281-3.928c-1.038-1.373-2.052-2.746-3.042-4.119
		c-0.288-0.383-0.559-0.758-0.814-1.125c-0.256-0.367-0.511-0.743-0.766-1.126c-0.192-0.255-0.383-0.519-0.575-0.79
		c-0.191-0.271-0.383-0.535-0.575-0.791c0,0.67-0.024,1.43-0.072,2.275c-0.048,0.846-0.088,1.7-0.12,2.562
		c-0.032,0.287-0.056,0.567-0.072,0.838c-0.017,0.271-0.024,0.551-0.024,0.838c-0.064,0.99-0.12,1.9-0.168,2.73
		c-0.048,0.831-0.088,1.485-0.12,1.964h-12.406c0.159-1.788,0.279-3.656,0.359-5.604c0.08-1.947,0.12-3.943,0.12-5.987
		c0-0.926-0.008-1.86-0.024-2.802c-0.017-0.941-0.041-1.875-0.072-2.802c-0.096-2.938-0.232-5.836-0.407-8.694
		c-0.176-2.857-0.375-5.548-0.599-8.071h14.035c0.639,0,1.293,0.008,1.964,0.024c0.671,0.017,1.357,0.041,2.06,0.072
		c1.788,0.064,3.465,0.176,5.03,0.335c1.564,0.16,2.618,0.416,3.161,0.767c1.501,0.99,2.818,2.012,3.952,3.065
		c1.133,1.054,2.052,2.188,2.754,3.401c0.16,0.288,0.295,0.567,0.407,0.838c0.111,0.271,0.199,0.535,0.264,0.79
		c0.063,0.256,0.111,0.52,0.144,0.791c0.031,0.271,0.048,0.551,0.048,0.838c0,1.565-0.447,3.065-1.341,4.502
		c-0.895,1.437-1.885,2.762-2.97,3.976c-0.32,0.352-0.679,0.663-1.078,0.934c-0.4,0.271-0.838,0.503-1.317,0.694
		c0.383,0.958,0.87,2.076,1.461,3.353c0.59,1.278,1.317,2.571,2.18,3.88c0.543,0.799,1.133,1.589,1.772,2.371
		c0.639,0.783,1.324,1.541,2.06,2.275L152.379,191.124z M149.457,169.569c0.063-0.159,0.096-0.303,0.096-0.431
		c0-0.127-0.024-0.239-0.072-0.335c-0.048-0.096-0.12-0.191-0.215-0.287c-0.064-0.096-0.152-0.192-0.264-0.288
		c-0.112-0.096-0.232-0.207-0.359-0.335c-0.67-0.606-1.373-1.085-2.107-1.437c-0.735-0.351-1.469-0.687-2.204-1.006
		c-0.16-0.064-0.319-0.127-0.479-0.192c-0.16-0.063-0.319-0.127-0.479-0.191c-0.032,0.926-0.072,1.796-0.12,2.61
		s-0.072,1.604-0.072,2.371c-0.032,0.799-0.048,1.604-0.048,2.419s0,1.685,0,2.61c1.309-0.351,2.474-0.941,3.497-1.772
		c1.021-0.83,1.868-1.868,2.539-3.114C149.297,169.937,149.392,169.729,149.457,169.569z"/>
	<path fill="#FFFFFF" d="M168.856,190.453c0.097-2.842,0.176-5.676,0.24-8.502c0.063-2.826,0.096-5.66,0.096-8.502
		c0-2.81-0.032-5.636-0.096-8.478c-0.064-2.842-0.144-5.668-0.24-8.479h14.131c-0.096,2.811-0.176,5.637-0.239,8.479
		c-0.064,2.842-0.096,5.668-0.096,8.478c0,2.843,0.023,5.676,0.071,8.502c0.048,2.826,0.136,5.66,0.264,8.502H168.856z"/>
	<path fill="#FFFFFF" d="M200.734,189.184c-1.709,1.102-3.601,2.02-5.677,2.754l-11.304-6.179c2.171-0.606,3.808-1.42,4.909-2.443
		c1.102-1.021,1.637-2.219,1.604-3.592c0-0.606-0.096-1.246-0.287-1.916s-0.511-1.357-0.958-2.06
		c-0.256-0.447-0.551-0.878-0.886-1.293c-0.336-0.415-0.663-0.83-0.982-1.245l-0.048-0.048c-0.383-0.447-0.75-0.91-1.102-1.389
		s-0.671-0.974-0.958-1.485c-0.352-0.671-0.606-1.317-0.767-1.94c-0.16-0.623-0.239-1.237-0.239-1.844
		c0-1.15,0.271-2.243,0.814-3.281c0.543-1.037,1.229-2.003,2.06-2.898c0.926-1.021,2.06-1.892,3.401-2.61
		c1.341-0.719,2.874-1.365,4.598-1.94l9.58,5.796c-0.99,0.607-1.868,1.262-2.635,1.964c-0.766,0.703-1.357,1.485-1.771,2.347
		c-0.064,0.128-0.12,0.248-0.168,0.359c-0.048,0.112-0.089,0.232-0.12,0.359c-0.064,0.256-0.112,0.503-0.144,0.742
		c-0.032,0.24-0.048,0.472-0.048,0.695c0,0.607,0.111,1.19,0.335,1.748c0.224,0.559,0.543,1.062,0.958,1.509
		c1.214,1.31,2.22,2.603,3.019,3.88c0.798,1.277,1.341,2.539,1.628,3.784c0.063,0.32,0.111,0.639,0.144,0.958
		c0.032,0.32,0.048,0.639,0.048,0.958c0,0.671-0.088,1.341-0.263,2.012c-0.176,0.671-0.439,1.341-0.791,2.012
		C203.759,186.653,202.442,188.082,200.734,189.184z"/>
	<path fill="#FFFFFF" d="M236.25,168.18c-0.543,0-1.094-0.031-1.652-0.096c-0.56-0.063-1.126-0.144-1.7-0.239
		c-0.032,0-0.057,0-0.072,0c-0.017,0-0.04,0-0.071,0c-0.575-0.064-1.15-0.127-1.725-0.192c-0.575-0.063-1.149-0.096-1.725-0.096
		c-0.032,2.203-0.048,4.455-0.048,6.754s0.031,4.615,0.096,6.945c0.031,1.533,0.063,3.074,0.096,4.623
		c0.031,1.549,0.079,3.074,0.144,4.574h-13.651c0.063-1.533,0.12-3.081,0.168-4.646c0.048-1.564,0.072-3.145,0.072-4.742
		c0.063-2.267,0.096-4.527,0.096-6.778c0-2.251-0.017-4.462-0.048-6.634c-0.097,0-0.185,0-0.264,0c-0.08,0-0.168,0-0.264,0
		c-1.31,0.032-2.619,0.08-3.928,0.144c-1.31,0.064-2.604,0.272-3.88,0.623l0.958-11.927h29.89L236.25,168.18z"/>
	<path fill="#FFFFFF" d="M275.433,190.453l-2.443-11.735l-7.664,11.735l-7.568-12.167l-3.113,12.167h-12.837l8.383-33.961h9.627
		l6.754,15.232c1.405-2.299,2.771-4.718,4.096-7.256c1.325-2.539,2.61-5.197,3.856-7.976h9.292
		c0.479,5.876,1.197,11.648,2.155,17.316c0.958,5.668,2.22,11.217,3.784,16.645H275.433z"/>
	<path fill="#FFFFFF" d="M318.877,190.453l-2.204-5.413h-11.304l-1.964,5.413h-12.693l13.411-33.961h12.358l16.047,33.961H318.877z
		 M310.638,170.527l-1.964,5.365h4.215L310.638,170.527z"/>
	<path fill="#FFFFFF" d="M348.886,189.184c-1.709,1.102-3.601,2.02-5.676,2.754l-11.305-6.179c2.171-0.606,3.808-1.42,4.91-2.443
		c1.102-1.021,1.636-2.219,1.604-3.592c0-0.606-0.096-1.246-0.288-1.916c-0.191-0.67-0.511-1.357-0.958-2.06
		c-0.256-0.447-0.551-0.878-0.886-1.293c-0.335-0.415-0.663-0.83-0.981-1.245l-0.049-0.048c-0.383-0.447-0.75-0.91-1.102-1.389
		s-0.67-0.974-0.958-1.485c-0.352-0.671-0.606-1.317-0.766-1.94c-0.16-0.623-0.24-1.237-0.24-1.844c0-1.15,0.271-2.243,0.814-3.281
		c0.543-1.037,1.229-2.003,2.06-2.898c0.926-1.021,2.06-1.892,3.401-2.61c1.341-0.719,2.874-1.365,4.599-1.94l9.579,5.796
		c-0.99,0.607-1.868,1.262-2.634,1.964c-0.767,0.703-1.358,1.485-1.772,2.347c-0.064,0.128-0.12,0.248-0.168,0.359
		c-0.048,0.112-0.088,0.232-0.119,0.359c-0.064,0.256-0.112,0.503-0.145,0.742c-0.032,0.24-0.048,0.472-0.048,0.695
		c0,0.607,0.112,1.19,0.336,1.748c0.223,0.559,0.542,1.062,0.958,1.509c1.213,1.31,2.219,2.603,3.018,3.88
		c0.798,1.277,1.341,2.539,1.628,3.784c0.064,0.32,0.112,0.639,0.145,0.958c0.031,0.32,0.048,0.639,0.048,0.958
		c0,0.671-0.089,1.341-0.264,2.012c-0.176,0.671-0.439,1.341-0.79,2.012C351.911,186.653,350.594,188.082,348.886,189.184z"/>
</g>
<circle fill="#FFFFFF" cx="60.748" cy="151.573" r="5.933"/>
<g>
	<g>
		<path fill="#FFFFFF" d="M95.474,120.353c-0.527-0.668-0.263-1.215,0.588-1.215h3.779c0.851,0,1.07-0.507,0.485-1.126l-7.489-7.944
			c-0.584-0.619-0.365-1.126,0.487-1.126h3.451c0.852,0,1.048-0.486,0.438-1.08l-5.88-5.719c-0.61-0.594-0.413-1.08,0.438-1.08h1.52
			c0.852,0,1.12-0.55,0.599-1.223l-5.879-7.57c-0.523-0.672-1.374-0.67-1.892,0.005l-5.807,7.56
			c-0.518,0.675-0.246,1.228,0.605,1.228h1.52c0.852,0,1.049,0.486,0.439,1.08l-5.88,5.719c-0.611,0.593-0.413,1.08,0.438,1.08h3.45
			c0.851,0,1.07,0.507,0.485,1.126l-7.487,7.944c-0.584,0.62-0.366,1.126,0.486,1.126h3.748c0.851,0,1.553,0.001,1.56,0.002
			c0.008,0.002-0.419,0.55-0.947,1.217l-8.561,10.829c-0.528,0.668-0.263,1.215,0.588,1.215h12.69c0.851,0,1.547,0.696,1.547,1.548
			v3.784c0,0.852,0.643,1.548,1.429,1.548c0.786,0,1.905,0,2.486,0c0.58,0,1.055-0.696,1.055-1.548v-3.784
			c0-0.852,0.697-1.548,1.548-1.548h11.938c0.851,0,1.116-0.547,0.588-1.215L95.474,120.353z"/>
	</g>
	<g>
		<path fill="#FFFFFF" d="M337.876,123.694c-0.527-0.667-0.264-1.215,0.588-1.215h3.778c0.853,0,1.07-0.506,0.485-1.126
			l-7.488-7.943c-0.583-0.62-0.365-1.127,0.486-1.127h3.45c0.852,0,1.05-0.485,0.44-1.079l-5.881-5.719
			c-0.61-0.594-0.412-1.079,0.44-1.079h1.52c0.852,0,1.12-0.55,0.599-1.223l-5.879-7.57c-0.522-0.672-1.374-0.67-1.893,0.004
			l-5.807,7.56c-0.518,0.675-0.246,1.228,0.605,1.228h1.52c0.852,0,1.05,0.485,0.439,1.079l-5.88,5.719
			c-0.61,0.594-0.412,1.079,0.438,1.079h3.45c0.851,0,1.07,0.507,0.486,1.127l-7.487,7.943c-0.585,0.619-0.366,1.126,0.485,1.126
			h3.749c0.851,0,1.553,0.001,1.56,0.003c0.007,0.002-0.42,0.549-0.947,1.218l-8.562,10.829c-0.527,0.668-0.264,1.214,0.588,1.214
			h12.69c0.852,0,1.548,0.696,1.548,1.548v3.785c0,0.852,0.643,1.548,1.429,1.548c0.786,0,1.905,0,2.485,0s1.056-0.697,1.056-1.548
			v-3.785c0-0.852,0.696-1.548,1.549-1.548h11.938c0.851,0,1.115-0.546,0.588-1.214L337.876,123.694z"/>
	</g>
</g>
<g>
	<g>
		<circle fill="#BCBEC0" cx="68.139" cy="209.589" r="3.938"/>
		<circle fill="#FFFFFF" cx="66.811" cy="207.598" r="3.938"/>
	</g>
	<g>
		<circle fill="#BCBEC0" cx="93.404" cy="209.589" r="3.938"/>
		<circle fill="#FFFFFF" cx="92.076" cy="207.598" r="3.938"/>
	</g>
	<g>
		<circle fill="#BCBEC0" cx="118.668" cy="209.589" r="3.938"/>
		<circle fill="#FFFFFF" cx="117.341" cy="207.598" r="3.938"/>
	</g>
	<g>
		<circle fill="#BCBEC0" cx="143.933" cy="209.589" r="3.938"/>
		<circle fill="#FFFFFF" cx="142.605" cy="207.598" r="3.938"/>
	</g>
	<g>
		<circle fill="#BCBEC0" cx="169.198" cy="209.589" r="3.938"/>
		<circle fill="#FFFFFF" cx="167.87" cy="207.598" r="3.938"/>
	</g>
	<g>
		<circle fill="#BCBEC0" cx="194.462" cy="209.589" r="3.938"/>
		<circle fill="#FFFFFF" cx="193.135" cy="207.598" r="3.938"/>
	</g>
	<g>
		<circle fill="#BCBEC0" cx="219.727" cy="209.589" r="3.938"/>
		<circle fill="#FFFFFF" cx="218.399" cy="207.598" r="3.938"/>
	</g>
	<g>
		<circle fill="#BCBEC0" cx="244.992" cy="209.589" r="3.938"/>
		<circle fill="#FFFFFF" cx="243.664" cy="207.598" r="3.938"/>
	</g>
	<g>
		<circle fill="#BCBEC0" cx="270.256" cy="209.589" r="3.938"/>
		<circle fill="#FFFFFF" cx="268.928" cy="207.598" r="3.938"/>
	</g>
	<g>
		<circle fill="#BCBEC0" cx="295.521" cy="209.589" r="3.938"/>
		<circle fill="#FFFFFF" cx="294.193" cy="207.598" r="3.938"/>
	</g>
	<g>
		<circle fill="#BCBEC0" cx="320.786" cy="209.589" r="3.938"/>
		<circle fill="#FFFFFF" cx="319.458" cy="207.598" r="3.938"/>
	</g>
	<g>
		<circle fill="#BCBEC0" cx="346.05" cy="209.589" r="3.938"/>
		<circle fill="#FFFFFF" cx="344.722" cy="207.598" r="3.938"/>
	</g>
</g>
<g>
	<g>
		<g>
			<g>
				<g>
					<path fill="#BCBEC0" d="M359.433,278.685c-6.621,0-12.008-5.387-12.008-12.008c0-6.621,5.387-12.008,12.008-12.008
						s12.008,5.387,12.008,12.008C371.44,273.298,366.054,278.685,359.433,278.685z M359.433,256.447
						c-5.641,0-10.23,4.59-10.23,10.23c0,5.641,4.59,10.231,10.23,10.231c5.642,0,10.23-4.59,10.23-10.231
						C369.663,261.037,365.074,256.447,359.433,256.447z"/>
					<path fill="#BCBEC0" d="M362.89,256.655c-0.441,0-0.801-0.358-0.801-0.8v-3.289h-5.154v3.289c0,0.441-0.357,0.8-0.799,0.8
						c-0.442,0-0.801-0.358-0.801-0.8v-4.088c0-0.441,0.358-0.801,0.801-0.801h6.754c0.441,0,0.799,0.359,0.799,0.801v4.088
						C363.688,256.296,363.331,256.655,362.89,256.655z"/>
					<path fill="#BCBEC0" d="M359.513,252.271c-0.344,0-0.623-0.279-0.623-0.623v-8.354c0-0.344,0.279-0.622,0.623-0.622
						c0.343,0,0.621,0.278,0.621,0.622v8.354C360.134,251.992,359.855,252.271,359.513,252.271z"/>
				</g>
				<g>
					<path fill="#BCBEC0" d="M366.626,271.107c-1.264,0-1.862-1.062-2.342-1.916c-0.447-0.795-0.748-1.283-1.258-1.283
						c-0.51,0-0.81,0.488-1.258,1.283c-0.48,0.854-1.078,1.916-2.342,1.916c-1.264,0-1.861-1.062-2.342-1.916
						c-0.447-0.795-0.746-1.283-1.257-1.283c-0.51,0-0.81,0.488-1.257,1.283c-0.48,0.854-1.078,1.916-2.342,1.916
						c-1.264,0-1.861-1.062-2.342-1.916c-0.447-0.795-0.747-1.283-1.258-1.283c-0.343,0-0.621-0.277-0.621-0.621
						c0-0.344,0.278-0.623,0.621-0.623c1.264,0,1.861,1.062,2.342,1.918c0.447,0.795,0.748,1.281,1.258,1.281
						c0.51,0,0.809-0.486,1.258-1.281c0.479-0.855,1.077-1.918,2.341-1.918c1.263,0,1.861,1.062,2.342,1.918
						c0.446,0.795,0.747,1.281,1.257,1.281c0.51,0,0.811-0.486,1.258-1.281c0.48-0.855,1.078-1.918,2.342-1.918
						c1.264,0,1.861,1.062,2.342,1.918c0.447,0.795,0.748,1.281,1.258,1.281c0.51,0,0.811-0.486,1.257-1.281
						c0.481-0.855,1.079-1.918,2.343-1.918c0.343,0,0.621,0.279,0.621,0.623c0,0.344-0.278,0.621-0.621,0.621
						c-0.51,0-0.811,0.488-1.258,1.283C368.487,270.044,367.89,271.107,366.626,271.107z"/>
					<path fill="#BCBEC0" d="M366.626,267.043c-1.264,0-1.862-1.062-2.342-1.917c-0.447-0.796-0.748-1.282-1.258-1.282
						c-0.51,0-0.81,0.486-1.258,1.282c-0.48,0.855-1.078,1.917-2.342,1.917c-1.264,0-1.861-1.062-2.342-1.917
						c-0.447-0.796-0.746-1.282-1.257-1.282c-0.51,0-0.81,0.486-1.257,1.282c-0.48,0.855-1.078,1.917-2.342,1.917
						c-1.264,0-1.861-1.062-2.342-1.917c-0.447-0.796-0.747-1.282-1.258-1.282c-0.343,0-0.621-0.279-0.621-0.623
						c0-0.343,0.278-0.621,0.621-0.621c1.264,0,1.861,1.062,2.342,1.916c0.447,0.795,0.748,1.283,1.258,1.283
						c0.51,0,0.809-0.488,1.258-1.283c0.479-0.854,1.077-1.916,2.341-1.916c1.263,0,1.861,1.062,2.342,1.916
						c0.446,0.795,0.747,1.283,1.257,1.283c0.51,0,0.811-0.488,1.258-1.283c0.48-0.854,1.078-1.916,2.342-1.916
						c1.264,0,1.861,1.062,2.342,1.916c0.447,0.796,0.748,1.283,1.258,1.283c0.51,0,0.811-0.488,1.257-1.283
						c0.481-0.854,1.079-1.916,2.343-1.916c0.343,0,0.621,0.278,0.621,0.621c0,0.344-0.278,0.623-0.621,0.623
						c-0.51,0-0.811,0.486-1.258,1.282C368.487,265.98,367.89,267.043,366.626,267.043z"/>
				</g>
				<path fill="#BCBEC0" d="M367.687,274.822h-15.965c-0.343,0-0.621-0.277-0.621-0.621c0-0.344,0.278-0.623,0.621-0.623h15.965
					c0.344,0,0.623,0.279,0.623,0.623C368.31,274.544,368.03,274.822,367.687,274.822z"/>
				<path fill="#BCBEC0" d="M367.687,259.888h-15.965c-0.343,0-0.621-0.279-0.621-0.623c0-0.344,0.278-0.621,0.621-0.621h15.965
					c0.344,0,0.623,0.277,0.623,0.621C368.31,259.609,368.03,259.888,367.687,259.888z"/>
			</g>
		</g>
		<g>
			<g>
				<g>
					<path fill="#BCBEC0" d="M375.174,314.999c-6.621,0-12.008-5.387-12.008-12.008c0-6.623,5.387-12.008,12.008-12.008
						c6.621,0,12.008,5.385,12.008,12.008C387.182,309.612,381.795,314.999,375.174,314.999z M375.174,292.76
						c-5.641,0-10.231,4.588-10.231,10.23c0,5.641,4.59,10.23,10.231,10.23c5.642,0,10.23-4.59,10.23-10.23
						C385.404,297.348,380.815,292.76,375.174,292.76z"/>
					<path fill="#BCBEC0" d="M378.631,292.967c-0.442,0-0.801-0.359-0.801-0.801v-3.287h-5.154v3.287c0,0.441-0.357,0.801-0.8,0.801
						c-0.442,0-0.8-0.359-0.8-0.801v-4.088c0-0.441,0.357-0.799,0.8-0.799h6.755c0.441,0,0.799,0.357,0.799,0.799v4.088
						C379.43,292.608,379.072,292.967,378.631,292.967z"/>
					<path fill="#BCBEC0" d="M375.254,288.583c-0.344,0-0.623-0.277-0.623-0.621v-47.711c0-0.344,0.279-0.621,0.623-0.621
						c0.343,0,0.621,0.277,0.621,0.621v47.711C375.875,288.305,375.597,288.583,375.254,288.583z"/>
				</g>
				<g>
					<path fill="#BCBEC0" d="M382.233,307.786c-1.231,0-1.821-0.895-2.296-1.613c-0.443-0.672-0.721-1.053-1.256-1.053
						c-0.529,0-0.809,0.381-1.258,1.055c-0.479,0.719-1.072,1.611-2.294,1.611c-1.221,0-1.815-0.893-2.294-1.611
						c-0.449-0.674-0.729-1.055-1.258-1.055c-0.528,0-0.809,0.381-1.258,1.055c-0.478,0.719-1.072,1.611-2.293,1.611
						c-1.221,0-1.816-0.893-2.293-1.611c-0.449-0.674-0.729-1.055-1.258-1.055c-0.344,0-0.623-0.279-0.623-0.623
						c0-0.344,0.279-0.621,0.623-0.621c1.221,0,1.815,0.892,2.293,1.609c0.449,0.674,0.728,1.057,1.258,1.057
						c0.529,0,0.809-0.383,1.258-1.057c0.479-0.717,1.072-1.609,2.293-1.609c1.221,0,1.816,0.892,2.294,1.609
						c0.448,0.674,0.729,1.057,1.258,1.057c0.528,0,0.81-0.383,1.258-1.057c0.478-0.717,1.073-1.609,2.294-1.609
						c1.23,0,1.821,0.892,2.295,1.611c0.443,0.674,0.721,1.055,1.257,1.055c0.529,0,0.81-0.383,1.259-1.057
						c0.478-0.717,1.072-1.609,2.293-1.609c0.344,0,0.622,0.277,0.622,0.621c0,0.344-0.278,0.623-0.622,0.623
						c-0.529,0-0.809,0.381-1.258,1.055C384.049,306.893,383.455,307.786,382.233,307.786z"/>
					<path fill="#BCBEC0" d="M382.233,302.475c-1.222,0-1.815-0.893-2.294-1.609c-0.449-0.674-0.728-1.057-1.258-1.057
						s-0.809,0.383-1.258,1.057c-0.479,0.717-1.072,1.609-2.294,1.609c-1.221,0-1.815-0.893-2.294-1.609
						c-0.449-0.674-0.729-1.057-1.258-1.057c-0.528,0-0.809,0.383-1.258,1.057c-0.478,0.717-1.072,1.609-2.293,1.609
						c-1.221,0-1.816-0.893-2.293-1.609c-0.449-0.674-0.729-1.057-1.258-1.057c-0.344,0-0.623-0.277-0.623-0.621
						c0-0.344,0.279-0.623,0.623-0.623c1.221,0,1.815,0.893,2.293,1.611c0.449,0.674,0.728,1.055,1.258,1.055
						c0.529,0,0.809-0.381,1.258-1.055c0.479-0.719,1.072-1.611,2.293-1.611c1.221,0,1.816,0.893,2.294,1.611
						c0.448,0.674,0.729,1.055,1.258,1.055c0.528,0,0.81-0.381,1.258-1.055c0.478-0.719,1.073-1.611,2.294-1.611
						s1.815,0.893,2.293,1.611c0.449,0.674,0.73,1.055,1.259,1.055c0.529,0,0.81-0.381,1.259-1.055
						c0.478-0.719,1.072-1.611,2.293-1.611c0.344,0,0.622,0.279,0.622,0.623c0,0.344-0.278,0.621-0.622,0.621
						c-0.529,0-0.809,0.383-1.258,1.057C384.049,301.583,383.455,302.475,382.233,302.475z"/>
				</g>
				<g>
					<g>
						<path fill="#BCBEC0" d="M371.885,296.821h-5.57c-0.344,0-0.623-0.277-0.623-0.623c0-0.342,0.279-0.621,0.623-0.621h5.57
							c0.344,0,0.622,0.279,0.622,0.621C372.507,296.543,372.228,296.821,371.885,296.821z"/>
						<path fill="#BCBEC0" d="M384.21,296.821h-5.571c-0.343,0-0.621-0.277-0.621-0.623c0-0.342,0.278-0.621,0.621-0.621h5.571
							c0.344,0,0.622,0.279,0.622,0.621C384.832,296.543,384.554,296.821,384.21,296.821z"/>
					</g>
					<circle fill="#BCBEC0" cx="375.263" cy="296.124" r="0.929"/>
				</g>
				<g>
					<g>
						<path fill="#BCBEC0" d="M371.754,310.465h-5.571c-0.344,0-0.622-0.277-0.622-0.621c0-0.344,0.278-0.623,0.622-0.623h5.571
							c0.344,0,0.621,0.279,0.621,0.623C372.375,310.188,372.098,310.465,371.754,310.465z"/>
						<path fill="#BCBEC0" d="M384.078,310.465h-5.57c-0.344,0-0.622-0.277-0.622-0.621c0-0.344,0.278-0.623,0.622-0.623h5.57
							c0.344,0,0.623,0.279,0.623,0.623C384.701,310.188,384.422,310.465,384.078,310.465z"/>
					</g>
					<circle fill="#BCBEC0" cx="375.13" cy="309.77" r="0.929"/>
				</g>
			</g>
		</g>
		<g>
			<g>
				<g>
					<path fill="#BCBEC0" d="M332.691,297.277c-6.621,0-12.008-5.389-12.008-12.01c0-6.621,5.387-12.008,12.008-12.008
						s12.008,5.387,12.008,12.008C344.699,291.888,339.312,297.277,332.691,297.277z M332.691,275.037
						c-5.641,0-10.23,4.59-10.23,10.23c0,5.643,4.59,10.23,10.23,10.23c5.641,0,10.23-4.588,10.23-10.23
						C342.922,279.626,338.332,275.037,332.691,275.037z"/>
					<path fill="#BCBEC0" d="M336.147,275.246c-0.442,0-0.8-0.359-0.8-0.801v-3.289h-5.154v3.289c0,0.441-0.358,0.801-0.801,0.801
						c-0.441,0-0.799-0.359-0.799-0.801v-4.088c0-0.441,0.357-0.799,0.799-0.799h6.755c0.442,0,0.8,0.357,0.8,0.799v4.088
						C336.947,274.886,336.59,275.246,336.147,275.246z"/>
					<path fill="#BCBEC0" d="M332.771,270.861c-0.344,0-0.622-0.279-0.622-0.623v-27.887c0-0.344,0.278-0.621,0.622-0.621
						c0.343,0,0.622,0.277,0.622,0.621v27.887C333.393,270.582,333.113,270.861,332.771,270.861z"/>
				</g>
				<path fill="#BCBEC0" d="M343.268,289.787c-0.145,0-0.291-0.051-0.409-0.154l-1.997-1.752l-1.998,1.752
					c-0.234,0.205-0.586,0.205-0.82,0l-1.996-1.752l-1.996,1.752c-0.234,0.205-0.586,0.205-0.82,0l-1.995-1.752l-1.996,1.752
					c-0.235,0.205-0.586,0.205-0.82,0l-1.996-1.752l-1.996,1.752c-0.234,0.205-0.585,0.205-0.82,0l-2.405-2.111
					c-0.259-0.227-0.284-0.619-0.058-0.877c0.226-0.26,0.619-0.285,0.878-0.059l1.995,1.752l1.996-1.752
					c0.234-0.205,0.585-0.205,0.82,0l1.996,1.752l1.996-1.752c0.234-0.205,0.586-0.205,0.82,0l1.995,1.752l1.996-1.752
					c0.235-0.205,0.586-0.205,0.821,0l1.995,1.752l1.998-1.752c0.234-0.205,0.585-0.205,0.82,0l2.406,2.111
					c0.259,0.227,0.285,0.619,0.059,0.877C343.613,289.714,343.441,289.787,343.268,289.787z"/>
				<path fill="#BCBEC0" d="M343.383,285.255c-0.146,0-0.292-0.051-0.41-0.154l-1.997-1.752l-1.997,1.752
					c-0.235,0.205-0.586,0.205-0.82-0.002l-1.996-1.75l-1.996,1.752c-0.234,0.205-0.586,0.205-0.82-0.002l-1.996-1.75l-1.996,1.752
					c-0.234,0.205-0.586,0.205-0.82-0.002l-1.996-1.75l-1.995,1.75c-0.235,0.207-0.586,0.207-0.821,0l-2.405-2.109
					c-0.259-0.226-0.284-0.619-0.058-0.877c0.227-0.26,0.619-0.285,0.878-0.059l1.996,1.75l1.995-1.75
					c0.234-0.205,0.586-0.205,0.82,0l1.996,1.75l1.996-1.75c0.234-0.205,0.586-0.205,0.82,0l1.996,1.75l1.996-1.75
					c0.234-0.205,0.586-0.205,0.82,0l1.996,1.75l1.997-1.75c0.235-0.205,0.586-0.205,0.82,0l2.407,2.111
					c0.258,0.227,0.284,0.619,0.058,0.877C343.729,285.183,343.556,285.255,343.383,285.255z"/>
				<g>
					<circle fill="#BCBEC0" cx="324.271" cy="281.98" r="0.719"/>
					<circle fill="#BCBEC0" cx="329.046" cy="281.98" r="0.719"/>
					<circle fill="#BCBEC0" cx="333.821" cy="281.98" r="0.719"/>
					<circle fill="#BCBEC0" cx="338.596" cy="281.98" r="0.719"/>
				</g>
				<g>
					<circle fill="#BCBEC0" cx="326.463" cy="289.593" r="0.719"/>
					<circle fill="#BCBEC0" cx="331.238" cy="289.593" r="0.719"/>
					<circle fill="#BCBEC0" cx="336.014" cy="289.593" r="0.719"/>
					<circle fill="#BCBEC0" cx="340.788" cy="289.593" r="0.719"/>
				</g>
				<path fill="#BCBEC0" d="M341.144,279.201h-16.719c-0.245,0-0.444-0.197-0.444-0.443s0.199-0.443,0.444-0.443h16.719
					c0.245,0,0.444,0.197,0.444,0.443S341.389,279.201,341.144,279.201z"/>
				<path fill="#BCBEC0" d="M341.151,293.376h-16.339c-0.246,0-0.444-0.199-0.444-0.443c0-0.246,0.198-0.445,0.444-0.445h16.339
					c0.245,0,0.444,0.199,0.444,0.445C341.596,293.177,341.396,293.376,341.151,293.376z"/>
			</g>
		</g>
		<g>
			<g>
				<g>
					<path fill="#FFFFFF" d="M358.433,277.685c-6.621,0-12.008-5.387-12.008-12.008c0-6.621,5.387-12.008,12.008-12.008
						s12.008,5.387,12.008,12.008C370.44,272.298,365.054,277.685,358.433,277.685z M358.433,255.447
						c-5.641,0-10.23,4.59-10.23,10.23c0,5.641,4.59,10.231,10.23,10.231c5.642,0,10.23-4.59,10.23-10.231
						C368.663,260.037,364.074,255.447,358.433,255.447z"/>
					<path fill="#FFFFFF" d="M361.89,255.655c-0.441,0-0.801-0.358-0.801-0.8v-3.289h-5.154v3.289c0,0.441-0.357,0.8-0.799,0.8
						c-0.442,0-0.801-0.358-0.801-0.8v-4.088c0-0.441,0.358-0.801,0.801-0.801h6.754c0.441,0,0.799,0.359,0.799,0.801v4.088
						C362.688,255.296,362.331,255.655,361.89,255.655z"/>
					<path fill="#FFFFFF" d="M358.513,251.271c-0.344,0-0.623-0.279-0.623-0.623v-8.354c0-0.344,0.279-0.622,0.623-0.622
						c0.343,0,0.621,0.278,0.621,0.622v8.354C359.134,250.992,358.855,251.271,358.513,251.271z"/>
				</g>
				<g>
					<path fill="#FFFFFF" d="M365.626,270.107c-1.264,0-1.862-1.062-2.342-1.916c-0.447-0.795-0.748-1.283-1.258-1.283
						c-0.51,0-0.81,0.488-1.258,1.283c-0.48,0.854-1.078,1.916-2.342,1.916c-1.264,0-1.861-1.062-2.342-1.916
						c-0.447-0.795-0.746-1.283-1.257-1.283c-0.51,0-0.81,0.488-1.257,1.283c-0.48,0.854-1.078,1.916-2.342,1.916
						c-1.264,0-1.861-1.062-2.342-1.916c-0.447-0.795-0.747-1.283-1.258-1.283c-0.343,0-0.621-0.277-0.621-0.621
						c0-0.344,0.278-0.623,0.621-0.623c1.264,0,1.861,1.062,2.342,1.918c0.447,0.795,0.748,1.281,1.258,1.281
						c0.51,0,0.809-0.486,1.258-1.281c0.479-0.855,1.077-1.918,2.341-1.918c1.263,0,1.861,1.062,2.342,1.918
						c0.446,0.795,0.747,1.281,1.257,1.281c0.51,0,0.811-0.486,1.258-1.281c0.48-0.855,1.078-1.918,2.342-1.918
						c1.264,0,1.861,1.062,2.342,1.918c0.447,0.795,0.748,1.281,1.258,1.281c0.51,0,0.811-0.486,1.257-1.281
						c0.481-0.855,1.079-1.918,2.343-1.918c0.343,0,0.621,0.279,0.621,0.623c0,0.344-0.278,0.621-0.621,0.621
						c-0.51,0-0.811,0.488-1.258,1.283C367.487,269.044,366.89,270.107,365.626,270.107z"/>
					<path fill="#FFFFFF" d="M365.626,266.043c-1.264,0-1.862-1.062-2.342-1.917c-0.447-0.796-0.748-1.282-1.258-1.282
						c-0.51,0-0.81,0.486-1.258,1.282c-0.48,0.855-1.078,1.917-2.342,1.917c-1.264,0-1.861-1.062-2.342-1.917
						c-0.447-0.796-0.746-1.282-1.257-1.282c-0.51,0-0.81,0.486-1.257,1.282c-0.48,0.855-1.078,1.917-2.342,1.917
						c-1.264,0-1.861-1.062-2.342-1.917c-0.447-0.796-0.747-1.282-1.258-1.282c-0.343,0-0.621-0.279-0.621-0.623
						c0-0.343,0.278-0.621,0.621-0.621c1.264,0,1.861,1.062,2.342,1.916c0.447,0.795,0.748,1.283,1.258,1.283
						c0.51,0,0.809-0.488,1.258-1.283c0.479-0.854,1.077-1.916,2.341-1.916c1.263,0,1.861,1.062,2.342,1.916
						c0.446,0.795,0.747,1.283,1.257,1.283c0.51,0,0.811-0.488,1.258-1.283c0.48-0.854,1.078-1.916,2.342-1.916
						c1.264,0,1.861,1.062,2.342,1.916c0.447,0.796,0.748,1.283,1.258,1.283c0.51,0,0.811-0.488,1.257-1.283
						c0.481-0.854,1.079-1.916,2.343-1.916c0.343,0,0.621,0.278,0.621,0.621c0,0.344-0.278,0.623-0.621,0.623
						c-0.51,0-0.811,0.486-1.258,1.282C367.487,264.98,366.89,266.043,365.626,266.043z"/>
				</g>
				<path fill="#FFFFFF" d="M366.687,273.822h-15.965c-0.343,0-0.621-0.277-0.621-0.621c0-0.344,0.278-0.623,0.621-0.623h15.965
					c0.344,0,0.623,0.279,0.623,0.623C367.31,273.544,367.03,273.822,366.687,273.822z"/>
				<path fill="#FFFFFF" d="M366.687,258.888h-15.965c-0.343,0-0.621-0.279-0.621-0.623c0-0.344,0.278-0.621,0.621-0.621h15.965
					c0.344,0,0.623,0.277,0.623,0.621C367.31,258.609,367.03,258.888,366.687,258.888z"/>
			</g>
		</g>
		<g>
			<g>
				<g>
					<path fill="#FFFFFF" d="M374.156,314.582c-6.621,0-12.008-5.387-12.008-12.008c0-6.623,5.387-12.008,12.008-12.008
						s12.008,5.385,12.008,12.008C386.164,309.196,380.777,314.582,374.156,314.582z M374.156,292.344
						c-5.641,0-10.23,4.588-10.23,10.23c0,5.641,4.59,10.23,10.23,10.23c5.642,0,10.23-4.59,10.23-10.23
						C384.387,296.932,379.798,292.344,374.156,292.344z"/>
					<path fill="#FFFFFF" d="M377.613,292.551c-0.442,0-0.801-0.359-0.801-0.801v-3.287h-5.154v3.287c0,0.441-0.357,0.801-0.8,0.801
						c-0.442,0-0.8-0.359-0.8-0.801v-4.088c0-0.441,0.357-0.799,0.8-0.799h6.755c0.441,0,0.799,0.357,0.799,0.799v4.088
						C378.412,292.192,378.055,292.551,377.613,292.551z"/>
					<path fill="#FFFFFF" d="M374.236,288.167c-0.344,0-0.623-0.277-0.623-0.621v-47.711c0-0.344,0.279-0.621,0.623-0.621
						c0.343,0,0.621,0.277,0.621,0.621v47.711C374.857,287.889,374.579,288.167,374.236,288.167z"/>
				</g>
				<g>
					<path fill="#FFFFFF" d="M381.216,307.37c-1.231,0-1.821-0.895-2.296-1.613c-0.443-0.672-0.721-1.053-1.256-1.053
						c-0.529,0-0.809,0.381-1.258,1.055c-0.479,0.719-1.072,1.611-2.294,1.611c-1.221,0-1.815-0.893-2.294-1.611
						c-0.449-0.674-0.729-1.055-1.258-1.055c-0.528,0-0.809,0.381-1.258,1.055c-0.478,0.719-1.072,1.611-2.293,1.611
						c-1.221,0-1.816-0.893-2.293-1.611c-0.449-0.674-0.729-1.055-1.258-1.055c-0.344,0-0.623-0.279-0.623-0.623
						c0-0.344,0.279-0.621,0.623-0.621c1.221,0,1.814,0.892,2.293,1.609c0.449,0.674,0.728,1.057,1.258,1.057
						c0.529,0,0.809-0.383,1.258-1.057c0.479-0.717,1.072-1.609,2.293-1.609s1.816,0.892,2.294,1.609
						c0.448,0.674,0.729,1.057,1.258,1.057c0.528,0,0.81-0.383,1.258-1.057c0.478-0.717,1.073-1.609,2.294-1.609
						c1.23,0,1.821,0.892,2.295,1.611c0.443,0.674,0.721,1.055,1.257,1.055c0.529,0,0.81-0.383,1.259-1.057
						c0.478-0.717,1.072-1.609,2.293-1.609c0.344,0,0.622,0.277,0.622,0.621c0,0.344-0.278,0.623-0.622,0.623
						c-0.529,0-0.809,0.381-1.258,1.055C383.031,306.477,382.438,307.37,381.216,307.37z"/>
					<path fill="#FFFFFF" d="M381.216,302.059c-1.222,0-1.815-0.893-2.294-1.609c-0.449-0.674-0.728-1.057-1.258-1.057
						c-0.529,0-0.809,0.383-1.258,1.057c-0.479,0.717-1.072,1.609-2.294,1.609c-1.221,0-1.815-0.893-2.294-1.609
						c-0.449-0.674-0.729-1.057-1.258-1.057c-0.528,0-0.809,0.383-1.258,1.057c-0.478,0.717-1.072,1.609-2.293,1.609
						c-1.221,0-1.816-0.893-2.293-1.609c-0.449-0.674-0.729-1.057-1.258-1.057c-0.344,0-0.623-0.277-0.623-0.621
						c0-0.344,0.279-0.623,0.623-0.623c1.221,0,1.814,0.893,2.293,1.611c0.449,0.674,0.728,1.055,1.258,1.055
						c0.529,0,0.809-0.381,1.258-1.055c0.479-0.719,1.072-1.611,2.293-1.611s1.816,0.893,2.294,1.611
						c0.448,0.674,0.729,1.055,1.258,1.055c0.528,0,0.81-0.381,1.258-1.055c0.478-0.719,1.073-1.611,2.294-1.611
						c1.221,0,1.815,0.893,2.293,1.611c0.449,0.674,0.73,1.055,1.259,1.055c0.529,0,0.81-0.381,1.259-1.055
						c0.478-0.719,1.072-1.611,2.293-1.611c0.344,0,0.622,0.279,0.622,0.623c0,0.344-0.278,0.621-0.622,0.621
						c-0.529,0-0.809,0.383-1.258,1.057C383.031,301.167,382.438,302.059,381.216,302.059z"/>
				</g>
				<g>
					<g>
						<path fill="#FFFFFF" d="M370.867,296.405h-5.57c-0.344,0-0.623-0.277-0.623-0.623c0-0.342,0.279-0.621,0.623-0.621h5.57
							c0.344,0,0.622,0.279,0.622,0.621C371.489,296.127,371.211,296.405,370.867,296.405z"/>
						<path fill="#FFFFFF" d="M383.192,296.405h-5.571c-0.343,0-0.621-0.277-0.621-0.623c0-0.342,0.278-0.621,0.621-0.621h5.571
							c0.344,0,0.622,0.279,0.622,0.621C383.815,296.127,383.536,296.405,383.192,296.405z"/>
					</g>
					<circle fill="#FFFFFF" cx="374.245" cy="295.708" r="0.929"/>
				</g>
				<g>
					<g>
						<path fill="#FFFFFF" d="M370.736,310.049h-5.571c-0.344,0-0.622-0.277-0.622-0.621c0-0.344,0.278-0.623,0.622-0.623h5.571
							c0.344,0,0.621,0.279,0.621,0.623C371.357,309.772,371.08,310.049,370.736,310.049z"/>
						<path fill="#FFFFFF" d="M383.061,310.049h-5.57c-0.344,0-0.622-0.277-0.622-0.621c0-0.344,0.278-0.623,0.622-0.623h5.57
							c0.344,0,0.623,0.279,0.623,0.623C383.684,309.772,383.404,310.049,383.061,310.049z"/>
					</g>
					<circle fill="#FFFFFF" cx="374.112" cy="309.354" r="0.929"/>
				</g>
			</g>
		</g>
		<g>
			<g>
				<g>
					<path fill="#FFFFFF" d="M331.691,296.277c-6.621,0-12.008-5.389-12.008-12.01c0-6.621,5.387-12.008,12.008-12.008
						s12.008,5.387,12.008,12.008C343.699,290.888,338.312,296.277,331.691,296.277z M331.691,274.037
						c-5.641,0-10.23,4.59-10.23,10.23c0,5.643,4.59,10.23,10.23,10.23c5.641,0,10.23-4.588,10.23-10.23
						C341.922,278.626,337.332,274.037,331.691,274.037z"/>
					<path fill="#FFFFFF" d="M335.147,274.246c-0.442,0-0.8-0.359-0.8-0.801v-3.289h-5.154v3.289c0,0.441-0.358,0.801-0.801,0.801
						c-0.441,0-0.799-0.359-0.799-0.801v-4.088c0-0.441,0.357-0.799,0.799-0.799h6.755c0.442,0,0.8,0.357,0.8,0.799v4.088
						C335.947,273.886,335.59,274.246,335.147,274.246z"/>
					<path fill="#FFFFFF" d="M331.771,269.861c-0.344,0-0.622-0.279-0.622-0.623v-27.887c0-0.344,0.278-0.621,0.622-0.621
						c0.343,0,0.622,0.277,0.622,0.621v27.887C332.393,269.582,332.113,269.861,331.771,269.861z"/>
				</g>
				<path fill="#FFFFFF" d="M342.268,288.787c-0.145,0-0.291-0.051-0.409-0.154l-1.997-1.752l-1.998,1.752
					c-0.234,0.205-0.586,0.205-0.82,0l-1.996-1.752l-1.996,1.752c-0.234,0.205-0.586,0.205-0.82,0l-1.995-1.752l-1.996,1.752
					c-0.235,0.205-0.586,0.205-0.82,0l-1.996-1.752l-1.996,1.752c-0.234,0.205-0.585,0.205-0.82,0l-2.405-2.111
					c-0.259-0.227-0.284-0.619-0.058-0.877c0.226-0.26,0.619-0.285,0.878-0.059l1.995,1.752l1.996-1.752
					c0.234-0.205,0.585-0.205,0.82,0l1.996,1.752l1.996-1.752c0.234-0.205,0.586-0.205,0.82,0l1.995,1.752l1.996-1.752
					c0.235-0.205,0.586-0.205,0.821,0l1.995,1.752l1.998-1.752c0.234-0.205,0.585-0.205,0.82,0l2.406,2.111
					c0.259,0.227,0.285,0.619,0.059,0.877C342.613,288.714,342.441,288.787,342.268,288.787z"/>
				<path fill="#FFFFFF" d="M342.383,284.255c-0.146,0-0.292-0.051-0.41-0.154l-1.997-1.752l-1.997,1.752
					c-0.235,0.205-0.586,0.205-0.82-0.002l-1.996-1.75l-1.996,1.752c-0.234,0.205-0.586,0.205-0.82-0.002l-1.996-1.75l-1.996,1.752
					c-0.234,0.205-0.586,0.205-0.82-0.002l-1.996-1.75l-1.995,1.75c-0.235,0.207-0.586,0.207-0.821,0l-2.405-2.109
					c-0.259-0.226-0.284-0.619-0.058-0.877c0.227-0.26,0.619-0.285,0.878-0.059l1.996,1.75l1.995-1.75
					c0.234-0.205,0.586-0.205,0.82,0l1.996,1.75l1.996-1.75c0.234-0.205,0.586-0.205,0.82,0l1.996,1.75l1.996-1.75
					c0.234-0.205,0.586-0.205,0.82,0l1.996,1.75l1.997-1.75c0.235-0.205,0.586-0.205,0.82,0l2.407,2.111
					c0.258,0.227,0.284,0.619,0.058,0.877C342.729,284.183,342.556,284.255,342.383,284.255z"/>
				<g>
					<circle fill="#FFFFFF" cx="323.271" cy="280.98" r="0.719"/>
					<circle fill="#FFFFFF" cx="328.046" cy="280.98" r="0.719"/>
					<circle fill="#FFFFFF" cx="332.821" cy="280.98" r="0.719"/>
					<circle fill="#FFFFFF" cx="337.596" cy="280.98" r="0.719"/>
				</g>
				<g>
					<circle fill="#FFFFFF" cx="325.463" cy="288.593" r="0.719"/>
					<circle fill="#FFFFFF" cx="330.238" cy="288.593" r="0.719"/>
					<circle fill="#FFFFFF" cx="335.014" cy="288.593" r="0.719"/>
					<circle fill="#FFFFFF" cx="339.788" cy="288.593" r="0.719"/>
				</g>
				<path fill="#FFFFFF" d="M340.144,278.201h-16.719c-0.245,0-0.444-0.197-0.444-0.443s0.199-0.443,0.444-0.443h16.719
					c0.245,0,0.444,0.197,0.444,0.443S340.389,278.201,340.144,278.201z"/>
				<path fill="#FFFFFF" d="M340.151,292.376h-16.339c-0.246,0-0.444-0.199-0.444-0.443c0-0.246,0.198-0.445,0.444-0.445h16.339
					c0.245,0,0.444,0.199,0.444,0.445C340.596,292.177,340.396,292.376,340.151,292.376z"/>
			</g>
		</g>
	</g>
	<polygon fill="#BCBEC0" points="412.18,246.151 4.774,246.151 17.443,234.834 4.774,222.665 412.18,222.665 399.511,234.844 	"/>
	<g>
		<g>
			<path fill="#BCBEC0" d="M130.535,294.703h-9.198l-7.82-14.165l-7.378,14.165H95.761c-1.509-5.181-3.116-10.378-4.82-15.592
				c-1.705-5.214-3.574-10.46-5.607-15.739l13.919-3.541l4.23,15.542l10.034-15.542l9.345,14.018l4.525-14.018l12.887,2.065
				L130.535,294.703z"/>
			<path fill="#BCBEC0" d="M146.373,294.703c0.196-5.115,0.295-10.23,0.295-15.346s-0.099-10.23-0.295-15.346h12.788
				c-0.197,5.115-0.304,10.23-0.32,15.346s0.091,10.23,0.32,15.346H146.373z"/>
			<path fill="#BCBEC0" d="M176.128,293.572c-1.541,0.983-3.246,1.803-5.115,2.459l-10.23-5.558
				c1.934-0.558,3.401-1.287,4.402-2.189c1-0.901,1.5-1.975,1.5-3.222c0-0.557-0.091-1.139-0.271-1.746
				c-0.181-0.606-0.467-1.237-0.86-1.894c-0.23-0.394-0.492-0.778-0.787-1.155s-0.59-0.746-0.886-1.107
				c-0.032-0.032-0.058-0.064-0.073-0.098c-0.018-0.032-0.042-0.065-0.074-0.099c-0.328-0.394-0.647-0.795-0.959-1.205
				c-0.312-0.409-0.582-0.828-0.812-1.254c-0.328-0.623-0.565-1.222-0.713-1.796c-0.147-0.573-0.222-1.122-0.222-1.647
				c0.032-1.049,0.295-2.041,0.787-2.976s1.099-1.812,1.82-2.632c0.852-0.885,1.885-1.655,3.099-2.312
				c1.212-0.655,2.59-1.245,4.131-1.771l8.657,5.214c-0.919,0.524-1.722,1.115-2.41,1.771c-0.688,0.656-1.214,1.377-1.574,2.164
				c-0.132,0.328-0.229,0.647-0.295,0.959c-0.066,0.312-0.099,0.632-0.099,0.959c0,0.559,0.099,1.082,0.295,1.574
				c0.197,0.492,0.476,0.951,0.837,1.377c1.377,1.476,2.45,2.927,3.221,4.354c0.771,1.426,1.156,2.861,1.156,4.304
				c0,0.59-0.073,1.188-0.222,1.795c-0.147,0.607-0.386,1.222-0.713,1.845C178.866,291.292,177.669,292.587,176.128,293.572z"/>
			<path fill="#BCBEC0" d="M200.622,294.703c0.065-1.672,0.123-3.345,0.172-5.017c0.05-1.673,0.091-3.328,0.123-4.968h-6.099
				c0,1.64,0.024,3.295,0.074,4.968c0.049,1.672,0.105,3.345,0.172,5.017h-12.788c0.229-5.115,0.336-10.23,0.319-15.346
				s-0.123-10.23-0.319-15.346h12.788c-0.066,1.606-0.123,3.238-0.172,4.894c-0.05,1.656-0.074,3.304-0.074,4.943h6.099
				c-0.032-1.64-0.073-3.287-0.123-4.943c-0.049-1.655-0.106-3.287-0.172-4.894h12.788c-0.196,5.115-0.304,10.23-0.319,15.346
				c-0.017,5.115,0.09,10.23,0.319,15.346H200.622z"/>
			<path fill="#BCBEC0" d="M238.938,294.703h-21.839c0.394-5.115,0.582-10.23,0.565-15.346s-0.205-10.23-0.565-15.346h13.034
				c-0.164,3.869-0.271,7.05-0.319,9.542c-0.05,2.492-0.074,4.837-0.074,7.033c0,0.558,0.008,1.106,0.024,1.647
				s0.024,1.091,0.024,1.648c1.837,0.032,3.558-0.017,5.165-0.148c1.606-0.13,3.197-0.327,4.771-0.59
				c0.229-0.032,0.451-0.073,0.664-0.123c0.213-0.049,0.435-0.09,0.664-0.123L238.938,294.703z"/>
			<path fill="#BCBEC0" d="M242.921,294.703c0.196-5.115,0.295-10.23,0.295-15.346s-0.099-10.23-0.295-15.346h12.788
				c-0.197,5.115-0.304,10.23-0.32,15.346s0.091,10.23,0.32,15.346H242.921z"/>
			<path fill="#BCBEC0" d="M272.677,293.572c-1.541,0.983-3.246,1.803-5.115,2.459l-10.23-5.558
				c1.935-0.558,3.401-1.287,4.402-2.189c1-0.901,1.5-1.975,1.5-3.222c0-0.557-0.091-1.139-0.271-1.746
				c-0.181-0.606-0.467-1.237-0.86-1.894c-0.23-0.394-0.492-0.778-0.787-1.155s-0.59-0.746-0.886-1.107
				c-0.032-0.032-0.058-0.064-0.073-0.098c-0.018-0.032-0.042-0.065-0.074-0.099c-0.328-0.394-0.647-0.795-0.959-1.205
				c-0.312-0.409-0.582-0.828-0.812-1.254c-0.328-0.623-0.565-1.222-0.713-1.796c-0.147-0.573-0.222-1.122-0.222-1.647
				c0.032-1.049,0.295-2.041,0.787-2.976s1.099-1.812,1.82-2.632c0.852-0.885,1.885-1.655,3.099-2.312
				c1.212-0.655,2.59-1.245,4.131-1.771l8.657,5.214c-0.919,0.524-1.722,1.115-2.41,1.771c-0.688,0.656-1.214,1.377-1.574,2.164
				c-0.132,0.328-0.229,0.647-0.295,0.959c-0.066,0.312-0.099,0.632-0.099,0.959c0,0.559,0.099,1.082,0.295,1.574
				c0.197,0.492,0.476,0.951,0.837,1.377c1.377,1.476,2.45,2.927,3.221,4.354c0.771,1.426,1.156,2.861,1.156,4.304
				c0,0.59-0.073,1.188-0.222,1.795c-0.147,0.607-0.386,1.222-0.713,1.845C275.415,291.292,274.218,292.587,272.677,293.572z"/>
			<path fill="#BCBEC0" d="M305.237,274.585c-0.492,0-0.992-0.032-1.5-0.098c-0.509-0.065-1.009-0.131-1.5-0.197
				c-0.559-0.065-1.106-0.131-1.647-0.196s-1.091-0.099-1.648-0.099c0,1.968,0,3.968,0,6.001s0.017,4.082,0.05,6.147
				c0.032,1.443,0.065,2.878,0.098,4.304c0.032,1.427,0.082,2.846,0.148,4.255h-12.346c0.065-1.442,0.114-2.894,0.147-4.353
				c0.032-1.459,0.065-2.91,0.099-4.354c0.032-2.032,0.049-4.041,0.049-6.025c0-1.983-0.017-3.942-0.049-5.877
				c-0.099,0-0.189,0-0.271,0c-0.083,0-0.173,0-0.271,0c-1.148,0.033-2.312,0.082-3.492,0.147c-1.181,0.066-2.361,0.246-3.542,0.541
				l0.935-10.771H307.5L305.237,274.585z"/>
		</g>
	</g>
	<g>
		<g>
			<g>
				<path fill="#BCBEC0" d="M47.036,288.34c0-6.022,4.899-10.921,10.921-10.921c6.023,0,10.922,4.898,10.922,10.921
					c0,6.022-4.899,10.921-10.922,10.921C51.935,299.261,47.036,294.363,47.036,288.34z M48.652,288.34
					c0,5.13,4.175,9.305,9.305,9.305c5.131,0,9.306-4.175,9.306-9.305c0-5.131-4.175-9.304-9.306-9.304
					C52.827,279.037,48.652,283.21,48.652,288.34z"/>
				<path fill="#BCBEC0" d="M54.813,279.224c0.402,0,0.729-0.325,0.729-0.727v-2.991h4.688v2.991c0,0.401,0.326,0.727,0.727,0.727
					c0.402,0,0.728-0.325,0.728-0.727v-3.718c0-0.402-0.325-0.728-0.728-0.728h-6.144c-0.401,0-0.727,0.326-0.727,0.728v3.718
					C54.087,278.899,54.412,279.224,54.813,279.224z"/>
				<path fill="#BCBEC0" d="M57.886,275.237c0.312,0,0.565-0.253,0.565-0.565v-31.26c0-0.312-0.253-0.565-0.565-0.565
					s-0.566,0.253-0.566,0.565v31.26C57.319,274.984,57.573,275.237,57.886,275.237z"/>
			</g>
			<path fill="#BCBEC0" d="M47.823,290.502c0.133,0,0.266-0.047,0.373-0.142l1.816-1.592l1.817,1.592
				c0.213,0.188,0.532,0.188,0.745,0l1.815-1.591l1.815,1.591c0.213,0.188,0.533,0.188,0.746,0l1.815-1.591l1.814,1.591
				c0.214,0.188,0.533,0.188,0.747,0l1.815-1.591l1.815,1.591c0.213,0.188,0.532,0.188,0.746,0l2.188-1.918
				c0.235-0.207,0.259-0.564,0.053-0.799c-0.206-0.235-0.563-0.259-0.799-0.053l-1.815,1.593l-1.815-1.593
				c-0.214-0.187-0.533-0.187-0.747,0l-1.815,1.593l-1.815-1.593c-0.214-0.187-0.533-0.187-0.746,0l-1.815,1.593l-1.816-1.593
				c-0.214-0.187-0.533-0.187-0.746,0l-1.815,1.593l-1.816-1.593c-0.214-0.187-0.533-0.187-0.746,0l-2.189,1.919
				c-0.234,0.206-0.259,0.565-0.052,0.799C47.51,290.438,47.666,290.502,47.823,290.502z"/>
			<path fill="#BCBEC0" d="M49.074,284.138h18.081c0.312,0,0.565-0.254,0.565-0.566s-0.253-0.566-0.565-0.566H49.074
				c-0.312,0-0.565,0.253-0.565,0.566S48.763,284.138,49.074,284.138z"/>
			<path fill="#BCBEC0" d="M48.917,294.02h18.08c0.312,0,0.566-0.253,0.566-0.565s-0.254-0.566-0.566-0.566h-18.08
				c-0.312,0-0.566,0.254-0.566,0.566S48.604,294.02,48.917,294.02z"/>
			<g>
				<path fill="#BCBEC0" d="M63.312,283.457c0.223,0,0.403-0.182,0.403-0.405v-2.87c0-0.223-0.181-0.404-0.403-0.404
					c-0.224,0-0.404,0.182-0.404,0.404v2.87C62.908,283.276,63.089,283.457,63.312,283.457z"/>
				<path fill="#BCBEC0" d="M61.442,283.457c0.223,0,0.404-0.182,0.404-0.405v-3.954c0-0.224-0.182-0.404-0.404-0.404
					c-0.223,0-0.404,0.181-0.404,0.404v3.954C61.038,283.276,61.22,283.457,61.442,283.457z"/>
				<path fill="#BCBEC0" d="M59.573,283.457c0.223,0,0.404-0.182,0.404-0.405v-4.213c0-0.224-0.182-0.405-0.404-0.405
					c-0.224,0-0.404,0.182-0.404,0.405v4.213C59.169,283.276,59.35,283.457,59.573,283.457z"/>
				<path fill="#BCBEC0" d="M57.703,283.457c0.224,0,0.404-0.182,0.404-0.405v-4.213c0-0.224-0.181-0.405-0.404-0.405
					c-0.223,0-0.404,0.182-0.404,0.405v4.213C57.299,283.276,57.48,283.457,57.703,283.457z"/>
				<path fill="#BCBEC0" d="M55.834,283.457c0.223,0,0.403-0.182,0.403-0.405v-4.213c0-0.224-0.181-0.405-0.403-0.405
					c-0.224,0-0.404,0.182-0.404,0.405v4.213C55.43,283.276,55.61,283.457,55.834,283.457z"/>
				<path fill="#BCBEC0" d="M53.964,283.457c0.224,0,0.404-0.182,0.404-0.405v-3.517c0-0.224-0.181-0.404-0.404-0.404
					c-0.223,0-0.404,0.181-0.404,0.404v3.517C53.559,283.276,53.741,283.457,53.964,283.457z"/>
				<path fill="#BCBEC0" d="M52.095,283.457c0.224,0,0.404-0.182,0.404-0.405v-2.87c0-0.223-0.181-0.404-0.404-0.404
					c-0.224,0-0.404,0.182-0.404,0.404v2.87C51.69,283.276,51.871,283.457,52.095,283.457z"/>
			</g>
			<g>
				<path fill="#BCBEC0" d="M52.418,297.364c0.223,0,0.404-0.182,0.404-0.404v-2.87c0-0.224-0.182-0.404-0.404-0.404
					c-0.224,0-0.404,0.181-0.404,0.404v2.87C52.014,297.182,52.194,297.364,52.418,297.364z"/>
				<path fill="#BCBEC0" d="M54.287,298.447c0.224,0,0.404-0.18,0.404-0.403v-3.954c0-0.224-0.181-0.404-0.404-0.404
					c-0.223,0-0.403,0.181-0.403,0.404v3.954C53.884,298.267,54.064,298.447,54.287,298.447z"/>
				<path fill="#BCBEC0" d="M56.157,298.707c0.224,0,0.403-0.181,0.403-0.404v-4.213c0-0.224-0.18-0.404-0.403-0.404
					c-0.224,0-0.404,0.181-0.404,0.404v4.213C55.753,298.526,55.934,298.707,56.157,298.707z"/>
				<path fill="#BCBEC0" d="M58.027,298.707c0.223,0,0.403-0.181,0.403-0.404v-4.213c0-0.224-0.181-0.404-0.403-0.404
					c-0.225,0-0.405,0.181-0.405,0.404v4.213C57.622,298.526,57.803,298.707,58.027,298.707z"/>
				<path fill="#BCBEC0" d="M59.896,298.707c0.223,0,0.404-0.181,0.404-0.404v-4.213c0-0.224-0.182-0.404-0.404-0.404
					c-0.224,0-0.404,0.181-0.404,0.404v4.213C59.492,298.526,59.673,298.707,59.896,298.707z"/>
				<path fill="#BCBEC0" d="M61.766,297.687c0.224,0,0.404-0.181,0.404-0.404v-3.193c0-0.224-0.181-0.404-0.404-0.404
					c-0.223,0-0.404,0.181-0.404,0.404v3.193C61.361,297.506,61.543,297.687,61.766,297.687z"/>
				<path fill="#BCBEC0" d="M63.636,297.364c0.223,0,0.403-0.182,0.403-0.404v-2.87c0-0.224-0.181-0.404-0.403-0.404
					c-0.224,0-0.404,0.181-0.404,0.404v2.87C63.231,297.182,63.412,297.364,63.636,297.364z"/>
			</g>
			<circle fill="#BCBEC0" cx="65.255" cy="286.658" r="0.654"/>
			<circle fill="#BCBEC0" cx="63.312" cy="291.23" r="0.654"/>
			<circle fill="#BCBEC0" cx="60.789" cy="286.658" r="0.654"/>
			<circle fill="#BCBEC0" cx="56.488" cy="286.658" r="0.654"/>
			<circle fill="#BCBEC0" cx="51.918" cy="286.803" r="0.654"/>
			<circle fill="#BCBEC0" cx="58.772" cy="291.158" r="0.654"/>
			<circle fill="#BCBEC0" cx="54.204" cy="291.303" r="0.654"/>
			<circle fill="#BCBEC0" cx="50.243" cy="291.303" r="0.654"/>
		</g>
	</g>
	<g>
		<g>
			<g>
				<path fill="#BCBEC0" d="M34.469,279.511c-6.621,0-12.008-5.387-12.008-12.008c0-6.621,5.387-12.008,12.008-12.008
					s12.008,5.387,12.008,12.008C46.476,274.125,41.09,279.511,34.469,279.511z M34.469,257.273c-5.641,0-10.231,4.59-10.231,10.23
					c0,5.641,4.59,10.23,10.231,10.23c5.642,0,10.23-4.59,10.23-10.23C44.699,261.863,40.11,257.273,34.469,257.273z"/>
				<path fill="#BCBEC0" d="M37.925,257.481c-0.441,0-0.8-0.358-0.8-0.8v-3.289h-5.154v3.289c0,0.441-0.358,0.8-0.8,0.8
					c-0.442,0-0.8-0.358-0.8-0.8v-4.088c0-0.441,0.357-0.801,0.8-0.801h6.754c0.442,0,0.8,0.359,0.8,0.801v4.088
					C38.725,257.122,38.367,257.481,37.925,257.481z"/>
				<path fill="#BCBEC0" d="M34.548,253.097c-0.344,0-0.622-0.279-0.622-0.623v-8.354c0-0.344,0.278-0.622,0.622-0.622
					c0.344,0,0.622,0.278,0.622,0.622v8.354C35.17,252.818,34.892,253.097,34.548,253.097z"/>
			</g>
			<path fill="#BCBEC0" d="M43.797,273.71H25.141c-0.344,0-0.622-0.277-0.622-0.621c0-0.344,0.278-0.623,0.622-0.623h18.656
				c0.344,0,0.622,0.279,0.622,0.623C44.419,273.433,44.141,273.71,43.797,273.71z"/>
			<path fill="#BCBEC0" d="M43.797,263.224H25.141c-0.344,0-0.622-0.278-0.622-0.622c0-0.344,0.278-0.622,0.622-0.622h18.656
				c0.344,0,0.622,0.278,0.622,0.622C44.419,262.946,44.141,263.224,43.797,263.224z"/>
			<path fill="#BCBEC0" d="M45.407,268.437H23.53c-0.344,0-0.622-0.277-0.622-0.621c0-0.344,0.278-0.623,0.622-0.623h21.877
				c0.344,0,0.622,0.279,0.622,0.623C46.029,268.16,45.751,268.437,45.407,268.437z"/>
			<g>
				<path fill="#BCBEC0" d="M27.293,266.601c-0.809,0-1.467-0.658-1.467-1.467s0.658-1.466,1.467-1.466
					c0.809,0,1.466,0.657,1.466,1.466S28.101,266.601,27.293,266.601z M27.293,264.557c-0.319,0-0.578,0.259-0.578,0.577
					c0,0.318,0.259,0.578,0.578,0.578c0.318,0,0.577-0.26,0.577-0.578C27.87,264.816,27.611,264.557,27.293,264.557z"/>
				<path fill="#BCBEC0" d="M30.881,266.601c-0.809,0-1.467-0.658-1.467-1.467s0.658-1.466,1.467-1.466
					c0.809,0,1.466,0.657,1.466,1.466S31.689,266.601,30.881,266.601z M30.881,264.557c-0.318,0-0.578,0.259-0.578,0.577
					c0,0.318,0.26,0.578,0.578,0.578c0.318,0,0.577-0.26,0.577-0.578C31.458,264.816,31.199,264.557,30.881,264.557z"/>
				<path fill="#BCBEC0" d="M34.469,266.601c-0.809,0-1.466-0.658-1.466-1.467s0.657-1.466,1.466-1.466
					c0.809,0,1.467,0.657,1.467,1.466S35.277,266.601,34.469,266.601z M34.469,264.557c-0.318,0-0.577,0.259-0.577,0.577
					c0,0.318,0.259,0.578,0.577,0.578c0.318,0,0.578-0.26,0.578-0.578C35.047,264.816,34.787,264.557,34.469,264.557z"/>
				<path fill="#BCBEC0" d="M38.057,266.601c-0.809,0-1.466-0.658-1.466-1.467s0.657-1.466,1.466-1.466s1.467,0.657,1.467,1.466
					S38.865,266.601,38.057,266.601z M38.057,264.557c-0.318,0-0.577,0.259-0.577,0.577c0,0.318,0.259,0.578,0.577,0.578
					c0.319,0,0.578-0.26,0.578-0.578C38.635,264.816,38.376,264.557,38.057,264.557z"/>
				<path fill="#BCBEC0" d="M41.646,266.601c-0.809,0-1.467-0.658-1.467-1.467s0.658-1.466,1.467-1.466
					c0.809,0,1.466,0.657,1.466,1.466S42.454,266.601,41.646,266.601z M41.646,264.557c-0.318,0-0.578,0.259-0.578,0.577
					c0,0.318,0.26,0.578,0.578,0.578c0.318,0,0.577-0.26,0.577-0.578C42.223,264.816,41.964,264.557,41.646,264.557z"/>
			</g>
			<g>
				<path fill="#BCBEC0" d="M27.293,271.835c-0.809,0-1.467-0.656-1.467-1.465s0.658-1.467,1.467-1.467
					c0.809,0,1.466,0.658,1.466,1.467S28.101,271.835,27.293,271.835z M27.293,269.793c-0.319,0-0.578,0.26-0.578,0.578
					c0,0.318,0.259,0.576,0.578,0.576c0.318,0,0.577-0.258,0.577-0.576C27.87,270.052,27.611,269.793,27.293,269.793z"/>
				<path fill="#BCBEC0" d="M30.881,271.835c-0.809,0-1.467-0.656-1.467-1.465s0.658-1.467,1.467-1.467
					c0.809,0,1.466,0.658,1.466,1.467S31.689,271.835,30.881,271.835z M30.881,269.793c-0.318,0-0.578,0.26-0.578,0.578
					c0,0.318,0.26,0.576,0.578,0.576c0.318,0,0.577-0.258,0.577-0.576C31.458,270.052,31.199,269.793,30.881,269.793z"/>
				<path fill="#BCBEC0" d="M34.469,271.835c-0.809,0-1.466-0.656-1.466-1.465s0.657-1.467,1.466-1.467
					c0.809,0,1.467,0.658,1.467,1.467S35.277,271.835,34.469,271.835z M34.469,269.793c-0.318,0-0.577,0.26-0.577,0.578
					c0,0.318,0.259,0.576,0.577,0.576c0.318,0,0.578-0.258,0.578-0.576C35.047,270.052,34.787,269.793,34.469,269.793z"/>
				<path fill="#BCBEC0" d="M38.057,271.835c-0.809,0-1.466-0.656-1.466-1.465s0.657-1.467,1.466-1.467s1.467,0.658,1.467,1.467
					S38.865,271.835,38.057,271.835z M38.057,269.793c-0.318,0-0.577,0.26-0.577,0.578c0,0.318,0.259,0.576,0.577,0.576
					c0.319,0,0.578-0.258,0.578-0.576C38.635,270.052,38.376,269.793,38.057,269.793z"/>
				<path fill="#BCBEC0" d="M41.646,271.835c-0.809,0-1.467-0.656-1.467-1.465s0.658-1.467,1.467-1.467
					c0.809,0,1.466,0.658,1.466,1.467S42.454,271.835,41.646,271.835z M41.646,269.793c-0.318,0-0.578,0.26-0.578,0.578
					c0,0.318,0.26,0.576,0.578,0.576c0.318,0,0.577-0.258,0.577-0.576C42.223,270.052,41.964,269.793,41.646,269.793z"/>
			</g>
			<path fill="#BCBEC0" d="M43.313,261.21H26.271c-0.245,0-0.444-0.198-0.444-0.444s0.199-0.444,0.444-0.444h17.043
				c0.245,0,0.444,0.198,0.444,0.444S43.559,261.21,43.313,261.21z"/>
			<path fill="#BCBEC0" d="M42.413,275.429H26.448c-0.245,0-0.444-0.199-0.444-0.445c0-0.244,0.199-0.443,0.444-0.443h15.965
				c0.245,0,0.444,0.199,0.444,0.443C42.857,275.23,42.658,275.429,42.413,275.429z"/>
		</g>
	</g>
	<g>
		<g>
			<g>
				<path fill="#BCBEC0" d="M1,313.136c0-6.621,5.387-12.008,12.008-12.008s12.008,5.387,12.008,12.008s-5.387,12.008-12.008,12.008
					S1,319.757,1,313.136z M2.777,313.136c0,5.641,4.589,10.23,10.231,10.23c5.641,0,10.23-4.59,10.23-10.23
					s-4.59-10.23-10.23-10.23C7.366,302.906,2.777,307.496,2.777,313.136z"/>
				<path fill="#BCBEC0" d="M9.551,303.114c0.441,0,0.801-0.358,0.801-0.8v-3.289h5.154v3.289c0,0.441,0.357,0.8,0.799,0.8
					c0.442,0,0.801-0.358,0.801-0.8v-4.088c0-0.441-0.358-0.801-0.801-0.801H9.551c-0.441,0-0.799,0.359-0.799,0.801v4.088
					C8.752,302.755,9.109,303.114,9.551,303.114z"/>
				<path fill="#BCBEC0" d="M12.928,298.73c0.344,0,0.623-0.279,0.623-0.623v-55.354c0-0.344-0.279-0.622-0.623-0.622
					c-0.343,0-0.621,0.278-0.621,0.622v55.354C12.307,298.451,12.585,298.73,12.928,298.73z"/>
			</g>
			<g>
				<path fill="#BCBEC0" d="M5.814,317.566c1.264,0,1.862-1.062,2.342-1.916c0.447-0.795,0.748-1.283,1.258-1.283
					c0.51,0,0.811,0.488,1.258,1.283c0.481,0.853,1.078,1.916,2.342,1.916c1.264,0,1.861-1.062,2.342-1.916
					c0.447-0.795,0.746-1.283,1.257-1.283c0.51,0,0.809,0.488,1.257,1.283c0.48,0.853,1.078,1.916,2.342,1.916
					s1.861-1.062,2.342-1.916c0.447-0.795,0.747-1.283,1.258-1.283c0.343,0,0.621-0.277,0.621-0.621
					c0-0.344-0.278-0.623-0.621-0.623c-1.264,0-1.861,1.062-2.342,1.918c-0.447,0.795-0.748,1.281-1.258,1.281
					c-0.51,0-0.81-0.486-1.258-1.281c-0.48-0.855-1.077-1.918-2.341-1.918c-1.263,0-1.861,1.062-2.342,1.918
					c-0.446,0.795-0.747,1.281-1.257,1.281c-0.51,0-0.81-0.486-1.258-1.281c-0.48-0.855-1.078-1.918-2.342-1.918
					c-1.264,0-1.861,1.062-2.342,1.918c-0.447,0.795-0.748,1.281-1.258,1.281c-0.51,0-0.81-0.486-1.257-1.281
					c-0.481-0.855-1.079-1.918-2.343-1.918c-0.343,0-0.621,0.279-0.621,0.623c0,0.344,0.278,0.621,0.621,0.621
					c0.51,0,0.811,0.488,1.258,1.283C3.953,316.503,4.551,317.566,5.814,317.566z"/>
				<path fill="#BCBEC0" d="M5.814,313.501c1.264,0,1.862-1.062,2.342-1.917c0.447-0.796,0.748-1.282,1.258-1.282
					c0.51,0,0.811,0.486,1.258,1.282c0.481,0.854,1.078,1.917,2.342,1.917c1.264,0,1.861-1.062,2.342-1.917
					c0.447-0.796,0.746-1.282,1.257-1.282c0.51,0,0.809,0.486,1.257,1.282c0.48,0.854,1.078,1.917,2.342,1.917
					s1.861-1.062,2.342-1.917c0.447-0.796,0.747-1.282,1.258-1.282c0.343,0,0.621-0.279,0.621-0.623
					c0-0.343-0.278-0.621-0.621-0.621c-1.264,0-1.861,1.062-2.342,1.916c-0.447,0.795-0.748,1.283-1.258,1.283
					c-0.51,0-0.81-0.488-1.258-1.283c-0.48-0.853-1.077-1.916-2.341-1.916c-1.263,0-1.861,1.062-2.342,1.916
					c-0.446,0.795-0.747,1.283-1.257,1.283c-0.51,0-0.81-0.488-1.258-1.283c-0.48-0.853-1.078-1.916-2.342-1.916
					c-1.264,0-1.861,1.062-2.342,1.916c-0.447,0.796-0.748,1.283-1.258,1.283c-0.51,0-0.81-0.488-1.257-1.283
					c-0.481-0.853-1.079-1.916-2.343-1.916c-0.343,0-0.621,0.278-0.621,0.621c0,0.344,0.278,0.623,0.621,0.623
					c0.51,0,0.811,0.486,1.258,1.282C3.953,312.439,4.551,313.501,5.814,313.501z"/>
			</g>
			<path fill="#BCBEC0" d="M4.754,321.281h15.965c0.343,0,0.621-0.277,0.621-0.621c0-0.344-0.278-0.623-0.621-0.623H4.754
				c-0.344,0-0.623,0.279-0.623,0.623C4.131,321.003,4.41,321.281,4.754,321.281z"/>
			<path fill="#BCBEC0" d="M4.754,306.347h15.965c0.343,0,0.621-0.279,0.621-0.623c0-0.344-0.278-0.621-0.621-0.621H4.754
				c-0.344,0-0.623,0.277-0.623,0.621C4.131,306.068,4.41,306.347,4.754,306.347z"/>
		</g>
	</g>
	<g>
		<g>
			<g>
				<path fill="#FFFFFF" d="M46.036,286.34c0-6.022,4.899-10.921,10.921-10.921c6.023,0,10.922,4.898,10.922,10.921
					c0,6.022-4.899,10.921-10.922,10.921C50.935,297.261,46.036,292.363,46.036,286.34z M47.652,286.34
					c0,5.13,4.175,9.305,9.305,9.305c5.131,0,9.306-4.175,9.306-9.305c0-5.131-4.175-9.304-9.306-9.304
					C51.827,277.037,47.652,281.21,47.652,286.34z"/>
				<path fill="#FFFFFF" d="M53.813,277.224c0.402,0,0.729-0.325,0.729-0.727v-2.991h4.688v2.991c0,0.401,0.326,0.727,0.727,0.727
					c0.402,0,0.728-0.325,0.728-0.727v-3.718c0-0.402-0.325-0.728-0.728-0.728h-6.144c-0.401,0-0.727,0.326-0.727,0.728v3.718
					C53.087,276.899,53.412,277.224,53.813,277.224z"/>
				<path fill="#FFFFFF" d="M56.886,273.237c0.312,0,0.565-0.253,0.565-0.565v-31.26c0-0.312-0.253-0.565-0.565-0.565
					s-0.566,0.253-0.566,0.565v31.26C56.319,272.984,56.573,273.237,56.886,273.237z"/>
			</g>
			<path fill="#FFFFFF" d="M46.823,288.502c0.133,0,0.266-0.047,0.373-0.142l1.816-1.592l1.817,1.592
				c0.213,0.188,0.532,0.188,0.745,0l1.815-1.591l1.815,1.591c0.213,0.188,0.533,0.188,0.746,0l1.815-1.591l1.814,1.591
				c0.214,0.188,0.533,0.188,0.747,0l1.815-1.591l1.815,1.591c0.213,0.188,0.532,0.188,0.746,0l2.188-1.918
				c0.235-0.207,0.259-0.564,0.053-0.799c-0.206-0.235-0.563-0.259-0.799-0.053l-1.815,1.593l-1.815-1.593
				c-0.214-0.187-0.533-0.187-0.747,0l-1.815,1.593l-1.815-1.593c-0.214-0.187-0.533-0.187-0.746,0l-1.815,1.593l-1.816-1.593
				c-0.214-0.187-0.533-0.187-0.746,0l-1.815,1.593l-1.816-1.593c-0.214-0.187-0.533-0.187-0.746,0l-2.189,1.919
				c-0.234,0.206-0.259,0.565-0.052,0.799C46.51,288.438,46.666,288.502,46.823,288.502z"/>
			<path fill="#FFFFFF" d="M48.074,282.138h18.081c0.312,0,0.565-0.254,0.565-0.566s-0.253-0.566-0.565-0.566H48.074
				c-0.312,0-0.565,0.253-0.565,0.566S47.763,282.138,48.074,282.138z"/>
			<path fill="#FFFFFF" d="M47.917,292.02h18.08c0.312,0,0.566-0.253,0.566-0.565s-0.254-0.566-0.566-0.566h-18.08
				c-0.312,0-0.566,0.254-0.566,0.566S47.604,292.02,47.917,292.02z"/>
			<g>
				<path fill="#FFFFFF" d="M62.312,281.457c0.223,0,0.403-0.182,0.403-0.405v-2.87c0-0.223-0.181-0.404-0.403-0.404
					c-0.224,0-0.404,0.182-0.404,0.404v2.87C61.908,281.276,62.089,281.457,62.312,281.457z"/>
				<path fill="#FFFFFF" d="M60.442,281.457c0.223,0,0.404-0.182,0.404-0.405v-3.954c0-0.224-0.182-0.404-0.404-0.404
					c-0.223,0-0.404,0.181-0.404,0.404v3.954C60.038,281.276,60.22,281.457,60.442,281.457z"/>
				<path fill="#FFFFFF" d="M58.573,281.457c0.223,0,0.404-0.182,0.404-0.405v-4.213c0-0.224-0.182-0.405-0.404-0.405
					c-0.224,0-0.404,0.182-0.404,0.405v4.213C58.169,281.276,58.35,281.457,58.573,281.457z"/>
				<path fill="#FFFFFF" d="M56.703,281.457c0.224,0,0.404-0.182,0.404-0.405v-4.213c0-0.224-0.181-0.405-0.404-0.405
					c-0.223,0-0.404,0.182-0.404,0.405v4.213C56.299,281.276,56.48,281.457,56.703,281.457z"/>
				<path fill="#FFFFFF" d="M54.834,281.457c0.223,0,0.403-0.182,0.403-0.405v-4.213c0-0.224-0.181-0.405-0.403-0.405
					c-0.224,0-0.404,0.182-0.404,0.405v4.213C54.43,281.276,54.61,281.457,54.834,281.457z"/>
				<path fill="#FFFFFF" d="M52.964,281.457c0.224,0,0.404-0.182,0.404-0.405v-3.517c0-0.224-0.181-0.404-0.404-0.404
					c-0.223,0-0.404,0.181-0.404,0.404v3.517C52.559,281.276,52.741,281.457,52.964,281.457z"/>
				<path fill="#FFFFFF" d="M51.095,281.457c0.224,0,0.404-0.182,0.404-0.405v-2.87c0-0.223-0.181-0.404-0.404-0.404
					c-0.224,0-0.404,0.182-0.404,0.404v2.87C50.69,281.276,50.871,281.457,51.095,281.457z"/>
			</g>
			<g>
				<path fill="#FFFFFF" d="M51.418,295.364c0.223,0,0.404-0.182,0.404-0.404v-2.87c0-0.224-0.182-0.404-0.404-0.404
					c-0.224,0-0.404,0.181-0.404,0.404v2.87C51.014,295.182,51.194,295.364,51.418,295.364z"/>
				<path fill="#FFFFFF" d="M53.287,296.447c0.224,0,0.404-0.18,0.404-0.403v-3.954c0-0.224-0.181-0.404-0.404-0.404
					c-0.223,0-0.403,0.181-0.403,0.404v3.954C52.884,296.267,53.064,296.447,53.287,296.447z"/>
				<path fill="#FFFFFF" d="M55.157,296.707c0.224,0,0.403-0.181,0.403-0.404v-4.213c0-0.224-0.18-0.404-0.403-0.404
					c-0.224,0-0.404,0.181-0.404,0.404v4.213C54.753,296.526,54.934,296.707,55.157,296.707z"/>
				<path fill="#FFFFFF" d="M57.027,296.707c0.223,0,0.403-0.181,0.403-0.404v-4.213c0-0.224-0.181-0.404-0.403-0.404
					c-0.225,0-0.405,0.181-0.405,0.404v4.213C56.622,296.526,56.803,296.707,57.027,296.707z"/>
				<path fill="#FFFFFF" d="M58.896,296.707c0.223,0,0.404-0.181,0.404-0.404v-4.213c0-0.224-0.182-0.404-0.404-0.404
					c-0.224,0-0.404,0.181-0.404,0.404v4.213C58.492,296.526,58.673,296.707,58.896,296.707z"/>
				<path fill="#FFFFFF" d="M60.766,295.687c0.224,0,0.404-0.181,0.404-0.404v-3.193c0-0.224-0.181-0.404-0.404-0.404
					c-0.223,0-0.404,0.181-0.404,0.404v3.193C60.361,295.506,60.543,295.687,60.766,295.687z"/>
				<path fill="#FFFFFF" d="M62.636,295.364c0.223,0,0.403-0.182,0.403-0.404v-2.87c0-0.224-0.181-0.404-0.403-0.404
					c-0.224,0-0.404,0.181-0.404,0.404v2.87C62.231,295.182,62.412,295.364,62.636,295.364z"/>
			</g>
			<circle fill="#FFFFFF" cx="64.255" cy="284.658" r="0.654"/>
			<circle fill="#FFFFFF" cx="62.312" cy="289.23" r="0.654"/>
			<circle fill="#FFFFFF" cx="59.789" cy="284.658" r="0.654"/>
			<circle fill="#FFFFFF" cx="55.488" cy="284.658" r="0.654"/>
			<circle fill="#FFFFFF" cx="50.918" cy="284.803" r="0.654"/>
			<circle fill="#FFFFFF" cx="57.772" cy="289.158" r="0.654"/>
			<circle fill="#FFFFFF" cx="53.204" cy="289.303" r="0.654"/>
			<circle fill="#FFFFFF" cx="49.243" cy="289.303" r="0.654"/>
		</g>
	</g>
	<g>
		<g>
			<g>
				<path fill="#FFFFFF" d="M33.469,277.511c-6.621,0-12.008-5.387-12.008-12.008c0-6.621,5.387-12.008,12.008-12.008
					s12.008,5.387,12.008,12.008C45.476,272.125,40.09,277.511,33.469,277.511z M33.469,255.273c-5.641,0-10.231,4.59-10.231,10.23
					c0,5.641,4.59,10.23,10.231,10.23c5.642,0,10.23-4.59,10.23-10.23C43.699,259.863,39.11,255.273,33.469,255.273z"/>
				<path fill="#FFFFFF" d="M36.925,255.481c-0.441,0-0.8-0.358-0.8-0.8v-3.289h-5.154v3.289c0,0.441-0.358,0.8-0.8,0.8
					c-0.442,0-0.8-0.358-0.8-0.8v-4.088c0-0.441,0.357-0.801,0.8-0.801h6.754c0.442,0,0.8,0.359,0.8,0.801v4.088
					C37.725,255.122,37.367,255.481,36.925,255.481z"/>
				<path fill="#FFFFFF" d="M33.548,251.097c-0.344,0-0.622-0.279-0.622-0.623v-8.354c0-0.344,0.278-0.622,0.622-0.622
					c0.344,0,0.622,0.278,0.622,0.622v8.354C34.17,250.818,33.892,251.097,33.548,251.097z"/>
			</g>
			<path fill="#FFFFFF" d="M42.797,271.71H24.141c-0.344,0-0.622-0.277-0.622-0.621c0-0.344,0.278-0.623,0.622-0.623h18.656
				c0.344,0,0.622,0.279,0.622,0.623C43.419,271.433,43.141,271.71,42.797,271.71z"/>
			<path fill="#FFFFFF" d="M42.797,261.224H24.141c-0.344,0-0.622-0.278-0.622-0.622c0-0.344,0.278-0.622,0.622-0.622h18.656
				c0.344,0,0.622,0.278,0.622,0.622C43.419,260.946,43.141,261.224,42.797,261.224z"/>
			<path fill="#FFFFFF" d="M44.407,266.437H22.53c-0.344,0-0.622-0.277-0.622-0.621c0-0.344,0.278-0.623,0.622-0.623h21.877
				c0.344,0,0.622,0.279,0.622,0.623C45.029,266.16,44.751,266.437,44.407,266.437z"/>
			<g>
				<path fill="#FFFFFF" d="M26.293,264.601c-0.809,0-1.467-0.658-1.467-1.467s0.658-1.466,1.467-1.466
					c0.809,0,1.466,0.657,1.466,1.466S27.101,264.601,26.293,264.601z M26.293,262.557c-0.319,0-0.578,0.259-0.578,0.577
					c0,0.318,0.259,0.578,0.578,0.578c0.318,0,0.577-0.26,0.577-0.578C26.87,262.816,26.611,262.557,26.293,262.557z"/>
				<path fill="#FFFFFF" d="M29.881,264.601c-0.809,0-1.467-0.658-1.467-1.467s0.658-1.466,1.467-1.466
					c0.809,0,1.466,0.657,1.466,1.466S30.689,264.601,29.881,264.601z M29.881,262.557c-0.318,0-0.578,0.259-0.578,0.577
					c0,0.318,0.26,0.578,0.578,0.578c0.318,0,0.577-0.26,0.577-0.578C30.458,262.816,30.199,262.557,29.881,262.557z"/>
				<path fill="#FFFFFF" d="M33.469,264.601c-0.809,0-1.466-0.658-1.466-1.467s0.657-1.466,1.466-1.466
					c0.809,0,1.467,0.657,1.467,1.466S34.277,264.601,33.469,264.601z M33.469,262.557c-0.318,0-0.577,0.259-0.577,0.577
					c0,0.318,0.259,0.578,0.577,0.578c0.318,0,0.578-0.26,0.578-0.578C34.047,262.816,33.787,262.557,33.469,262.557z"/>
				<path fill="#FFFFFF" d="M37.057,264.601c-0.809,0-1.466-0.658-1.466-1.467s0.657-1.466,1.466-1.466s1.467,0.657,1.467,1.466
					S37.865,264.601,37.057,264.601z M37.057,262.557c-0.318,0-0.577,0.259-0.577,0.577c0,0.318,0.259,0.578,0.577,0.578
					c0.319,0,0.578-0.26,0.578-0.578C37.635,262.816,37.376,262.557,37.057,262.557z"/>
				<path fill="#FFFFFF" d="M40.646,264.601c-0.809,0-1.467-0.658-1.467-1.467s0.658-1.466,1.467-1.466
					c0.809,0,1.466,0.657,1.466,1.466S41.454,264.601,40.646,264.601z M40.646,262.557c-0.318,0-0.578,0.259-0.578,0.577
					c0,0.318,0.26,0.578,0.578,0.578c0.318,0,0.577-0.26,0.577-0.578C41.223,262.816,40.964,262.557,40.646,262.557z"/>
			</g>
			<g>
				<path fill="#FFFFFF" d="M26.293,269.835c-0.809,0-1.467-0.656-1.467-1.465s0.658-1.467,1.467-1.467
					c0.809,0,1.466,0.658,1.466,1.467S27.101,269.835,26.293,269.835z M26.293,267.793c-0.319,0-0.578,0.26-0.578,0.578
					c0,0.318,0.259,0.576,0.578,0.576c0.318,0,0.577-0.258,0.577-0.576C26.87,268.052,26.611,267.793,26.293,267.793z"/>
				<path fill="#FFFFFF" d="M29.881,269.835c-0.809,0-1.467-0.656-1.467-1.465s0.658-1.467,1.467-1.467
					c0.809,0,1.466,0.658,1.466,1.467S30.689,269.835,29.881,269.835z M29.881,267.793c-0.318,0-0.578,0.26-0.578,0.578
					c0,0.318,0.26,0.576,0.578,0.576c0.318,0,0.577-0.258,0.577-0.576C30.458,268.052,30.199,267.793,29.881,267.793z"/>
				<path fill="#FFFFFF" d="M33.469,269.835c-0.809,0-1.466-0.656-1.466-1.465s0.657-1.467,1.466-1.467
					c0.809,0,1.467,0.658,1.467,1.467S34.277,269.835,33.469,269.835z M33.469,267.793c-0.318,0-0.577,0.26-0.577,0.578
					c0,0.318,0.259,0.576,0.577,0.576c0.318,0,0.578-0.258,0.578-0.576C34.047,268.052,33.787,267.793,33.469,267.793z"/>
				<path fill="#FFFFFF" d="M37.057,269.835c-0.809,0-1.466-0.656-1.466-1.465s0.657-1.467,1.466-1.467s1.467,0.658,1.467,1.467
					S37.865,269.835,37.057,269.835z M37.057,267.793c-0.318,0-0.577,0.26-0.577,0.578c0,0.318,0.259,0.576,0.577,0.576
					c0.319,0,0.578-0.258,0.578-0.576C37.635,268.052,37.376,267.793,37.057,267.793z"/>
				<path fill="#FFFFFF" d="M40.646,269.835c-0.809,0-1.467-0.656-1.467-1.465s0.658-1.467,1.467-1.467
					c0.809,0,1.466,0.658,1.466,1.467S41.454,269.835,40.646,269.835z M40.646,267.793c-0.318,0-0.578,0.26-0.578,0.578
					c0,0.318,0.26,0.576,0.578,0.576c0.318,0,0.577-0.258,0.577-0.576C41.223,268.052,40.964,267.793,40.646,267.793z"/>
			</g>
			<path fill="#FFFFFF" d="M42.313,259.21H25.271c-0.245,0-0.444-0.198-0.444-0.444s0.199-0.444,0.444-0.444h17.043
				c0.245,0,0.444,0.198,0.444,0.444S42.559,259.21,42.313,259.21z"/>
			<path fill="#FFFFFF" d="M41.413,273.429H25.448c-0.245,0-0.444-0.199-0.444-0.445c0-0.244,0.199-0.443,0.444-0.443h15.965
				c0.245,0,0.444,0.199,0.444,0.443C41.857,273.23,41.658,273.429,41.413,273.429z"/>
		</g>
	</g>
	<g>
		<g>
			<g>
				<path fill="#FFFFFF" d="M0,311.136c0-6.621,5.387-12.008,12.008-12.008s12.008,5.387,12.008,12.008s-5.387,12.008-12.008,12.008
					S0,317.757,0,311.136z M1.777,311.136c0,5.641,4.589,10.23,10.231,10.23c5.641,0,10.23-4.59,10.23-10.23
					s-4.59-10.23-10.23-10.23C6.366,300.906,1.777,305.496,1.777,311.136z"/>
				<path fill="#FFFFFF" d="M8.551,301.114c0.441,0,0.801-0.358,0.801-0.8v-3.289h5.154v3.289c0,0.441,0.357,0.8,0.799,0.8
					c0.442,0,0.801-0.358,0.801-0.8v-4.088c0-0.441-0.358-0.801-0.801-0.801H8.551c-0.441,0-0.799,0.359-0.799,0.801v4.088
					C7.752,300.755,8.109,301.114,8.551,301.114z"/>
				<path fill="#FFFFFF" d="M11.928,296.73c0.344,0,0.623-0.279,0.623-0.623v-55.354c0-0.344-0.279-0.622-0.623-0.622
					c-0.343,0-0.621,0.278-0.621,0.622v55.354C11.307,296.451,11.585,296.73,11.928,296.73z"/>
			</g>
			<g>
				<path fill="#FFFFFF" d="M4.814,315.566c1.264,0,1.862-1.062,2.342-1.916c0.447-0.795,0.748-1.283,1.258-1.283
					c0.51,0,0.811,0.488,1.258,1.283c0.481,0.853,1.078,1.916,2.342,1.916c1.264,0,1.861-1.062,2.342-1.916
					c0.447-0.795,0.746-1.283,1.257-1.283c0.51,0,0.809,0.488,1.257,1.283c0.48,0.853,1.078,1.916,2.342,1.916
					s1.861-1.062,2.342-1.916c0.447-0.795,0.747-1.283,1.258-1.283c0.343,0,0.621-0.277,0.621-0.621
					c0-0.344-0.278-0.623-0.621-0.623c-1.264,0-1.861,1.062-2.342,1.918c-0.447,0.795-0.748,1.281-1.258,1.281
					c-0.51,0-0.81-0.486-1.258-1.281c-0.48-0.855-1.077-1.918-2.341-1.918c-1.263,0-1.861,1.062-2.342,1.918
					c-0.446,0.795-0.747,1.281-1.257,1.281c-0.51,0-0.81-0.486-1.258-1.281c-0.48-0.855-1.078-1.918-2.342-1.918
					c-1.264,0-1.861,1.062-2.342,1.918c-0.447,0.795-0.748,1.281-1.258,1.281c-0.51,0-0.81-0.486-1.257-1.281
					c-0.481-0.855-1.079-1.918-2.343-1.918c-0.343,0-0.621,0.279-0.621,0.623c0,0.344,0.278,0.621,0.621,0.621
					c0.51,0,0.811,0.488,1.258,1.283C2.953,314.503,3.551,315.566,4.814,315.566z"/>
				<path fill="#FFFFFF" d="M4.814,311.501c1.264,0,1.862-1.062,2.342-1.917c0.447-0.796,0.748-1.282,1.258-1.282
					c0.51,0,0.811,0.486,1.258,1.282c0.481,0.854,1.078,1.917,2.342,1.917c1.264,0,1.861-1.062,2.342-1.917
					c0.447-0.796,0.746-1.282,1.257-1.282c0.51,0,0.809,0.486,1.257,1.282c0.48,0.854,1.078,1.917,2.342,1.917
					s1.861-1.062,2.342-1.917c0.447-0.796,0.747-1.282,1.258-1.282c0.343,0,0.621-0.279,0.621-0.623
					c0-0.343-0.278-0.621-0.621-0.621c-1.264,0-1.861,1.062-2.342,1.916c-0.447,0.795-0.748,1.283-1.258,1.283
					c-0.51,0-0.81-0.488-1.258-1.283c-0.48-0.853-1.077-1.916-2.341-1.916c-1.263,0-1.861,1.062-2.342,1.916
					c-0.446,0.795-0.747,1.283-1.257,1.283c-0.51,0-0.81-0.488-1.258-1.283c-0.48-0.853-1.078-1.916-2.342-1.916
					c-1.264,0-1.861,1.062-2.342,1.916c-0.447,0.796-0.748,1.283-1.258,1.283c-0.51,0-0.81-0.488-1.257-1.283
					c-0.481-0.853-1.079-1.916-2.343-1.916c-0.343,0-0.621,0.278-0.621,0.621c0,0.344,0.278,0.623,0.621,0.623
					c0.51,0,0.811,0.486,1.258,1.282C2.953,310.439,3.551,311.501,4.814,311.501z"/>
			</g>
			<path fill="#FFFFFF" d="M3.754,319.281h15.965c0.343,0,0.621-0.277,0.621-0.621c0-0.344-0.278-0.623-0.621-0.623H3.754
				c-0.344,0-0.623,0.279-0.623,0.623C3.131,319.003,3.41,319.281,3.754,319.281z"/>
			<path fill="#FFFFFF" d="M3.754,304.347h15.965c0.343,0,0.621-0.279,0.621-0.623c0-0.344-0.278-0.621-0.621-0.621H3.754
				c-0.344,0-0.623,0.277-0.623,0.621C3.131,304.068,3.41,304.347,3.754,304.347z"/>
		</g>
	</g>
	<polygon fill="#FFFFFF" points="412.861,242.57 4.137,242.57 16.847,231.253 4.137,219.084 412.861,219.084 400.151,231.263 	"/>
</g>
<g>
	<path fill="#FFFFFF" d="M128.799,293.337h-9.198l-7.82-14.165l-7.378,14.165H94.026c-1.509-5.181-3.116-10.378-4.82-15.592
		c-1.705-5.214-3.574-10.46-5.607-15.739l13.919-3.541l4.23,15.542l10.034-15.542l9.345,14.018l4.525-14.018l12.887,2.065
		L128.799,293.337z"/>
	<path fill="#FFFFFF" d="M144.637,293.337c0.196-5.115,0.295-10.23,0.295-15.346s-0.099-10.23-0.295-15.346h12.788
		c-0.197,5.115-0.304,10.23-0.32,15.346s0.091,10.23,0.32,15.346H144.637z"/>
	<path fill="#FFFFFF" d="M174.393,292.207c-1.541,0.983-3.246,1.803-5.115,2.459l-10.23-5.558c1.935-0.558,3.401-1.287,4.402-2.189
		c1-0.901,1.5-1.975,1.5-3.222c0-0.557-0.091-1.139-0.271-1.746c-0.181-0.606-0.467-1.237-0.86-1.894
		c-0.23-0.394-0.492-0.778-0.787-1.155s-0.59-0.746-0.886-1.107c-0.032-0.032-0.058-0.064-0.073-0.098
		c-0.018-0.032-0.042-0.065-0.074-0.099c-0.328-0.394-0.647-0.795-0.959-1.205c-0.312-0.409-0.582-0.828-0.812-1.254
		c-0.328-0.623-0.565-1.222-0.713-1.796c-0.147-0.573-0.222-1.122-0.222-1.647c0.032-1.049,0.295-2.041,0.787-2.976
		s1.099-1.812,1.82-2.632c0.852-0.885,1.885-1.655,3.099-2.312c1.212-0.655,2.59-1.245,4.131-1.771l8.657,5.214
		c-0.919,0.524-1.722,1.115-2.41,1.771c-0.688,0.656-1.214,1.377-1.574,2.164c-0.132,0.328-0.229,0.647-0.295,0.959
		c-0.066,0.312-0.099,0.632-0.099,0.959c0,0.559,0.099,1.082,0.295,1.574c0.197,0.492,0.476,0.951,0.837,1.377
		c1.377,1.476,2.45,2.927,3.221,4.354c0.771,1.426,1.156,2.861,1.156,4.304c0,0.59-0.073,1.188-0.222,1.795
		c-0.147,0.607-0.386,1.222-0.713,1.845C177.131,289.927,175.934,291.222,174.393,292.207z"/>
	<path fill="#FFFFFF" d="M198.887,293.337c0.065-1.672,0.123-3.345,0.172-5.017c0.05-1.673,0.091-3.328,0.123-4.968h-6.099
		c0,1.64,0.024,3.295,0.074,4.968c0.049,1.672,0.105,3.345,0.172,5.017h-12.788c0.229-5.115,0.336-10.23,0.319-15.346
		s-0.123-10.23-0.319-15.346h12.788c-0.066,1.606-0.123,3.238-0.172,4.894c-0.05,1.656-0.074,3.304-0.074,4.943h6.099
		c-0.032-1.64-0.073-3.287-0.123-4.943c-0.049-1.655-0.106-3.287-0.172-4.894h12.788c-0.196,5.115-0.304,10.23-0.319,15.346
		c-0.017,5.115,0.09,10.23,0.319,15.346H198.887z"/>
	<path fill="#FFFFFF" d="M237.202,293.337h-21.839c0.394-5.115,0.582-10.23,0.565-15.346s-0.205-10.23-0.565-15.346h13.034
		c-0.164,3.869-0.271,7.05-0.319,9.542c-0.05,2.492-0.074,4.837-0.074,7.033c0,0.558,0.008,1.106,0.024,1.647
		s0.024,1.091,0.024,1.648c1.837,0.032,3.558-0.017,5.165-0.148c1.606-0.13,3.197-0.327,4.771-0.59
		c0.229-0.032,0.451-0.073,0.664-0.123c0.213-0.049,0.435-0.09,0.664-0.123L237.202,293.337z"/>
	<path fill="#FFFFFF" d="M241.186,293.337c0.196-5.115,0.295-10.23,0.295-15.346s-0.099-10.23-0.295-15.346h12.788
		c-0.197,5.115-0.304,10.23-0.32,15.346s0.091,10.23,0.32,15.346H241.186z"/>
	<path fill="#FFFFFF" d="M270.942,292.207c-1.541,0.983-3.246,1.803-5.115,2.459l-10.23-5.558c1.935-0.558,3.401-1.287,4.402-2.189
		c1-0.901,1.5-1.975,1.5-3.222c0-0.557-0.091-1.139-0.271-1.746c-0.181-0.606-0.467-1.237-0.86-1.894
		c-0.23-0.394-0.492-0.778-0.787-1.155s-0.59-0.746-0.886-1.107c-0.032-0.032-0.058-0.064-0.073-0.098
		c-0.018-0.032-0.042-0.065-0.074-0.099c-0.328-0.394-0.647-0.795-0.959-1.205c-0.312-0.409-0.582-0.828-0.812-1.254
		c-0.328-0.623-0.565-1.222-0.713-1.796c-0.147-0.573-0.222-1.122-0.222-1.647c0.032-1.049,0.295-2.041,0.787-2.976
		s1.099-1.812,1.82-2.632c0.852-0.885,1.885-1.655,3.099-2.312c1.212-0.655,2.59-1.245,4.131-1.771l8.657,5.214
		c-0.919,0.524-1.722,1.115-2.41,1.771c-0.688,0.656-1.214,1.377-1.574,2.164c-0.132,0.328-0.229,0.647-0.295,0.959
		c-0.066,0.312-0.099,0.632-0.099,0.959c0,0.559,0.099,1.082,0.295,1.574c0.197,0.492,0.476,0.951,0.837,1.377
		c1.377,1.476,2.45,2.927,3.221,4.354c0.771,1.426,1.156,2.861,1.156,4.304c0,0.59-0.073,1.188-0.222,1.795
		c-0.147,0.607-0.386,1.222-0.713,1.845C273.68,289.927,272.483,291.222,270.942,292.207z"/>
	<path fill="#FFFFFF" d="M303.502,273.22c-0.492,0-0.992-0.032-1.5-0.098c-0.509-0.065-1.009-0.131-1.5-0.197
		c-0.559-0.065-1.106-0.131-1.647-0.196s-1.091-0.099-1.648-0.099c0,1.968,0,3.968,0,6.001s0.017,4.082,0.05,6.147
		c0.032,1.443,0.065,2.878,0.098,4.304c0.032,1.427,0.082,2.846,0.148,4.255h-12.346c0.065-1.442,0.114-2.894,0.147-4.353
		c0.032-1.459,0.065-2.91,0.099-4.354c0.032-2.032,0.049-4.041,0.049-6.025c0-1.983-0.017-3.942-0.049-5.877
		c-0.099,0-0.189,0-0.271,0c-0.083,0-0.173,0-0.271,0c-1.148,0.033-2.312,0.082-3.492,0.147c-1.181,0.066-2.361,0.246-3.542,0.541
		l0.935-10.771h27.003L303.502,273.22z"/>
</g>
</svg>
