<?xml version="1.0" encoding="utf-8"?>
<!-- Generator: Adobe Illustrator 17.0.0, SVG Export Plug-In . SVG Version: 6.00 Build 0)  -->
<!DOCTYPE svg PUBLIC "-//W3C//DTD SVG 1.1//EN" "http://www.w3.org/Graphics/SVG/1.1/DTD/svg11.dtd">
<svg version="1.1" id="Calque_1" xmlns="http://www.w3.org/2000/svg" xmlns:xlink="http://www.w3.org/1999/xlink" x="0px" y="0px"
	 width="180.369px" height="190.043px" viewBox="0 0 180.369 190.043" enable-background="new 0 0 180.369 190.043"
	 xml:space="preserve">
<g>
	<g>
		<g>
			<path fill="#5C6872" d="M50.269,27.386c1.956-5.433,8.192-7.414,11.144-12.445c1.263-2.188,2.199-4.319,3.957-6.361
				C67.604,6,69.93,5.042,72.968,3.364c-0.394,4.138-5.224,6.886-7.411,10.155C73.078,12.814,75.761,2.66,84.13,0.989
				c-1.742,4.898-6.257,6.039-9.237,9.98c4.857-0.911,6.422-2.46,9.799-5.219c3.04-2.54,7.136-3.385,11.186-2.631
				c-0.954,3.484-8.391,4.24-10.893,6.518c1.524,0.809,4.21,0.837,5.935,0.541c2.319-0.511,2.481-1.564,4.439-2.87
				c2.379-1.822,6.414-2.565,9.566-1.471c-0.938,0.961-1.942,2.274-3.399,2.852c-1.788,0.943-4.013,0.621-5.369,2.29
				c1.712,1.142,4.108,1.445,6.241,1.621c2.987,0.011,2.884-0.875,5.019-2.556c2.611-1.92,6.778-3.287,10.22-1.738
				c-1.556,0.834-2.426,2.282-3.92,3.158c-1.616,0.99-3.592,1.449-5.276,2.177c7.392,3.533,13.265-3.157,23.936,1.603
				c-1.301,1.034-3.076,1.998-4.991,2.301c-2.672,0.43-4.698-0.817-7.435-0.573c2.044,1.4,4.274,2.894,5.661,4.791
				c-5.652,2.19-11.796-4.541-16.918-5.977c1.904,1.421,3.874,3.244,5.032,5.533c-2.566,1.062-6.041-0.888-7.859-2.82
				c-2.671-2.441-3.193-4.714-7.457-5.174c2.147,1.13,3.408,3.517,5.317,5.077c-2.757,0.87-5.618,0.071-7.635-1.931
				c-0.884-1.017-1.278-3.251-2.422-3.993c-1.043-0.88-3.775-0.634-5.033-0.605c2.497,1.464,4.866,2.805,6.16,5.472
				c-5.73,0.714-9.013-6.107-14.905-4.791c2.406,1.9,6.135,2.287,7.732,4.964c-2.694,0.809-6.308-0.101-8.862-1.34
				c-3.654-1.964-6.393-2.769-10.764-1.442c3.29,0.179,5.861,1.447,8.707,2.431c-2.896,2.665-9.713,0.68-13.678,1.021
				c-5.093,0.392-10.233,5.268-12.598,9.229"/>
			<circle fill="#5C6872" cx="118.049" cy="11.409" r="0.989"/>
			<circle fill="#5C6872" cx="116.07" cy="22.117" r="0.989"/>
			<circle fill="#5C6872" cx="103.788" cy="10.419" r="0.99"/>
			<circle fill="#5C6872" cx="89.4" cy="19.149" r="0.989"/>
			<circle fill="#5C6872" cx="87.421" cy="0.989" r="0.99"/>
			<circle fill="#5C6872" cx="57.083" cy="16.181" r="0.989"/>
			<circle fill="#5C6872" cx="64.132" cy="21.128" r="0.989"/>
		</g>
		<g>
			<path fill="#5C6872" d="M11.652,95.772c-3.727-4.41-2.324-10.801-5.205-15.875c-1.265-2.188-2.642-4.064-3.53-6.607
				c-1.117-3.225-0.784-5.718-0.719-9.188c3.388,2.41,3.351,7.967,5.089,11.495c3.151-6.867-4.302-14.265-1.563-22.35
				c3.369,3.958,2.101,8.439,4.023,12.991c1.639-4.663,1.08-6.792,0.381-11.095c-0.681-3.903,0.636-7.874,3.314-11.003
				c2.539,2.568-0.525,9.387,0.196,12.692c1.464-0.916,2.831-3.227,3.436-4.87c0.719-2.263-0.112-2.931-0.265-5.28
				c-0.389-2.971,0.985-6.837,3.511-9.021c0.362,1.294,0.997,2.82,0.768,4.371c-0.075,2.02-1.468,3.786-0.7,5.794
				c1.846-0.913,3.304-2.835,4.524-4.595c1.503-2.581,0.684-2.935,0.295-5.625c-0.356-3.221,0.543-7.513,3.606-9.719
				c-0.056,1.766,0.765,3.242,0.775,4.975c0.049,1.894-0.541,3.835-0.753,5.658c6.756-4.635,3.898-13.066,13.355-19.927
				c0.246,1.644,0.192,3.663-0.501,5.473c-0.965,2.528-3.058,3.659-4.216,6.153c2.234-1.071,4.645-2.256,6.981-2.509
				c-0.93,5.991-9.831,7.945-13.636,11.665c2.184-0.939,4.747-1.734,7.308-1.592c-0.363,2.753-3.788,4.788-6.371,5.396
				c-3.449,1.093-5.68,0.408-8.209,3.871c2.052-1.296,4.75-1.193,7.056-2.067c-0.626,2.823-2.748,4.902-5.489,5.647
				c-1.324,0.257-3.455-0.518-4.669,0.102c-1.283,0.463-2.438,2.952-3.041,4.055c2.518-1.43,4.862-2.811,7.819-2.597
				c-2.248,5.32-9.795,4.751-11.601,10.512c2.848-1.133,5.047-4.168,8.165-4.214c-0.648,2.738-3.242,5.412-5.593,7.004
				c-3.527,2.183-5.594,4.153-6.631,8.602c1.8-2.761,4.184-4.353,6.46-6.326c0.859,3.841-4.268,8.752-5.955,12.356
				C7.859,84.731,9.512,91.621,11.76,95.65"/>
			<circle fill="#5C6872" cx="31.706" cy="29.084" r="0.989"/>
			<circle fill="#5C6872" cx="39.99" cy="36.152" r="0.989"/>
			<circle fill="#5C6872" cx="23.718" cy="40.94" r="0.989"/>
			<circle fill="#5C6872" cx="24.085" cy="57.764" r="0.989"/>
			<circle fill="#5C6872" cx="7.369" cy="50.398" r="0.989"/>
			<circle fill="#5C6872" cx="5.356" cy="84.269" r="0.989"/>
			<circle fill="#5C6872" cx="13.164" cy="80.637" r="0.989"/>
		</g>
		<g>
			<path fill="#5C6872" d="M51.567,163.406c-5.682,1.023-10.516-3.387-16.35-3.429c-2.526,0.001-4.841,0.256-7.486-0.245
				c-3.352-0.645-5.344-2.181-8.316-3.973c3.78-1.727,8.576,1.083,12.498,1.342c-4.37-6.163-14.504-3.409-20.136-9.821
				c5.113-0.939,8.357,2.4,13.262,3.011c-3.218-3.751-5.342-4.332-9.417-5.877c-3.722-1.363-6.502-4.487-7.872-8.372
				c3.493-0.916,7.866,5.147,11.09,6.176c-0.061-1.726-1.38-4.064-2.5-5.41c-1.601-1.754-2.595-1.368-4.705-2.41
				c-2.767-1.15-5.427-4.273-6.056-7.55c1.302,0.332,2.939,0.545,4.169,1.52c1.711,1.075,2.545,3.163,4.668,3.504
				c0.132-2.054-0.804-4.279-1.719-6.214c-1.482-2.594-2.199-2.061-4.723-3.07c-2.968-1.301-6.236-4.226-6.614-7.98
				c1.501,0.931,3.189,0.958,4.695,1.815c1.664,0.904,3.051,2.387,4.524,3.481c-0.637-8.168-9.366-9.909-10.58-21.53
				c1.546,0.609,3.268,1.664,4.487,3.171c1.709,2.099,1.641,4.478,3.223,6.726c0.188-2.47,0.367-5.149,1.317-7.299
				c4.724,3.801,1.964,12.486,3.283,17.64c0.278-2.36,0.872-4.978,2.276-7.125c2.201,1.692,2.251,5.676,1.486,8.217
				c-0.777,3.535-2.484,5.123-0.751,9.045c-0.097-2.425,1.343-4.71,1.737-7.144c2.132,1.953,2.872,4.83,2.147,7.577
				c-0.44,1.275-2.177,2.733-2.246,4.095c-0.241,1.343,1.337,3.586,1.991,4.661c0.021-2.895-0.004-5.617,1.66-8.07
				c3.483,4.606-0.783,10.858,3.303,15.303c0.443-3.033-1.087-6.455,0.433-9.179c2.047,1.93,3.066,5.515,3.27,8.347
				c0.128,4.146,0.799,6.92,4.133,10.042c-1.489-2.939-1.677-5.799-2.249-8.757c3.758,1.176,5.446,8.071,7.724,11.334
				c2.887,4.217,9.679,6.229,14.292,6.298"/>
			<circle fill="#5C6872" cx="3.841" cy="112.697" r="0.989"/>
			<circle fill="#5C6872" cx="14.105" cy="109.057" r="0.99"/>
			<circle fill="#5C6872" cx="10.115" cy="125.541" r="0.989"/>
			<circle fill="#5C6872" cx="24.87" cy="133.637" r="0.99"/>
			<circle fill="#5C6872" cx="10.131" cy="144.43" r="0.989"/>
			<path fill="#5C6872" d="M37.963,162.25c0.473-0.271,1.078-0.109,1.352,0.364c0.273,0.472,0.111,1.078-0.362,1.352
				c-0.473,0.272-1.078,0.111-1.35-0.362C37.326,163.13,37.49,162.524,37.963,162.25z"/>
			<circle fill="#5C6872" cx="39.217" cy="154.531" r="0.989"/>
		</g>
		<g>
			<path fill="#5C6872" d="M130.1,162.658c-1.954,5.432-8.191,7.412-11.145,12.443c-1.262,2.189-2.198,4.32-3.955,6.36
				c-2.235,2.582-4.561,3.538-7.599,5.217c0.394-4.137,5.225-6.886,7.411-10.154c-7.523,0.704-10.204,10.857-18.573,12.529
				c1.742-4.898,6.258-6.039,9.237-9.98c-4.856,0.912-6.421,2.461-9.799,5.219c-3.039,2.54-7.136,3.386-11.186,2.632
				c0.954-3.485,8.392-4.24,10.895-6.52c-1.526-0.809-4.211-0.835-5.937-0.54c-2.319,0.511-2.481,1.564-4.439,2.871
				c-2.378,1.821-6.414,2.564-9.565,1.47c0.938-0.961,1.942-2.274,3.398-2.852c1.788-0.943,4.013-0.62,5.37-2.288
				c-1.713-1.143-4.109-1.445-6.242-1.62c-2.987-0.014-2.883,0.874-5.018,2.555c-2.61,1.92-6.778,3.287-10.221,1.737
				c1.558-0.834,2.427-2.282,3.922-3.159c1.614-0.988,3.591-1.447,5.276-2.175c-7.393-3.534-13.266,3.156-23.936-1.605
				c1.302-1.033,3.076-1.997,4.991-2.301c2.672-0.43,4.698,0.818,7.435,0.573c-2.045-1.399-4.275-2.894-5.662-4.791
				c5.652-2.191,11.796,4.542,16.919,5.977c-1.905-1.422-3.875-3.245-5.033-5.534c2.567-1.061,6.041,0.889,7.859,2.82
				c2.671,2.441,3.193,4.715,7.458,5.174c-2.148-1.129-3.409-3.517-5.318-5.077c2.757-0.869,5.619-0.071,7.636,1.931
				c0.883,1.019,1.278,3.252,2.422,3.992c1.042,0.88,3.774,0.636,5.032,0.606c-2.497-1.465-4.865-2.807-6.159-5.473
				c5.73-0.714,9.012,6.106,14.904,4.79c-2.406-1.898-6.135-2.286-7.732-4.963c2.694-0.809,6.308,0.102,8.862,1.341
				c3.655,1.964,6.394,2.768,10.764,1.441c-3.289-0.179-5.861-1.447-8.707-2.43c2.896-2.666,9.713-0.681,13.678-1.023
				c5.094-0.391,10.233-5.268,12.598-9.229"/>
			<circle fill="#5C6872" cx="62.32" cy="178.634" r="0.989"/>
			<circle fill="#5C6872" cx="64.299" cy="167.926" r="0.99"/>
			<circle fill="#5C6872" cx="76.582" cy="179.625" r="0.989"/>
			<circle fill="#5C6872" cx="90.969" cy="170.894" r="0.989"/>
			<circle fill="#5C6872" cx="92.948" cy="189.054" r="0.99"/>
			<circle fill="#5C6872" cx="123.286" cy="173.861" r="0.99"/>
			<circle fill="#5C6872" cx="116.237" cy="168.915" r="0.989"/>
		</g>
		<g>
			<path fill="#5C6872" d="M168.718,94.272c3.726,4.41,2.323,10.8,5.204,15.873c1.265,2.187,2.643,4.064,3.53,6.606
				c1.117,3.226,0.784,5.718,0.719,9.188c-3.388-2.41-3.351-7.968-5.09-11.496c-3.15,6.867,4.303,14.266,1.564,22.349
				c-3.369-3.956-2.1-8.438-4.022-12.989c-1.64,4.662-1.081,6.792-0.381,11.096c0.68,3.902-0.637,7.873-3.315,11.003
				c-2.539-2.568,0.525-9.387-0.196-12.693c-1.464,0.916-2.83,3.227-3.436,4.869c-0.719,2.265,0.112,2.932,0.265,5.281
				c0.389,2.971-0.985,6.836-3.51,9.02c-0.363-1.293-0.998-2.82-0.767-4.369c0.075-2.021,1.467-3.786,0.7-5.795
				c-1.846,0.911-3.305,2.835-4.525,4.594c-1.503,2.582-0.683,2.936-0.295,5.626c0.356,3.22-0.543,7.513-3.605,9.719
				c0.056-1.767-0.765-3.242-0.776-4.975c-0.049-1.894,0.541-3.835,0.753-5.659c-6.756,4.636-3.898,13.066-13.355,19.928
				c-0.246-1.644-0.193-3.662,0.5-5.472c0.965-2.529,3.059-3.658,4.216-6.153c-2.234,1.07-4.645,2.256-6.98,2.508
				c0.929-5.99,9.831-7.944,13.635-11.664c-2.184,0.939-4.747,1.734-7.308,1.593c0.363-2.754,3.788-4.788,6.371-5.396
				c3.45-1.094,5.68-0.408,8.21-3.872c-2.052,1.297-4.751,1.194-7.057,2.068c0.626-2.824,2.748-4.903,5.489-5.648
				c1.324-0.257,3.456,0.519,4.67-0.102c1.283-0.463,2.437-2.951,3.04-4.054c-2.518,1.43-4.862,2.81-7.818,2.597
				c2.247-5.32,9.794-4.752,11.601-10.513c-2.849,1.135-5.047,4.17-8.165,4.215c0.648-2.738,3.242-5.412,5.593-7.004
				c3.528-2.185,5.595-4.151,6.631-8.602c-1.8,2.761-4.184,4.353-6.46,6.325c-0.859-3.84,4.268-8.751,5.956-12.355
				c2.207-4.606,0.554-11.496-1.693-15.524"/>
			<circle fill="#5C6872" cx="148.664" cy="160.958" r="0.989"/>
			<path fill="#5C6872" d="M139.885,154.748c-0.473-0.273-0.635-0.878-0.362-1.352c0.273-0.472,0.878-0.636,1.353-0.363
				c0.471,0.274,0.635,0.879,0.362,1.352C140.962,154.858,140.357,155.021,139.885,154.748z"/>
			<circle fill="#5C6872" cx="156.651" cy="149.103" r="0.988"/>
			<circle fill="#5C6872" cx="156.285" cy="132.277" r="0.989"/>
			<circle fill="#5C6872" cx="173.001" cy="139.645" r="0.989"/>
			<circle fill="#5C6872" cx="175.012" cy="105.775" r="0.989"/>
			<circle fill="#5C6872" cx="167.206" cy="109.406" r="0.99"/>
		</g>
		<g>
			<path fill="#5C6872" d="M128.802,26.637c5.682-1.023,10.516,3.387,16.35,3.429c2.526-0.001,4.841-0.255,7.486,0.246
				c3.352,0.644,5.344,2.179,8.316,3.971c-3.779,1.728-8.574-1.083-12.499-1.34c4.372,6.162,14.506,3.407,20.138,9.82
				c-5.112,0.939-8.357-2.4-13.262-3.011c3.218,3.751,5.342,4.332,9.418,5.877c3.721,1.363,6.501,4.488,7.873,8.372
				c-3.495,0.916-7.868-5.147-11.092-6.176c0.062,1.726,1.38,4.064,2.5,5.411c1.601,1.754,2.595,1.368,4.705,2.411
				c2.768,1.148,5.427,4.272,6.057,7.549c-1.303-0.333-2.94-0.545-4.17-1.519c-1.71-1.076-2.545-3.164-4.669-3.505
				c-0.131,2.055,0.805,4.28,1.72,6.215c1.483,2.592,2.199,2.06,4.723,3.069c2.968,1.301,6.236,4.226,6.614,7.982
				c-1.501-0.931-3.189-0.96-4.694-1.816c-1.665-0.904-3.051-2.387-4.524-3.482c0.636,8.169,9.367,9.909,10.579,21.531
				c-1.547-0.609-3.268-1.664-4.487-3.17c-1.709-2.1-1.641-4.477-3.222-6.727c-0.189,2.47-0.368,5.15-1.319,7.299
				c-4.722-3.8-1.963-12.486-3.282-17.64c-0.278,2.361-0.872,4.978-2.276,7.125c-2.201-1.691-2.251-5.675-1.486-8.217
				c0.777-3.534,2.485-5.122,0.751-9.045c0.097,2.425-1.343,4.711-1.736,7.146c-2.133-1.954-2.872-4.832-2.146-7.58
				c0.439-1.274,2.176-2.732,2.245-4.094c0.241-1.343-1.337-3.587-1.991-4.661c-0.02,2.895,0.004,5.616-1.66,8.069
				c-3.482-4.606,0.783-10.857-3.303-15.303c-0.442,3.034,1.087,6.456-0.433,9.179c-2.047-1.93-3.065-5.514-3.269-8.346
				c-0.129-4.147-0.8-6.92-4.134-10.042c1.49,2.938,1.677,5.798,2.247,8.756c-3.756-1.176-5.444-8.072-7.722-11.335
				c-2.886-4.215-9.681-6.228-14.291-6.296"/>
			<circle fill="#5C6872" cx="176.528" cy="77.346" r="0.989"/>
			<circle fill="#5C6872" cx="166.264" cy="80.987" r="0.99"/>
			<circle fill="#5C6872" cx="170.254" cy="64.5" r="0.989"/>
			<circle fill="#5C6872" cx="155.5" cy="56.406" r="0.989"/>
			<circle fill="#5C6872" cx="170.238" cy="45.612" r="0.99"/>
			<circle fill="#5C6872" cx="141.911" cy="26.935" r="0.991"/>
			<circle fill="#5C6872" cx="141.152" cy="35.512" r="0.99"/>
		</g>
	</g>
	<g>
		<g>
			<g>
				<path fill="#F4F4F4" d="M61.791,38.519c-3.842-5.33-8.693-7.637-14.812-6.808c-5.265,0.714-10.099,3.126-13.397,7.573
					c-3.19,4.299-1.832,9.245-0.077,13.703c0.968,2.463,6.464,11.075,9.715,8.478L64.213,50.81
					C65.719,47.213,64.062,41.669,61.791,38.519z"/>
				<path fill="#DBDBDA" d="M41.957,46.031c-5.101,3.752-4.069,11.887,2.515,13.239l11.594-6.581
					C53.622,46.979,48.326,41.347,41.957,46.031z"/>
				<path fill="#F4F4F4" d="M119.281,38.519c3.842-5.33,8.691-7.637,14.812-6.808c5.266,0.714,10.099,3.126,13.397,7.573
					c3.188,4.299,1.832,9.245,0.078,13.703c-0.969,2.463-6.463,11.075-9.715,8.478L116.858,50.81
					C115.354,47.213,117.008,41.669,119.281,38.519z"/>
				<path fill="#DBDBDA" d="M139.115,46.031c5.101,3.752,4.068,11.887-2.516,13.239l-11.594-6.581
					C127.449,46.979,132.746,41.347,139.115,46.031z"/>
				<path fill="#F4F4F4" d="M152.535,105.294c0.854-4.312-2.253-10.238-3.401-14.373c-1.389-5.002-3.136-10.108-4.37-15.043
					c-2.157-8.632-4.356-16.542-11.595-22.63c-7.081-5.955-16.243-9.496-25.085-10.586c-9.804-1.207-20.352-1.946-30.396-1.252
					c-18.176,1.252-26.711,6.985-30.396,10.654c-3.216,3.2-5.479,7.828-7.285,11.908c-4.228,9.546-9.39,19.201-12.466,29.134
					c-0.378,1.22-2.326,8.647,0.259,7.561c0.386,1.763-0.313,3.726-0.195,5.567c2.554-1.928,2.283-0.492,2.507,2.194
					c0.278-0.225,1.105-0.472,1.45-0.867c-0.166,3.941,1.54,14.149,5.015,16.543c0.288-1.202,0.214-2.939,1.237-3.695
					c2.38,4.098,5.504,11.686,9.816,13.952c-0.181-1.208,0.025-2.485,0.351-3.611c1.279,1.132,1.401,3.486,2.687,4.872
					c0.133-0.374,0.372-0.592,0.446-1.112c2.241,1.967,2.835,7.808,6.152,8.703c0.08-0.869,0.074-1.823,0.109-2.686
					c2.784,3.606,6.073,6.635,9.353,9.917c2.775,2.774,5.039,7.223,9.032,8.122c-0.19-1.235-0.658-2.446-0.837-3.687
					c1.686,1.396,2.564,3.699,4.574,4.941c0.104-0.322,0.245-0.507,0.378-0.79c1.326,2.323,2.989,0.414,4.486,1.771
					c1.152,1.043,1.242,3.282,2.65,4.354c1.696-3.242,3.322-7.199,5.961-9.649c1.164,2.762-0.634,6.418,0.776,9.023
					c4.541-1.786,7.054-7.376,10.597-10.512c-0.034,1.494-0.661,2.777-0.603,4.243c2.674-1.136,3.711-4.781,5.915-6.593
					c0.141,0.424,0.831,1.057,1.013,1.565c4.36-1.818,6.773-8.823,10.277-12.065c0.203,2.684-1.225,5.33-1.215,7.999
					c4.821-0.716,7.771-10.915,10.852-14.272c0.35,1.681-0.396,3.378-0.198,5.115c2.762-2.076,3.613-6.142,6.151-8.007
					c0.018,0.815,0.36,1.343,0.428,2.123c2.206-0.494,3.326-6.178,4.406-8.067c0.433,0.536,1.195,1.331,1.745,1.814
					c2.466-5.081,0.495-10.694,2.006-15.924c1.805,1.627,3.3,5.725,3.447,8.091c1.73-1.788,2.304-8.027,2.194-10.605
					c0.14,0.25,0.631,0.755,0.815,1.134c0.104-2.028-0.804-3.989-0.581-6.063C151.501,105.074,152.064,104.999,152.535,105.294z"/>
				<path fill="#DBDBDA" d="M110.671,92.68c-2.951-7.444-7.721-22.468-17.747-21.714c-9.63,0.726-15.541,14.905-18.635,22.495
					c-1.936,4.744-2.918,10.136-3.706,15.021c-2.141,13.245,8.06,14.782,15.875,15.128c2.646,0.118,5.511,0.124,8.192,0.092
					c4.917-0.059,10.715-0.879,15.125-2.747C119.947,116.646,113.489,99.786,110.671,92.68z"/>
				<path fill="#482D21" d="M100.583,107.502c-2.832-0.877-6.783-0.195-9.654,0.235c-2.992,0.448-7.062,1.869-7.963,5.115
					c-0.629,2.27,1.19,4.985,2.521,6.724c1.349,1.762,2.474,5.169,4.869,5.78l0.674,0.271c0.574-0.157,1.94,0.247,2.83,0.141
					c0.836-0.101,1.935-0.512,2.711-0.91c1.861-0.956,3.173-3.225,4.273-4.908C102.825,116.918,105.837,109.126,100.583,107.502z"/>
				<path fill="#482D21" d="M120.578,80.997c-1.023-1.456-2.554-1.285-4.002-0.814l-0.27,0.269
					c-1.649,0.107-1.249,2.507-0.571,3.398c0.906,1.19,2.745,1.865,4.039,1.005C121.157,83.938,121.505,82.312,120.578,80.997z"/>
				<path fill="#482D21" d="M63.994,80.997c1.023-1.456,2.556-1.285,4.003-0.814l0.27,0.269c1.647,0.107,1.248,2.507,0.57,3.398
					c-0.905,1.19-2.744,1.865-4.038,1.005C63.415,83.938,63.067,82.312,63.994,80.997z"/>
				<path fill="#FFFFFF" d="M67.46,82.886c-0.081-0.085-0.195-0.089-0.292-0.044c-0.007,0.001-0.012-0.003-0.018-0.001
					c-0.387,0.055-0.433,0.414-0.234,0.628c0.003,0.012,0.005,0.021,0.008,0.035c0.049,0.146,0.186,0.226,0.336,0.191
					c0.062-0.014,0.104-0.051,0.152-0.082c0.073-0.017,0.143-0.049,0.188-0.108C67.771,83.287,67.624,83.055,67.46,82.886z"/>
				<path fill="#FFFFFF" d="M65.765,80.483c-0.44-0.043-0.656,0.318-0.648,0.684c-0.017,0.027-0.038,0.051-0.042,0.086
					c-0.062,0.58,0.554,0.83,1.013,0.588c0.252-0.132,0.361-0.411,0.381-0.679C66.5,80.762,66.105,80.517,65.765,80.483z"/>
				<path fill="#FFFFFF" d="M119.462,83.067c-0.081-0.085-0.194-0.088-0.292-0.044c-0.006,0.001-0.011-0.002-0.018-0.001
					c-0.387,0.055-0.433,0.414-0.233,0.627c0.004,0.013,0.005,0.022,0.008,0.035c0.05,0.146,0.185,0.226,0.336,0.191
					c0.061-0.014,0.104-0.051,0.151-0.082c0.073-0.018,0.144-0.049,0.188-0.108C119.773,83.468,119.627,83.237,119.462,83.067z"/>
				<path fill="#FFFFFF" d="M117.767,80.664c-0.439-0.042-0.655,0.318-0.646,0.684c-0.017,0.027-0.038,0.051-0.042,0.086
					c-0.061,0.58,0.554,0.83,1.014,0.589c0.253-0.133,0.36-0.412,0.381-0.68C118.503,80.944,118.108,80.698,117.767,80.664z"/>
			</g>
			<g>
				<path fill="#FBE3E1" d="M62.288,98.091c-2.403-2.675-7.323-1.016-8.816,2.255c-1.707,3.742,0.402,8.771,4.311,10.05
					c3.91,1.277,8.66-1.672,9.116-5.759c0.456-4.089-3.686-8.051-7.729-7.289"/>
			</g>
			<g>
				<path fill="#FBE3E1" d="M132.327,106.72c2.54-2.496,0.679-7.29-2.624-8.621c-3.778-1.523-8.66,0.787-9.751,4.711
					c-1.09,3.926,2.04,8.492,6.104,8.761c4.066,0.271,7.801-4.004,6.867-7.97"/>
			</g>
		</g>
		<g>
			<path fill="#FBE3E1" d="M99.362,132.517c-7.057-1.492-8.2,6.015-8.205,6.041c-0.004-0.026-1.147-7.533-8.204-6.041
				c-7.067,1.494-6.247,11.565-0.531,16.827c5.708,5.253,8.728,9.485,8.735,9.496v0.001v-0.001v0.001v-0.001
				c0.008-0.011,3.028-4.243,8.736-9.496C105.609,144.082,106.43,134.011,99.362,132.517z"/>
		</g>
	</g>
</g>
</svg>
