<?xml version="1.0" encoding="utf-8"?>
<!-- Generator: Adobe Illustrator 17.0.0, SVG Export Plug-In . SVG Version: 6.00 Build 0)  -->
<!DOCTYPE svg PUBLIC "-//W3C//DTD SVG 1.1//EN" "http://www.w3.org/Graphics/SVG/1.1/DTD/svg11.dtd">
<svg version="1.1" id="Calque_1" xmlns="http://www.w3.org/2000/svg" xmlns:xlink="http://www.w3.org/1999/xlink" x="0px" y="0px"
	 width="182.281px" height="183.416px" viewBox="0 0 182.281 183.416" enable-background="new 0 0 182.281 183.416"
	 xml:space="preserve">
<g>
	<g>
		<path fill="#E75244" d="M79.488,163.967c-2.549-0.01-5.085-0.178-7.6-0.475c0.338-2.969,0.167-6.668-0.616-10.139
			c2.392-1.27,3.638-3.465,4.034-6.035c0.719-0.26,1.236-0.941,1.236-1.748c0-1.033-0.837-1.869-1.867-1.869
			c-1.033,0-1.868,0.836-1.868,1.869c0,0.709,0.4,1.32,0.985,1.635c-0.317,1.945-1.211,3.566-2.906,4.623
			c-0.568-1.986-1.355-3.832-2.377-5.354c0.15-0.27,0.243-0.576,0.243-0.904c0-1.033-0.836-1.869-1.868-1.869
			c-1.032,0-1.868,0.836-1.868,1.869c0,1.029,0.836,1.867,1.868,1.867c0.146,0,0.284-0.021,0.419-0.053
			c1.564,2.354,2.529,5.652,2.969,8.928c-2.117-0.238-4.834-1.289-5.852-3.199c0.438-0.342,0.723-0.865,0.723-1.465
			c0-1.031-0.837-1.867-1.868-1.867c-1.032,0-1.868,0.836-1.868,1.867c0,0.928,0.678,1.691,1.563,1.838
			c1.236,2.668,4.585,4.139,7.471,4.369c0.168,1.961,0.146,3.846-0.046,5.445c-4.669-0.658-9.242-1.814-13.631-3.459
			c0.161-1.205,0.234-2.543,0.214-3.951c2.512-1.252,3.803-3.498,4.211-6.133c0.719-0.26,1.235-0.941,1.235-1.752
			c0-1.029-0.836-1.867-1.868-1.867c-1.031,0-1.867,0.838-1.867,1.867c0,0.713,0.4,1.322,0.984,1.639
			c-0.307,1.891-1.154,3.484-2.762,4.541c-0.28-4.188-1.382-8.678-3.474-11.797c0.151-0.27,0.243-0.574,0.243-0.904
			c0-1.033-0.836-1.869-1.868-1.869c-1.032,0-1.868,0.836-1.868,1.869c0,1.031,0.836,1.867,1.868,1.867
			c0.145,0,0.284-0.019,0.419-0.051c1.352,2.031,2.256,4.768,2.76,7.592c-2.066-0.685-4.412-2.248-5.03-4.342
			c0.481-0.248,0.855-0.697,0.975-1.27c0.213-1.01-0.435-2-1.444-2.211c-1.011-0.211-2,0.436-2.212,1.445
			c-0.187,0.893,0.298,1.768,1.111,2.105c0.657,2.998,4.048,5.238,6.851,5.926c0.298,2.416,0.313,4.785,0.074,6.729
			c-3.489-1.406-6.848-3.129-10.033-5.162c0.348-2.977,0.179-6.703-0.608-10.197c2.392-1.268,3.637-3.465,4.034-6.031
			c0.719-0.262,1.235-0.943,1.235-1.752c0-1.031-0.836-1.869-1.868-1.869c-1.032,0-1.868,0.838-1.868,1.869
			c0,0.711,0.401,1.32,0.985,1.637c-0.315,1.943-1.21,3.564-2.905,4.623c-0.567-1.986-1.354-3.832-2.377-5.355
			c0.15-0.267,0.244-0.574,0.244-0.904c0-1.031-0.837-1.869-1.868-1.869c-1.032,0-1.868,0.838-1.868,1.869
			c0,1.033,0.836,1.867,1.868,1.867c0.145,0,0.283-0.02,0.419-0.049c1.564,2.35,2.529,5.648,2.969,8.926
			c-2.117-0.24-4.835-1.289-5.852-3.199c0.437-0.342,0.722-0.867,0.722-1.465c0-1.031-0.836-1.869-1.868-1.869
			s-1.868,0.838-1.868,1.869c0,0.928,0.678,1.691,1.562,1.838c1.237,2.668,4.586,4.139,7.474,4.367
			c0.143,1.688,0.148,3.318,0.025,4.76c-2.077-1.408-4.081-2.943-5.983-4.625c-2.684-2.373-5.062-4.969-7.161-7.74
			c0.011-0.012,0.021-0.021,0.029-0.035c0.694-1.043,1.366-2.279,1.977-3.623c2.79-0.082,4.93-1.539,6.421-3.756
			c0.759,0.068,1.515-0.328,1.858-1.057c0.44-0.934,0.041-2.047-0.892-2.486c-0.934-0.441-2.046-0.041-2.487,0.893
			c-0.302,0.641-0.201,1.359,0.188,1.895c-1.081,1.568-2.512,2.666-4.418,2.932c1.529-3.902,2.448-8.449,1.883-12.15
			c0.249-0.18,0.461-0.416,0.601-0.713c0.441-0.934,0.041-2.045-0.892-2.486c-0.934-0.439-2.046-0.041-2.485,0.893
			c-0.441,0.934-0.042,2.047,0.891,2.486c0.128,0.061,0.259,0.102,0.392,0.131c0.347,2.422-0.002,5.268-0.747,8.025
			c-1.569-1.52-3.026-3.902-2.687-6.053c0.543-0.02,1.074-0.266,1.427-0.732c0.623-0.824,0.459-1.994-0.364-2.617
			c-0.823-0.623-1.994-0.459-2.616,0.365c-0.557,0.734-0.48,1.746,0.13,2.398c-0.653,3.006,1.352,6.385,3.628,8.242
			c-0.757,2.305-1.752,4.457-2.799,6.139c-2.655-3.73-4.821-7.76-6.54-11.986c0.094-0.029,0.188-0.076,0.276-0.15
			c2.553-2.143,4.447-5.182,6.113-8.024c0.086-0.146,0.171-0.301,0.258-0.451c2.766,0.738,5.234-0.064,7.318-1.801
			c0.711,0.279,1.548,0.107,2.083-0.498c0.681-0.775,0.606-1.955-0.168-2.637c-0.775-0.682-1.955-0.607-2.637,0.166
			c-0.468,0.531-0.57,1.252-0.346,1.873c-1.587,1.299-3.391,1.934-5.481,1.502c0.911-1.734,1.698-3.619,1.99-5.529
			c0.296-0.101,0.573-0.271,0.794-0.523c0.683-0.773,0.607-1.955-0.168-2.637c-0.774-0.682-1.954-0.607-2.637,0.168
			c-0.682,0.775-0.608,1.955,0.168,2.637c0.107,0.094,0.225,0.172,0.347,0.238c-0.387,2.818-1.863,5.951-3.723,8.717
			c-1.565-1.607-2.997-4.234-2.499-6.494c0.607,0.092,1.246-0.113,1.682-0.607c0.682-0.775,0.606-1.955-0.168-2.639
			c-0.774-0.682-1.955-0.605-2.636,0.168c-0.544,0.619-0.599,1.488-0.209,2.164c-1.016,2.975,0.793,6.594,2.941,8.666
			c-1.248,1.68-2.595,3.156-3.864,4.26c-1.888-4.977-3.169-10.205-3.918-15.529c0.967-0.688,1.871-1.48,2.718-2.342
			c2.685,1.078,5.197,0.52,7.462-0.959c0.676,0.365,1.533,0.293,2.137-0.25c0.767-0.691,0.826-1.873,0.135-2.639
			c-0.692-0.766-1.873-0.826-2.64-0.135c-0.528,0.477-0.711,1.186-0.554,1.83c-1.67,1.074-3.462,1.473-5.396,0.93
			c0.816-0.928,1.582-1.895,2.302-2.854c1.684-2.24,3.533-4.781,4.292-7.566c0.302-0.068,0.594-0.205,0.841-0.428
			c0.766-0.691,0.824-1.873,0.133-2.639c-0.691-0.766-1.872-0.826-2.639-0.133c-0.766,0.691-0.824,1.871-0.134,2.637
			c0.095,0.105,0.2,0.193,0.31,0.274c-0.659,2.354-2.266,4.555-3.642,6.457c-0.087,0.121-0.181,0.244-0.27,0.365
			c-0.788-1.971-1.078-4.537,0-6.318c0.504,0.184,1.082,0.158,1.582-0.135c0.892-0.52,1.191-1.662,0.672-2.555
			c-0.519-0.891-1.664-1.191-2.555-0.67c-0.789,0.459-1.112,1.408-0.815,2.238c-1.739,2.43-1.196,6.232,0.073,8.812
			c-1.253,1.588-2.664,3.139-4.235,4.365c-0.374-3.141-0.568-6.309-0.591-9.473c-0.001-0.025-0.011-0.043-0.013-0.066
			c-0.005-1.49,0.028-3.121,0.146-4.795c2.987-0.229,6.558-1.818,7.702-4.691c0.737-0.26,1.263-0.963,1.247-1.789
			c-0.019-1.031-0.87-1.852-1.901-1.832c-1.032,0.018-1.853,0.869-1.833,1.902c0.013,0.674,0.382,1.252,0.923,1.57
			c-1.032,1.982-3.871,3.09-6.004,3.312c0.345-3.303,1.099-6.596,2.662-9.051c0.135,0.027,0.273,0.045,0.418,0.043
			c1.032-0.02,1.852-0.871,1.834-1.902c-0.02-1.031-0.872-1.851-1.903-1.834c-1.031,0.02-1.853,0.871-1.834,1.904
			c0.008,0.332,0.106,0.639,0.266,0.908c-1.002,1.58-1.708,3.443-2.191,5.438c-1.767-1.025-2.725-2.646-3.084-4.615
			c0.58-0.326,0.971-0.945,0.958-1.656c-0.019-1.033-0.87-1.854-1.903-1.834c-1.031,0.02-1.852,0.871-1.833,1.904
			c0.016,0.809,0.546,1.48,1.271,1.727c0.453,2.602,1.764,4.812,4.262,6.02c-0.691,3.705-0.756,7.654-0.707,10.812
			c-1.895-1.102-3.569-2.621-5.128-4.168c0.997-2.703,1.04-6.469-0.923-8.703c0.216-0.865-0.208-1.785-1.052-2.158
			c-0.942-0.418-2.046,0.006-2.464,0.951c-0.419,0.941,0.007,2.045,0.95,2.465c0.538,0.238,1.122,0.195,1.606-0.055
			c1.272,1.627,1.227,4.24,0.674,6.283c-1.754-1.795-3.685-3.945-4.642-6.338c0.103-0.09,0.2-0.191,0.283-0.307
			c0.603-0.838,0.413-2.004-0.426-2.607c-0.838-0.602-2.003-0.412-2.606,0.426c-0.603,0.838-0.412,2.004,0.426,2.608
			c0.269,0.193,0.571,0.297,0.88,0.332c0.94,2.377,2.766,4.471,4.419,6.316c1.003,1.121,2.1,2.264,3.274,3.326
			c-1.871,0.773-3.682,0.52-5.448-0.354c0.081-0.656-0.18-1.334-0.755-1.746c-0.838-0.604-2.005-0.414-2.607,0.424
			c-0.602,0.838-0.412,2.006,0.425,2.607c0.658,0.473,1.513,0.451,2.144,0.02c2.422,1.225,4.967,1.438,7.505,0.133
			c1.082,0.871,2.221,1.65,3.416,2.254c0.045,0.023,0.087,0.023,0.131,0.037c0.108,2.547,0.33,5.082,0.667,7.59
			c-0.003,0.092,0.011,0.188,0.038,0.275c0.462,3.354,1.133,6.656,2.027,9.885c-1.529-0.631-2.972-1.525-4.345-2.479
			c1.172-2.754,1.453-6.572-0.523-8.928c0.12-0.773-0.25-1.568-0.985-1.947c-0.918-0.471-2.045-0.109-2.515,0.811
			c-0.472,0.918-0.108,2.043,0.81,2.514c0.594,0.305,1.273,0.256,1.808-0.062c1.232,1.82,0.929,4.717,0.146,6.717
			c-0.182-0.133-0.363-0.264-0.542-0.395c-2.159-1.584-4.802-3.631-6.233-6.09c0.091-0.109,0.174-0.227,0.242-0.357
			c0.471-0.916,0.107-2.043-0.811-2.514c-0.918-0.471-2.043-0.107-2.514,0.811c-0.472,0.918-0.109,2.045,0.809,2.514
			c0.301,0.154,0.623,0.211,0.937,0.197c0.98,1.676,2.405,3.115,3.891,4.4c-1.793,1.152-3.701,1.268-5.67,0.637
			c-0.015-0.666-0.374-1.303-1.007-1.627c-0.919-0.471-2.044-0.109-2.516,0.811c-0.471,0.918-0.108,2.043,0.811,2.514
			c0.723,0.371,1.57,0.219,2.131-0.309c2.573,0.844,5.148,0.734,7.465-1.004c0.125,0.101,0.25,0.207,0.374,0.309
			c2.592,2.107,5.553,4.229,8.755,5.287c0.004,0.002,0.007,0,0.011,0.002c1.227,4.008,2.806,7.889,4.768,11.58
			c-1.896,0.238-4.176,0.248-6.5-0.002c-0.736-2.793-3.021-6.152-6.03-6.762c-0.351-0.805-1.232-1.275-2.123-1.076
			c-1.005,0.227-1.638,1.227-1.411,2.234c0.229,1.006,1.227,1.637,2.233,1.41c0.57-0.129,1.012-0.508,1.254-0.992
			c2.105,0.59,3.703,2.902,4.418,4.961c-2.831-0.459-5.581-1.32-7.632-2.641c0.028-0.137,0.048-0.277,0.045-0.422
			c-0.017-1.031-0.865-1.855-1.896-1.84c-1.032,0.016-1.854,0.865-1.839,1.896c0.016,1.031,0.864,1.855,1.896,1.84
			c0.33-0.006,0.635-0.104,0.902-0.258c3.151,2.041,7.658,3.078,11.847,3.295c-1.034,1.619-2.611,2.494-4.498,2.832
			c-0.324-0.582-0.94-0.975-1.652-0.963c-1.032,0.016-1.855,0.865-1.84,1.896c0.017,1.031,0.865,1.855,1.896,1.84
			c0.81-0.012,1.483-0.541,1.732-1.266c2.625-0.447,4.855-1.766,6.066-4.299c1.392-0.002,2.716-0.094,3.907-0.271
			c2.678,4.734,6.005,9.139,10.04,13.088c-1.598,0.473-3.511,0.82-5.532,0.988c-0.681-2.75-2.73-5.912-5.557-6.658
			c-0.304-0.828-1.16-1.35-2.061-1.199c-1.018,0.172-1.703,1.135-1.531,2.152c0.172,1.02,1.135,1.703,2.152,1.533
			c0.579-0.098,1.043-0.457,1.31-0.93c2.062,0.691,3.527,3.104,4.135,5.191c-3.296,0.111-6.691-0.289-9.287-1.436
			c0.007-0.133,0.003-0.271-0.021-0.41c-0.171-1.018-1.134-1.701-2.152-1.531c-1.017,0.172-1.702,1.137-1.53,2.152
			c0.172,1.02,1.135,1.705,2.152,1.533c0.323-0.055,0.607-0.195,0.847-0.387c1.668,0.756,3.621,1.227,5.678,1.457
			c-0.75,1.854-2.226,2.988-4.076,3.621c-0.409-0.521-1.075-0.812-1.774-0.693c-1.017,0.17-1.702,1.133-1.531,2.152
			c0.172,1.016,1.136,1.701,2.152,1.529c0.796-0.133,1.382-0.752,1.521-1.502c2.473-0.812,4.412-2.434,5.274-4.979
			c3.817,0.211,7.784-0.311,10.699-1.258c0.139-0.045,0.239-0.121,0.321-0.207c3.064,2.832,6.428,5.287,10.006,7.373
			c-1.701,0.84-3.776,1.58-5.962,2.107c-1.725-2.441-4.861-4.684-7.92-4.281c-0.599-0.67-1.608-0.834-2.392-0.336
			c-0.87,0.553-1.129,1.707-0.574,2.58c0.554,0.869,1.708,1.127,2.578,0.574c0.499-0.318,0.789-0.832,0.849-1.377
			c2.164-0.164,4.474,1.52,5.826,3.186c-2.807,0.518-5.67,0.631-8.071,0.088c-0.02-0.133-0.051-0.266-0.1-0.396
			c-0.364-0.967-1.441-1.455-2.406-1.092c-0.966,0.363-1.454,1.439-1.092,2.406c0.365,0.965,1.441,1.455,2.407,1.09
			c0.306-0.115,0.558-0.307,0.756-0.541c3.628,0.869,8.251,0.309,12.273-0.904c-0.408,1.885-1.646,3.227-3.288,4.176
			c-0.501-0.432-1.21-0.59-1.873-0.34c-0.965,0.363-1.454,1.441-1.091,2.406c0.364,0.965,1.44,1.453,2.407,1.09
			c0.755-0.283,1.212-1.008,1.204-1.77c2.341-1.305,3.927-3.334,4.247-6.094c1.397-0.502,2.689-1.07,3.784-1.674
			c4.613,2.506,9.557,4.404,14.655,5.713c-1.271,0.848-2.805,1.674-4.456,2.396c-1.563-2.385-4.482-4.719-7.407-4.508
			c-0.555-0.688-1.534-0.906-2.339-0.471c-0.907,0.492-1.246,1.625-0.754,2.531c0.49,0.908,1.623,1.246,2.531,0.756
			c0.511-0.277,0.832-0.758,0.937-1.285c2.192,0,4.337,1.77,5.593,3.564c-3.09,1.176-6.436,1.9-9.252,1.645
			c-0.036-0.133-0.084-0.262-0.153-0.389c-0.491-0.906-1.624-1.246-2.531-0.754c-0.907,0.49-1.246,1.623-0.754,2.531
			c0.49,0.908,1.624,1.246,2.531,0.754c0.289-0.156,0.514-0.383,0.679-0.641c1.821,0.176,3.821-0.01,5.841-0.453
			c-0.123,1.996-1.13,3.543-2.686,4.744c-0.555-0.359-1.281-0.422-1.905-0.084c-0.907,0.49-1.245,1.625-0.755,2.531
			c0.492,0.908,1.626,1.246,2.533,0.754c0.71-0.383,1.063-1.16,0.952-1.914c2.074-1.574,3.414-3.713,3.401-6.416
			c3.658-1.025,7.218-2.783,9.66-4.615c0.087-0.064,0.151-0.139,0.201-0.219c4.88,1.104,9.887,1.67,14.874,1.689
			C80.469,165.49,80.469,163.971,79.488,163.967z"/>
		<path fill="#E75244" d="M162.831,103.928c-0.01,2.549-0.177,5.086-0.475,7.6c-2.967-0.338-6.667-0.166-10.14,0.617
			c-1.268-2.393-3.464-3.637-6.032-4.035c-0.26-0.719-0.942-1.234-1.751-1.234c-1.031,0-1.868,0.834-1.868,1.867
			c0,1.031,0.837,1.869,1.868,1.869c0.711,0,1.321-0.404,1.638-0.986c1.944,0.316,3.565,1.209,4.622,2.904
			c-1.986,0.568-3.832,1.356-5.356,2.377c-0.268-0.149-0.574-0.242-0.904-0.242c-1.031,0-1.868,0.836-1.868,1.867
			c0,1.033,0.837,1.867,1.868,1.867c1.032,0,1.868-0.834,1.868-1.867c0-0.145-0.02-0.283-0.051-0.418
			c2.352-1.566,5.649-2.531,8.926-2.969c-0.239,2.117-1.288,4.834-3.197,5.852c-0.342-0.438-0.868-0.723-1.466-0.723
			c-1.032,0-1.868,0.836-1.868,1.869c0,1.031,0.836,1.867,1.868,1.867c0.928,0,1.69-0.678,1.837-1.565
			c2.669-1.236,4.14-4.584,4.37-7.471c1.961-0.166,3.845-0.145,5.445,0.047c-0.659,4.668-1.813,9.242-3.46,13.633
			c-1.204-0.162-2.543-0.236-3.95-0.217c-1.251-2.512-3.499-3.803-6.134-4.211c-0.26-0.719-0.941-1.234-1.75-1.234
			c-1.032,0-1.868,0.834-1.868,1.867c0,1.031,0.836,1.869,1.868,1.869c0.71,0,1.321-0.402,1.636-0.986
			c1.893,0.307,3.483,1.154,4.543,2.762c-4.188,0.281-8.68,1.383-11.798,3.475c-0.269-0.15-0.573-0.244-0.903-0.244
			c-1.033,0-1.868,0.838-1.868,1.869c0,1.031,0.835,1.867,1.868,1.867c1.031,0,1.868-0.836,1.868-1.867
			c0-0.146-0.021-0.283-0.053-0.42c2.032-1.351,4.769-2.256,7.591-2.76c-0.683,2.068-2.246,4.412-4.34,5.031
			c-0.249-0.482-0.697-0.855-1.27-0.975c-1.011-0.213-2,0.436-2.211,1.445c-0.212,1.01,0.436,2,1.445,2.211
			c0.894,0.186,1.768-0.299,2.105-1.111c3-0.658,5.239-4.049,5.927-6.852c2.415-0.299,4.785-0.313,6.729-0.074
			c-1.408,3.488-3.131,6.848-5.165,10.033c-2.976-0.348-6.7-0.18-10.195,0.607c-1.268-2.389-3.465-3.637-6.033-4.033
			c-0.26-0.721-0.941-1.236-1.75-1.236c-1.032,0-1.868,0.836-1.868,1.869c0,1.031,0.836,1.867,1.868,1.867
			c0.711,0,1.32-0.4,1.636-0.986c1.945,0.318,3.565,1.211,4.623,2.906c-1.986,0.568-3.831,1.355-5.354,2.377
			c-0.27-0.15-0.575-0.242-0.904-0.242c-1.032,0-1.868,0.834-1.868,1.867c0,1.031,0.836,1.867,1.868,1.867
			c1.031,0,1.868-0.836,1.868-1.867c0-0.145-0.021-0.283-0.052-0.42c2.352-1.562,5.65-2.527,8.927-2.967
			c-0.239,2.117-1.289,4.834-3.199,5.85c-0.342-0.436-0.867-0.721-1.465-0.721c-1.031,0-1.867,0.836-1.867,1.867
			c0,1.033,0.836,1.869,1.867,1.869c0.928,0,1.691-0.678,1.838-1.564c2.669-1.236,4.139-4.586,4.368-7.471
			c1.688-0.145,3.318-0.15,4.761-0.027c-1.41,2.078-2.944,4.082-4.626,5.984c-2.374,2.682-4.969,5.061-7.74,7.158
			c-0.012-0.008-0.022-0.02-0.035-0.029c-1.043-0.693-2.279-1.365-3.623-1.977c-0.083-2.789-1.54-4.928-3.757-6.42
			c0.069-0.758-0.327-1.514-1.057-1.857c-0.933-0.439-2.046-0.041-2.486,0.893c-0.44,0.934-0.041,2.045,0.893,2.486
			c0.641,0.303,1.36,0.201,1.894-0.189c1.569,1.082,2.668,2.512,2.933,4.418c-3.902-1.529-8.449-2.447-12.152-1.881
			c-0.179-0.25-0.414-0.463-0.711-0.602c-0.933-0.441-2.046-0.043-2.487,0.891c-0.439,0.934-0.04,2.047,0.894,2.488
			c0.933,0.439,2.046,0.039,2.485-0.895c0.062-0.127,0.103-0.258,0.132-0.389c2.421-0.348,5.268,0,8.025,0.746
			c-1.52,1.568-3.902,3.025-6.054,2.686c-0.019-0.543-0.265-1.072-0.732-1.426c-0.823-0.623-1.994-0.461-2.616,0.363
			c-0.623,0.824-0.459,1.994,0.364,2.617c0.736,0.557,1.748,0.48,2.398-0.129c3.006,0.652,6.386-1.354,8.244-3.629
			c2.305,0.758,4.454,1.752,6.138,2.799c-3.731,2.656-7.76,4.82-11.986,6.541c-0.03-0.096-0.077-0.189-0.15-0.277
			c-2.144-2.553-5.181-4.447-8.024-6.113c-0.146-0.086-0.301-0.172-0.45-0.258c0.736-2.766-0.064-5.234-1.802-7.318
			c0.279-0.711,0.108-1.549-0.499-2.082c-0.774-0.682-1.954-0.608-2.636,0.168c-0.682,0.773-0.607,1.953,0.168,2.635
			c0.531,0.469,1.251,0.572,1.872,0.346c1.298,1.588,1.934,3.391,1.502,5.482c-1.736-0.912-3.62-1.699-5.529-1.99
			c-0.102-0.297-0.271-0.572-0.523-0.795c-0.775-0.68-1.954-0.605-2.637,0.168c-0.682,0.775-0.606,1.955,0.168,2.637
			c0.774,0.682,1.955,0.607,2.637-0.168c0.095-0.107,0.172-0.225,0.236-0.346c2.82,0.387,5.953,1.863,8.718,3.721
			c-1.606,1.566-4.235,2.998-6.492,2.5c0.091-0.607-0.115-1.244-0.609-1.682c-0.775-0.682-1.955-0.607-2.637,0.168
			c-0.683,0.775-0.607,1.955,0.167,2.637c0.617,0.543,1.488,0.598,2.163,0.211c2.975,1.012,6.594-0.797,8.668-2.943
			c1.678,1.246,3.153,2.594,4.258,3.865c-4.976,1.887-10.204,3.168-15.528,3.916c-0.688-0.967-1.48-1.869-2.341-2.717
			c1.075-2.686,0.517-5.197-0.96-7.463c0.365-0.676,0.294-1.533-0.251-2.137c-0.691-0.766-1.873-0.826-2.639-0.135
			c-0.766,0.693-0.825,1.873-0.134,2.639c0.478,0.529,1.186,0.713,1.831,0.555c1.072,1.67,1.472,3.463,0.929,5.396
			c-0.928-0.816-1.896-1.582-2.854-2.303c-2.241-1.684-4.782-3.531-7.566-4.291c-0.069-0.303-0.205-0.594-0.428-0.84
			c-0.692-0.766-1.873-0.826-2.639-0.135c-0.767,0.691-0.825,1.873-0.135,2.639c0.692,0.766,1.873,0.826,2.64,0.135
			c0.104-0.096,0.193-0.201,0.271-0.31c2.356,0.658,4.557,2.266,6.458,3.641c0.121,0.088,0.244,0.18,0.365,0.27
			c-1.969,0.789-4.537,1.078-6.318,0c0.185-0.504,0.159-1.082-0.133-1.582c-0.521-0.891-1.665-1.191-2.555-0.672
			c-0.893,0.521-1.192,1.664-0.672,2.555c0.461,0.789,1.409,1.111,2.238,0.816c2.43,1.738,6.232,1.195,8.813-0.074
			c1.587,1.254,3.137,2.664,4.365,4.236c-3.141,0.375-6.31,0.57-9.474,0.59c-0.024,0-0.042,0.012-0.066,0.014
			c-1.489,0.004-3.121-0.027-4.794-0.146c-0.229-2.986-1.819-6.557-4.692-7.701c-0.26-0.736-0.963-1.264-1.788-1.248
			c-1.032,0.02-1.852,0.869-1.833,1.902c0.02,1.031,0.87,1.854,1.902,1.832c0.674-0.012,1.252-0.383,1.571-0.922
			c1.982,1.031,3.09,3.869,3.311,6.006c-3.301-0.348-6.594-1.102-9.05-2.664c0.028-0.135,0.045-0.273,0.044-0.42
			c-0.019-1.029-0.871-1.85-1.903-1.832c-1.032,0.02-1.852,0.871-1.834,1.904c0.021,1.031,0.871,1.852,1.903,1.832
			c0.334-0.006,0.643-0.107,0.91-0.266c1.579,1.004,3.444,1.707,5.437,2.193c-1.023,1.766-2.645,2.723-4.615,3.082
			c-0.326-0.58-0.944-0.971-1.656-0.957c-1.031,0.02-1.853,0.871-1.833,1.902c0.019,1.031,0.871,1.852,1.902,1.834
			c0.81-0.016,1.482-0.547,1.729-1.272c2.603-0.453,4.812-1.764,6.02-4.262c3.706,0.691,7.655,0.756,10.811,0.709
			c-1.099,1.893-2.62,3.568-4.165,5.127c-2.704-0.996-6.471-1.041-8.705,0.922c-0.865-0.215-1.784,0.211-2.157,1.053
			c-0.419,0.941,0.006,2.047,0.95,2.465c0.943,0.416,2.046-0.008,2.465-0.951c0.237-0.537,0.194-1.123-0.054-1.607
			c1.627-1.271,4.238-1.227,6.283-0.674c-1.795,1.756-3.946,3.686-6.338,4.643c-0.09-0.104-0.191-0.201-0.307-0.283
			c-0.838-0.604-2.005-0.412-2.607,0.426c-0.604,0.838-0.412,2.004,0.426,2.605c0.837,0.604,2.004,0.412,2.606-0.424
			c0.193-0.27,0.297-0.574,0.331-0.881c2.377-0.939,4.472-2.766,6.317-4.42c1.122-1.004,2.265-2.1,3.328-3.273
			c0.771,1.871,0.519,3.682-0.355,5.449c-0.656-0.082-1.333,0.178-1.747,0.754c-0.603,0.838-0.412,2.006,0.425,2.607
			c0.839,0.602,2.006,0.412,2.608-0.426c0.473-0.656,0.451-1.514,0.019-2.143c1.227-2.422,1.438-4.967,0.135-7.506
			c0.87-1.082,1.649-2.221,2.254-3.416c0.022-0.045,0.022-0.086,0.036-0.131c2.548-0.107,5.081-0.33,7.589-0.666
			c0.094,0.002,0.188-0.01,0.276-0.039c3.352-0.461,6.656-1.133,9.883-2.025c-0.63,1.527-1.523,2.971-2.476,4.344
			c-2.755-1.172-6.574-1.453-8.928,0.523c-0.774-0.119-1.571,0.25-1.949,0.984c-0.47,0.92-0.107,2.045,0.812,2.516
			c0.918,0.471,2.043,0.107,2.514-0.809c0.306-0.596,0.256-1.273-0.062-1.809c1.82-1.232,4.717-0.93,6.716-0.146
			c-0.131,0.182-0.264,0.363-0.395,0.543c-1.584,2.158-3.63,4.803-6.092,6.234c-0.106-0.092-0.223-0.176-0.354-0.242
			c-0.918-0.471-2.044-0.109-2.515,0.809c-0.471,0.918-0.108,2.045,0.809,2.516c0.918,0.469,2.044,0.109,2.515-0.811
			c0.154-0.301,0.211-0.623,0.197-0.938c1.675-0.979,3.114-2.404,4.4-3.889c1.151,1.791,1.268,3.699,0.636,5.668
			c-0.665,0.014-1.302,0.375-1.626,1.008c-0.472,0.918-0.108,2.043,0.809,2.514c0.92,0.473,2.045,0.109,2.516-0.809
			c0.371-0.725,0.218-1.57-0.309-2.131c0.845-2.572,0.733-5.149-1.005-7.465c0.103-0.125,0.208-0.252,0.309-0.375
			c2.107-2.59,4.229-5.553,5.287-8.754c0.001-0.004,0-0.008,0-0.012c4.011-1.227,7.891-2.805,11.583-4.768
			c0.238,1.896,0.248,4.176-0.003,6.5c-2.792,0.736-6.151,3.021-6.76,6.031c-0.806,0.35-1.278,1.232-1.078,2.121
			c0.228,1.008,1.227,1.639,2.233,1.412c1.007-0.227,1.639-1.227,1.411-2.232c-0.128-0.57-0.507-1.012-0.991-1.256
			c0.59-2.104,2.902-3.703,4.961-4.416c-0.46,2.83-1.32,5.58-2.642,7.633c-0.137-0.031-0.277-0.049-0.422-0.047
			c-1.031,0.016-1.854,0.865-1.839,1.896c0.016,1.033,0.864,1.856,1.896,1.84c1.031-0.018,1.855-0.865,1.839-1.896
			c-0.006-0.33-0.104-0.635-0.258-0.902c2.042-3.152,3.077-7.658,3.295-11.848c1.62,1.035,2.495,2.611,2.833,4.498
			c-0.581,0.324-0.974,0.941-0.963,1.652c0.016,1.033,0.865,1.855,1.896,1.84c1.032-0.016,1.856-0.863,1.84-1.896
			c-0.013-0.809-0.541-1.484-1.265-1.73c-0.448-2.627-1.768-4.857-4.301-6.066c-0.001-1.393-0.093-2.717-0.27-3.908
			c4.734-2.678,9.137-6.004,13.085-10.041c0.475,1.598,0.822,3.512,0.989,5.533c-2.748,0.682-5.911,2.73-6.657,5.557
			c-0.829,0.303-1.352,1.158-1.198,2.061c0.171,1.018,1.134,1.705,2.151,1.531c1.018-0.17,1.703-1.135,1.531-2.152
			c-0.097-0.578-0.455-1.041-0.931-1.311c0.694-2.061,3.107-3.525,5.193-4.133c0.111,3.297-0.288,6.691-1.434,9.287
			c-0.135-0.008-0.273-0.004-0.41,0.02c-1.019,0.172-1.702,1.135-1.531,2.154c0.171,1.018,1.135,1.701,2.152,1.531
			c1.018-0.174,1.703-1.137,1.531-2.152c-0.055-0.326-0.196-0.609-0.387-0.848c0.757-1.668,1.228-3.621,1.458-5.68
			c1.854,0.75,2.987,2.227,3.62,4.078c-0.52,0.41-0.812,1.076-0.694,1.773c0.172,1.018,1.135,1.703,2.152,1.531
			c1.019-0.17,1.704-1.135,1.531-2.152c-0.134-0.795-0.754-1.381-1.502-1.52c-0.812-2.473-2.436-4.414-4.979-5.275
			c0.211-3.816-0.312-7.783-1.259-10.699c-0.044-0.139-0.119-0.238-0.206-0.32c2.832-3.065,5.287-6.43,7.373-10.006
			c0.838,1.699,1.58,3.777,2.107,5.963c-2.441,1.725-4.684,4.859-4.281,7.918c-0.671,0.598-0.833,1.609-0.335,2.392
			c0.553,0.869,1.706,1.127,2.578,0.572c0.871-0.553,1.127-1.707,0.574-2.576c-0.317-0.5-0.832-0.789-1.376-0.848
			c-0.164-2.166,1.519-4.477,3.186-5.826c0.518,2.805,0.63,5.67,0.089,8.07c-0.135,0.02-0.267,0.051-0.399,0.1
			c-0.965,0.363-1.453,1.439-1.091,2.406c0.364,0.965,1.441,1.453,2.407,1.09c0.965-0.363,1.454-1.439,1.091-2.404
			c-0.115-0.307-0.309-0.559-0.541-0.758c0.867-3.629,0.307-8.25-0.905-12.273c1.885,0.41,3.226,1.646,4.176,3.289
			c-0.432,0.5-0.59,1.209-0.34,1.873c0.362,0.965,1.439,1.453,2.405,1.09c0.966-0.363,1.454-1.439,1.09-2.406
			c-0.284-0.756-1.006-1.211-1.77-1.203c-1.304-2.342-3.332-3.928-6.094-4.248c-0.502-1.398-1.069-2.689-1.675-3.785
			c2.509-4.613,4.405-9.557,5.713-14.654c0.849,1.271,1.677,2.803,2.396,4.455c-2.383,1.564-4.717,4.482-4.506,7.406
			c-0.688,0.557-0.906,1.535-0.471,2.342c0.491,0.906,1.624,1.244,2.531,0.754c0.908-0.492,1.246-1.625,0.755-2.533
			c-0.276-0.512-0.758-0.832-1.286-0.938c0.001-2.191,1.77-4.336,3.565-5.592c1.176,3.09,1.9,6.438,1.646,9.252
			c-0.133,0.037-0.264,0.086-0.39,0.154c-0.908,0.49-1.245,1.623-0.754,2.531s1.624,1.244,2.531,0.754
			c0.907-0.49,1.245-1.623,0.754-2.531c-0.156-0.291-0.382-0.514-0.642-0.68c0.176-1.82-0.009-3.822-0.452-5.84
			c1.996,0.123,3.543,1.129,4.745,2.686c-0.361,0.555-0.423,1.281-0.086,1.904c0.491,0.908,1.624,1.246,2.532,0.756
			c0.908-0.492,1.245-1.625,0.754-2.533c-0.383-0.709-1.161-1.064-1.915-0.953c-1.575-2.074-3.712-3.414-6.417-3.4
			c-1.024-3.658-2.781-7.219-4.614-9.662c-0.064-0.084-0.139-0.148-0.218-0.199c1.104-4.881,1.669-9.887,1.689-14.875
			C164.356,102.947,162.835,102.949,162.831,103.928z"/>
		<path fill="#E75244" d="M102.793,20.586c2.549,0.008,5.085,0.176,7.601,0.475c-0.34,2.967-0.168,6.666,0.615,10.139
			c-2.392,1.268-3.637,3.463-4.034,6.033c-0.719,0.26-1.235,0.941-1.235,1.75c0,1.033,0.836,1.867,1.867,1.867
			c1.032,0,1.867-0.834,1.867-1.867c0-0.711-0.4-1.32-0.985-1.637c0.317-1.945,1.212-3.564,2.906-4.623
			c0.568,1.988,1.355,3.834,2.378,5.356c-0.151,0.269-0.244,0.574-0.244,0.904c0,1.033,0.836,1.867,1.868,1.867
			c1.031,0,1.868-0.834,1.868-1.867c0-1.031-0.837-1.867-1.868-1.867c-0.146,0-0.285,0.02-0.419,0.051
			c-1.565-2.352-2.529-5.65-2.969-8.926c2.117,0.238,4.834,1.287,5.853,3.197c-0.439,0.342-0.723,0.867-0.723,1.465
			c0,1.033,0.836,1.869,1.867,1.869c1.032,0,1.867-0.836,1.867-1.869c0-0.928-0.677-1.69-1.562-1.836
			c-1.237-2.67-4.586-4.141-7.472-4.369c-0.167-1.963-0.146-3.846,0.046-5.447c4.67,0.658,9.243,1.815,13.631,3.459
			c-0.16,1.205-0.233,2.545-0.214,3.951c-2.512,1.252-3.804,3.5-4.211,6.133c-0.719,0.262-1.235,0.943-1.235,1.752
			c0,1.031,0.836,1.869,1.868,1.869c1.032,0,1.868-0.838,1.868-1.869c0-0.711-0.401-1.322-0.985-1.637
			c0.307-1.892,1.154-3.484,2.762-4.541c0.28,4.186,1.383,8.678,3.474,11.795c-0.15,0.27-0.243,0.576-0.243,0.906
			c0,1.031,0.836,1.867,1.868,1.867c1.032,0,1.868-0.836,1.868-1.867c0-1.033-0.836-1.869-1.868-1.869
			c-0.145,0-0.283,0.021-0.419,0.051c-1.352-2.031-2.256-4.768-2.76-7.59c2.066,0.684,4.412,2.246,5.03,4.34
			c-0.482,0.25-0.855,0.697-0.976,1.27c-0.211,1.01,0.436,2,1.445,2.213c1.011,0.211,2-0.438,2.212-1.447
			c0.187-0.893-0.298-1.768-1.111-2.105c-0.657-2.998-4.049-5.238-6.852-5.926c-0.298-2.416-0.313-4.783-0.074-6.728
			c3.488,1.406,6.848,3.129,10.033,5.164c-0.348,2.976-0.179,6.701,0.608,10.197c-2.392,1.266-3.637,3.463-4.034,6.031
			c-0.719,0.26-1.235,0.941-1.235,1.752c0,1.031,0.836,1.867,1.868,1.867c1.032,0,1.868-0.836,1.868-1.867
			c0-0.713-0.401-1.322-0.985-1.639c0.315-1.943,1.21-3.564,2.906-4.621c0.566,1.984,1.354,3.83,2.376,5.354
			c-0.15,0.27-0.243,0.576-0.243,0.906c0,1.031,0.836,1.867,1.867,1.867c1.032,0,1.868-0.836,1.868-1.867
			c0-1.033-0.836-1.869-1.868-1.869c-0.145,0-0.283,0.02-0.418,0.051c-1.566-2.352-2.529-5.648-2.969-8.926
			c2.116,0.238,4.834,1.289,5.851,3.197c-0.436,0.344-0.722,0.869-0.722,1.467c0,1.031,0.836,1.867,1.868,1.867
			c1.032,0,1.868-0.836,1.868-1.867c0-0.928-0.677-1.691-1.562-1.838c-1.237-2.67-4.586-4.141-7.474-4.369
			c-0.143-1.686-0.147-3.316-0.025-4.76c2.077,1.41,4.081,2.943,5.982,4.627c2.684,2.373,5.062,4.967,7.161,7.738
			c-0.011,0.014-0.021,0.023-0.029,0.035c-0.694,1.043-1.366,2.281-1.977,3.623c-2.79,0.084-4.929,1.539-6.421,3.758
			c-0.759-0.07-1.515,0.326-1.858,1.055c-0.44,0.934-0.042,2.047,0.893,2.488c0.933,0.439,2.046,0.041,2.486-0.893
			c0.302-0.641,0.202-1.361-0.188-1.895c1.082-1.57,2.512-2.668,4.419-2.934c-1.53,3.902-2.448,8.451-1.883,12.152
			c-0.249,0.18-0.462,0.414-0.604,0.711c-0.439,0.934-0.04,2.047,0.894,2.488c0.934,0.439,2.046,0.039,2.485-0.893
			c0.441-0.934,0.042-2.047-0.891-2.488c-0.128-0.059-0.259-0.102-0.392-0.131c-0.347-2.422,0.002-5.266,0.748-8.023
			c1.567,1.518,3.025,3.902,2.685,6.053c-0.543,0.02-1.073,0.264-1.427,0.733c-0.622,0.822-0.459,1.994,0.364,2.615
			c0.823,0.623,1.994,0.459,2.616-0.363c0.557-0.736,0.48-1.748-0.13-2.4c0.653-3.004-1.353-6.385-3.628-8.242
			c0.758-2.305,1.752-4.455,2.8-6.139c2.654,3.732,4.82,7.762,6.539,11.988c-0.094,0.029-0.188,0.076-0.275,0.148
			c-2.554,2.145-4.448,5.182-6.114,8.025c-0.085,0.146-0.171,0.299-0.257,0.449c-2.767-0.736-5.235,0.064-7.319,1.803
			c-0.71-0.279-1.548-0.109-2.083,0.498c-0.68,0.775-0.606,1.955,0.169,2.637c0.774,0.682,1.954,0.607,2.636-0.168
			c0.468-0.531,0.571-1.25,0.346-1.871c1.588-1.301,3.391-1.936,5.48-1.502c-0.91,1.734-1.697,3.619-1.989,5.527
			c-0.296,0.104-0.573,0.271-0.794,0.523c-0.683,0.775-0.606,1.955,0.168,2.637c0.775,0.684,1.954,0.607,2.637-0.166
			c0.682-0.775,0.606-1.957-0.168-2.639c-0.107-0.094-0.225-0.17-0.346-0.236c0.387-2.82,1.863-5.953,3.722-8.719
			c1.566,1.607,2.997,4.236,2.499,6.494c-0.607-0.092-1.245,0.115-1.682,0.609c-0.682,0.775-0.606,1.955,0.168,2.637
			c0.774,0.682,1.954,0.607,2.637-0.168c0.543-0.617,0.598-1.488,0.208-2.164c1.016-2.973-0.793-6.592-2.942-8.666
			c1.249-1.678,2.596-3.154,3.865-4.258c1.888,4.975,3.17,10.203,3.918,15.527c-0.966,0.688-1.87,1.482-2.718,2.342
			c-2.684-1.076-5.196-0.518-7.462,0.959c-0.676-0.363-1.533-0.293-2.137,0.252c-0.767,0.691-0.825,1.873-0.135,2.639
			c0.692,0.766,1.873,0.826,2.64,0.133c0.528-0.476,0.711-1.184,0.554-1.83c1.67-1.072,3.461-1.473,5.396-0.93
			c-0.815,0.928-1.582,1.895-2.302,2.854c-1.684,2.242-3.533,4.783-4.291,7.568c-0.303,0.068-0.594,0.205-0.842,0.428
			c-0.766,0.691-0.824,1.871-0.133,2.637c0.691,0.766,1.872,0.826,2.639,0.135c0.766-0.691,0.825-1.873,0.134-2.639
			c-0.095-0.104-0.2-0.193-0.311-0.271c0.659-2.355,2.266-4.557,3.642-6.457c0.088-0.121,0.181-0.246,0.27-0.367
			c0.788,1.971,1.078,4.539,0,6.32c-0.505-0.184-1.082-0.16-1.582,0.133c-0.892,0.52-1.191,1.664-0.671,2.557
			c0.519,0.891,1.663,1.191,2.555,0.67c0.788-0.459,1.111-1.41,0.816-2.238c1.738-2.43,1.195-6.232-0.074-8.812
			c1.253-1.59,2.664-3.139,4.236-4.367c0.374,3.141,0.567,6.311,0.59,9.475c0,0.025,0.011,0.041,0.013,0.066
			c0.005,1.488-0.028,3.121-0.145,4.793c-2.988,0.23-6.559,1.818-7.702,4.693c-0.737,0.26-1.264,0.961-1.248,1.787
			c0.019,1.033,0.87,1.854,1.902,1.834c1.031-0.02,1.852-0.871,1.832-1.902c-0.013-0.674-0.382-1.252-0.923-1.572
			c1.032-1.98,3.871-3.088,6.004-3.31c-0.345,3.303-1.099,6.596-2.662,9.051c-0.134-0.029-0.273-0.047-0.418-0.043
			c-1.031,0.018-1.851,0.869-1.833,1.902c0.02,1.031,0.871,1.852,1.902,1.832c1.032-0.018,1.853-0.869,1.834-1.902
			c-0.007-0.334-0.106-0.641-0.266-0.908c1.002-1.582,1.707-3.445,2.191-5.438c1.767,1.023,2.725,2.645,3.083,4.615
			c-0.579,0.326-0.97,0.943-0.956,1.656c0.018,1.031,0.869,1.852,1.902,1.832c1.03-0.02,1.853-0.869,1.833-1.902
			c-0.016-0.811-0.546-1.48-1.27-1.727c-0.453-2.604-1.763-4.812-4.263-6.021c0.691-3.705,0.757-7.654,0.709-10.811
			c1.894,1.1,3.568,2.619,5.127,4.166c-0.997,2.703-1.04,6.471,0.923,8.703c-0.216,0.865,0.208,1.785,1.052,2.16
			c0.942,0.416,2.047-0.008,2.464-0.951c0.419-0.943-0.007-2.047-0.949-2.465c-0.539-0.238-1.123-0.195-1.607,0.053
			c-1.272-1.627-1.226-4.238-0.674-6.283c1.754,1.797,3.685,3.945,4.642,6.338c-0.102,0.09-0.199,0.191-0.283,0.307
			c-0.603,0.84-0.413,2.006,0.426,2.607c0.837,0.604,2.003,0.412,2.606-0.424c0.603-0.838,0.413-2.006-0.426-2.607
			c-0.268-0.193-0.571-0.297-0.879-0.332c-0.94-2.377-2.768-4.471-4.419-6.318c-1.005-1.121-2.103-2.264-3.275-3.326
			c1.872-0.771,3.683-0.52,5.448,0.354c-0.081,0.656,0.18,1.334,0.755,1.748c0.838,0.604,2.006,0.412,2.607-0.426
			c0.604-0.838,0.412-2.004-0.425-2.607c-0.657-0.471-1.513-0.451-2.145-0.019c-2.421-1.225-4.965-1.438-7.504-0.133
			c-1.082-0.871-2.221-1.65-3.416-2.254c-0.044-0.021-0.087-0.021-0.131-0.037c-0.108-2.547-0.33-5.08-0.666-7.59
			c0.002-0.092-0.012-0.186-0.039-0.275c-0.462-3.352-1.133-6.656-2.026-9.883c1.528,0.629,2.971,1.523,4.344,2.477
			c-1.172,2.754-1.453,6.572,0.524,8.928c-0.121,0.773,0.25,1.57,0.985,1.949c0.917,0.469,2.044,0.107,2.514-0.812
			c0.472-0.916,0.108-2.043-0.81-2.514c-0.594-0.305-1.273-0.256-1.808,0.064c-1.232-1.822-0.929-4.717-0.145-6.717
			c0.182,0.131,0.363,0.264,0.542,0.395c2.158,1.584,4.802,3.631,6.233,6.09c-0.091,0.107-0.174,0.225-0.241,0.355
			c-0.472,0.918-0.108,2.043,0.81,2.514c0.918,0.473,2.043,0.107,2.514-0.809c0.472-0.918,0.109-2.045-0.809-2.514
			c-0.301-0.156-0.622-0.211-0.938-0.197c-0.98-1.676-2.405-3.115-3.891-4.402c1.793-1.15,3.702-1.268,5.67-0.635
			c0.015,0.664,0.374,1.301,1.008,1.627c0.918,0.471,2.043,0.107,2.514-0.811c0.472-0.918,0.109-2.043-0.809-2.516
			c-0.724-0.371-1.571-0.219-2.131,0.309c-2.574-0.844-5.148-0.734-7.466,1.004c-0.125-0.102-0.25-0.205-0.374-0.307
			c-2.592-2.107-5.553-4.23-8.754-5.287c-0.005-0.002-0.008,0-0.012-0.002c-1.227-4.01-2.806-7.889-4.768-11.582
			c1.896-0.238,4.176-0.246,6.5,0.002c0.736,2.793,3.021,6.152,6.031,6.762c0.35,0.807,1.231,1.277,2.121,1.078
			c1.007-0.229,1.639-1.227,1.411-2.234c-0.227-1.006-1.226-1.639-2.233-1.412c-0.57,0.129-1.012,0.508-1.254,0.994
			c-2.105-0.59-3.704-2.904-4.417-4.961c2.829,0.457,5.58,1.32,7.631,2.641c-0.028,0.135-0.048,0.275-0.045,0.422
			c0.017,1.031,0.865,1.854,1.897,1.838c1.032-0.016,1.854-0.863,1.84-1.896c-0.017-1.029-0.864-1.854-1.896-1.838
			c-0.33,0.004-0.636,0.104-0.902,0.256c-3.151-2.041-7.658-3.076-11.848-3.293c1.034-1.621,2.611-2.496,4.498-2.832
			c0.324,0.58,0.941,0.973,1.652,0.961c1.032-0.016,1.855-0.863,1.84-1.897c-0.016-1.031-0.865-1.853-1.895-1.838
			c-0.81,0.012-1.484,0.541-1.733,1.264c-2.625,0.447-4.855,1.768-6.065,4.301c-1.393,0.002-2.717,0.092-3.908,0.27
			c-2.678-4.734-6.006-9.137-10.039-13.086c1.598-0.475,3.511-0.822,5.531-0.988c0.682,2.748,2.73,5.91,5.558,6.658
			c0.303,0.828,1.159,1.35,2.061,1.197c1.018-0.17,1.703-1.135,1.531-2.152c-0.172-1.018-1.135-1.703-2.152-1.531
			c-0.579,0.098-1.043,0.455-1.31,0.93c-2.062-0.693-3.527-3.105-4.135-5.191c3.297-0.113,6.691,0.287,9.287,1.434
			c-0.007,0.135-0.003,0.271,0.021,0.41c0.171,1.018,1.134,1.703,2.152,1.531c1.017-0.172,1.702-1.135,1.531-2.152
			c-0.173-1.02-1.136-1.703-2.154-1.531c-0.322,0.055-0.606,0.195-0.846,0.387c-1.668-0.756-3.621-1.229-5.678-1.459
			c0.75-1.854,2.226-2.986,4.076-3.619c0.409,0.519,1.076,0.812,1.774,0.693c1.017-0.172,1.702-1.135,1.531-2.152
			c-0.173-1.017-1.136-1.703-2.152-1.529c-0.796,0.131-1.382,0.752-1.52,1.5c-2.473,0.814-4.412,2.436-5.274,4.979
			c-3.817-0.211-7.783,0.311-10.7,1.258c-0.138,0.047-0.238,0.121-0.32,0.209c-3.064-2.834-6.428-5.287-10.006-7.375
			c1.701-0.838,3.777-1.58,5.962-2.105c1.725,2.439,4.862,4.682,7.92,4.279c0.599,0.672,1.607,0.834,2.392,0.336
			c0.87-0.553,1.129-1.707,0.574-2.578c-0.554-0.871-1.707-1.127-2.578-0.574c-0.499,0.316-0.789,0.832-0.849,1.377
			c-2.164,0.162-4.474-1.519-5.825-3.188c2.806-0.518,5.67-0.631,8.07-0.088c0.02,0.133,0.051,0.268,0.1,0.399
			c0.364,0.967,1.441,1.455,2.405,1.09c0.967-0.363,1.455-1.439,1.093-2.406c-0.364-0.965-1.441-1.453-2.407-1.09
			c-0.306,0.115-0.557,0.307-0.756,0.541c-3.629-0.867-8.251-0.307-12.273,0.904c0.408-1.885,1.646-3.226,3.288-4.176
			c0.501,0.432,1.21,0.59,1.873,0.342c0.966-0.363,1.454-1.441,1.091-2.406c-0.364-0.967-1.44-1.453-2.407-1.09
			c-0.756,0.283-1.212,1.006-1.204,1.77c-2.341,1.303-3.927,3.332-4.247,6.094c-1.397,0.5-2.688,1.068-3.783,1.674
			c-4.614-2.508-9.557-4.404-14.656-5.713c1.271-0.85,2.805-1.676,4.456-2.396c1.563,2.383,4.481,4.717,7.407,4.506
			c0.555,0.69,1.535,0.906,2.339,0.471c0.908-0.49,1.246-1.623,0.754-2.531c-0.49-0.908-1.624-1.244-2.531-0.754
			c-0.511,0.275-0.832,0.756-0.937,1.285c-2.192,0-4.337-1.77-5.593-3.566c3.09-1.176,6.437-1.898,9.252-1.645
			c0.036,0.133,0.085,0.264,0.153,0.389c0.491,0.908,1.625,1.246,2.531,0.754c0.908-0.49,1.246-1.623,0.754-2.531
			c-0.49-0.906-1.624-1.244-2.531-0.754c-0.289,0.156-0.514,0.383-0.679,0.643c-1.82-0.176-3.821,0.008-5.84,0.451
			c0.122-1.996,1.129-3.543,2.684-4.744c0.555,0.361,1.281,0.422,1.905,0.086c0.907-0.492,1.245-1.625,0.755-2.533
			c-0.492-0.906-1.626-1.246-2.533-0.754c-0.71,0.385-1.063,1.162-0.952,1.916c-2.074,1.574-3.414,3.711-3.401,6.416
			c-3.658,1.025-7.219,2.781-9.66,4.615c-0.087,0.065-0.15,0.139-0.201,0.219c-4.88-1.105-9.887-1.672-14.874-1.691
			C101.813,19.061,101.814,20.582,102.793,20.586z"/>
		<path fill="#E75244" d="M19.45,80.623c0.011-2.547,0.178-5.084,0.475-7.6c2.967,0.338,6.667,0.168,10.139-0.615
			c1.269,2.391,3.464,3.637,6.033,4.035c0.26,0.719,0.942,1.234,1.751,1.234c1.031,0,1.868-0.836,1.868-1.869
			c0-1.029-0.837-1.867-1.868-1.867c-0.711,0-1.321,0.402-1.638,0.986c-1.943-0.316-3.564-1.211-4.621-2.906
			c1.985-0.568,3.831-1.355,5.355-2.377c0.269,0.15,0.574,0.244,0.904,0.244c1.031,0,1.868-0.838,1.868-1.867
			c0-1.033-0.837-1.869-1.868-1.869c-1.032,0-1.868,0.836-1.868,1.869c0,0.145,0.02,0.283,0.051,0.418
			c-2.352,1.564-5.649,2.529-8.926,2.969c0.239-2.117,1.288-4.836,3.197-5.852c0.342,0.436,0.868,0.721,1.466,0.721
			c1.032,0,1.868-0.834,1.868-1.867c0-1.031-0.836-1.867-1.868-1.867c-0.927,0-1.69,0.676-1.837,1.562
			c-2.669,1.238-4.14,4.586-4.369,7.473c-1.962,0.166-3.846,0.145-5.446-0.047c0.659-4.668,1.814-9.244,3.461-13.633
			c1.203,0.162,2.542,0.234,3.949,0.215c1.252,2.512,3.5,3.805,6.134,4.213c0.259,0.719,0.941,1.234,1.75,1.234
			c1.033,0,1.868-0.836,1.868-1.869c0-1.031-0.835-1.867-1.868-1.867c-0.711,0-1.321,0.4-1.636,0.984
			c-1.893-0.307-3.483-1.154-4.543-2.76c4.188-0.281,8.68-1.385,11.797-3.475c0.269,0.148,0.574,0.242,0.904,0.242
			c1.033,0,1.868-0.836,1.868-1.867c0-1.033-0.835-1.867-1.868-1.867c-1.031,0-1.867,0.834-1.867,1.867
			c0,0.145,0.02,0.283,0.052,0.418c-2.032,1.352-4.769,2.256-7.591,2.76c0.683-2.066,2.246-4.41,4.341-5.029
			c0.248,0.481,0.696,0.856,1.27,0.975c1.01,0.211,1.999-0.436,2.21-1.445c0.212-1.012-0.436-2-1.445-2.211
			c-0.893-0.188-1.768,0.299-2.104,1.109c-2.999,0.658-5.239,4.051-5.927,6.852c-2.415,0.301-4.785,0.314-6.729,0.074
			c1.407-3.486,3.13-6.846,5.164-10.031c2.977,0.348,6.701,0.178,10.195-0.609c1.269,2.391,3.465,3.639,6.033,4.035
			c0.261,0.719,0.941,1.236,1.75,1.236c1.033,0,1.868-0.838,1.868-1.869c0-1.033-0.835-1.869-1.868-1.869
			c-0.71,0-1.32,0.402-1.636,0.986c-1.945-0.316-3.565-1.211-4.623-2.906c1.986-0.566,3.832-1.354,5.354-2.375
			c0.269,0.15,0.575,0.242,0.904,0.242c1.033,0,1.868-0.836,1.868-1.869c0-1.031-0.835-1.867-1.868-1.867
			c-1.031,0-1.868,0.836-1.868,1.867c0,0.144,0.021,0.285,0.052,0.42c-2.352,1.564-5.65,2.529-8.926,2.969
			c0.238-2.117,1.288-4.834,3.198-5.852c0.342,0.438,0.868,0.723,1.465,0.723c1.032,0,1.868-0.836,1.868-1.869
			c0-1.031-0.836-1.867-1.868-1.867c-0.928,0-1.691,0.676-1.838,1.562c-2.668,1.236-4.139,4.586-4.368,7.473
			c-1.688,0.143-3.318,0.148-4.761,0.027c1.41-2.078,2.944-4.082,4.627-5.984c2.373-2.682,4.968-5.062,7.739-7.16
			c0.012,0.01,0.022,0.019,0.035,0.029c1.043,0.695,2.279,1.365,3.624,1.977c0.082,2.789,1.539,4.93,3.756,6.42
			c-0.069,0.76,0.328,1.514,1.057,1.859c0.934,0.439,2.046,0.041,2.486-0.893c0.44-0.934,0.042-2.047-0.893-2.486
			c-0.641-0.303-1.36-0.203-1.895,0.188c-1.568-1.08-2.667-2.512-2.933-4.418c3.902,1.529,8.449,2.449,12.152,1.883
			c0.179,0.248,0.414,0.461,0.711,0.602c0.934,0.441,2.046,0.041,2.487-0.893c0.439-0.932,0.04-2.045-0.894-2.486
			c-0.933-0.439-2.046-0.041-2.485,0.893c-0.061,0.127-0.103,0.258-0.131,0.391c-2.423,0.348-5.269-0.002-8.026-0.748
			c1.52-1.566,3.902-3.025,6.054-2.684c0.019,0.541,0.265,1.072,0.732,1.426c0.823,0.623,1.994,0.459,2.616-0.365
			c0.623-0.822,0.459-1.992-0.363-2.615c-0.737-0.557-1.749-0.48-2.399,0.129c-3.006-0.652-6.386,1.354-8.244,3.629
			c-2.305-0.758-4.454-1.752-6.138-2.799c3.73-2.656,7.76-4.822,11.986-6.541c0.03,0.094,0.077,0.188,0.15,0.275
			c2.144,2.553,5.181,4.447,8.025,6.113c0.146,0.086,0.302,0.174,0.45,0.26c-0.736,2.766,0.064,5.233,1.802,7.318
			c-0.278,0.711-0.107,1.547,0.499,2.082c0.774,0.682,1.954,0.605,2.637-0.168c0.681-0.775,0.606-1.955-0.169-2.637
			c-0.53-0.469-1.251-0.572-1.872-0.346c-1.298-1.586-1.933-3.391-1.502-5.48c1.736,0.91,3.621,1.697,5.53,1.988
			c0.1,0.297,0.271,0.572,0.523,0.795c0.774,0.682,1.953,0.607,2.636-0.168c0.682-0.773,0.606-1.953-0.168-2.635
			c-0.774-0.684-1.955-0.607-2.637,0.166c-0.095,0.109-0.172,0.225-0.237,0.346c-2.819-0.385-5.952-1.863-8.717-3.721
			c1.607-1.566,4.235-2.998,6.492-2.5c-0.091,0.607,0.115,1.246,0.609,1.682c0.775,0.682,1.955,0.607,2.637-0.168
			c0.683-0.773,0.607-1.953-0.167-2.637c-0.617-0.543-1.488-0.598-2.163-0.209c-2.975-1.014-6.594,0.795-8.668,2.943
			c-1.677-1.248-3.153-2.596-4.257-3.865c4.976-1.887,10.203-3.168,15.528-3.918c0.686,0.967,1.479,1.871,2.34,2.719
			c-1.074,2.684-0.518,5.195,0.96,7.461c-0.365,0.676-0.294,1.535,0.251,2.137c0.692,0.766,1.872,0.826,2.639,0.135
			c0.767-0.692,0.825-1.873,0.134-2.639c-0.478-0.527-1.186-0.711-1.831-0.555c-1.072-1.67-1.472-3.461-0.93-5.396
			c0.929,0.818,1.896,1.582,2.855,2.303c2.241,1.686,4.782,3.533,7.566,4.291c0.069,0.303,0.205,0.594,0.428,0.842
			c0.692,0.766,1.873,0.826,2.639,0.133c0.767-0.691,0.825-1.871,0.134-2.637c-0.691-0.766-1.872-0.828-2.639-0.135
			c-0.104,0.094-0.192,0.199-0.271,0.31c-2.356-0.66-4.557-2.266-6.459-3.642c-0.12-0.088-0.243-0.18-0.364-0.268
			c1.969-0.789,4.538-1.078,6.318,0c-0.184,0.504-0.159,1.08,0.134,1.582c0.519,0.891,1.663,1.191,2.555,0.67
			c0.892-0.52,1.191-1.664,0.672-2.555c-0.462-0.789-1.41-1.111-2.239-0.816c-2.429-1.736-6.232-1.195-8.812,0.074
			c-1.587-1.254-3.138-2.664-4.366-4.236c3.142-0.373,6.31-0.568,9.474-0.59c0.025,0,0.042-0.012,0.066-0.012
			c1.489-0.006,3.122,0.027,4.794,0.145c0.229,2.988,1.819,6.559,4.692,7.701c0.26,0.738,0.963,1.266,1.788,1.25
			c1.032-0.02,1.852-0.871,1.833-1.904c-0.02-1.031-0.87-1.852-1.902-1.832c-0.674,0.012-1.252,0.383-1.571,0.924
			c-1.982-1.033-3.091-3.871-3.312-6.006c3.302,0.348,6.596,1.102,9.051,2.662c-0.027,0.137-0.045,0.275-0.043,0.42
			c0.018,1.031,0.87,1.852,1.902,1.832c1.031-0.02,1.852-0.871,1.833-1.902c-0.02-1.031-0.87-1.852-1.902-1.832
			c-0.334,0.004-0.642,0.105-0.909,0.264c-1.58-1.002-3.445-1.707-5.438-2.191c1.024-1.766,2.645-2.725,4.615-3.082
			c0.326,0.578,0.944,0.969,1.656,0.955c1.032-0.018,1.853-0.869,1.833-1.9c-0.018-1.033-0.871-1.854-1.902-1.834
			c-0.81,0.016-1.482,0.545-1.728,1.27c-2.602,0.453-4.812,1.764-6.019,4.262c-3.707-0.691-7.656-0.754-10.812-0.707
			c1.099-1.895,2.62-3.568,4.165-5.127c2.704,0.996,6.471,1.039,8.705-0.924c0.865,0.217,1.784-0.209,2.157-1.051
			c0.419-0.943-0.006-2.047-0.95-2.465c-0.942-0.418-2.046,0.008-2.465,0.949c-0.237,0.539-0.195,1.123,0.054,1.609
			c-1.627,1.272-4.238,1.227-6.283,0.672c1.795-1.754,3.946-3.685,6.338-4.641c0.09,0.103,0.191,0.199,0.307,0.283
			c0.839,0.603,2.005,0.412,2.607-0.426c0.604-0.838,0.412-2.004-0.426-2.607c-0.837-0.603-2.004-0.412-2.606,0.426
			c-0.193,0.267-0.298,0.572-0.331,0.879c-2.377,0.939-4.472,2.768-6.317,4.42c-1.122,1.004-2.265,2.102-3.327,3.275
			c-0.771-1.871-0.519-3.682,0.354-5.449c0.656,0.082,1.333-0.18,1.747-0.754c0.603-0.84,0.412-2.006-0.425-2.608
			c-0.839-0.604-2.006-0.412-2.608,0.426c-0.473,0.656-0.45,1.512-0.019,2.143c-1.227,2.422-1.439,4.965-0.135,7.506
			c-0.87,1.08-1.649,2.219-2.254,3.414c-0.023,0.045-0.023,0.088-0.035,0.131c-2.548,0.109-5.082,0.33-7.589,0.666
			c-0.095-0.002-0.188,0.012-0.277,0.039c-3.353,0.463-6.656,1.135-9.883,2.027c0.629-1.527,1.523-2.971,2.476-4.344
			c2.755,1.172,6.575,1.453,8.928-0.525c0.774,0.121,1.572-0.25,1.949-0.984c0.471-0.918,0.107-2.043-0.81-2.514
			c-0.919-0.473-2.044-0.109-2.515,0.809c-0.306,0.596-0.257,1.273,0.062,1.809c-1.82,1.232-4.717,0.928-6.717,0.144
			c0.132-0.182,0.265-0.361,0.396-0.541c1.584-2.158,3.63-4.803,6.092-6.234c0.106,0.092,0.223,0.176,0.354,0.242
			c0.918,0.471,2.045,0.108,2.516-0.811c0.47-0.918,0.108-2.043-0.811-2.514c-0.918-0.471-2.043-0.109-2.515,0.811
			c-0.153,0.299-0.211,0.621-0.196,0.936c-1.675,0.978-3.115,2.406-4.401,3.891c-1.151-1.793-1.267-3.701-0.636-5.67
			c0.665-0.014,1.302-0.373,1.626-1.008c0.472-0.918,0.108-2.043-0.809-2.514c-0.919-0.471-2.044-0.107-2.516,0.811
			c-0.371,0.723-0.218,1.57,0.31,2.129c-0.845,2.574-0.733,5.148,1.004,7.467c-0.103,0.125-0.208,0.25-0.308,0.375
			c-2.107,2.59-4.23,5.551-5.288,8.752c-0.001,0.006,0,0.008-0.001,0.014c-4.01,1.225-7.89,2.805-11.581,4.766
			c-0.239-1.895-0.249-4.176,0.003-6.5c2.791-0.736,6.15-3.02,6.759-6.031c0.806-0.348,1.278-1.231,1.078-2.121
			c-0.228-1.006-1.227-1.637-2.233-1.41c-1.007,0.227-1.639,1.227-1.412,2.232c0.129,0.57,0.509,1.012,0.992,1.254
			c-0.59,2.105-2.902,3.703-4.961,4.416c0.46-2.83,1.32-5.58,2.642-7.631c0.136,0.029,0.277,0.049,0.422,0.045
			c1.032-0.016,1.854-0.863,1.839-1.897c-0.017-1.031-0.864-1.853-1.896-1.84c-1.032,0.018-1.855,0.865-1.84,1.897
			c0.005,0.332,0.103,0.637,0.259,0.904c-2.043,3.15-3.078,7.656-3.296,11.846c-1.62-1.033-2.495-2.611-2.832-4.498
			c0.58-0.324,0.973-0.941,0.962-1.65c-0.016-1.033-0.865-1.858-1.895-1.842c-1.033,0.016-1.856,0.865-1.841,1.896
			c0.013,0.811,0.541,1.484,1.265,1.733c0.448,2.625,1.768,4.855,4.301,6.066c0.001,1.392,0.094,2.717,0.27,3.908
			c-4.733,2.678-9.137,6.004-13.085,10.039c-0.475-1.598-0.822-3.512-0.99-5.531c2.749-0.682,5.913-2.731,6.658-5.559
			c0.829-0.303,1.351-1.158,1.199-2.061c-0.172-1.017-1.135-1.703-2.153-1.531c-1.017,0.172-1.702,1.135-1.53,2.152
			c0.098,0.578,0.456,1.043,0.93,1.311c-0.693,2.062-3.106,3.527-5.192,4.135c-0.111-3.297,0.289-6.691,1.434-9.287
			c0.136,0.006,0.272,0.002,0.41-0.021c1.019-0.17,1.703-1.135,1.531-2.152c-0.171-1.018-1.135-1.703-2.152-1.531
			c-1.017,0.172-1.702,1.135-1.531,2.152c0.054,0.324,0.196,0.607,0.387,0.848c-0.757,1.666-1.228,3.621-1.458,5.678
			c-1.854-0.75-2.987-2.227-3.62-4.076c0.521-0.41,0.812-1.076,0.694-1.773c-0.172-1.02-1.135-1.703-2.152-1.533
			c-1.019,0.172-1.704,1.135-1.531,2.154c0.135,0.795,0.753,1.381,1.502,1.52c0.812,2.473,2.435,4.412,4.978,5.273
			c-0.211,3.816,0.312,7.783,1.259,10.701c0.044,0.137,0.119,0.238,0.206,0.32c-2.832,3.064-5.286,6.428-7.372,10.006
			c-0.839-1.701-1.581-3.779-2.108-5.963c2.442-1.725,4.684-4.861,4.281-7.92c0.671-0.598,0.833-1.607,0.336-2.391
			c-0.553-0.871-1.707-1.129-2.579-0.574c-0.87,0.553-1.127,1.707-0.574,2.578c0.317,0.5,0.832,0.787,1.377,0.848
			c0.163,2.166-1.519,4.475-3.186,5.824c-0.518-2.805-0.629-5.668-0.089-8.07c0.135-0.018,0.268-0.049,0.399-0.1
			c0.966-0.363,1.453-1.439,1.091-2.404c-0.364-0.967-1.442-1.455-2.406-1.092c-0.966,0.363-1.454,1.441-1.092,2.406
			c0.116,0.307,0.31,0.559,0.541,0.756c-0.867,3.629-0.307,8.252,0.905,12.273c-1.885-0.408-3.226-1.645-4.176-3.287
			c0.432-0.5,0.59-1.211,0.34-1.873c-0.362-0.967-1.439-1.453-2.405-1.092c-0.967,0.365-1.453,1.441-1.09,2.408
			c0.284,0.756,1.006,1.211,1.77,1.203c1.304,2.342,3.332,3.928,6.094,4.248c0.501,1.396,1.07,2.688,1.675,3.783
			c-2.509,4.613-4.405,9.557-5.713,14.656c-0.85-1.271-1.677-2.805-2.397-4.457c2.385-1.562,4.718-4.482,4.507-7.406
			c0.689-0.555,0.906-1.535,0.471-2.34c-0.49-0.908-1.624-1.244-2.531-0.754c-0.907,0.49-1.246,1.625-0.755,2.531
			c0.276,0.512,0.758,0.832,1.287,0.938c-0.001,2.193-1.771,4.336-3.565,5.592c-1.176-3.088-1.901-6.436-1.648-9.252
			c0.133-0.035,0.264-0.084,0.39-0.152c0.908-0.49,1.245-1.625,0.755-2.531c-0.492-0.91-1.624-1.246-2.532-0.756
			c-0.907,0.492-1.244,1.625-0.754,2.533c0.157,0.289,0.382,0.512,0.642,0.678c-0.175,1.822,0.009,3.822,0.452,5.84
			c-1.996-0.121-3.543-1.127-4.745-2.684c0.361-0.557,0.423-1.281,0.086-1.904c-0.49-0.91-1.624-1.246-2.532-0.756
			c-0.908,0.492-1.244,1.625-0.754,2.533c0.384,0.709,1.161,1.064,1.916,0.951c1.573,2.074,3.712,3.414,6.416,3.402
			c1.024,3.658,2.781,7.219,4.614,9.66c0.064,0.086,0.139,0.15,0.218,0.201c-1.104,4.881-1.669,9.887-1.69,14.873
			C17.927,81.604,19.446,81.604,19.45,80.623z"/>
	</g>
	<g>
		<g id="penguin">
			<g>
				<path fill="#472D53" d="M147.264,130.209c-1.293-21.098-9.4-101.26-57.987-101.26c-45.897,0-55.6,84.504-56.953,102.584
					c13.658,12.912,36.675,25.42,56.953,25.42C112.491,156.953,133.279,146.576,147.264,130.209z"/>
			</g>
			<g>
				<path fill="#F4F4F4" d="M108.627,49.975c-10.34-3.705-17.487,8.289-17.487,8.289s-9.433-12.721-19.462-6.408
					c-17.2,10.824-26.688,52.949-26.688,90.922c12.485,8.924,27.771,14.176,44.287,14.176c19.54,0,31.879-2.887,45.372-14.971
					C134.649,100.797,125.723,56.1,108.627,49.975z"/>
				<g>
					<path fill="#301B3B" d="M134.649,141.983c0,0-0.163-1.874-0.448-5.152c-0.147-1.634-0.325-3.618-0.529-5.894
						c-0.231-2.269-0.491-4.83-0.775-7.623c-0.306-2.788-0.678-5.802-1.074-8.984c-0.41-3.181-0.92-6.523-1.441-9.974
						c-0.542-3.449-1.203-6.994-1.897-10.583c-0.709-3.586-1.52-7.208-2.463-10.786c-0.9-3.589-1.948-7.133-3.156-10.543
						c-1.231-3.398-2.523-6.709-4.109-9.717c-1.594-2.987-3.33-5.788-5.444-7.934c-0.537-0.521-1.048-1.067-1.627-1.491
						c-0.284-0.219-0.551-0.468-0.843-0.661c-0.295-0.191-0.587-0.38-0.877-0.568c-0.282-0.208-0.587-0.354-0.891-0.498
						l-0.452-0.223l-0.225-0.112l-0.112-0.056l-0.056-0.028c0.032,0.009-0.112-0.04,0.066,0.016l-0.033-0.01
						c-0.686-0.203-1.409-0.486-2.027-0.612c-1.144-0.202-2.395-0.295-3.559-0.096c-0.293,0.042-0.582,0.084-0.867,0.126
						c-0.279,0.08-0.555,0.159-0.826,0.237c-0.554,0.132-1.065,0.355-1.562,0.573c-1.983,0.891-3.566,2.076-4.778,3.138
						c-1.206,1.076-2.09,2.016-2.657,2.685c-0.566,0.67-0.847,1.05-0.847,1.05s0.203-0.425,0.661-1.185
						c0.468-0.75,1.177-1.85,2.278-3.11c1.099-1.251,2.558-2.73,4.645-3.94c2.084-1.204,4.784-2.145,8.047-1.713
						c0.766,0.101,1.409,0.299,2.141,0.448l0.034,0.008l0.129,0.042l0.07,0.027l0.14,0.054l0.282,0.108l0.569,0.221
						c0.384,0.144,0.77,0.295,1.124,0.505c0.363,0.198,0.729,0.398,1.099,0.599c0.363,0.211,0.689,0.472,1.039,0.71
						c0.715,0.466,1.336,1.042,1.99,1.606c2.567,2.309,4.657,5.234,6.457,8.388c1.788,3.165,3.367,6.554,4.652,10.096
						c1.3,3.536,2.433,7.18,3.395,10.858c0.922,3.689,1.706,7.402,2.383,11.069c0.692,3.665,1.141,7.306,1.587,10.82
						c0.434,3.517,0.703,6.931,0.922,10.166c0.107,1.618,0.199,3.192,0.267,4.715c0.044,1.524,0.087,2.996,0.128,4.41
						c0.073,2.826,0.052,5.418,0.015,7.713c-0.031,2.294-0.118,4.295-0.202,5.941c-0.058,1.646-0.192,2.934-0.245,3.814
						C134.683,141.513,134.649,141.983,134.649,141.983z"/>
				</g>
				<g>
					<path fill="#301B3B" d="M91.14,58.264c0,0-0.309-0.356-0.938-0.97c-0.625-0.616-1.592-1.471-2.876-2.459
						c-1.292-0.969-2.954-2.045-4.985-2.847c-2.021-0.778-4.487-1.207-6.906-0.5c-1.203,0.345-2.388,0.956-3.469,1.789
						c-0.303,0.229-0.608,0.46-0.916,0.692c-0.315,0.229-0.541,0.473-0.82,0.71c-0.265,0.243-0.538,0.466-0.803,0.726
						c-0.262,0.272-0.526,0.545-0.792,0.82c-2.11,2.221-3.98,4.928-5.681,7.878c-1.704,2.955-3.15,6.203-4.521,9.548
						c-1.36,3.352-2.545,6.852-3.583,10.4c-1.08,3.536-2.026,7.121-2.849,10.68c-0.81,3.561-1.583,7.08-2.207,10.512
						c-0.628,3.431-1.195,6.76-1.677,9.929c-0.468,3.17-0.879,6.176-1.231,8.957c-0.318,2.788-0.609,5.344-0.867,7.609
						c-0.219,2.274-0.41,4.257-0.568,5.89c-0.294,3.277-0.462,5.149-0.462,5.149s-0.036-0.469-0.105-1.349
						c-0.055-0.88-0.174-2.172-0.229-3.818c-0.081-1.646-0.148-3.647-0.166-5.945c-0.016-2.297-0.009-4.891,0.107-7.719
						c0.102-2.828,0.254-5.894,0.555-9.127c0.287-3.234,0.625-6.646,1.167-10.153c0.533-3.506,1.087-7.138,1.913-10.781
						c0.798-3.647,1.714-7.335,2.79-10.987c1.114-3.64,2.383-7.242,3.843-10.718c1.446-3.482,3.17-6.797,5.074-9.883
						c1.897-3.09,4.126-5.879,6.606-8.19c0.313-0.286,0.624-0.569,0.932-0.851c0.32-0.277,0.674-0.537,1.005-0.801
						c0.334-0.251,0.674-0.546,0.996-0.75c0.325-0.208,0.648-0.413,0.968-0.618c1.406-0.901,2.932-1.528,4.468-1.827
						c1.534-0.305,3.055-0.267,4.414,0.022c1.363,0.284,2.576,0.767,3.64,1.318c2.134,1.107,3.683,2.474,4.875,3.636
						c1.191,1.171,1.987,2.209,2.52,2.915C90.892,57.863,91.14,58.264,91.14,58.264z"/>
				</g>
			</g>
			<g>
				<g>
					<path fill="#201A1B" d="M73.831,73.445c1.168,0.305,1.644,2.029,0.796,2.889c-0.848,0.859-2.578,0.408-2.899-0.754
						C71.408,74.414,72.663,73.143,73.831,73.445"/>
				</g>
				<g>
					<path fill="#201A1B" d="M108.384,73.445c1.168,0.305,1.644,2.029,0.796,2.889c-0.849,0.859-2.579,0.408-2.898-0.754
						C105.96,74.414,107.215,73.143,108.384,73.445"/>
				</g>
				<g>
					<g>
						<path fill="#FBE3E1" d="M116.398,80.393c-2.549-1.586-6.588,0.029-7.912,2.932c-1.695,3.715,0.399,8.707,4.28,9.977
							c3.881,1.27,8.596-1.658,9.048-5.717C122.182,84.291,119.547,81.084,116.398,80.393z"/>
					</g>
					<g>
						<path fill="#FBE3E1" d="M68.137,80.777c-2.549-1.584-6.588,0.031-7.912,2.934c-1.695,3.717,0.399,8.707,4.281,9.977
							c3.881,1.27,8.595-1.66,9.047-5.719C73.922,84.678,71.286,81.471,68.137,80.777z"/>
					</g>
				</g>
			</g>
			<g>
				<path fill="#E9E9E9" d="M134.649,141.982c-7.564-12.352-22.124-23.262-38.391-23.262c-19.122,0-36.793,13.674-43.954,28.682
					c10.951,6.084,23.556,9.551,36.973,9.551C106.275,156.953,121.97,151.385,134.649,141.982z"/>
			</g>
			<g>
				<path fill="#F29065" d="M91.917,80.014c-4.526,0-8.149,3.146-8.149,7.523c0,7.133,2.063,40.748,7.688,54.508
					c0.565,1.383,2.571,1.307,3.027-0.117c4.391-13.721,5.795-46.508,5.776-54.947C100.256,85.436,99.166,80.014,91.917,80.014z"/>
			</g>
			<g>
				<path fill="#EF764C" d="M83.768,87.537c0,0,0.126,1.806,0.45,4.94c0.315,3.139,0.809,7.616,1.466,12.973
					c0.336,2.678,0.724,5.574,1.151,8.631c0.222,1.527,0.441,3.097,0.711,4.693c0.255,1.599,0.507,3.231,0.806,4.883
					c0.554,3.312,1.283,6.698,2.089,10.097c0.218,0.844,0.436,1.691,0.655,2.541c0.24,0.84,0.516,1.665,0.772,2.501
					c0.235,0.85,0.591,1.626,0.895,2.434l0.236,0.601l0.118,0.301l0.015,0.038c-0.215-0.4-0.047-0.091-0.089-0.171l0.046,0.071
					l0.092,0.142l0.046,0.071l0.023,0.035c0,0-0.004-0.021-0.007-0.03c-0.013-0.045-0.037-0.087-0.069-0.122
					c-0.031-0.034-0.07-0.061-0.109-0.076c-0.023-0.013-0.012-0.021-0.024-0.027c-0.039-0.003-0.05-0.023-0.073-0.012
					c-0.02,0-0.122,0.058-0.15,0.107c-0.008,0.027,0.017-0.028-0.008,0.07l0.05-0.161l0.1-0.323l0.199-0.645
					c0.268-0.861,0.545-1.724,0.725-2.555c0.435-1.653,0.778-3.387,1.119-5.105c0.605-3.453,1.204-6.868,1.621-10.205
					c0.896-6.664,1.546-12.927,2.081-18.299c0.515-5.375,0.914-9.863,1.172-13.008c0.263-3.144,0.384-4.948,0.384-4.948
					s0.025,0.451,0.072,1.296c0.044,0.846,0.109,2.088,0.141,3.668c0.037,1.581,0.072,3.501,0.063,5.703
					c-0.004,2.202-0.029,4.687-0.113,7.396c-0.08,2.71-0.19,5.646-0.389,8.748c-0.198,3.103-0.413,6.377-0.788,9.756
					c-0.345,3.38-0.775,6.876-1.395,10.414c-0.333,1.766-0.664,3.546-1.126,5.371c-0.198,0.927-0.464,1.78-0.723,2.641l-0.193,0.647
					l-0.096,0.324l-0.048,0.162c-0.073,0.2-0.104,0.242-0.164,0.369c-0.388,0.872-1.342,1.52-2.268,1.564
					c-0.466,0.028-0.943-0.024-1.386-0.232c-0.114-0.051-0.215-0.088-0.333-0.16c-0.127-0.086-0.253-0.184-0.372-0.289
					c-0.119-0.105-0.23-0.219-0.331-0.335c-0.062-0.07-0.087-0.105-0.094-0.12l-0.045-0.071l-0.09-0.143l-0.045-0.071
					c-0.057-0.104,0.096,0.182-0.134-0.242l-0.016-0.041l-0.126-0.329l-0.252-0.658c-0.324-0.879-0.704-1.751-0.941-2.637
					c-0.262-0.883-0.544-1.762-0.786-2.642c-0.218-0.882-0.436-1.762-0.653-2.639c-0.819-3.509-1.394-6.991-1.877-10.358
					c-0.516-3.365-0.834-6.635-1.13-9.731c-0.302-3.096-0.491-6.03-0.643-8.738c-0.308-5.415-0.369-9.936-0.351-13.099
					c-0.005-1.58,0.054-2.828,0.082-3.672C83.746,87.988,83.768,87.537,83.768,87.537z"/>
			</g>
		</g>
		<g>
			<g>
				<path fill="#EB5B2A" d="M59.458,37.184c-0.678-24.09,32.556-28.65,32.556-28.65s27.274,4.557,29.042,20.416
					c1.158,10.377-1.479,7.643-1.479,7.643"/>
			</g>
			<g>
				<path fill="#F4F4F4" d="M57.937,45.637c-1.454-2.291-1.782-1.369-2.234-4.045c-3.069-18.119,68.851-26.488,69.021-3.27
					c0.034,4.6-3.098,5.668-3.098,5.668s-13.835-6.969-32.521-6.973C72.047,37.016,57.937,45.637,57.937,45.637z"/>
			</g>
			<ellipse fill="#472D53" cx="92.014" cy="4.902" rx="5.078" ry="4.9"/>
		</g>
	</g>
</g>
</svg>
