<?xml version="1.0" encoding="utf-8"?>
<!-- Generator: Adobe Illustrator 17.0.0, SVG Export Plug-In . SVG Version: 6.00 Build 0)  -->
<!DOCTYPE svg PUBLIC "-//W3C//DTD SVG 1.1//EN" "http://www.w3.org/Graphics/SVG/1.1/DTD/svg11.dtd">
<svg version="1.1" id="Calque_1" xmlns="http://www.w3.org/2000/svg" xmlns:xlink="http://www.w3.org/1999/xlink" x="0px" y="0px"
	 width="185.959px" height="195.933px" viewBox="0 0 185.959 195.933" enable-background="new 0 0 185.959 195.933"
	 xml:space="preserve">
<g>
	<g>
		<g>
			<path fill="#42B6A1" d="M51.826,28.235c2.016-5.601,8.446-7.644,11.491-12.831c1.302-2.256,2.267-4.453,4.079-6.558
				c2.304-2.66,4.702-3.648,7.833-5.378c-0.405,4.266-5.387,7.099-7.64,10.469c7.754-0.726,10.52-11.195,19.148-12.918
				c-1.796,5.05-6.45,6.227-9.523,10.29c5.008-0.939,6.621-2.537,10.102-5.38c3.136-2.618,7.358-3.49,11.533-2.712
				c-0.984,3.593-8.651,4.371-11.23,6.72c1.572,0.834,4.34,0.862,6.119,0.558c2.391-0.527,2.559-1.612,4.578-2.959
				c2.452-1.879,6.612-2.644,9.863-1.517c-0.966,0.991-2.003,2.345-3.505,2.94c-1.844,0.973-4.137,0.64-5.535,2.36
				c1.765,1.177,4.235,1.49,6.434,1.671c3.079,0.011,2.973-0.902,5.175-2.635c2.692-1.979,6.988-3.389,10.536-1.792
				c-1.604,0.861-2.5,2.353-4.04,3.256c-1.667,1.021-3.704,1.493-5.441,2.245c7.621,3.643,13.676-3.254,24.678,1.652
				c-1.342,1.066-3.172,2.06-5.146,2.372c-2.754,0.443-4.844-0.843-7.666-0.591c2.107,1.443,4.408,2.984,5.836,4.94
				c-5.827,2.258-12.16-4.682-17.442-6.162c1.964,1.465,3.995,3.345,5.189,5.705c-2.646,1.095-6.228-0.915-8.104-2.907
				c-2.754-2.517-3.292-4.86-7.688-5.334c2.214,1.165,3.513,3.626,5.483,5.234c-2.842,0.897-5.793,0.073-7.872-1.991
				c-0.912-1.048-1.318-3.351-2.498-4.116c-1.074-0.907-3.892-0.654-5.188-0.624c2.575,1.51,5.016,2.892,6.35,5.642
				c-5.908,0.736-9.291-6.296-15.366-4.939c2.481,1.959,6.325,2.357,7.972,5.118c-2.778,0.833-6.502-0.104-9.137-1.382
				c-3.768-2.024-6.592-2.855-11.098-1.486c3.392,0.183,6.043,1.491,8.977,2.506c-2.986,2.748-10.014,0.701-14.101,1.053
				c-5.252,0.403-10.55,5.431-12.988,9.515"/>
			<circle fill="#42B6A1" cx="121.707" cy="11.762" r="1.02"/>
			<circle fill="#42B6A1" cx="119.666" cy="22.802" r="1.02"/>
			<circle fill="#42B6A1" cx="107.004" cy="10.742" r="1.02"/>
			<circle fill="#42B6A1" cx="92.17" cy="19.743" r="1.02"/>
			<circle fill="#42B6A1" cx="90.131" cy="1.02" r="1.02"/>
			<circle fill="#42B6A1" cx="58.852" cy="16.683" r="1.021"/>
			<circle fill="#42B6A1" cx="66.119" cy="21.783" r="1.019"/>
		</g>
		<g>
			<path fill="#42B6A1" d="M12.013,98.74c-3.842-4.547-2.397-11.136-5.366-16.366c-1.303-2.256-2.724-4.19-3.64-6.812
				c-1.153-3.325-0.81-5.896-0.742-9.471c3.492,2.484,3.455,8.214,5.246,11.851c3.249-7.08-4.434-14.708-1.612-23.042
				c3.475,4.081,2.166,8.7,4.149,13.392c1.69-4.807,1.113-7.002,0.392-11.439c-0.701-4.023,0.656-8.117,3.417-11.344
				c2.619,2.647-0.54,9.678,0.203,13.086c1.509-0.944,2.917-3.327,3.543-5.021c0.74-2.333-0.117-3.021-0.273-5.443
				c-0.401-3.063,1.016-7.048,3.617-9.3c0.375,1.333,1.03,2.907,0.793,4.506c-0.079,2.083-1.513,3.902-0.723,5.974
				c1.902-0.94,3.407-2.923,4.664-4.737c1.55-2.661,0.705-3.025,0.306-5.799c-0.369-3.321,0.558-7.746,3.716-10.02
				c-0.058,1.821,0.788,3.342,0.8,5.128c0.05,1.953-0.559,3.954-0.776,5.833c6.965-4.778,4.018-13.471,13.769-20.545
				c0.253,1.694,0.2,3.775-0.517,5.642c-0.993,2.607-3.152,3.773-4.345,6.344c2.303-1.105,4.788-2.326,7.197-2.586
				c-0.959,6.176-10.137,8.191-14.059,12.025c2.252-0.968,4.895-1.788,7.535-1.641c-0.374,2.838-3.905,4.936-6.569,5.563
				c-3.558,1.127-5.856,0.42-8.464,3.991c2.116-1.336,4.897-1.23,7.275-2.131c-0.645,2.91-2.834,5.054-5.659,5.822
				c-1.365,0.266-3.562-0.534-4.815,0.105c-1.323,0.478-2.514,3.043-3.134,4.18c2.595-1.474,5.013-2.897,8.06-2.677
				c-2.316,5.485-10.098,4.898-11.96,10.837c2.936-1.169,5.203-4.298,8.418-4.345c-0.669,2.823-3.342,5.58-5.766,7.221
				c-3.637,2.252-5.767,4.282-6.835,8.868c1.855-2.846,4.313-4.488,6.659-6.522c0.885,3.96-4.4,9.023-6.139,12.739
				c-2.276,4.75-0.572,11.853,1.746,16.006"/>
			<circle fill="#42B6A1" cx="32.688" cy="29.985" r="1.02"/>
			<circle fill="#42B6A1" cx="41.229" cy="37.272" r="1.02"/>
			<circle fill="#42B6A1" cx="24.453" cy="42.208" r="1.02"/>
			<circle fill="#42B6A1" cx="24.831" cy="59.555" r="1.019"/>
			<circle fill="#42B6A1" cx="7.596" cy="51.96" r="1.02"/>
			<circle fill="#42B6A1" cx="5.522" cy="86.88" r="1.021"/>
			<circle fill="#42B6A1" cx="13.572" cy="83.136" r="1.02"/>
		</g>
		<g>
			<path fill="#42B6A1" d="M53.165,168.471c-5.858,1.054-10.842-3.492-16.857-3.535c-2.604,0.001-4.99,0.263-7.717-0.254
				c-3.457-0.664-5.511-2.247-8.575-4.094c3.898-1.782,8.84,1.115,12.886,1.382c-4.505-6.354-14.953-3.514-20.761-10.125
				c5.271-0.968,8.618,2.474,13.673,3.105c-3.317-3.869-5.507-4.467-9.71-6.061c-3.835-1.405-6.701-4.626-8.116-8.63
				c3.603-0.945,8.112,5.306,11.435,6.366c-0.063-1.778-1.423-4.19-2.577-5.578c-1.65-1.807-2.675-1.41-4.851-2.485
				c-2.854-1.184-5.596-4.403-6.245-7.783c1.342,0.342,3.032,0.562,4.299,1.566c1.763,1.109,2.623,3.261,4.812,3.612
				c0.136-2.117-0.829-4.411-1.771-6.407c-1.53-2.673-2.267-2.123-4.87-3.164c-3.059-1.341-6.43-4.357-6.82-8.228
				c1.549,0.96,3.289,0.988,4.841,1.872c1.717,0.933,3.145,2.461,4.664,3.59C10.252,115.198,1.25,113.403,0,101.421
				c1.593,0.629,3.369,1.716,4.626,3.27c1.762,2.164,1.691,4.616,3.322,6.935c0.195-2.547,0.38-5.31,1.358-7.525
				c4.869,3.919,2.026,12.874,3.386,18.188c0.288-2.434,0.899-5.132,2.346-7.346c2.271,1.744,2.321,5.852,1.534,8.471
				c-0.803,3.644-2.564,5.281-0.775,9.325c-0.099-2.5,1.383-4.856,1.791-7.366c2.199,2.014,2.961,4.98,2.213,7.812
				c-0.453,1.314-2.244,2.818-2.316,4.221c-0.248,1.385,1.378,3.698,2.054,4.805c0.019-2.985-0.004-5.79,1.71-8.319
				c3.591,4.748-0.807,11.193,3.406,15.776c0.455-3.127-1.122-6.656,0.445-9.463c2.11,1.99,3.162,5.685,3.371,8.605
				c0.131,4.274,0.824,7.135,4.263,10.353c-1.537-3.03-1.731-5.979-2.319-9.027c3.874,1.212,5.614,8.321,7.963,11.686
				c2.976,4.346,9.979,6.421,14.734,6.491"/>
			<circle fill="#42B6A1" cx="3.96" cy="116.19" r="1.02"/>
			<circle fill="#42B6A1" cx="14.541" cy="112.436" r="1.02"/>
			<circle fill="#42B6A1" cx="10.428" cy="129.433" r="1.02"/>
			<circle fill="#42B6A1" cx="25.639" cy="137.778" r="1.02"/>
			<circle fill="#42B6A1" cx="10.445" cy="148.906" r="1.02"/>
			<circle fill="#42B6A1" cx="39.649" cy="168.163" r="1.021"/>
			<circle fill="#42B6A1" cx="40.432" cy="159.319" r="1.02"/>
		</g>
		<g>
			<path fill="#42B6A1" d="M134.131,167.699c-2.015,5.6-8.445,7.642-11.49,12.83c-1.301,2.256-2.266,4.453-4.078,6.557
				c-2.304,2.661-4.702,3.648-7.834,5.378c0.406-4.267,5.387-7.099,7.641-10.469c-7.756,0.726-10.52,11.194-19.149,12.917
				c1.797-5.049,6.451-6.225,9.524-10.288c-5.008,0.939-6.621,2.536-10.103,5.379c-3.135,2.619-7.358,3.491-11.533,2.713
				c0.983-3.592,8.652-4.37,11.232-6.72c-1.573-0.834-4.34-0.863-6.12-0.557c-2.391,0.526-2.558,1.612-4.577,2.959
				c-2.452,1.878-6.612,2.644-9.863,1.516c0.967-0.991,2.003-2.345,3.505-2.939c1.843-0.973,4.137-0.641,5.535-2.361
				c-1.766-1.177-4.235-1.488-6.434-1.669c-3.08-0.012-2.974,0.902-5.174,2.635c-2.692,1.979-6.988,3.39-10.537,1.792
				c1.605-0.861,2.502-2.354,4.042-3.257c1.666-1.02,3.704-1.493,5.441-2.244c-7.621-3.643-13.677,3.255-24.679-1.652
				c1.341-1.066,3.171-2.06,5.145-2.372c2.755-0.444,4.844,0.843,7.666,0.591c-2.107-1.442-4.408-2.984-5.836-4.939
				c5.827-2.258,12.162,4.682,17.442,6.162c-1.963-1.466-3.994-3.345-5.188-5.705c2.647-1.095,6.229,0.915,8.104,2.907
				c2.754,2.517,3.292,4.861,7.688,5.334c-2.214-1.165-3.514-3.626-5.483-5.234c2.843-0.897,5.794-0.074,7.873,1.99
				c0.911,1.049,1.318,3.353,2.498,4.116c1.074,0.908,3.892,0.656,5.187,0.626c-2.574-1.511-5.016-2.893-6.349-5.642
				c5.908-0.736,9.29,6.296,15.366,4.939c-2.481-1.959-6.325-2.357-7.972-5.118c2.778-0.833,6.503,0.105,9.136,1.384
				c3.769,2.023,6.591,2.854,11.098,1.485c-3.392-0.183-6.043-1.491-8.979-2.505c2.987-2.747,10.015-0.701,14.102-1.053
				c5.252-0.403,10.551-5.432,12.989-9.515"/>
			<circle fill="#42B6A1" cx="64.252" cy="184.171" r="1.019"/>
			<circle fill="#42B6A1" cx="66.291" cy="173.13" r="1.021"/>
			<circle fill="#42B6A1" cx="78.954" cy="185.191" r="1.02"/>
			<circle fill="#42B6A1" cx="93.788" cy="176.189" r="1.02"/>
			<circle fill="#42B6A1" cx="95.828" cy="194.913" r="1.021"/>
			<circle fill="#42B6A1" cx="127.106" cy="179.25" r="1.02"/>
			<circle fill="#42B6A1" cx="119.839" cy="174.15" r="1.02"/>
		</g>
		<g>
			<path fill="#42B6A1" d="M173.946,97.194c3.841,4.546,2.395,11.135,5.366,16.366c1.302,2.255,2.723,4.19,3.64,6.811
				c1.152,3.325,0.808,5.895,0.741,9.472c-3.493-2.485-3.456-8.215-5.247-11.851c-3.249,7.08,4.435,14.708,1.613,23.042
				c-3.475-4.081-2.166-8.7-4.149-13.393c-1.69,4.808-1.113,7.002-0.392,11.439c0.701,4.024-0.655,8.117-3.417,11.344
				c-2.619-2.648,0.541-9.678-0.203-13.087c-1.509,0.945-2.917,3.327-3.543,5.02c-0.74,2.334,0.117,3.022,0.274,5.444
				c0.4,3.063-1.017,7.049-3.619,9.299c-0.375-1.333-1.029-2.907-0.792-4.505c0.079-2.082,1.513-3.903,0.723-5.974
				c-1.902,0.94-3.407,2.923-4.664,4.737c-1.55,2.66-0.705,3.025-0.305,5.799c0.368,3.321-0.559,7.746-3.717,10.021
				c0.058-1.821-0.788-3.343-0.799-5.129c-0.05-1.953,0.559-3.954,0.777-5.834c-6.965,4.779-4.02,13.471-13.77,20.545
				c-0.253-1.695-0.199-3.775,0.517-5.642c0.995-2.608,3.153-3.773,4.346-6.344c-2.303,1.104-4.789,2.326-7.196,2.586
				c0.957-6.176,10.136-8.191,14.058-12.025c-2.251,0.968-4.894,1.788-7.535,1.641c0.374-2.838,3.906-4.936,6.569-5.563
				c3.558-1.127,5.856-0.42,8.464-3.991c-2.116,1.335-4.898,1.23-7.275,2.132c0.645-2.912,2.834-5.055,5.66-5.824
				c1.365-0.265,3.562,0.535,4.814-0.105c1.323-0.477,2.514-3.042,3.135-4.18c-2.596,1.474-5.014,2.898-8.061,2.678
				c2.316-5.485,10.098-4.898,11.961-10.838c-2.937,1.169-5.205,4.298-8.419,4.346c0.668-2.823,3.342-5.581,5.766-7.222
				c3.637-2.251,5.768-4.281,6.835-8.868c-1.855,2.846-4.312,4.488-6.659,6.522c-0.887-3.96,4.4-9.023,6.139-12.739
				c2.276-4.75,0.572-11.853-1.746-16.006"/>
			<circle fill="#42B6A1" cx="153.27" cy="165.947" r="1.02"/>
			<circle fill="#42B6A1" cx="144.729" cy="158.66" r="1.021"/>
			<circle fill="#42B6A1" cx="161.505" cy="153.724" r="1.02"/>
			<circle fill="#42B6A1" cx="161.127" cy="136.377" r="1.02"/>
			<circle fill="#42B6A1" cx="178.362" cy="143.973" r="1.02"/>
			<circle fill="#42B6A1" cx="180.436" cy="109.053" r="1.021"/>
			<circle fill="#42B6A1" cx="172.386" cy="112.797" r="1.02"/>
		</g>
		<g>
			<path fill="#42B6A1" d="M132.792,27.462c5.858-1.055,10.842,3.492,16.857,3.535c2.604-0.001,4.989-0.263,7.718,0.253
				c3.456,0.665,5.51,2.247,8.574,4.095c-3.897,1.781-8.841-1.116-12.887-1.382c4.507,6.353,14.955,3.512,20.762,10.124
				c-5.271,0.968-8.617-2.475-13.672-3.104c3.317,3.867,5.506,4.466,9.71,6.059c3.836,1.405,6.702,4.626,8.116,8.631
				c-3.603,0.945-8.112-5.307-11.435-6.367c0.064,1.779,1.423,4.19,2.577,5.578c1.651,1.808,2.676,1.411,4.85,2.485
				c2.854,1.184,5.596,4.404,6.244,7.783c-1.341-0.342-3.03-0.562-4.298-1.566c-1.763-1.109-2.623-3.262-4.813-3.613
				c-0.135,2.118,0.83,4.412,1.772,6.407c1.53,2.673,2.267,2.124,4.87,3.164c3.06,1.342,6.43,4.356,6.819,8.229
				c-1.549-0.96-3.289-0.99-4.841-1.872c-1.717-0.932-3.145-2.461-4.664-3.59c0.656,8.422,9.657,10.216,10.908,22.198
				c-1.595-0.628-3.37-1.716-4.628-3.269c-1.762-2.164-1.691-4.616-3.321-6.935c-0.196,2.546-0.38,5.309-1.36,7.525
				c-4.868-3.918-2.024-12.874-3.386-18.187c-0.286,2.434-0.898,5.132-2.345,7.346c-2.271-1.744-2.321-5.852-1.534-8.472
				c0.802-3.644,2.564-5.281,0.775-9.325c0.099,2.5-1.383,4.857-1.79,7.367c-2.199-2.015-2.962-4.981-2.214-7.814
				c0.453-1.313,2.245-2.817,2.315-4.221c0.249-1.384-1.378-3.697-2.053-4.805c-0.02,2.984,0.004,5.79-1.711,8.319
				c-3.591-4.749,0.808-11.193-3.405-15.777c-0.456,3.128,1.121,6.655-0.446,9.463c-2.111-1.99-3.162-5.684-3.37-8.604
				c-0.133-4.275-0.824-7.135-4.262-10.354c1.537,3.029,1.73,5.978,2.318,9.028c-3.873-1.212-5.613-8.322-7.962-11.686
				c-2.977-4.346-9.98-6.421-14.735-6.491"/>
			<circle fill="#42B6A1" cx="181.998" cy="79.743" r="1.019"/>
			<circle fill="#42B6A1" cx="171.416" cy="83.496" r="1.021"/>
			<circle fill="#42B6A1" cx="175.53" cy="66.499" r="1.019"/>
			<circle fill="#42B6A1" cx="160.319" cy="58.154" r="1.02"/>
			<circle fill="#42B6A1" cx="175.514" cy="47.026" r="1.021"/>
			<circle fill="#42B6A1" cx="146.309" cy="27.77" r="1.021"/>
			<circle fill="#42B6A1" cx="145.526" cy="36.613" r="1.021"/>
		</g>
	</g>
	<g>
		<g>
			<path fill="#F9CBCA" d="M51.895,107.719c0,0-9.904-30.802-22.153-30.924c9.154,21.725,7.38,31.821,13.356,43.875
				c2.292,4.624,6.886,10.088,18.635,5.705"/>
		</g>
		<g>
			<path fill="#FBE3E1" d="M150.611,89.303c-1.811-9.25-6.456-18.219-14.08-23.762c-6.968-5.068-15.784-6.899-24.378-7.508
				c-15.18-1.076-30.593,1.302-44.742,6.903c0,0-17.109,7.768-23.804,21.244c-6.694,13.476-5.866,30.828,3.455,42.64
				c5.758,7.298,14.143,12.08,22.776,15.521c14.685,5.851,31.309,8.253,46.35,3.393C139.709,140.134,155.363,113.562,150.611,89.303
				z"/>
		</g>
		<g>
			<path fill="#D8C5C6" d="M43.607,86.181c0,0-0.279,0.706-0.803,2.029c-0.514,1.33-1.124,3.308-1.741,5.866
				c-0.542,2.573-1.002,5.738-1.028,9.372c-0.016,3.627,0.448,7.722,1.677,11.965c1.201,4.251,3.411,8.558,6.498,12.461
				c0.783,0.839,1.721,1.966,2.619,2.837c0.463,0.425,0.928,0.853,1.397,1.283l0.702,0.647l0.777,0.607
				c0.519,0.406,1.04,0.814,1.564,1.225c0.522,0.412,1.099,0.765,1.649,1.153c0.563,0.372,1.103,0.781,1.691,1.128
				c0.588,0.348,1.179,0.698,1.771,1.049c4.757,2.787,10.169,4.901,15.701,6.747c2.785,0.881,5.628,1.636,8.51,2.252
				c2.886,0.59,5.81,1.018,8.744,1.281c5.863,0.522,11.786,0.296,17.415-0.904l2.099-0.475l2.058-0.59l0.514-0.143l0.129-0.036
				c-0.019,0.008,0.134-0.042-0.027,0.013l0.065-0.024l0.26-0.095l1.037-0.381c0.69-0.253,1.379-0.506,2.065-0.758
				c0.337-0.131,0.7-0.242,1.014-0.388l0.921-0.452c0.615-0.299,1.228-0.597,1.838-0.893l0.917-0.442
				c0.302-0.161,0.592-0.355,0.887-0.531c0.589-0.359,1.176-0.718,1.761-1.074c4.618-2.948,8.613-6.55,11.889-10.414
				c3.307-3.851,5.796-8.021,7.71-12.03c1.971-4.004,3.115-7.963,3.976-11.496c0.73-3.566,1.085-6.744,1.162-9.374
				c0.003-1.319,0.007-2.497,0.009-3.522c-0.059-1.022-0.165-1.89-0.223-2.597c-0.131-1.417-0.202-2.173-0.202-2.173
				s0.145,0.745,0.417,2.141c0.128,0.701,0.322,1.563,0.484,2.587c0.09,1.034,0.194,2.223,0.31,3.554
				c0.081,0.669,0.078,1.373,0.058,2.112c-0.01,0.741-0.02,1.517-0.03,2.326c-0.011,0.405,0.003,0.821-0.03,1.24
				c-0.047,0.418-0.095,0.844-0.143,1.279c-0.099,0.87-0.201,1.772-0.306,2.704c-0.101,0.935-0.357,1.87-0.538,2.852
				c-0.101,0.489-0.203,0.986-0.306,1.489c-0.052,0.252-0.105,0.505-0.158,0.761l-0.223,0.753c-0.306,1.011-0.62,2.048-0.941,3.109
				c-0.31,1.068-0.804,2.093-1.214,3.18c-1.759,4.285-4.138,8.8-7.491,12.983c-3.296,4.208-7.381,8.234-12.292,11.49
				c-0.62,0.398-1.242,0.797-1.867,1.198c-0.316,0.197-0.619,0.409-0.947,0.594l-1.016,0.524c-0.681,0.349-1.364,0.698-2.049,1.049
				l-1.032,0.524c-0.343,0.166-0.68,0.277-1.021,0.418c-0.681,0.268-1.363,0.537-2.047,0.807l-1.028,0.405l-0.257,0.102
				l-0.064,0.025l-0.159,0.054l-0.137,0.041l-0.55,0.168c-0.735,0.217-1.473,0.435-2.212,0.653l-2.253,0.529
				c-6.044,1.335-12.367,1.626-18.58,1.111c-3.103-0.302-6.182-0.777-9.209-1.421c-3.02-0.67-5.989-1.483-8.889-2.425
				c-1.444-0.507-2.93-0.992-4.281-1.543l-1.031-0.406l-0.543-0.218l-0.517-0.225c-0.689-0.299-1.376-0.597-2.061-0.895
				c-1.365-0.607-2.697-1.279-4.021-1.935c-1.29-0.735-2.616-1.367-3.844-2.173c-0.621-0.388-1.24-0.773-1.855-1.158
				c-0.615-0.384-1.189-0.835-1.78-1.247c-0.579-0.432-1.185-0.816-1.732-1.28c-0.547-0.463-1.092-0.924-1.633-1.382l-0.808-0.686
				l-0.768-0.76c-0.507-0.507-1.011-1.011-1.512-1.513c-0.523-0.497-0.881-1.018-1.326-1.521c-0.438-0.525-0.872-1.047-1.305-1.566
				c-3.242-4.375-5.344-9.147-6.37-13.712c-1.087-4.559-1.265-8.867-0.989-12.613c0.262-3.757,1.023-6.952,1.785-9.516
				c0.82-2.55,1.68-4.482,2.309-5.752C43.259,86.855,43.607,86.181,43.607,86.181z"/>
		</g>
		<g>
			<path fill="#602320" d="M151.37,95.247c0,0-26.494,2.173-49.054-23.074c0.215,5.174,10.497,12.517,10.497,12.517
				c-18.492-0.208-29.63-6.609-40.032-19.165c0,0,15.711-8.557,35.56-6.56C131.662,61.312,145.932,70.685,151.37,95.247z"/>
		</g>
		<g>
			<path fill="#431413" d="M112.813,84.69c0,0-0.724,0.106-1.989,0.231c-0.634,0.056-1.396,0.158-2.289,0.158
				c-0.888,0.012-1.908,0.084-3.004,0.018c-1.095-0.068-2.297-0.059-3.547-0.259c-0.629-0.08-1.275-0.161-1.936-0.245
				c-0.659-0.104-1.322-0.264-2.002-0.401c-0.683-0.129-1.368-0.301-2.056-0.502c-0.688-0.197-1.399-0.358-2.083-0.623
				c-0.688-0.255-1.38-0.512-2.076-0.771c-0.688-0.278-1.362-0.598-2.045-0.897c-0.686-0.296-1.329-0.676-1.982-1.029
				c-0.656-0.349-1.297-0.718-1.904-1.13c-1.255-0.761-2.384-1.66-3.484-2.508c-1.07-0.883-2.086-1.761-2.967-2.671
				c-0.444-0.45-0.876-0.887-1.293-1.311c-0.389-0.449-0.764-0.882-1.124-1.299c-0.736-0.815-1.335-1.626-1.863-2.342
				c-0.546-0.701-0.978-1.346-1.321-1.886c-0.698-1.069-1.065-1.698-1.065-1.698s0.571,0.464,1.516,1.306
				c0.463,0.429,1.05,0.926,1.714,1.498c0.662,0.574,1.403,1.221,2.231,1.897c0.812,0.695,1.726,1.401,2.681,2.148
				c0.469,0.385,0.974,0.749,1.498,1.109c0.529,0.353,1.022,0.772,1.574,1.13c0.548,0.359,1.105,0.725,1.669,1.095
				c0.566,0.363,1.169,0.683,1.75,1.045c0.579,0.368,1.196,0.676,1.808,1.001c0.612,0.322,1.216,0.667,1.856,0.938
				c0.629,0.293,1.249,0.608,1.885,0.883c0.644,0.257,1.285,0.513,1.92,0.766c0.637,0.253,1.292,0.445,1.921,0.685
				c0.631,0.237,1.264,0.447,1.9,0.614c0.632,0.185,1.252,0.367,1.86,0.545c0.617,0.155,1.221,0.307,1.808,0.455
				c1.173,0.317,2.312,0.503,3.353,0.753c1.045,0.224,2.009,0.367,2.868,0.545c0.855,0.171,1.624,0.284,2.25,0.389
				C112.098,84.536,112.813,84.69,112.813,84.69z"/>
		</g>
		<g>
			<path fill="#431413" d="M151.37,95.247c0,0-0.863,0.19-2.407,0.332c-0.769,0.047-1.713,0.141-2.791,0.123
				c-0.542-0.002-1.117-0.004-1.724-0.006c-0.605-0.039-1.242-0.081-1.906-0.124c-1.334-0.072-2.762-0.288-4.277-0.515
				c-1.494-0.314-3.107-0.537-4.702-1.039c-0.806-0.226-1.625-0.455-2.455-0.687c-0.814-0.278-1.638-0.565-2.461-0.875
				c-1.671-0.558-3.267-1.369-4.909-2.074c-1.612-0.769-3.136-1.71-4.681-2.544c-1.503-0.909-2.891-1.948-4.277-2.874
				c-1.343-0.99-2.553-2.066-3.729-3.035c-1.206-0.934-2.145-2.054-3.098-2.976c-0.926-0.953-1.806-1.788-2.453-2.659
				c-0.684-0.834-1.256-1.579-1.729-2.187c-0.941-1.222-1.453-1.934-1.453-1.934s0.702,0.545,1.885,1.522
				c0.588,0.491,1.306,1.081,2.101,1.779c0.773,0.722,1.783,1.383,2.796,2.192c0.514,0.395,1.05,0.805,1.604,1.23
				c0.273,0.216,0.551,0.436,0.833,0.658c0.297,0.203,0.599,0.409,0.905,0.618c1.22,0.832,2.506,1.708,3.837,2.615
				c1.376,0.827,2.797,1.681,4.241,2.549c1.497,0.768,2.973,1.637,4.525,2.346c1.555,0.702,3.065,1.514,4.652,2.076
				c0.785,0.3,1.557,0.618,2.318,0.938c0.779,0.27,1.549,0.536,2.307,0.798c1.51,0.551,3.012,0.938,4.423,1.383
				c0.711,0.199,1.413,0.341,2.086,0.525c0.673,0.184,1.326,0.352,1.96,0.472c0.634,0.135,1.242,0.265,1.819,0.389
				c0.582,0.105,1.134,0.206,1.653,0.3c1.041,0.189,1.957,0.309,2.713,0.423c0.757,0.082,1.355,0.18,1.764,0.208
				C151.149,95.238,151.37,95.247,151.37,95.247z"/>
		</g>
		<path fill="none" stroke="#F18C7A" stroke-miterlimit="10" d="M72.781,120.934c0,0,6.065,11.986,25.089,12.897
			c24.073,1.153,33.382-22.044,33.382-22.044"/>
		<g>
			<path fill="#602320" d="M61.535,90.332c0,0,0.046-0.321,0.156-0.871c0.044-0.275,0.139-0.603,0.296-0.979
				c0.074-0.191,0.153-0.395,0.236-0.61c0.094-0.208,0.221-0.405,0.34-0.625c0.228-0.448,0.537-0.891,0.901-1.336
				c0.344-0.463,0.785-0.883,1.244-1.314c0.493-0.387,0.981-0.831,1.561-1.153c0.549-0.376,1.175-0.632,1.781-0.924
				c0.639-0.214,1.265-0.468,1.921-0.582c0.64-0.176,1.3-0.196,1.923-0.263c0.63-0.011,1.239-0.02,1.809,0.074
				c0.283,0.043,0.559,0.084,0.826,0.123c0.264,0.051,0.513,0.142,0.752,0.207c0.238,0.074,0.468,0.129,0.678,0.211
				c0.206,0.095,0.4,0.185,0.584,0.27c0.367,0.157,0.669,0.326,0.903,0.498c0.473,0.322,0.722,0.518,0.722,0.518
				s-0.329-0.046-0.868-0.148c-0.263-0.066-0.596-0.095-0.969-0.133c-0.37-0.049-0.784-0.082-1.237-0.082
				c-0.448-0.031-0.933,0.007-1.439,0.029c-0.505,0.009-1.034,0.135-1.574,0.185c-0.538,0.114-1.089,0.222-1.637,0.394
				c-0.556,0.135-1.092,0.363-1.64,0.552c-0.525,0.247-1.069,0.456-1.561,0.747c-0.514,0.256-0.984,0.565-1.449,0.859
				c-0.422,0.341-0.89,0.619-1.257,0.965c-0.378,0.337-0.753,0.647-1.052,0.982c-0.326,0.32-0.595,0.625-0.822,0.912
				c-0.237,0.279-0.46,0.537-0.606,0.778C61.734,90.076,61.535,90.332,61.535,90.332z"/>
		</g>
		<g>
			<path fill="#7A5C8A" d="M97.042,153.219c8.316-3.819,16.632-7.64,24.946-11.46c0.582-0.267,1.3-0.53,1.878-0.205
				c0.461,0.259,0.624,0.786,0.742,1.259c2.334,9.321,3.467,18.835,3.365,28.283c-0.005,0.492-0.043,1.043-0.452,1.351
				c-0.529,0.399-1.351,0.161-2.012-0.095c-7.698-2.98-15.249-6.307-22.613-9.964"/>
		</g>
		<g>
			<path fill="#7A5C8A" d="M94.737,153.219c-8.315-3.819-16.631-7.64-24.947-11.46c-0.581-0.267-1.3-0.53-1.878-0.205
				c-0.461,0.259-0.623,0.786-0.742,1.259c-2.334,9.321-3.466,18.835-3.366,28.283c0.007,0.492,0.045,1.043,0.453,1.351
				c0.53,0.399,1.351,0.161,2.013-0.095c7.699-2.98,15.248-6.307,22.612-9.964"/>
		</g>
		<g>
			<path fill="#F0889D" d="M133.943,102.659c-2.71-3.017-8.26-1.146-9.943,2.544c-1.925,4.22,0.453,9.892,4.862,11.333
				c4.409,1.442,9.764-1.884,10.28-6.496c0.515-4.61-4.157-9.079-8.717-8.218"/>
		</g>
		<g>
			<path fill="#F0889D" d="M69.637,108.195c-2.711-3.017-8.26-1.146-9.943,2.543c-1.926,4.22,0.453,9.892,4.862,11.333
				c4.408,1.442,9.764-1.884,10.279-6.496c0.516-4.61-4.156-9.078-8.714-8.218"/>
		</g>
		<g>
			<g>
				<path fill="#F1B7B3" d="M101.971,107.189c-2.286-2.112-5.438-1.591-7.767,0c-2.353,1.609-3.962,5.47-2.661,8.988
					c1.608,4.348,9.457,4.754,12.387,0.918C105.791,114.657,105.154,110.131,101.971,107.189z"/>
			</g>
			<g>
				<path fill="#E0A7A4" d="M91.079,114.372c0,0,0.22,0.2,0.548,0.572c0.082,0.093,0.172,0.195,0.271,0.307
					c0.121,0.082,0.228,0.173,0.348,0.262c0.226,0.183,0.47,0.361,0.8,0.528c0.282,0.196,0.634,0.333,0.989,0.476
					c0.341,0.158,0.757,0.232,1.142,0.351c0.418,0.066,0.824,0.17,1.27,0.194c0.431,0.07,0.888,0.044,1.335,0.072
					c0.45-0.036,0.908-0.016,1.35-0.091c0.22-0.037,0.449-0.037,0.664-0.08c0.214-0.044,0.427-0.09,0.643-0.121
					c0.418-0.091,0.825-0.199,1.208-0.315c0.363-0.145,0.759-0.238,1.062-0.414c0.331-0.146,0.649-0.286,0.894-0.463
					c0.255-0.167,0.522-0.3,0.681-0.461c0.357-0.298,0.612-0.486,0.612-0.486s-0.005,0.279-0.104,0.798
					c-0.034,0.271-0.149,0.561-0.315,0.893c-0.082,0.165-0.16,0.357-0.27,0.536c-0.117,0.17-0.253,0.341-0.395,0.527
					c-0.274,0.391-0.661,0.693-1.07,1.045c-0.423,0.314-0.906,0.612-1.43,0.853c-0.528,0.227-1.089,0.45-1.685,0.555
					c-0.587,0.168-1.208,0.168-1.822,0.222c-0.619-0.044-1.238-0.039-1.839-0.205c-0.604-0.1-1.178-0.342-1.717-0.574
					c-0.268-0.12-0.519-0.29-0.76-0.442c-0.24-0.156-0.477-0.296-0.672-0.503c-0.201-0.191-0.396-0.371-0.571-0.554
					c-0.172-0.187-0.304-0.41-0.437-0.603c-0.123-0.207-0.257-0.373-0.343-0.58c-0.075-0.21-0.147-0.409-0.214-0.596
					c-0.06-0.183-0.12-0.346-0.154-0.5c-0.008-0.149-0.015-0.287-0.021-0.41C91.057,114.669,91.079,114.372,91.079,114.372z"/>
			</g>
		</g>
		<ellipse fill="#201A1B" cx="72.781" cy="95.624" rx="2.932" ry="2.673"/>
		<ellipse fill="#201A1B" cx="121.944" cy="95.624" rx="2.932" ry="2.673"/>
		<g>
			<path fill="#472D53" d="M90.76,148.511c-5.637,0.598-8.838,8.211-6.423,13.791c2.416,5.581,8.95,8.393,14.489,7.227
				c3.818-0.804,7.434-3.515,8.416-7.517c1.175-4.788-1.819-10.081-5.958-12.602C97.145,146.89,90.76,148.511,90.76,148.511z"/>
		</g>
		<g>
			<path fill="#B8361B" d="M151.37,95.247c-1.599-41.724-32.432-73.765-57.997-86.135c-1.829-0.886-3.847-1.718-5.839-1.317
				c-1.781,0.358-3.215,1.638-4.531,2.89C58.359,34.161,44.164,64.418,39.782,98.17c0,0,13.351-29.273,54.793-31.3
				C140.789,64.607,151.37,95.247,151.37,95.247z"/>
		</g>
		<g>
			<path fill="#76160E" d="M39.782,98.17c0,0,0.172-0.493,0.57-1.4c0.416-0.894,1.035-2.209,1.983-3.799
				c0.954-1.583,2.17-3.489,3.795-5.508c0.828-0.994,1.657-2.11,2.68-3.148c0.992-1.07,2.045-2.194,3.259-3.242
				c0.596-0.539,1.204-1.091,1.823-1.652c0.63-0.551,1.323-1.046,2.002-1.587c0.691-0.527,1.395-1.063,2.108-1.607
				c0.756-0.483,1.524-0.974,2.301-1.472c0.782-0.492,1.569-1.007,2.381-1.5c0.841-0.44,1.693-0.885,2.554-1.335
				c0.865-0.444,1.729-0.921,2.63-1.338c0.92-0.372,1.85-0.748,2.786-1.126c0.94-0.373,1.882-0.77,2.844-1.133
				c0.984-0.291,1.975-0.585,2.972-0.88c0.999-0.294,2.004-0.59,3.014-0.888c1.019-0.259,2.063-0.417,3.102-0.632
				c4.16-0.956,8.415-1.239,12.756-1.574l3.131-0.078c1.064-0.003,2.165,0.033,3.242,0.049c1.087,0.001,2.15,0.083,3.213,0.162
				c1.063,0.073,2.122,0.141,3.175,0.285c4.213,0.448,8.338,1.264,12.217,2.459c3.885,1.173,7.509,2.744,10.763,4.546
				c3.265,1.785,6.129,3.858,8.543,6.005c4.865,4.285,7.864,8.82,9.564,12.099c0.867,1.641,1.391,3.002,1.729,3.929
				c0.332,0.931,0.449,1.444,0.449,1.444s-0.884-1.923-3.023-4.85c-1.067-1.462-2.471-3.15-4.203-4.945
				c-1.745-1.785-3.857-3.641-6.311-5.437c-2.467-1.782-5.313-3.445-8.445-4.921c-3.142-1.462-6.604-2.658-10.261-3.6
				c-3.659-0.946-7.535-1.553-11.504-1.902c-0.989-0.115-1.991-0.157-2.995-0.204c-1.004-0.047-2.013-0.12-3.007-0.113
				c-1.002-0.007-1.987-0.037-3.009-0.027l-3.131,0.097c-1.968,0.073-4.024,0.331-6.026,0.483c-2.025,0.102-3.986,0.532-5.953,0.85
				c-0.98,0.178-1.967,0.31-2.929,0.523c-0.954,0.246-1.903,0.491-2.846,0.734c-0.945,0.242-1.885,0.483-2.817,0.722
				c-0.908,0.315-1.809,0.627-2.703,0.938c-0.896,0.31-1.785,0.618-2.665,0.923c-0.859,0.355-1.693,0.745-2.533,1.103
				c-0.838,0.365-1.668,0.726-2.487,1.083c-0.786,0.423-1.563,0.841-2.329,1.253c-0.767,0.417-1.523,0.828-2.268,1.233
				c-0.712,0.459-1.414,0.912-2.103,1.357c-0.689,0.448-1.395,0.854-2.041,1.316c-0.638,0.475-1.264,0.941-1.876,1.398
				c-1.262,0.878-2.342,1.872-3.418,2.771c-1.104,0.873-2.02,1.837-2.937,2.696c-1.783,1.764-3.248,3.404-4.403,4.805
				c-0.579,0.7-1.05,1.358-1.497,1.911c-0.424,0.566-0.762,1.064-1.049,1.463C40.058,97.718,39.782,98.17,39.782,98.17z"/>
		</g>
	</g>
</g>
</svg>
