<?xml version="1.0" encoding="utf-8"?>
<!-- Generator: Adobe Illustrator 17.0.0, SVG Export Plug-In . SVG Version: 6.00 Build 0)  -->
<!DOCTYPE svg PUBLIC "-//W3C//DTD SVG 1.1//EN" "http://www.w3.org/Graphics/SVG/1.1/DTD/svg11.dtd">
<svg version="1.1" id="Calque_1" xmlns="http://www.w3.org/2000/svg" xmlns:xlink="http://www.w3.org/1999/xlink" x="0px" y="0px"
	 width="191.418px" height="191.419px" viewBox="0 0 191.418 191.419" enable-background="new 0 0 191.418 191.419"
	 xml:space="preserve">
<g>
	<g>
		<g>
			<path fill="#E75244" d="M83.472,170.995c-2.676-0.012-5.34-0.187-7.98-0.5c0.354-3.116,0.174-7.001-0.647-10.646
				c2.511-1.332,3.82-3.639,4.237-6.337c0.754-0.273,1.297-0.988,1.297-1.837c0-1.084-0.879-1.961-1.962-1.961
				c-1.084,0-1.962,0.877-1.962,1.961c0,0.746,0.422,1.387,1.035,1.719c-0.333,2.042-1.271,3.744-3.051,4.854
				c-0.596-2.086-1.423-4.023-2.496-5.622c0.157-0.283,0.255-0.605,0.255-0.95c0-1.084-0.878-1.961-1.962-1.961
				c-1.084,0-1.962,0.877-1.962,1.961c0,1.083,0.878,1.961,1.962,1.961c0.152,0,0.298-0.02,0.44-0.054
				c1.643,2.471,2.656,5.934,3.117,9.375c-2.223-0.252-5.077-1.354-6.145-3.358c0.459-0.36,0.758-0.911,0.758-1.539
				c0-1.084-0.878-1.963-1.962-1.963c-1.084,0-1.962,0.879-1.962,1.963c0,0.973,0.712,1.775,1.642,1.929
				c1.299,2.802,4.815,4.347,7.846,4.589c0.175,2.06,0.153,4.037-0.048,5.719c-4.903-0.692-9.707-1.905-14.315-3.634
				c0.17-1.265,0.247-2.67,0.225-4.148c2.639-1.314,3.995-3.675,4.422-6.441c0.755-0.272,1.297-0.989,1.297-1.839
				c0-1.083-0.878-1.961-1.962-1.961c-1.083,0-1.961,0.878-1.961,1.961c0,0.747,0.42,1.389,1.035,1.719
				c-0.323,1.986-1.212,3.659-2.901,4.771c-0.294-4.397-1.451-9.114-3.647-12.388c0.158-0.284,0.256-0.605,0.256-0.95
				c0-1.085-0.878-1.963-1.962-1.963c-1.083,0-1.961,0.878-1.961,1.963c0,1.083,0.878,1.961,1.961,1.961
				c0.152,0,0.298-0.021,0.44-0.055c1.419,2.134,2.369,5.008,2.898,7.972c-2.17-0.718-4.633-2.359-5.283-4.559
				c0.506-0.261,0.898-0.73,1.023-1.333c0.223-1.06-0.457-2.1-1.518-2.322c-1.061-0.221-2.1,0.458-2.322,1.518
				c-0.196,0.938,0.313,1.857,1.167,2.212c0.69,3.148,4.252,5.5,7.195,6.222c0.314,2.537,0.33,5.025,0.079,7.067
				c-3.664-1.478-7.191-3.287-10.536-5.423c0.365-3.126,0.188-7.038-0.639-10.708c2.511-1.331,3.819-3.638,4.237-6.334
				c0.755-0.274,1.297-0.99,1.297-1.84c0-1.083-0.878-1.962-1.962-1.962s-1.961,0.879-1.961,1.962c0,0.747,0.421,1.387,1.035,1.72
				c-0.333,2.042-1.272,3.743-3.051,4.854c-0.596-2.086-1.423-4.025-2.496-5.623c0.158-0.282,0.255-0.604,0.255-0.951
				c0-1.083-0.878-1.962-1.962-1.962s-1.961,0.879-1.961,1.962c0,1.085,0.878,1.963,1.961,1.963c0.152,0,0.298-0.022,0.44-0.054
				c1.643,2.469,2.656,5.934,3.117,9.373c-2.223-0.25-5.076-1.354-6.144-3.358c0.458-0.358,0.758-0.911,0.758-1.539
				c0-1.083-0.878-1.962-1.961-1.962c-1.084,0-1.962,0.879-1.962,1.962c0,0.974,0.711,1.776,1.642,1.93
				c1.299,2.803,4.816,4.348,7.846,4.587c0.151,1.772,0.157,3.484,0.028,5c-2.182-1.48-4.286-3.092-6.283-4.858
				c-2.816-2.492-5.315-5.217-7.519-8.128c0.01-0.013,0.022-0.023,0.031-0.037c0.729-1.095,1.434-2.394,2.076-3.806
				c2.93-0.086,5.176-1.615,6.743-3.943c0.796,0.072,1.59-0.345,1.951-1.109c0.462-0.981,0.042-2.148-0.937-2.611
				c-0.98-0.462-2.149-0.044-2.611,0.938c-0.318,0.672-0.212,1.429,0.197,1.989c-1.135,1.648-2.637,2.801-4.639,3.079
				c1.605-4.098,2.571-8.873,1.978-12.761c0.261-0.189,0.484-0.436,0.631-0.747c0.463-0.98,0.043-2.148-0.936-2.611
				c-0.98-0.463-2.149-0.043-2.611,0.937c-0.462,0.98-0.042,2.149,0.937,2.612c0.134,0.062,0.271,0.107,0.41,0.137
				c0.366,2.544-0.001,5.531-0.784,8.427c-1.647-1.594-3.177-4.097-2.82-6.357c0.57-0.02,1.127-0.277,1.498-0.768
				c0.654-0.863,0.483-2.094-0.382-2.748c-0.865-0.653-2.094-0.481-2.747,0.383c-0.585,0.773-0.505,1.835,0.136,2.52
				c-0.685,3.157,1.419,6.706,3.81,8.656c-0.795,2.42-1.84,4.679-2.939,6.446c-2.789-3.918-5.062-8.148-6.868-12.587
				c0.099-0.032,0.197-0.081,0.289-0.158c2.682-2.251,4.671-5.44,6.42-8.427c0.09-0.154,0.181-0.316,0.271-0.473
				c2.905,0.774,5.496-0.068,7.686-1.892c0.746,0.293,1.625,0.113,2.187-0.523c0.716-0.814,0.638-2.053-0.176-2.769
				c-0.814-0.717-2.052-0.638-2.769,0.175c-0.491,0.559-0.599,1.313-0.362,1.966c-1.667,1.365-3.562,2.03-5.757,1.577
				c0.958-1.821,1.784-3.801,2.09-5.805c0.311-0.108,0.602-0.285,0.834-0.551c0.717-0.812,0.638-2.053-0.176-2.769
				c-0.813-0.716-2.053-0.638-2.769,0.176c-0.716,0.814-0.637,2.054,0.177,2.77c0.112,0.099,0.236,0.18,0.363,0.25
				c-0.405,2.96-1.956,6.25-3.908,9.154c-1.645-1.688-3.149-4.448-2.625-6.819c0.637,0.096,1.308-0.12,1.766-0.64
				c0.716-0.813,0.638-2.053-0.176-2.77c-0.814-0.716-2.052-0.637-2.768,0.176c-0.571,0.649-0.629,1.562-0.22,2.273
				c-1.066,3.123,0.834,6.924,3.09,9.101c-1.31,1.762-2.725,3.313-4.059,4.472c-1.98-5.224-3.327-10.717-4.113-16.307
				c1.015-0.723,1.964-1.556,2.854-2.459c2.819,1.13,5.458,0.545,7.836-1.008c0.71,0.384,1.611,0.308,2.244-0.263
				c0.805-0.728,0.868-1.966,0.141-2.771c-0.726-0.804-1.966-0.867-2.771-0.14c-0.554,0.5-0.747,1.244-0.581,1.922
				c-1.753,1.126-3.636,1.545-5.667,0.976c0.858-0.975,1.661-1.99,2.417-2.997c1.768-2.353,3.71-5.021,4.507-7.946
				c0.317-0.07,0.624-0.214,0.883-0.448c0.804-0.727,0.866-1.967,0.14-2.772c-0.726-0.804-1.966-0.866-2.77-0.14
				c-0.804,0.726-0.867,1.966-0.141,2.77c0.099,0.11,0.209,0.204,0.325,0.286c-0.692,2.473-2.379,4.784-3.824,6.781
				c-0.092,0.127-0.189,0.257-0.283,0.385c-0.828-2.069-1.133-4.766,0-6.637c0.529,0.194,1.135,0.167,1.661-0.141
				c0.936-0.547,1.251-1.747,0.705-2.683c-0.546-0.936-1.746-1.251-2.682-0.705c-0.829,0.484-1.167,1.48-0.857,2.352
				c-1.825,2.551-1.256,6.545,0.078,9.254c-1.316,1.668-2.798,3.296-4.448,4.585c-0.393-3.298-0.597-6.626-0.619-9.948
				c-0.001-0.026-0.013-0.045-0.015-0.069c-0.005-1.565,0.029-3.278,0.153-5.036c3.137-0.241,6.887-1.91,8.088-4.928
				c0.774-0.272,1.326-1.011,1.311-1.877c-0.021-1.083-0.914-1.946-1.998-1.925c-1.083,0.02-1.945,0.914-1.925,1.999
				c0.013,0.707,0.402,1.314,0.97,1.648c-1.084,2.082-4.065,3.246-6.306,3.479c0.363-3.468,1.155-6.926,2.796-9.504
				c0.142,0.03,0.288,0.047,0.439,0.045c1.083-0.021,1.945-0.914,1.925-1.998c-0.02-1.083-0.915-1.944-1.999-1.924
				c-1.083,0.02-1.944,0.914-1.924,1.997c0.006,0.351,0.111,0.673,0.278,0.955c-1.053,1.659-1.793,3.617-2.302,5.71
				c-1.855-1.076-2.861-2.779-3.237-4.847c0.609-0.343,1.019-0.992,1.005-1.74c-0.02-1.083-0.914-1.944-1.998-1.925
				c-1.083,0.021-1.945,0.914-1.925,1.998c0.016,0.85,0.573,1.556,1.335,1.814c0.476,2.733,1.851,5.053,4.475,6.322
				c-0.726,3.891-0.794,8.039-0.743,11.353c-1.989-1.154-3.747-2.752-5.384-4.375c1.046-2.839,1.092-6.794-0.969-9.142
				c0.227-0.908-0.219-1.873-1.104-2.266c-0.99-0.44-2.148,0.007-2.588,0.998c-0.439,0.99,0.008,2.149,0.998,2.588
				c0.565,0.251,1.179,0.205,1.688-0.057c1.336,1.709,1.288,4.453,0.708,6.6c-1.842-1.887-3.87-4.146-4.874-6.656
				c0.108-0.095,0.21-0.201,0.297-0.322c0.633-0.88,0.433-2.105-0.447-2.739c-0.88-0.631-2.104-0.432-2.737,0.447
				c-0.633,0.88-0.433,2.104,0.446,2.739c0.282,0.204,0.601,0.311,0.924,0.348c0.986,2.496,2.905,4.695,4.641,6.633
				c1.054,1.178,2.206,2.378,3.438,3.495c-1.965,0.811-3.866,0.545-5.722-0.372c0.085-0.688-0.188-1.4-0.793-1.834
				c-0.88-0.635-2.105-0.435-2.739,0.446c-0.632,0.879-0.433,2.105,0.448,2.738c0.689,0.495,1.588,0.474,2.25,0.019
				c2.543,1.288,5.215,1.512,7.882,0.142c1.135,0.915,2.332,1.733,3.586,2.367c0.047,0.023,0.091,0.023,0.137,0.038
				c0.115,2.676,0.347,5.336,0.701,7.97c-0.003,0.098,0.011,0.196,0.041,0.29c0.485,3.521,1.19,6.99,2.128,10.379
				c-1.606-0.661-3.12-1.6-4.563-2.602c1.231-2.892,1.527-6.903-0.549-9.375c0.126-0.813-0.263-1.649-1.035-2.046
				c-0.964-0.494-2.146-0.113-2.64,0.852c-0.495,0.965-0.114,2.146,0.85,2.641c0.625,0.319,1.337,0.269,1.899-0.066
				c1.294,1.912,0.975,4.953,0.152,7.054c-0.19-0.139-0.381-0.278-0.569-0.415c-2.267-1.664-5.043-3.812-6.547-6.396
				c0.096-0.113,0.184-0.236,0.255-0.374c0.494-0.963,0.113-2.146-0.851-2.641c-0.965-0.493-2.146-0.113-2.641,0.851
				c-0.494,0.964-0.114,2.147,0.851,2.642c0.315,0.161,0.653,0.221,0.983,0.206c1.029,1.759,2.526,3.271,4.086,4.622
				c-1.882,1.209-3.887,1.33-5.955,0.668c-0.014-0.699-0.392-1.367-1.057-1.709c-0.964-0.495-2.146-0.113-2.64,0.851
				c-0.495,0.965-0.115,2.146,0.85,2.641c0.76,0.391,1.649,0.229,2.237-0.324c2.702,0.887,5.406,0.771,7.84-1.056
				c0.131,0.108,0.264,0.22,0.393,0.325c2.721,2.213,5.832,4.44,9.194,5.553c0.004,0.001,0.007,0,0.012,0.001
				c1.288,4.211,2.946,8.284,5.006,12.161c-1.991,0.251-4.386,0.261-6.826-0.003c-0.773-2.931-3.173-6.459-6.333-7.099
				c-0.368-0.847-1.293-1.341-2.228-1.131c-1.057,0.238-1.721,1.288-1.482,2.346c0.239,1.057,1.288,1.72,2.345,1.481
				c0.599-0.136,1.062-0.532,1.317-1.042c2.21,0.619,3.89,3.048,4.639,5.21c-2.973-0.482-5.861-1.388-8.014-2.773
				c0.03-0.143,0.05-0.29,0.048-0.443c-0.017-1.083-0.909-1.947-1.992-1.931c-1.084,0.017-1.948,0.907-1.932,1.991
				c0.017,1.083,0.908,1.947,1.991,1.931c0.348-0.006,0.668-0.108,0.949-0.27c3.309,2.145,8.042,3.232,12.44,3.46
				c-1.086,1.701-2.742,2.62-4.723,2.974c-0.34-0.609-0.988-1.021-1.736-1.01c-1.084,0.017-1.948,0.908-1.931,1.991
				c0.016,1.084,0.907,1.948,1.991,1.932c0.85-0.013,1.559-0.568,1.819-1.328c2.757-0.47,5.099-1.855,6.37-4.515
				c1.462-0.002,2.852-0.099,4.104-0.284c2.812,4.972,6.306,9.595,10.543,13.742c-1.678,0.498-3.687,0.862-5.809,1.039
				c-0.716-2.888-2.867-6.209-5.836-6.993c-0.319-0.869-1.218-1.417-2.165-1.258c-1.068,0.18-1.788,1.191-1.608,2.261
				c0.18,1.068,1.192,1.787,2.261,1.608c0.607-0.104,1.094-0.479,1.375-0.977c2.166,0.727,3.705,3.261,4.342,5.452
				c-3.461,0.117-7.027-0.303-9.752-1.507c0.007-0.141,0.002-0.285-0.022-0.431c-0.18-1.069-1.191-1.787-2.261-1.607
				c-1.068,0.18-1.788,1.192-1.608,2.261c0.181,1.068,1.192,1.788,2.261,1.607c0.34-0.057,0.638-0.205,0.89-0.405
				c1.75,0.794,3.801,1.288,5.962,1.531c-0.788,1.946-2.337,3.137-4.282,3.802c-0.429-0.547-1.129-0.854-1.862-0.729
				c-1.068,0.181-1.788,1.191-1.608,2.261c0.18,1.068,1.192,1.788,2.261,1.607c0.835-0.141,1.451-0.79,1.596-1.578
				c2.597-0.854,4.634-2.556,5.539-5.229c4.008,0.223,8.174-0.325,11.236-1.32c0.145-0.048,0.25-0.126,0.336-0.218
				c3.218,2.975,6.75,5.552,10.508,7.743c-1.786,0.881-3.967,1.659-6.262,2.213c-1.811-2.563-5.104-4.918-8.317-4.495
				c-0.627-0.704-1.688-0.876-2.511-0.353c-0.914,0.58-1.185,1.792-0.603,2.708c0.581,0.914,1.793,1.184,2.707,0.603
				c0.525-0.333,0.829-0.873,0.891-1.445c2.274-0.172,4.7,1.596,6.118,3.346c-2.946,0.543-5.953,0.662-8.476,0.093
				c-0.02-0.142-0.053-0.28-0.104-0.418c-0.382-1.015-1.513-1.527-2.527-1.145c-1.014,0.383-1.526,1.512-1.145,2.526
				c0.382,1.015,1.513,1.527,2.527,1.145c0.322-0.121,0.586-0.322,0.794-0.568c3.811,0.912,8.665,0.322,12.889-0.949
				c-0.43,1.979-1.728,3.388-3.453,4.385c-0.526-0.453-1.271-0.619-1.966-0.357c-1.015,0.381-1.527,1.513-1.146,2.525
				c0.382,1.015,1.512,1.527,2.527,1.146c0.794-0.299,1.272-1.058,1.263-1.858c2.459-1.371,4.125-3.501,4.461-6.4
				c1.467-0.526,2.823-1.123,3.974-1.758c4.844,2.634,10.035,4.626,15.39,5.999c-1.336,0.892-2.945,1.76-4.68,2.518
				c-1.641-2.505-4.707-4.955-7.778-4.733c-0.583-0.723-1.611-0.951-2.457-0.494c-0.953,0.516-1.308,1.706-0.792,2.658
				c0.515,0.953,1.705,1.308,2.659,0.793c0.536-0.291,0.874-0.796,0.983-1.351c2.303,0,4.554,1.858,5.873,3.744
				c-3.244,1.234-6.759,1.995-9.715,1.727c-0.039-0.139-0.089-0.275-0.161-0.408c-0.516-0.953-1.706-1.308-2.658-0.792
				c-0.954,0.516-1.309,1.706-0.792,2.659c0.515,0.952,1.705,1.308,2.658,0.791c0.304-0.164,0.539-0.401,0.712-0.674
				c1.913,0.184,4.013-0.009,6.133-0.475c-0.128,2.096-1.186,3.722-2.819,4.982c-0.583-0.379-1.346-0.443-2-0.09
				c-0.954,0.516-1.308,1.706-0.793,2.659c0.516,0.953,1.706,1.308,2.659,0.792c0.745-0.402,1.117-1.219,1.001-2.012
				c2.178-1.652,3.585-3.898,3.571-6.736c3.842-1.077,7.581-2.922,10.146-4.847c0.09-0.068,0.158-0.145,0.21-0.23
				c5.126,1.16,10.382,1.755,15.62,1.775C84.502,172.595,84.502,170.998,83.472,170.995z"/>
			<path fill="#E75244" d="M170.994,107.946c-0.01,2.676-0.186,5.34-0.498,7.981c-3.117-0.355-7.001-0.176-10.648,0.646
				c-1.331-2.511-3.638-3.819-6.335-4.236c-0.274-0.755-0.989-1.298-1.838-1.298c-1.084,0-1.961,0.878-1.961,1.963
				c0,1.082,0.877,1.962,1.961,1.962c0.747,0,1.388-0.424,1.719-1.036c2.042,0.332,3.744,1.271,4.854,3.051
				c-2.086,0.598-4.024,1.424-5.623,2.497c-0.282-0.158-0.604-0.256-0.95-0.256c-1.084,0-1.961,0.879-1.961,1.961
				c0,1.085,0.877,1.962,1.961,1.962c1.083,0,1.962-0.877,1.962-1.962c0-0.15-0.022-0.297-0.054-0.44
				c2.469-1.644,5.934-2.656,9.374-3.116c-0.251,2.223-1.353,5.076-3.358,6.144c-0.359-0.458-0.911-0.758-1.538-0.758
				c-1.084,0-1.963,0.878-1.963,1.962c0,1.084,0.879,1.962,1.963,1.962c0.973,0,1.775-0.712,1.929-1.643
				c2.802-1.3,4.347-4.814,4.588-7.847c2.06-0.174,4.038-0.151,5.72,0.05c-0.692,4.903-1.906,9.706-3.634,14.315
				c-1.265-0.17-2.671-0.247-4.149-0.227c-1.314-2.638-3.674-3.994-6.441-4.422c-0.273-0.755-0.989-1.297-1.838-1.297
				c-1.083,0-1.961,0.877-1.961,1.961c0,1.084,0.878,1.962,1.961,1.962c0.747,0,1.388-0.421,1.719-1.034
				c1.987,0.322,3.658,1.212,4.77,2.9c-4.396,0.294-9.115,1.451-12.389,3.648c-0.282-0.159-0.604-0.257-0.95-0.257
				c-1.084,0-1.962,0.88-1.962,1.963c0,1.084,0.878,1.961,1.962,1.961c1.083,0,1.962-0.877,1.962-1.961
				c0-0.152-0.022-0.298-0.054-0.441c2.133-1.419,5.006-2.369,7.971-2.898c-0.718,2.171-2.359,4.633-4.558,5.283
				c-0.262-0.506-0.733-0.898-1.334-1.023c-1.061-0.223-2.1,0.457-2.322,1.517c-0.222,1.061,0.457,2.101,1.518,2.322
				c0.938,0.196,1.857-0.313,2.21-1.167c3.149-0.69,5.501-4.252,6.223-7.194c2.537-0.314,5.026-0.329,7.067-0.078
				c-1.478,3.664-3.287,7.19-5.423,10.536c-3.125-0.365-7.037-0.188-10.707,0.639c-1.332-2.51-3.638-3.819-6.335-4.236
				c-0.273-0.756-0.989-1.298-1.838-1.298c-1.083,0-1.962,0.878-1.962,1.962s0.878,1.962,1.962,1.962
				c0.747,0,1.387-0.421,1.719-1.035c2.042,0.332,3.744,1.271,4.855,3.052c-2.086,0.596-4.024,1.423-5.624,2.495
				c-0.282-0.157-0.603-0.255-0.95-0.255c-1.083,0-1.962,0.878-1.962,1.962s0.878,1.961,1.962,1.961
				c1.084,0,1.961-0.877,1.961-1.961c0-0.151-0.02-0.298-0.054-0.44c2.47-1.643,5.934-2.655,9.374-3.116
				c-0.251,2.223-1.353,5.075-3.358,6.143c-0.359-0.457-0.912-0.758-1.539-0.758c-1.083,0-1.961,0.88-1.961,1.962
				c0,1.085,0.877,1.962,1.961,1.962c0.974,0,1.776-0.711,1.93-1.642c2.803-1.299,4.347-4.815,4.587-7.847
				c1.771-0.149,3.484-0.156,4.999-0.026c-1.481,2.181-3.092,4.285-4.858,6.282c-2.493,2.817-5.218,5.315-8.128,7.52
				c-0.013-0.011-0.023-0.022-0.037-0.031c-1.095-0.73-2.394-1.435-3.805-2.076c-0.087-2.929-1.616-5.175-3.944-6.743
				c0.072-0.795-0.344-1.589-1.109-1.949c-0.98-0.463-2.149-0.043-2.612,0.937c-0.462,0.98-0.043,2.148,0.937,2.61
				c0.673,0.319,1.429,0.212,1.99-0.197c1.648,1.135,2.801,2.638,3.08,4.64c-4.099-1.607-8.874-2.571-12.762-1.977
				c-0.188-0.262-0.436-0.485-0.747-0.632c-0.98-0.464-2.148-0.044-2.611,0.936c-0.462,0.98-0.043,2.148,0.938,2.612
				c0.98,0.462,2.149,0.043,2.611-0.938c0.063-0.134,0.107-0.271,0.138-0.41c2.542-0.365,5.531,0.001,8.427,0.784
				c-1.594,1.648-4.097,3.178-6.356,2.821c-0.02-0.57-0.278-1.127-0.769-1.499c-0.865-0.653-2.094-0.482-2.747,0.383
				c-0.654,0.864-0.483,2.095,0.382,2.747c0.774,0.585,1.836,0.506,2.52-0.135c3.156,0.686,6.705-1.42,8.657-3.811
				c2.419,0.795,4.677,1.839,6.445,2.939c-3.918,2.788-8.149,5.062-12.587,6.868c-0.031-0.1-0.081-0.198-0.158-0.29
				c-2.251-2.681-5.44-4.67-8.426-6.42c-0.154-0.091-0.316-0.182-0.474-0.271c0.774-2.905-0.066-5.497-1.892-7.686
				c0.293-0.747,0.114-1.626-0.523-2.187c-0.814-0.717-2.053-0.638-2.769,0.176c-0.716,0.812-0.638,2.051,0.176,2.768
				c0.558,0.492,1.313,0.6,1.965,0.363c1.364,1.667,2.031,3.562,1.577,5.757c-1.821-0.958-3.801-1.784-5.805-2.09
				c-0.107-0.311-0.286-0.602-0.55-0.835c-0.813-0.715-2.053-0.636-2.769,0.177c-0.716,0.814-0.638,2.052,0.176,2.769
				c0.813,0.716,2.053,0.637,2.768-0.176c0.1-0.113,0.181-0.236,0.249-0.364c2.962,0.406,6.252,1.957,9.155,3.908
				c-1.688,1.646-4.447,3.148-6.818,2.625c0.096-0.638-0.121-1.307-0.641-1.766c-0.813-0.717-2.052-0.638-2.769,0.176
				c-0.716,0.813-0.637,2.054,0.176,2.77c0.648,0.569,1.563,0.627,2.271,0.219c3.124,1.065,6.924-0.835,9.102-3.09
				c1.762,1.31,3.311,2.725,4.471,4.059c-5.225,1.982-10.716,3.327-16.307,4.113c-0.721-1.015-1.555-1.964-2.458-2.854
				c1.13-2.82,0.544-5.457-1.007-7.836c0.383-0.71,0.309-1.611-0.264-2.244c-0.726-0.805-1.967-0.867-2.771-0.142
				c-0.804,0.727-0.867,1.967-0.141,2.771c0.501,0.555,1.245,0.747,1.923,0.582c1.126,1.753,1.546,3.637,0.975,5.666
				c-0.974-0.857-1.99-1.66-2.996-2.417c-2.353-1.769-5.022-3.71-7.946-4.506c-0.072-0.318-0.215-0.624-0.449-0.883
				c-0.727-0.805-1.966-0.868-2.771-0.141c-0.804,0.725-0.867,1.965-0.141,2.77c0.727,0.805,1.967,0.868,2.771,0.141
				c0.109-0.099,0.203-0.21,0.285-0.326c2.474,0.692,4.785,2.38,6.781,3.825c0.127,0.092,0.256,0.188,0.384,0.282
				c-2.069,0.828-4.766,1.132-6.636,0c0.194-0.529,0.168-1.136-0.139-1.662c-0.547-0.936-1.748-1.25-2.684-0.703
				c-0.936,0.546-1.251,1.746-0.705,2.683c0.484,0.827,1.48,1.166,2.351,0.857c2.551,1.825,6.545,1.255,9.255-0.078
				c1.667,1.316,3.296,2.799,4.585,4.448c-3.299,0.393-6.626,0.599-9.949,0.62c-0.026,0-0.044,0.013-0.069,0.015
				c-1.564,0.004-3.278-0.03-5.034-0.154c-0.242-3.137-1.911-6.887-4.929-8.087c-0.273-0.775-1.011-1.327-1.878-1.311
				c-1.084,0.02-1.945,0.914-1.925,1.997c0.021,1.084,0.914,1.946,1.998,1.926c0.707-0.014,1.315-0.402,1.65-0.97
				c2.082,1.084,3.245,4.064,3.477,6.307c-3.467-0.364-6.925-1.155-9.504-2.797c0.03-0.141,0.048-0.288,0.045-0.439
				c-0.02-1.083-0.914-1.944-1.998-1.925c-1.084,0.02-1.945,0.915-1.925,1.999c0.021,1.083,0.914,1.944,1.999,1.924
				c0.35-0.007,0.673-0.111,0.955-0.278c1.659,1.054,3.617,1.793,5.71,2.303c-1.076,1.854-2.778,2.86-4.847,3.236
				c-0.343-0.608-0.992-1.018-1.739-1.003c-1.084,0.019-1.945,0.913-1.925,1.996c0.02,1.084,0.914,1.945,1.997,1.925
				c0.851-0.017,1.557-0.573,1.815-1.333c2.733-0.477,5.052-1.852,6.321-4.477c3.892,0.727,8.039,0.795,11.354,0.743
				c-1.155,1.989-2.751,3.748-4.375,5.386c-2.838-1.047-6.794-1.093-9.14,0.969c-0.908-0.228-1.874,0.22-2.266,1.104
				c-0.439,0.989,0.006,2.148,0.997,2.587c0.99,0.439,2.149-0.007,2.588-0.998c0.251-0.564,0.205-1.178-0.056-1.688
				c1.709-1.335,4.452-1.288,6.599-0.707c-1.886,1.843-4.144,3.87-6.656,4.875c-0.095-0.108-0.201-0.211-0.323-0.298
				c-0.88-0.633-2.105-0.433-2.738,0.447c-0.634,0.88-0.433,2.104,0.447,2.736c0.879,0.634,2.104,0.434,2.738-0.444
				c0.203-0.284,0.312-0.604,0.348-0.926c2.496-0.985,4.695-2.905,6.634-4.641c1.177-1.055,2.377-2.207,3.494-3.438
				c0.81,1.965,0.545,3.867-0.372,5.722c-0.689-0.086-1.4,0.188-1.835,0.791c-0.633,0.882-0.433,2.107,0.447,2.739
				c0.88,0.633,2.106,0.434,2.738-0.447c0.496-0.688,0.474-1.588,0.02-2.249c1.288-2.544,1.511-5.217,0.141-7.883
				c0.914-1.136,1.732-2.331,2.367-3.586c0.024-0.047,0.023-0.091,0.039-0.138c2.675-0.113,5.336-0.347,7.97-0.7
				c0.098,0.003,0.196-0.011,0.29-0.04c3.521-0.485,6.99-1.19,10.378-2.129c-0.661,1.605-1.6,3.12-2.6,4.562
				c-2.893-1.23-6.903-1.527-9.376,0.55c-0.813-0.126-1.649,0.263-2.046,1.034c-0.494,0.965-0.113,2.146,0.852,2.642
				c0.964,0.494,2.146,0.113,2.64-0.851c0.32-0.624,0.269-1.338-0.066-1.898c1.911-1.294,4.953-0.976,7.053-0.153
				c-0.138,0.19-0.277,0.382-0.415,0.569c-1.663,2.267-3.812,5.044-6.396,6.546c-0.113-0.096-0.235-0.184-0.373-0.253
				c-0.963-0.494-2.146-0.114-2.64,0.85c-0.494,0.965-0.114,2.146,0.85,2.641c0.965,0.494,2.147,0.114,2.641-0.851
				c0.162-0.315,0.221-0.653,0.207-0.983c1.76-1.027,3.271-2.525,4.622-4.086c1.209,1.883,1.331,3.887,0.668,5.954
				c-0.698,0.015-1.367,0.394-1.708,1.058c-0.495,0.965-0.114,2.146,0.851,2.641c0.964,0.494,2.146,0.114,2.641-0.85
				c0.39-0.761,0.23-1.649-0.324-2.238c0.886-2.701,0.771-5.406-1.054-7.839c0.107-0.132,0.217-0.264,0.323-0.394
				c2.212-2.721,4.441-5.831,5.552-9.193c0.001-0.005,0-0.007,0.001-0.012c4.21-1.288,8.285-2.946,12.162-5.006
				c0.25,1.99,0.261,4.385-0.002,6.825c-2.932,0.773-6.46,3.174-7.1,6.334c-0.846,0.368-1.342,1.293-1.131,2.228
				c0.238,1.057,1.287,1.721,2.345,1.482c1.057-0.238,1.721-1.288,1.482-2.345c-0.134-0.599-0.533-1.062-1.042-1.317
				c0.619-2.21,3.048-3.89,5.21-4.638c-0.483,2.972-1.387,5.859-2.774,8.014c-0.143-0.031-0.29-0.05-0.443-0.048
				c-1.083,0.017-1.948,0.909-1.931,1.991c0.016,1.085,0.907,1.948,1.991,1.932c1.083-0.018,1.948-0.907,1.932-1.991
				c-0.006-0.347-0.109-0.667-0.271-0.948c2.144-3.309,3.231-8.042,3.459-12.44c1.702,1.086,2.621,2.742,2.975,4.723
				c-0.609,0.342-1.021,0.989-1.01,1.736c0.016,1.083,0.908,1.948,1.991,1.932s1.948-0.908,1.931-1.991
				c-0.013-0.85-0.567-1.559-1.328-1.818c-0.47-2.757-1.856-5.101-4.516-6.37c-0.001-1.463-0.097-2.853-0.284-4.105
				c4.972-2.812,9.596-6.306,13.742-10.544c0.499,1.679,0.864,3.689,1.038,5.811c-2.886,0.715-6.207,2.866-6.991,5.835
				c-0.871,0.319-1.419,1.218-1.259,2.165c0.181,1.068,1.192,1.789,2.26,1.607c1.069-0.179,1.789-1.191,1.608-2.26
				c-0.103-0.608-0.479-1.095-0.977-1.376c0.729-2.166,3.263-3.704,5.454-4.342c0.117,3.462-0.303,7.028-1.506,9.753
				c-0.142-0.008-0.285-0.003-0.431,0.022c-1.069,0.179-1.788,1.191-1.608,2.26c0.18,1.068,1.192,1.788,2.261,1.608
				c1.069-0.182,1.789-1.193,1.608-2.261c-0.058-0.34-0.206-0.639-0.406-0.891c0.794-1.751,1.29-3.801,1.531-5.962
				c1.946,0.787,3.137,2.338,3.801,4.282c-0.546,0.429-0.852,1.129-0.729,1.862c0.18,1.068,1.192,1.788,2.261,1.607
				c1.069-0.179,1.789-1.192,1.608-2.261c-0.141-0.835-0.792-1.45-1.578-1.595c-0.854-2.598-2.557-4.635-5.228-5.539
				c0.222-4.009-0.327-8.175-1.322-11.236c-0.047-0.145-0.126-0.251-0.217-0.338c2.975-3.218,5.552-6.75,7.743-10.507
				c0.881,1.785,1.66,3.967,2.213,6.262c-2.563,1.811-4.917,5.105-4.495,8.316c-0.705,0.627-0.875,1.688-0.352,2.511
				c0.581,0.914,1.792,1.184,2.707,0.602c0.915-0.581,1.185-1.793,0.604-2.707c-0.333-0.525-0.874-0.827-1.446-0.89
				c-0.171-2.274,1.595-4.7,3.347-6.118c0.544,2.946,0.662,5.954,0.092,8.476c-0.141,0.02-0.28,0.052-0.418,0.104
				c-1.015,0.383-1.527,1.514-1.145,2.528c0.381,1.014,1.512,1.525,2.527,1.145c1.014-0.383,1.527-1.513,1.145-2.526
				c-0.121-0.322-0.323-0.586-0.566-0.795c0.91-3.81,0.322-8.665-0.951-12.889c1.979,0.43,3.387,1.729,4.385,3.453
				c-0.454,0.525-0.62,1.271-0.358,1.967c0.382,1.015,1.513,1.526,2.527,1.145c1.014-0.382,1.526-1.513,1.145-2.528
				c-0.298-0.793-1.057-1.27-1.859-1.263c-1.369-2.459-3.499-4.125-6.399-4.462c-0.526-1.467-1.123-2.822-1.758-3.973
				c2.634-4.845,4.625-10.036,5.999-15.39c0.891,1.335,1.759,2.943,2.517,4.679c-2.504,1.642-4.954,4.707-4.733,7.778
				c-0.722,0.583-0.951,1.611-0.494,2.457c0.517,0.952,1.706,1.307,2.659,0.792c0.953-0.517,1.307-1.705,0.791-2.659
				c-0.289-0.537-0.795-0.874-1.35-0.984c0.001-2.302,1.859-4.554,3.745-5.872c1.235,3.244,1.996,6.76,1.728,9.716
				c-0.139,0.038-0.276,0.088-0.408,0.161c-0.954,0.515-1.309,1.705-0.792,2.658c0.516,0.953,1.706,1.308,2.658,0.791
				c0.953-0.515,1.308-1.704,0.792-2.658c-0.164-0.304-0.402-0.538-0.674-0.712c0.184-1.912-0.009-4.014-0.474-6.133
				c2.096,0.128,3.721,1.185,4.982,2.818c-0.379,0.583-0.444,1.347-0.09,2.001c0.516,0.954,1.705,1.308,2.659,0.793
				c0.953-0.517,1.308-1.707,0.792-2.66c-0.403-0.745-1.219-1.117-2.012-1c-1.653-2.178-3.898-3.585-6.738-3.571
				c-1.076-3.843-2.92-7.58-4.846-10.146c-0.067-0.09-0.146-0.157-0.229-0.21c1.16-5.126,1.754-10.383,1.774-15.62
				C172.594,106.916,170.998,106.919,170.994,107.946z"/>
			<path fill="#E75244" d="M107.947,20.425c2.675,0.01,5.339,0.186,7.98,0.499c-0.355,3.116-0.175,7.001,0.647,10.648
				c-2.511,1.331-3.819,3.637-4.237,6.335c-0.755,0.273-1.297,0.989-1.297,1.838c0,1.083,0.878,1.961,1.962,1.961
				c1.084,0,1.961-0.878,1.961-1.961c0-0.747-0.421-1.388-1.035-1.719c0.333-2.042,1.272-3.743,3.052-4.854
				c0.596,2.086,1.422,4.024,2.496,5.624c-0.158,0.282-0.256,0.604-0.256,0.95c0,1.083,0.878,1.961,1.962,1.961
				c1.083,0,1.961-0.878,1.961-1.961c0-1.084-0.878-1.962-1.961-1.962c-0.153,0-0.299,0.021-0.44,0.053
				c-1.643-2.469-2.656-5.934-3.117-9.373c2.223,0.25,5.077,1.353,6.145,3.358c-0.459,0.359-0.758,0.911-0.758,1.539
				c0,1.084,0.877,1.962,1.961,1.962c1.084,0,1.962-0.878,1.962-1.962c0-0.974-0.711-1.776-1.641-1.93
				c-1.299-2.802-4.816-4.347-7.847-4.588c-0.174-2.06-0.152-4.038,0.049-5.72c4.904,0.692,9.707,1.906,14.315,3.634
				c-0.169,1.265-0.247,2.67-0.225,4.149c-2.638,1.314-3.995,3.674-4.422,6.44c-0.755,0.273-1.298,0.989-1.298,1.838
				c0,1.083,0.879,1.962,1.963,1.962c1.083,0,1.961-0.878,1.961-1.962c0-0.747-0.421-1.388-1.035-1.719
				c0.323-1.987,1.212-3.658,2.9-4.769c0.294,4.397,1.452,9.114,3.648,12.388c-0.158,0.282-0.255,0.604-0.255,0.951
				c0,1.083,0.878,1.961,1.961,1.961c1.084,0,1.962-0.877,1.962-1.961c0-1.084-0.878-1.962-1.962-1.962
				c-0.151,0-0.297,0.021-0.44,0.054c-1.419-2.134-2.369-5.007-2.898-7.97c2.17,0.717,4.633,2.358,5.283,4.557
				c-0.506,0.262-0.898,0.733-1.024,1.333c-0.222,1.061,0.457,2.1,1.518,2.322c1.061,0.223,2.1-0.458,2.323-1.518
				c0.196-0.938-0.313-1.856-1.166-2.21c-0.69-3.149-4.253-5.501-7.195-6.223c-0.314-2.537-0.33-5.025-0.079-7.066
				c3.664,1.478,7.191,3.286,10.536,5.422c-0.364,3.126-0.187,7.037,0.64,10.707c-2.511,1.332-3.819,3.639-4.237,6.336
				c-0.754,0.273-1.297,0.988-1.297,1.838c0,1.083,0.878,1.961,1.962,1.961s1.961-0.878,1.961-1.961
				c0-0.747-0.421-1.388-1.035-1.719c0.333-2.042,1.271-3.744,3.052-4.854c0.596,2.086,1.423,4.024,2.496,5.623
				c-0.158,0.283-0.255,0.604-0.255,0.95c0,1.083,0.877,1.961,1.961,1.961c1.083,0,1.961-0.878,1.961-1.961
				c0-1.084-0.878-1.961-1.961-1.961c-0.152,0-0.298,0.021-0.44,0.054c-1.643-2.47-2.656-5.933-3.117-9.374
				c2.223,0.251,5.077,1.353,6.145,3.359c-0.458,0.359-0.758,0.911-0.758,1.539c0,1.083,0.877,1.962,1.961,1.962
				c1.084,0,1.962-0.878,1.962-1.962c0-0.974-0.711-1.776-1.642-1.929c-1.299-2.803-4.816-4.347-7.846-4.588
				c-0.15-1.771-0.157-3.484-0.028-5c2.182,1.481,4.286,3.092,6.284,4.859c2.816,2.492,5.315,5.217,7.52,8.126
				c-0.011,0.013-0.022,0.023-0.032,0.038c-0.729,1.095-1.434,2.394-2.075,3.804c-2.93,0.087-5.176,1.617-6.743,3.945
				c-0.797-0.072-1.59,0.344-1.951,1.109c-0.463,0.98-0.044,2.149,0.937,2.612c0.98,0.462,2.149,0.043,2.611-0.937
				c0.317-0.673,0.212-1.429-0.197-1.99c1.135-1.648,2.636-2.801,4.639-3.08c-1.606,4.099-2.571,8.874-1.978,12.762
				c-0.261,0.188-0.484,0.436-0.632,0.747c-0.463,0.98-0.043,2.149,0.937,2.611c0.98,0.462,2.149,0.043,2.611-0.937
				c0.462-0.98,0.043-2.149-0.937-2.611c-0.134-0.064-0.271-0.107-0.41-0.138c-0.365-2.543,0.001-5.531,0.785-8.427
				c1.646,1.595,3.177,4.098,2.82,6.356c-0.57,0.02-1.127,0.278-1.499,0.769c-0.653,0.865-0.482,2.095,0.383,2.747
				c0.864,0.654,2.094,0.483,2.748-0.381c0.584-0.774,0.504-1.836-0.136-2.52c0.686-3.156-1.42-6.705-3.81-8.657
				c0.795-2.419,1.84-4.677,2.94-6.445c2.788,3.918,5.062,8.149,6.868,12.587c-0.099,0.031-0.197,0.081-0.29,0.158
				c-2.682,2.251-4.671,5.44-6.42,8.426c-0.09,0.154-0.181,0.316-0.27,0.474c-2.905-0.774-5.497,0.066-7.686,1.892
				c-0.746-0.292-1.625-0.113-2.186,0.523c-0.715,0.813-0.638,2.053,0.177,2.769c0.812,0.716,2.052,0.637,2.768-0.176
				c0.491-0.558,0.6-1.313,0.362-1.965c1.667-1.364,3.562-2.031,5.756-1.577c-0.957,1.822-1.783,3.801-2.089,5.806
				c-0.311,0.107-0.602,0.285-0.834,0.55c-0.717,0.813-0.638,2.052,0.176,2.768c0.813,0.717,2.053,0.638,2.769-0.176
				c0.716-0.813,0.637-2.053-0.176-2.768c-0.113-0.1-0.236-0.181-0.363-0.25c0.405-2.961,1.956-6.252,3.907-9.154
				c1.645,1.688,3.148,4.447,2.625,6.818c-0.638-0.096-1.308,0.12-1.766,0.641c-0.716,0.813-0.638,2.052,0.176,2.768
				c0.813,0.716,2.052,0.638,2.769-0.176c0.571-0.648,0.628-1.562,0.219-2.271c1.066-3.123-0.834-6.924-3.09-9.102
				c1.311-1.762,2.726-3.312,4.06-4.471c1.98,5.225,3.327,10.715,4.113,16.307c-1.015,0.721-1.964,1.555-2.854,2.458
				c-2.819-1.13-5.457-0.544-7.836,1.008c-0.71-0.383-1.61-0.309-2.243,0.263c-0.805,0.726-0.868,1.967-0.142,2.771
				c0.726,0.804,1.966,0.867,2.771,0.141c0.555-0.501,0.747-1.244,0.581-1.922c1.754-1.127,3.636-1.546,5.667-0.976
				c-0.858,0.974-1.662,1.99-2.417,2.996c-1.769,2.354-3.71,5.022-4.507,7.948c-0.318,0.072-0.624,0.214-0.883,0.449
				c-0.804,0.726-0.867,1.965-0.14,2.77c0.727,0.804,1.966,0.867,2.77,0.141c0.805-0.727,0.868-1.966,0.141-2.771
				c-0.1-0.109-0.209-0.202-0.326-0.284c0.693-2.474,2.379-4.786,3.824-6.782c0.092-0.127,0.19-0.257,0.283-0.384
				c0.828,2.069,1.132,4.766,0,6.637c-0.53-0.195-1.135-0.168-1.661,0.139c-0.936,0.546-1.251,1.747-0.704,2.684
				c0.545,0.936,1.746,1.251,2.682,0.704c0.828-0.482,1.167-1.479,0.857-2.351c1.825-2.55,1.255-6.544-0.078-9.254
				c1.316-1.668,2.798-3.296,4.449-4.585c0.392,3.299,0.597,6.626,0.619,9.948c0,0.027,0.013,0.045,0.015,0.07
				c0.004,1.564-0.03,3.278-0.153,5.034c-3.137,0.242-6.887,1.911-8.088,4.929c-0.774,0.273-1.327,1.01-1.311,1.878
				c0.021,1.084,0.915,1.945,1.998,1.925c1.084-0.02,1.945-0.914,1.925-1.997c-0.013-0.708-0.402-1.316-0.97-1.651
				c1.085-2.082,4.065-3.244,6.306-3.478c-0.363,3.468-1.155,6.926-2.796,9.504c-0.142-0.03-0.288-0.048-0.439-0.045
				c-1.083,0.019-1.945,0.914-1.925,1.998c0.02,1.084,0.914,1.944,1.998,1.925c1.083-0.02,1.945-0.914,1.924-1.999
				c-0.005-0.349-0.111-0.673-0.278-0.954c1.053-1.659,1.793-3.617,2.302-5.71c1.856,1.075,2.861,2.777,3.237,4.848
				c-0.608,0.342-1.018,0.991-1.004,1.737c0.02,1.084,0.914,1.946,1.998,1.926c1.083-0.02,1.944-0.914,1.925-1.997
				c-0.016-0.852-0.573-1.557-1.335-1.814c-0.475-2.733-1.851-5.054-4.476-6.323c0.726-3.892,0.794-8.039,0.744-11.353
				c1.988,1.155,3.747,2.751,5.384,4.375c-1.046,2.838-1.092,6.795,0.969,9.141c-0.227,0.908,0.219,1.874,1.105,2.268
				c0.99,0.438,2.149-0.007,2.587-0.999c0.44-0.99-0.007-2.149-0.997-2.588c-0.565-0.251-1.179-0.205-1.689,0.056
				c-1.335-1.708-1.287-4.451-0.707-6.599c1.842,1.886,3.87,4.144,4.875,6.655c-0.108,0.095-0.209,0.201-0.297,0.323
				c-0.633,0.881-0.434,2.106,0.447,2.738c0.879,0.634,2.104,0.434,2.737-0.446c0.633-0.88,0.433-2.106-0.446-2.738
				c-0.282-0.203-0.601-0.311-0.924-0.349c-0.987-2.496-2.906-4.695-4.641-6.634c-1.055-1.178-2.207-2.378-3.439-3.494
				c1.965-0.809,3.867-0.546,5.722,0.372c-0.085,0.689,0.189,1.4,0.793,1.836c0.88,0.632,2.106,0.432,2.738-0.447
				c0.633-0.881,0.433-2.106-0.447-2.738c-0.689-0.496-1.588-0.474-2.25-0.021c-2.543-1.287-5.215-1.51-7.881-0.14
				c-1.136-0.915-2.332-1.733-3.586-2.367c-0.047-0.024-0.092-0.023-0.138-0.038c-0.115-2.676-0.347-5.337-0.7-7.97
				c0.003-0.098-0.011-0.197-0.041-0.29c-0.485-3.521-1.189-6.99-2.128-10.379c1.605,0.661,3.12,1.6,4.562,2.601
				c-1.231,2.893-1.526,6.903,0.55,9.375c-0.126,0.812,0.262,1.649,1.035,2.046c0.964,0.494,2.146,0.113,2.64-0.851
				c0.495-0.965,0.114-2.146-0.85-2.641c-0.624-0.32-1.337-0.269-1.898,0.066c-1.295-1.912-0.975-4.953-0.153-7.053
				c0.19,0.138,0.381,0.277,0.569,0.415c2.267,1.663,5.044,3.812,6.546,6.396c-0.095,0.113-0.183,0.235-0.254,0.373
				c-0.494,0.963-0.113,2.146,0.851,2.64c0.964,0.495,2.146,0.114,2.64-0.85c0.495-0.964,0.115-2.146-0.85-2.641
				c-0.315-0.162-0.653-0.221-0.983-0.206c-1.029-1.76-2.527-3.271-4.086-4.623c1.883-1.209,3.887-1.331,5.955-0.667
				c0.014,0.698,0.392,1.367,1.057,1.707c0.964,0.495,2.146,0.114,2.64-0.851c0.496-0.964,0.115-2.145-0.849-2.641
				c-0.761-0.389-1.65-0.229-2.237,0.325c-2.703-0.887-5.407-0.771-7.84,1.054c-0.131-0.107-0.263-0.218-0.393-0.323
				c-2.721-2.213-5.831-4.442-9.193-5.553c-0.005-0.001-0.008,0-0.012-0.001c-1.288-4.211-2.946-8.286-5.006-12.163
				c1.991-0.25,4.385-0.26,6.826,0.002c0.773,2.932,3.173,6.459,6.333,7.099c0.367,0.847,1.293,1.342,2.227,1.132
				c1.058-0.239,1.721-1.288,1.482-2.345c-0.238-1.057-1.287-1.721-2.344-1.482c-0.6,0.134-1.063,0.533-1.317,1.042
				c-2.211-0.619-3.89-3.048-4.639-5.209c2.972,0.482,5.86,1.386,8.014,2.773c-0.03,0.143-0.05,0.291-0.048,0.443
				c0.017,1.083,0.909,1.948,1.992,1.931c1.084-0.016,1.948-0.908,1.932-1.991c-0.017-1.083-0.908-1.949-1.991-1.932
				c-0.348,0.005-0.668,0.108-0.949,0.27c-3.309-2.144-8.042-3.231-12.44-3.459c1.085-1.702,2.742-2.62,4.724-2.974
				c0.34,0.609,0.988,1.021,1.735,1.01c1.085-0.017,1.949-0.908,1.932-1.992c-0.017-1.083-0.908-1.947-1.992-1.931
				c-0.85,0.013-1.558,0.567-1.819,1.328c-2.757,0.47-5.099,1.856-6.37,4.516c-1.462,0.001-2.852,0.097-4.104,0.284
				c-2.812-4.972-6.306-9.596-10.542-13.742c1.678-0.498,3.687-0.864,5.809-1.039c0.716,2.886,2.867,6.208,5.836,6.992
				c0.319,0.87,1.218,1.418,2.165,1.259c1.068-0.18,1.788-1.192,1.607-2.26c-0.18-1.069-1.192-1.789-2.261-1.609
				c-0.607,0.103-1.094,0.479-1.375,0.977c-2.165-0.728-3.704-3.262-4.342-5.453c3.462-0.118,7.028,0.302,9.753,1.506
				c-0.007,0.142-0.003,0.285,0.022,0.431c0.18,1.068,1.191,1.788,2.261,1.608c1.068-0.18,1.788-1.192,1.608-2.261
				c-0.181-1.069-1.193-1.789-2.262-1.608c-0.339,0.058-0.637,0.206-0.89,0.406c-1.75-0.794-3.801-1.289-5.961-1.532
				c0.788-1.946,2.336-3.136,4.28-3.801c0.429,0.546,1.13,0.853,1.862,0.729c1.069-0.18,1.789-1.191,1.608-2.26
				c-0.18-1.069-1.191-1.789-2.26-1.608c-0.835,0.141-1.451,0.792-1.597,1.578c-2.597,0.853-4.634,2.556-5.539,5.228
				c-4.008-0.222-8.174,0.327-11.236,1.322c-0.145,0.047-0.25,0.126-0.336,0.217c-3.219-2.975-6.751-5.551-10.508-7.742
				c1.786-0.881,3.967-1.661,6.262-2.213c1.81,2.563,5.105,4.917,8.316,4.495c0.628,0.704,1.688,0.875,2.51,0.353
				c0.915-0.582,1.185-1.794,0.603-2.708c-0.581-0.915-1.792-1.184-2.707-0.603c-0.525,0.332-0.829,0.873-0.89,1.445
				c-2.274,0.171-4.7-1.595-6.118-3.346c2.945-0.544,5.953-0.662,8.475-0.092c0.021,0.14,0.053,0.28,0.105,0.418
				c0.382,1.014,1.512,1.526,2.526,1.145c1.015-0.381,1.527-1.513,1.146-2.527c-0.381-1.014-1.513-1.527-2.526-1.145
				c-0.322,0.121-0.586,0.323-0.794,0.567c-3.812-0.911-8.666-0.321-12.889,0.951c0.43-1.979,1.729-3.387,3.453-4.385
				c0.525,0.453,1.271,0.62,1.966,0.357c1.015-0.381,1.528-1.512,1.146-2.527c-0.382-1.014-1.512-1.526-2.527-1.145
				c-0.795,0.298-1.272,1.057-1.264,1.859c-2.459,1.369-4.125,3.499-4.461,6.399c-1.467,0.526-2.822,1.123-3.974,1.758
				c-4.845-2.634-10.035-4.625-15.39-5.999c1.336-0.891,2.945-1.76,4.68-2.517c1.641,2.504,4.707,4.954,7.779,4.733
				c0.582,0.722,1.611,0.951,2.456,0.494c0.953-0.515,1.308-1.706,0.792-2.659c-0.515-0.953-1.705-1.307-2.659-0.792
				c-0.536,0.29-0.874,0.795-0.983,1.35c-2.302,0-4.554-1.859-5.874-3.744c3.245-1.235,6.76-1.996,9.715-1.729
				c0.039,0.139,0.09,0.276,0.161,0.409c0.516,0.954,1.706,1.308,2.659,0.792c0.953-0.515,1.307-1.705,0.792-2.658
				c-0.515-0.953-1.706-1.308-2.659-0.793c-0.304,0.165-0.539,0.402-0.712,0.674c-1.913-0.184-4.013,0.009-6.134,0.474
				c0.128-2.095,1.186-3.72,2.819-4.982c0.584,0.38,1.346,0.444,2.001,0.09c0.953-0.516,1.309-1.706,0.792-2.659
				c-0.516-0.953-1.706-1.308-2.659-0.792c-0.746,0.403-1.117,1.219-1.001,2.011c-2.178,1.653-3.584,3.898-3.571,6.738
				c-3.842,1.076-7.581,2.921-10.145,4.846c-0.09,0.067-0.157,0.146-0.21,0.229c-5.127-1.159-10.383-1.753-15.62-1.774
				C106.917,18.825,106.917,20.42,107.947,20.425z"/>
			<path fill="#E75244" d="M20.424,83.473c0.011-2.676,0.188-5.34,0.499-7.981c3.117,0.356,7.001,0.175,10.647-0.646
				c1.331,2.512,3.638,3.82,6.336,4.237c0.272,0.754,0.989,1.296,1.838,1.296c1.084,0,1.961-0.877,1.961-1.961
				c0-1.083-0.877-1.961-1.961-1.961c-0.747,0-1.388,0.421-1.719,1.035c-2.042-0.332-3.744-1.271-4.854-3.052
				c2.086-0.596,4.023-1.422,5.623-2.496c0.283,0.159,0.604,0.256,0.95,0.256c1.084,0,1.961-0.878,1.961-1.961
				c0-1.084-0.877-1.962-1.961-1.962c-1.083,0-1.962,0.878-1.962,1.962c0,0.152,0.021,0.298,0.054,0.439
				c-2.47,1.643-5.934,2.656-9.373,3.117c0.25-2.223,1.353-5.076,3.358-6.145c0.359,0.458,0.912,0.758,1.539,0.758
				c1.084,0,1.962-0.878,1.962-1.961c0-1.084-0.878-1.962-1.962-1.962c-0.973,0-1.776,0.711-1.929,1.641
				c-2.803,1.299-4.348,4.815-4.588,7.847c-2.061,0.175-4.038,0.152-5.72-0.049c0.692-4.903,1.906-9.707,3.634-14.315
				c1.265,0.169,2.67,0.247,4.148,0.225c1.314,2.638,3.675,3.995,6.441,4.422c0.272,0.755,0.989,1.298,1.838,1.298
				c1.084,0,1.962-0.878,1.962-1.962c0-1.084-0.878-1.962-1.962-1.962c-0.747,0-1.388,0.422-1.719,1.035
				c-1.987-0.323-3.658-1.213-4.77-2.9c4.396-0.295,9.115-1.452,12.388-3.648c0.283,0.158,0.604,0.255,0.95,0.255
				c1.084,0,1.962-0.878,1.962-1.962s-0.878-1.962-1.962-1.962c-1.083,0-1.961,0.878-1.961,1.962c0,0.152,0.021,0.298,0.053,0.441
				c-2.133,1.418-5.006,2.369-7.971,2.898c0.718-2.17,2.359-4.633,4.558-5.283c0.262,0.505,0.732,0.898,1.333,1.024
				c1.061,0.222,2.1-0.458,2.322-1.518c0.222-1.062-0.458-2.1-1.518-2.323c-0.938-0.196-1.857,0.313-2.211,1.167
				c-3.148,0.69-5.501,4.253-6.223,7.195c-2.537,0.314-5.025,0.33-7.066,0.079c1.477-3.663,3.286-7.191,5.422-10.536
				c3.126,0.365,7.038,0.188,10.707-0.639c1.332,2.511,3.638,3.819,6.335,4.237c0.273,0.755,0.989,1.297,1.838,1.297
				c1.083,0,1.962-0.878,1.962-1.962c0-1.083-0.878-1.961-1.962-1.961c-0.746,0-1.387,0.421-1.718,1.035
				c-2.042-0.332-3.744-1.271-4.855-3.052c2.086-0.596,4.025-1.422,5.624-2.495c0.282,0.158,0.603,0.255,0.95,0.255
				c1.083,0,1.962-0.878,1.962-1.962s-0.878-1.962-1.962-1.962c-1.084,0-1.961,0.878-1.961,1.962c0,0.152,0.021,0.298,0.054,0.44
				c-2.47,1.642-5.934,2.656-9.374,3.117c0.25-2.222,1.353-5.076,3.358-6.145c0.359,0.458,0.912,0.759,1.539,0.759
				c1.084,0,1.961-0.878,1.961-1.962s-0.877-1.961-1.961-1.961c-0.974,0-1.775,0.711-1.929,1.641
				c-2.803,1.299-4.347,4.816-4.588,7.847c-1.771,0.15-3.484,0.157-4.999,0.028c1.481-2.181,3.092-4.286,4.859-6.283
				c2.492-2.817,5.217-5.316,8.127-7.52c0.014,0.011,0.023,0.021,0.038,0.032c1.095,0.728,2.394,1.433,3.805,2.075
				c0.086,2.93,1.616,5.176,3.944,6.743c-0.072,0.797,0.345,1.59,1.109,1.951c0.981,0.463,2.149,0.044,2.612-0.937
				c0.462-0.98,0.043-2.149-0.937-2.612c-0.673-0.317-1.429-0.211-1.99,0.198c-1.647-1.134-2.8-2.637-3.08-4.639
				c4.098,1.606,8.873,2.571,12.762,1.977c0.188,0.262,0.435,0.485,0.747,0.632c0.98,0.462,2.148,0.042,2.611-0.938
				c0.463-0.98,0.043-2.149-0.937-2.611c-0.98-0.462-2.149-0.043-2.611,0.937c-0.063,0.134-0.107,0.271-0.138,0.411
				c-2.543,0.364-5.531-0.002-8.427-0.785c1.594-1.646,4.097-3.177,6.356-2.82c0.02,0.57,0.278,1.128,0.77,1.499
				c0.864,0.654,2.093,0.482,2.747-0.382c0.654-0.864,0.482-2.094-0.382-2.748c-0.773-0.585-1.836-0.505-2.521,0.136
				c-3.156-0.685-6.705,1.421-8.656,3.811c-2.419-0.795-4.678-1.84-6.445-2.94c3.918-2.789,8.148-5.062,12.587-6.868
				c0.032,0.099,0.081,0.197,0.159,0.29c2.25,2.682,5.44,4.671,8.426,6.42c0.154,0.089,0.316,0.18,0.473,0.271
				c-0.775,2.904,0.066,5.496,1.892,7.685c-0.293,0.746-0.113,1.626,0.522,2.187c0.814,0.715,2.053,0.637,2.77-0.177
				c0.716-0.813,0.637-2.052-0.176-2.768c-0.558-0.492-1.314-0.601-1.966-0.363c-1.364-1.667-2.03-3.562-1.577-5.757
				c1.821,0.958,3.801,1.783,5.806,2.09c0.106,0.311,0.285,0.601,0.549,0.834c0.814,0.717,2.053,0.637,2.768-0.176
				c0.716-0.814,0.638-2.052-0.176-2.769c-0.813-0.715-2.053-0.637-2.768,0.177c-0.1,0.113-0.181,0.235-0.25,0.363
				c-2.961-0.405-6.251-1.957-9.155-3.907c1.688-1.645,4.448-3.149,6.818-2.625c-0.096,0.637,0.121,1.308,0.641,1.766
				c0.813,0.716,2.052,0.637,2.769-0.176c0.716-0.813,0.637-2.053-0.176-2.769c-0.649-0.571-1.562-0.628-2.271-0.219
				c-3.123-1.066-6.924,0.834-9.102,3.09c-1.762-1.311-3.313-2.726-4.472-4.06c5.225-1.981,10.716-3.327,16.307-4.114
				c0.721,1.015,1.554,1.964,2.458,2.854c-1.129,2.819-0.544,5.457,1.008,7.836c-0.384,0.71-0.309,1.611,0.263,2.244
				c0.726,0.804,1.966,0.867,2.771,0.141c0.804-0.726,0.868-1.966,0.141-2.771c-0.501-0.554-1.244-0.747-1.922-0.581
				c-1.126-1.754-1.546-3.636-0.976-5.667c0.974,0.858,1.99,1.662,2.997,2.417c2.353,1.769,5.021,3.71,7.946,4.506
				c0.072,0.318,0.215,0.624,0.449,0.884c0.727,0.804,1.966,0.866,2.771,0.14c0.804-0.727,0.867-1.966,0.14-2.77
				c-0.727-0.805-1.966-0.868-2.77-0.141c-0.11,0.1-0.203,0.209-0.286,0.326c-2.474-0.693-4.785-2.38-6.782-3.824
				c-0.127-0.092-0.256-0.189-0.384-0.283c2.069-0.828,4.766-1.132,6.636,0.001c-0.194,0.529-0.168,1.135,0.14,1.66
				c0.546,0.937,1.747,1.251,2.683,0.706c0.936-0.546,1.251-1.748,0.706-2.683c-0.484-0.829-1.48-1.168-2.352-0.857
				c-2.551-1.826-6.545-1.255-9.254,0.078c-1.667-1.316-3.295-2.798-4.585-4.449c3.299-0.392,6.627-0.596,9.949-0.619
				c0.027,0,0.044-0.012,0.07-0.015c1.565-0.004,3.278,0.03,5.034,0.153c0.241,3.137,1.911,6.886,4.928,8.088
				c0.273,0.774,1.011,1.327,1.878,1.312c1.083-0.021,1.945-0.915,1.925-1.998c-0.021-1.084-0.914-1.945-1.998-1.925
				c-0.707,0.013-1.315,0.402-1.649,0.97c-2.082-1.085-3.246-4.066-3.478-6.306c3.467,0.363,6.926,1.155,9.504,2.795
				c-0.029,0.142-0.047,0.288-0.044,0.44c0.02,1.083,0.913,1.944,1.997,1.925c1.083-0.021,1.945-0.915,1.924-1.998
				c-0.02-1.083-0.913-1.945-1.997-1.925c-0.351,0.006-0.673,0.112-0.955,0.279c-1.659-1.053-3.617-1.793-5.711-2.302
				c1.076-1.855,2.778-2.861,4.847-3.237c0.343,0.608,0.991,1.018,1.74,1.004c1.083-0.02,1.944-0.914,1.924-1.998
				c-0.02-1.083-0.915-1.945-1.998-1.925c-0.85,0.016-1.556,0.572-1.814,1.333c-2.733,0.476-5.052,1.852-6.321,4.476
				c-3.893-0.726-8.04-0.793-11.354-0.744c1.155-1.989,2.751-3.747,4.375-5.384c2.838,1.047,6.794,1.092,9.14-0.969
				c0.908,0.227,1.874-0.219,2.267-1.104c0.439-0.991-0.007-2.149-0.998-2.588c-0.99-0.439-2.148,0.007-2.588,0.998
				c-0.251,0.565-0.206,1.179,0.056,1.688c-1.709,1.336-4.452,1.287-6.599,0.707c1.886-1.842,4.144-3.87,6.656-4.875
				c0.095,0.108,0.201,0.209,0.323,0.298c0.88,0.632,2.105,0.433,2.738-0.447c0.633-0.879,0.432-2.104-0.447-2.737
				c-0.88-0.633-2.105-0.434-2.738,0.446c-0.203,0.282-0.312,0.601-0.348,0.924c-2.496,0.986-4.695,2.906-6.634,4.641
				c-1.177,1.055-2.378,2.207-3.494,3.439c-0.81-1.965-0.545-3.866,0.372-5.722c0.689,0.085,1.401-0.189,1.835-0.792
				c0.633-0.881,0.433-2.106-0.447-2.739c-0.88-0.633-2.105-0.433-2.738,0.447c-0.497,0.689-0.474,1.588-0.02,2.25
				c-1.288,2.543-1.511,5.215-0.141,7.881c-0.915,1.135-1.733,2.331-2.367,3.587c-0.024,0.046-0.023,0.091-0.038,0.137
				c-2.676,0.114-5.337,0.347-7.97,0.7c-0.098-0.003-0.197,0.011-0.291,0.041c-3.52,0.485-6.99,1.189-10.378,2.128
				c0.661-1.605,1.6-3.119,2.601-4.562c2.893,1.23,6.903,1.526,9.375-0.551c0.814,0.127,1.65-0.262,2.046-1.034
				c0.494-0.964,0.114-2.147-0.851-2.641c-0.965-0.495-2.146-0.114-2.641,0.85c-0.32,0.625-0.268,1.337,0.066,1.898
				c-1.911,1.295-4.953,0.975-7.053,0.153c0.139-0.19,0.277-0.381,0.415-0.569c1.663-2.267,3.812-5.043,6.396-6.546
				c0.112,0.095,0.235,0.183,0.373,0.254c0.963,0.495,2.146,0.114,2.641-0.851c0.494-0.964,0.113-2.145-0.851-2.64
				c-0.964-0.495-2.146-0.114-2.641,0.85c-0.162,0.315-0.221,0.653-0.206,0.983c-1.76,1.029-3.272,2.526-4.622,4.086
				c-1.21-1.883-1.331-3.888-0.668-5.955c0.699-0.014,1.367-0.392,1.708-1.058c0.495-0.964,0.114-2.145-0.851-2.64
				c-0.964-0.496-2.146-0.115-2.64,0.849c-0.39,0.761-0.23,1.649,0.324,2.238c-0.886,2.702-0.771,5.406,1.054,7.84
				c-0.107,0.131-0.218,0.263-0.323,0.393c-2.213,2.721-4.442,5.831-5.553,9.193c-0.001,0.005,0,0.008-0.001,0.012
				c-4.211,1.288-8.285,2.947-12.161,5.006c-0.251-1.991-0.261-4.385,0.002-6.826c2.931-0.774,6.46-3.172,7.099-6.333
				c0.847-0.367,1.342-1.293,1.132-2.227c-0.239-1.057-1.288-1.721-2.346-1.482c-1.057,0.238-1.721,1.288-1.482,2.344
				c0.135,0.6,0.534,1.063,1.042,1.317c-0.62,2.211-3.048,3.89-5.21,4.639c0.482-2.973,1.386-5.861,2.774-8.014
				c0.142,0.03,0.29,0.05,0.442,0.048c1.084-0.017,1.948-0.908,1.931-1.992c-0.016-1.084-0.907-1.948-1.991-1.932
				c-1.083,0.017-1.948,0.908-1.932,1.991c0.006,0.348,0.108,0.668,0.271,0.948c-2.144,3.309-3.232,8.042-3.46,12.44
				c-1.702-1.085-2.621-2.742-2.974-4.723c0.609-0.34,1.021-0.988,1.01-1.735c-0.017-1.084-0.908-1.949-1.991-1.932
				c-1.083,0.016-1.948,0.908-1.932,1.992c0.013,0.849,0.567,1.558,1.328,1.819c0.471,2.757,1.856,5.098,4.516,6.37
				c0.002,1.462,0.098,2.852,0.284,4.104c-4.971,2.811-9.595,6.306-13.742,10.542c-0.498-1.678-0.863-3.688-1.039-5.809
				c2.887-0.716,6.208-2.867,6.991-5.836c0.871-0.318,1.419-1.218,1.26-2.164c-0.18-1.068-1.192-1.789-2.261-1.608
				c-1.069,0.18-1.789,1.191-1.608,2.26c0.103,0.607,0.479,1.095,0.976,1.375c-0.728,2.166-3.262,3.704-5.453,4.342
				c-0.117-3.462,0.304-7.027,1.506-9.753c0.142,0.007,0.285,0.003,0.431-0.021c1.069-0.18,1.788-1.192,1.608-2.261
				c-0.18-1.068-1.192-1.789-2.26-1.608c-1.069,0.18-1.789,1.192-1.608,2.261c0.057,0.34,0.206,0.638,0.406,0.89
				c-0.794,1.75-1.289,3.802-1.531,5.962c-1.946-0.788-3.137-2.337-3.801-4.281c0.546-0.43,0.852-1.13,0.729-1.862
				c-0.18-1.069-1.192-1.789-2.261-1.609c-1.068,0.181-1.789,1.192-1.608,2.26c0.141,0.836,0.791,1.451,1.578,1.597
				c0.854,2.596,2.557,4.633,5.228,5.539c-0.222,4.008,0.327,8.173,1.321,11.236c0.047,0.145,0.126,0.25,0.217,0.336
				c-2.975,3.218-5.551,6.75-7.742,10.507c-0.881-1.786-1.66-3.967-2.213-6.261c2.563-1.811,4.917-5.105,4.495-8.317
				c0.705-0.628,0.875-1.688,0.353-2.51c-0.581-0.915-1.793-1.186-2.708-0.604c-0.914,0.581-1.185,1.792-0.603,2.708
				c0.333,0.524,0.873,0.828,1.445,0.89c0.171,2.274-1.595,4.7-3.346,6.118c-0.543-2.946-0.662-5.953-0.093-8.475
				c0.141-0.02,0.28-0.052,0.418-0.104c1.015-0.381,1.527-1.512,1.146-2.526c-0.382-1.015-1.513-1.527-2.527-1.145
				c-1.014,0.381-1.527,1.512-1.145,2.526c0.121,0.322,0.323,0.586,0.567,0.794c-0.911,3.811-0.322,8.665,0.951,12.889
				c-1.979-0.429-3.387-1.728-4.385-3.453c0.453-0.525,0.619-1.271,0.357-1.967c-0.381-1.014-1.512-1.527-2.526-1.146
				c-1.014,0.382-1.526,1.513-1.145,2.527c0.298,0.795,1.057,1.273,1.859,1.264c1.37,2.459,3.5,4.125,6.399,4.461
				c0.526,1.467,1.124,2.822,1.758,3.974c-2.634,4.844-4.625,10.035-5.998,15.39c-0.892-1.335-1.76-2.945-2.518-4.68
				c2.505-1.641,4.955-4.707,4.734-7.778c0.722-0.583,0.951-1.611,0.494-2.457c-0.516-0.954-1.706-1.308-2.659-0.792
				c-0.953,0.515-1.308,1.706-0.792,2.659c0.289,0.535,0.795,0.874,1.35,0.983c0,2.303-1.859,4.555-3.744,5.874
				c-1.235-3.245-1.996-6.759-1.729-9.716c0.139-0.038,0.276-0.09,0.409-0.161c0.954-0.515,1.308-1.706,0.792-2.659
				c-0.516-0.954-1.706-1.308-2.659-0.792c-0.953,0.515-1.308,1.706-0.792,2.659c0.164,0.303,0.401,0.539,0.674,0.711
				c-0.184,1.914,0.009,4.013,0.475,6.134c-2.096-0.128-3.721-1.186-4.982-2.819c0.379-0.583,0.444-1.345,0.089-2.001
				c-0.515-0.954-1.706-1.308-2.659-0.793c-0.953,0.517-1.308,1.707-0.793,2.66c0.404,0.745,1.22,1.117,2.013,1
				c1.652,2.179,3.898,3.585,6.737,3.571c1.076,3.842,2.92,7.582,4.846,10.145c0.068,0.091,0.146,0.158,0.229,0.211
				c-1.159,5.126-1.754,10.382-1.774,15.62C18.825,84.502,20.421,84.502,20.424,83.473z"/>
		</g>
		<g>
			<g>
				<path fill="#EFEEEE" d="M73.017,43.797c-0.192-3.905-5.484-10.578-8.935-12.417c-3.45-1.838-8.229-1.159-10.609,1.943
					c-2.944,3.836-1.485,9.387,0.633,13.734c0.895,1.838,5.22,10.168,5.22,10.168"/>
			</g>
			<g>
				<path fill="#F1B7B3" d="M69.885,43.918c-0.137-2.843-3.921-7.702-6.388-9.041c-2.467-1.338-5.883-0.844-7.585,1.415
					c-2.104,2.793-1.062,6.834,0.453,10c0.64,1.338,3.731,7.404,3.731,7.404"/>
			</g>
			<g>
				<path fill="#EFEEEE" d="M116.331,44.98c-0.263-3.32,3.726-14.903,13.853-17.334c5.349-1.285,11.925,5.541,10.626,10.886
					c-1.3,5.345-8.415,13.488-13.896,13.963"/>
			</g>
			<g>
				<path fill="#F1B7B3" d="M117.561,47.3c0,0,2.388-9.899,10.335-14.34c3.605-2.015,8.656,1.249,7.686,5.671
					c-0.969,4.422-8.355,11.335-12.444,11.728"/>
			</g>
			<g>
				<path fill="#E0A7A4" d="M69.885,43.918c0,0-0.033-0.115-0.094-0.331c-0.048-0.224-0.191-0.515-0.349-0.88
					c-0.176-0.367-0.417-0.794-0.721-1.267c-0.299-0.475-0.685-0.981-1.104-1.526c-0.865-1.069-1.959-2.269-3.245-3.321
					c-0.322-0.255-0.656-0.502-0.995-0.701l-0.253-0.14l-0.063-0.035l-0.008-0.004c0.031,0.015-0.081-0.04,0.067,0.032l-0.02-0.008
					l-0.04-0.016L62.9,35.658l-0.642-0.266c-0.216-0.089-0.365-0.078-0.548-0.128c-0.177-0.033-0.337-0.096-0.548-0.09l-0.599-0.035
					c-0.2-0.011-0.398,0.037-0.596,0.05c-0.406-0.003-0.779,0.143-1.168,0.221c-0.188,0.058-0.357,0.155-0.538,0.228
					c-0.182,0.073-0.361,0.148-0.507,0.271l-0.471,0.319c-0.142,0.121-0.264,0.261-0.401,0.387l-0.202,0.192l-0.025,0.024
					c0.009-0.015-0.04,0.051,0.018-0.031l-0.013,0.018l-0.049,0.069l-0.099,0.137l-0.197,0.273
					c-0.055,0.084-0.084,0.151-0.128,0.227c-0.339,0.603-0.59,1.357-0.688,2.075c-0.098,0.728-0.103,1.453-0.059,2.129
					c0.122,1.351,0.378,2.501,0.583,3.3c0.217,0.804,0.341,1.263,0.341,1.263s-0.066-0.1-0.191-0.286
					c-0.125-0.187-0.31-0.461-0.519-0.828c-0.417-0.73-0.969-1.816-1.347-3.259c-0.18-0.723-0.32-1.538-0.298-2.431
					c0.02-0.898,0.161-1.845,0.637-2.818c0.059-0.12,0.122-0.256,0.182-0.363l0.176-0.287l0.088-0.145l0.044-0.072l0.011-0.018
					l0.046-0.062l0.032-0.038l0.263-0.306c0.18-0.201,0.354-0.416,0.55-0.605l0.662-0.484c0.216-0.175,0.461-0.294,0.711-0.406
					c0.249-0.112,0.494-0.246,0.751-0.335c0.526-0.136,1.05-0.33,1.597-0.348c0.272-0.014,0.544-0.06,0.815-0.043l0.812,0.066
					c0.524,0.049,1.156,0.241,1.634,0.399l0.634,0.285l0.156,0.074l0.155,0.078l0.084,0.054l0.332,0.218
					c0.426,0.297,0.796,0.617,1.145,0.939c0.694,0.645,1.256,1.343,1.763,2.018c0.515,0.668,0.922,1.355,1.278,1.995
					c0.705,1.286,1.103,2.461,1.248,3.305c0.073,0.427,0.096,0.768,0.079,0.987C69.889,43.798,69.885,43.918,69.885,43.918z"/>
			</g>
			<g>
				<path fill="#E0A7A4" d="M117.561,47.3c0,0,0.115-1.923,1.115-4.632c0.257-0.671,0.547-1.399,0.924-2.138
					c0.375-0.738,0.779-1.522,1.298-2.272c0.241-0.387,0.511-0.765,0.799-1.138c0.279-0.38,0.565-0.764,0.903-1.11
					c0.631-0.73,1.353-1.405,2.096-2.055l1.186-0.889c0.421-0.258,0.84-0.515,1.256-0.771l0.156-0.095l0.078-0.047l0.039-0.023
					l0.107-0.055l0.314-0.14l0.316-0.131c0.11-0.043,0.275-0.081,0.41-0.119c0.583-0.172,1.093-0.204,1.611-0.206
					c1.037-0.001,1.995,0.312,2.786,0.76c0.796,0.442,1.45,1.014,1.91,1.648c0.461,0.628,0.772,1.28,0.9,1.889
					c0.085,0.298,0.132,0.581,0.131,0.849c0.026,0.263,0.021,0.502-0.014,0.717c-0.02,0.431-0.135,0.749-0.202,0.963
					c-0.065,0.212-0.1,0.326-0.1,0.326s-0.002-0.119-0.007-0.342c0.002-0.221-0.008-0.54-0.088-0.932
					c-0.02-0.197-0.073-0.408-0.159-0.629c-0.035-0.11-0.072-0.225-0.11-0.344c-0.055-0.112-0.112-0.228-0.171-0.348
					c-0.22-0.48-0.599-0.948-1.041-1.39c-0.456-0.438-1.051-0.788-1.694-1.061c-0.649-0.268-1.387-0.39-2.111-0.345
					c-0.356,0.027-0.745,0.093-1.022,0.203c-0.081,0.029-0.142,0.032-0.24,0.079l-0.306,0.154l-0.311,0.147l-0.02,0.009
					c-0.018,0.009,0.123-0.062,0.06-0.03l-0.009,0.006l-0.034,0.022l-0.068,0.044l-0.137,0.089
					c-0.365,0.236-0.733,0.474-1.103,0.713l-1.042,0.822c-0.681,0.568-1.349,1.159-1.941,1.812c-0.31,0.312-0.595,0.645-0.88,0.973
					c-0.291,0.322-0.567,0.652-0.817,0.995c-1.043,1.337-1.912,2.685-2.619,3.876c-0.337,0.608-0.646,1.165-0.92,1.659
					c-0.258,0.504-0.495,0.944-0.671,1.314C117.753,46.864,117.561,47.3,117.561,47.3z"/>
			</g>
			<g>
				<path fill="#FFFFFF" d="M34.944,131.531l4.502,3.967c-1.237-1.462-2.42-2.969-3.545-4.521
					C35.583,131.163,35.267,131.354,34.944,131.531z"/>
			</g>
			<path fill="#E04326" d="M56.172,150.237l-16.726-14.739C44.262,141.189,49.897,146.164,56.172,150.237z"/>
			<path fill="#F4F4F4" d="M141.78,148.186c9.61-6.884,17.659-15.945,23.189-26.47c-11.101-1.453-19.604-15.993-20.845-27.125
				c-1.244-11.166,0.555-22.838-3.231-33.417c-6.534-18.261-28.074-27.296-47.449-26.408c-15.318,0.701-31.701,7.538-38.042,21.5
				c-7.501,16.518,1.407,36.339-3.439,53.821c-2.406,8.678-8.307,16.32-16.062,20.891c0,2.021,5.363,6.633,6.746,8.075
				c2.552,2.658,5.295,5.131,8.201,7.396c5.551,4.324,11.712,7.834,18.246,10.444c13.352,5.333,28.216,6.938,42.367,4.308
				C122.413,159.166,132.782,154.63,141.78,148.186z"/>
			<g>
				<path fill="#CECDCE" d="M55.402,56.265c0,0-0.391,1.212-1.076,3.333c-0.123,0.539-0.258,1.135-0.406,1.784
					c-0.145,0.648-0.329,1.336-0.403,2.107c-0.102,0.76-0.21,1.569-0.324,2.422c-0.057,0.858-0.117,1.761-0.18,2.703
					c-0.074,1.886-0.083,3.931,0.012,6.098c0.073,2.166,0.267,4.449,0.455,6.818c0.186,2.368,0.449,4.82,0.627,7.326
					c0.191,2.506,0.321,5.067,0.379,7.64c-0.02,1.289-0.033,2.579-0.086,3.863c-0.118,1.286-0.149,2.57-0.339,3.836
					c-0.21,1.262-0.303,2.53-0.653,3.745c-0.148,0.61-0.296,1.218-0.442,1.82l-0.11,0.451l-0.027,0.112l-0.05,0.149l-0.074,0.213
					l-0.294,0.849c-0.388,1.124-0.743,2.237-1.303,3.312c-0.253,0.537-0.504,1.069-0.752,1.594
					c-0.246,0.525-0.569,0.989-0.844,1.477c-0.572,0.958-1.1,1.906-1.761,2.726c-0.646,0.825-1.182,1.688-1.867,2.382
					c-0.656,0.715-1.258,1.421-1.875,2.049c-0.656,0.588-1.278,1.146-1.863,1.669c-0.563,0.546-1.18,0.951-1.719,1.358
					c-0.544,0.4-1.043,0.768-1.495,1.101c-0.946,0.6-1.726,1.013-2.237,1.319c-0.517,0.297-0.792,0.456-0.792,0.456
					s1.018-0.76,2.799-2.089c0.415-0.366,0.875-0.772,1.375-1.214c0.494-0.447,1.059-0.893,1.563-1.478
					c0.523-0.56,1.08-1.154,1.668-1.782c0.534-0.67,1.096-1.375,1.683-2.11c0.619-0.707,1.083-1.581,1.653-2.411
					c0.586-0.823,1.06-1.754,1.562-2.699c0.241-0.476,0.536-0.939,0.74-1.441c0.208-0.499,0.419-1.005,0.632-1.517
					c0.199-0.521,0.46-0.997,0.626-1.565c0.177-0.559,0.355-1.122,0.535-1.69c0.704-2.189,1.096-4.592,1.405-7.015
					c0.171-1.212,0.188-2.459,0.292-3.697c0.042-1.245,0.039-2.501,0.051-3.754c-0.034-2.515-0.138-5.035-0.305-7.525
					c-0.155-2.499-0.307-4.958-0.454-7.338c-0.142-2.388-0.214-4.71-0.19-6.915c-0.01-2.204,0.134-4.296,0.336-6.212
					c0.129-0.956,0.252-1.872,0.37-2.744c0.193-0.858,0.375-1.673,0.547-2.438c0.143-0.768,0.396-1.466,0.601-2.113
					c0.208-0.644,0.399-1.235,0.572-1.77c0.418-1.033,0.816-1.815,1.056-2.362C55.269,56.554,55.402,56.265,55.402,56.265z"/>
			</g>
			<g>
				<path fill="#CECDCE" d="M164.969,121.716c0,0-0.272-0.037-0.782-0.105c-0.508-0.087-1.266-0.105-2.189-0.438
					c-0.958-0.233-2.038-0.713-3.269-1.3c-0.587-0.348-1.211-0.717-1.87-1.105c-0.612-0.454-1.269-0.927-1.919-1.458
					c-1.265-1.101-2.586-2.368-3.778-3.88c-0.3-0.377-0.605-0.758-0.913-1.144c-0.283-0.404-0.569-0.813-0.858-1.227
					c-0.605-0.813-1.093-1.724-1.635-2.623c-1.006-1.838-1.984-3.785-2.706-5.875c-0.771-2.069-1.348-4.252-1.715-6.483
					c-0.075-0.569-0.18-1.1-0.224-1.7l-0.124-1.634c-0.073-1.092-0.19-2.162-0.204-3.262c-0.094-2.192-0.095-4.331-0.091-6.38
					c-0.001-2.049-0.002-4.029-0.002-5.907c-0.064-1.866-0.028-3.644-0.175-5.263c-0.052-0.814-0.101-1.594-0.148-2.336
					c-0.058-0.741-0.176-1.434-0.254-2.092c-0.168-1.315-0.296-2.472-0.563-3.388c-0.433-1.857-0.658-2.941-0.658-2.941
					s0.39,1.019,1.034,2.84c0.365,0.901,0.613,2.044,0.92,3.355c0.146,0.657,0.339,1.353,0.475,2.096
					c0.107,0.747,0.22,1.533,0.337,2.353c0.276,1.643,0.372,3.428,0.523,5.32c0.117,1.886,0.206,3.881,0.271,5.93
					c0.035,1.024,0.07,2.066,0.106,3.12c0.049,1.041,0.1,2.095,0.151,3.157c0.021,1.057,0.152,2.148,0.236,3.233l0.141,1.633
					c0.038,0.492,0.152,1.037,0.221,1.553c0.322,2.092,0.845,4.17,1.559,6.149c0.678,1.992,1.513,3.896,2.432,5.683
					c0.487,0.877,0.94,1.758,1.468,2.566c0.255,0.411,0.508,0.817,0.758,1.219c0.274,0.384,0.546,0.764,0.813,1.138
					c1.074,1.498,2.237,2.795,3.367,3.94c0.579,0.556,1.18,1.036,1.721,1.535c0.591,0.437,1.151,0.85,1.677,1.238
					c1.117,0.68,2.118,1.254,3.005,1.567c0.856,0.402,1.609,0.559,2.1,0.703C164.705,121.643,164.969,121.716,164.969,121.716z"/>
			</g>
			<g>
				<path fill="#201A1B" d="M78.407,65.964c1.166,0.304,1.64,2.024,0.794,2.883c-0.847,0.858-2.574,0.408-2.893-0.754
					C75.988,66.931,77.241,65.66,78.407,65.964"/>
			</g>
			<g>
				<path fill="#201A1B" d="M115.096,65.964c1.166,0.304,1.64,2.024,0.793,2.883c-0.846,0.858-2.573,0.408-2.893-0.754
					C112.676,66.931,113.93,65.66,115.096,65.964"/>
			</g>
			<g>
				<g>
					<path fill="#888989" d="M98.252,92.383c0.298,5.636,0.396,11.281,0.694,16.916c0.025,0.481,0.776,0.484,0.75,0
						c-0.298-5.636-0.397-11.281-0.694-16.916C98.976,91.902,98.226,91.9,98.252,92.383L98.252,92.383z"/>
				</g>
			</g>
			<g>
				<path fill="#FBE3E1" d="M129.278,83.425c-2.382-2.651-7.258-1.007-8.737,2.235c-1.692,3.709,0.398,8.691,4.272,9.958
					c3.874,1.268,8.579-1.656,9.032-5.707c0.453-4.051-3.652-7.977-7.657-7.222"/>
			</g>
			<g>
				<path fill="#FBE3E1" d="M73.342,83.425c-2.381-2.651-7.257-1.007-8.736,2.235c-1.692,3.709,0.397,8.691,4.272,9.958
					c3.874,1.268,8.579-1.656,9.032-5.707c0.452-4.051-3.653-7.977-7.658-7.222"/>
			</g>
			<path fill="#E9E9E9" d="M50.848,146.448c11.113,7.278,32.998,16.023,46.712,16.023c18.604,0,35.646-7.658,48.868-20.37
				c-9.163-7.957-36.461-16.082-48.173-16.18C81.875,125.788,60.271,133.995,50.848,146.448z"/>
			<g>
				<g>
					<path fill="#888989" d="M68.122,61.648c3.253-6.509,12.179-8.543,17.881-3.955c0.373,0.3,0.907-0.227,0.53-0.53
						c-6.049-4.867-15.572-2.872-19.059,4.107C67.259,61.701,67.906,62.081,68.122,61.648L68.122,61.648z"/>
				</g>
			</g>
			<g>
				<g>
					<path fill="#888989" d="M106.779,58.828c5.064-5.252,14.153-4.503,18.244,1.565c0.269,0.399,0.919,0.024,0.648-0.379
						c-4.35-6.451-14.009-7.332-19.422-1.717C105.913,58.646,106.442,59.177,106.779,58.828L106.779,58.828z"/>
				</g>
			</g>
			<g>
				<path fill="#201A1B" d="M99.784,107.659c1.166,0.304,1.64,2.024,0.793,2.882c-0.846,0.858-2.573,0.407-2.893-0.754
					C97.365,108.626,98.618,107.355,99.784,107.659"/>
			</g>
			<g>
				<path fill="#DDDDDE" d="M62.494,110.817c0,0,1.217,0.437,3.298,1.289c0.521,0.206,1.089,0.471,1.726,0.69
					c0.643,0.2,1.318,0.447,2.044,0.695c0.72,0.249,1.486,0.514,2.293,0.793c0.825,0.237,1.691,0.488,2.596,0.749
					c0.908,0.245,1.83,0.559,2.816,0.775c0.983,0.217,2,0.441,3.045,0.673c0.522,0.108,1.042,0.252,1.58,0.352
					c0.541,0.085,1.087,0.172,1.64,0.259c1.107,0.158,2.222,0.394,3.369,0.539c2.31,0.202,4.67,0.54,7.096,0.561
					c1.209,0.045,2.425,0.134,3.648,0.066c1.189-0.025,2.384-0.051,3.578-0.077c2.522-0.247,5.15-0.39,7.421-0.823
					c2.34-0.288,4.673-0.885,6.939-1.349c1.124-0.271,2.204-0.634,3.287-0.915c0.54-0.148,1.073-0.295,1.601-0.44
					c0.523-0.157,1.023-0.361,1.53-0.527c1.012-0.347,1.997-0.685,2.949-1.011c0.957-0.325,1.838-0.74,2.712-1.085
					c0.87-0.361,1.704-0.707,2.497-1.036c0.776-0.371,1.513-0.723,2.205-1.054c0.697-0.328,1.342-0.652,1.959-0.924
					c0.606-0.288,1.129-0.607,1.622-0.868c1.956-1.067,3.128-1.645,3.128-1.645s-0.895,0.915-2.558,2.46
					c-0.421,0.377-0.868,0.828-1.396,1.262c-0.53,0.43-1.127,0.864-1.756,1.346c-0.634,0.479-1.309,0.989-2.02,1.527
					c-0.732,0.506-1.546,0.966-2.376,1.487c-0.841,0.5-1.694,1.077-2.628,1.572c-0.949,0.473-1.93,0.96-2.937,1.462
					c-0.508,0.246-1.018,0.511-1.551,0.735c-0.539,0.211-1.084,0.426-1.636,0.642c-1.105,0.429-2.236,0.878-3.406,1.273
					c-2.375,0.679-4.795,1.471-7.435,1.882c-2.652,0.598-5.13,0.724-7.679,1.005c-1.356,0.018-2.711,0.037-4.061,0.056
					c-1.319,0.063-2.626-0.103-3.923-0.188c-2.603-0.114-5.12-0.623-7.551-1.035c-1.207-0.26-2.38-0.582-3.527-0.884
					c-0.572-0.152-1.138-0.304-1.698-0.453c-0.555-0.161-1.091-0.37-1.623-0.558c-1.058-0.385-2.087-0.76-3.082-1.122
					c-0.984-0.388-1.896-0.865-2.788-1.267c-0.884-0.425-1.743-0.787-2.529-1.212c-0.773-0.457-1.506-0.89-2.195-1.297
					c-0.683-0.409-1.326-0.776-1.902-1.143c-0.57-0.37-1.054-0.762-1.512-1.087C63.499,111.632,62.494,110.817,62.494,110.817z"/>
			</g>
			<g>
				<path fill="#F1B7B3" d="M104.847,73.873c-3.655-2.076-8.694-1.565-12.417,0c-3.762,1.582-7.069,6.278-4.988,9.737
					c2.572,4.273,8.312,8.774,11.185,8.774c4.218,0,7.463-4.735,9.353-8.774C109.597,80.149,109.935,76.763,104.847,73.873z"/>
			</g>
			<g>
				<path fill="#E0A7A4" d="M87.442,83.609c0,0,0.331,0.305,0.912,0.84c0.288,0.251,0.636,0.555,1.037,0.904
					c0.399,0.346,0.87,0.712,1.368,1.115c0.504,0.397,1.065,0.807,1.654,1.229c0.586,0.428,1.22,0.851,1.874,1.267
					c0.656,0.413,1.342,0.817,2.036,1.156c0.685,0.333,1.418,0.65,1.991,0.732c0.062,0.001,0.123,0.008,0.184,0.015l0.091,0.014
					l0.023,0.003l0.012,0.003c0.094-0.003-0.122,0.005-0.096,0.003l0.01-0.001l0.082-0.005l0.656-0.039
					c0.278-0.072,0.52-0.083,0.865-0.207c0.634-0.216,1.273-0.52,1.865-0.93c0.588-0.412,1.164-0.854,1.672-1.343
					c0.52-0.474,0.997-0.965,1.438-1.427c0.857-0.945,1.567-1.788,2.063-2.387c0.498-0.599,0.8-0.944,0.8-0.944
					s-0.062,0.453-0.27,1.218c-0.102,0.384-0.238,0.847-0.43,1.367c-0.192,0.52-0.427,1.104-0.741,1.719
					c-0.317,0.613-0.676,1.28-1.155,1.936c-0.46,0.667-1.043,1.325-1.729,1.951c-0.688,0.622-1.536,1.186-2.517,1.575
					c-0.459,0.197-1.075,0.352-1.655,0.439l-0.654,0.052l-0.082,0.006l-0.127,0.004l-0.029-0.001l-0.059-0.004l-0.236-0.017
					l-0.472-0.044c-1.164-0.215-2.044-0.657-2.878-1.132c-0.832-0.472-1.562-1.017-2.23-1.577c-1.333-1.124-2.405-2.329-3.199-3.452
					c-0.41-0.548-0.741-1.086-1.01-1.575c-0.284-0.474-0.482-0.93-0.645-1.295c-0.174-0.358-0.242-0.663-0.321-0.86
					C87.476,83.718,87.442,83.609,87.442,83.609z"/>
			</g>
		</g>
	</g>
	<g>
		<path fill="#D7D9D8" d="M109.02,151.015c0.177-0.094,0.324-0.193,0.433-0.3c1.082-1.066-0.632-4.923-2.947-8.305
			c0.369-0.124,0.651-0.267,0.818-0.432c1.555-1.531-4.453-10.61-6.849-10.61s-8.403,9.079-6.848,10.61
			c0.166,0.165,0.449,0.308,0.817,0.432c-2.315,3.382-4.028,7.238-2.946,8.305c0.108,0.107,0.255,0.206,0.432,0.3
			c-2.089,3.542-3.369,7.041-2.274,8.136c1.209,1.209,6.181,1.694,10.819,1.694c4.64,0,9.61-0.485,10.82-1.694
			C112.389,158.056,111.11,154.557,109.02,151.015z"/>
	</g>
</g>
</svg>
