<?xml version="1.0" encoding="utf-8"?>
<!-- Generator: Adobe Illustrator 17.0.0, SVG Export Plug-In . SVG Version: 6.00 Build 0)  -->
<!DOCTYPE svg PUBLIC "-//W3C//DTD SVG 1.1//EN" "http://www.w3.org/Graphics/SVG/1.1/DTD/svg11.dtd">
<svg version="1.1" id="Calque_1" xmlns="http://www.w3.org/2000/svg" xmlns:xlink="http://www.w3.org/1999/xlink" x="0px" y="0px"
	 width="174.598px" height="219.789px" viewBox="0 0 174.598 219.789" enable-background="new 0 0 174.598 219.789"
	 xml:space="preserve">
<g>
	<g>
		<g>
			<path fill="#42B6A1" d="M48.66,31.343c1.893-5.259,7.93-7.177,10.789-12.047c1.222-2.118,2.129-4.182,3.83-6.157
				c2.163-2.498,4.414-3.425,7.355-5.049c-0.38,4.005-5.058,6.665-7.173,9.829c7.281-0.682,9.877-10.511,17.978-12.129
				c-1.686,4.741-6.056,5.847-8.942,9.661c4.703-0.882,6.217-2.381,9.485-5.052c2.944-2.458,6.908-3.276,10.828-2.547
				c-0.923,3.373-8.122,4.104-10.544,6.31c1.476,0.783,4.074,0.81,5.745,0.523c2.244-0.494,2.402-1.514,4.298-2.778
				c2.302-1.764,6.208-2.482,9.26-1.423c-0.907,0.93-1.88,2.201-3.291,2.76c-1.73,0.913-3.884,0.601-5.196,2.217
				c1.656,1.104,3.976,1.398,6.041,1.568c2.891,0.01,2.791-0.848,4.858-2.476c2.527-1.858,6.561-3.181,9.892-1.681
				c-1.506,0.808-2.348,2.209-3.794,3.057c-1.565,0.958-3.478,1.402-5.108,2.107c7.155,3.421,12.841-3.056,23.171,1.552
				c-1.261,1.001-2.978,1.934-4.832,2.228c-2.586,0.416-4.548-0.792-7.197-0.556c1.979,1.355,4.139,2.803,5.48,4.639
				c-5.472,2.121-11.418-4.397-16.377-5.785c1.845,1.376,3.751,3.141,4.872,5.356c-2.485,1.026-5.848-0.859-7.608-2.73
				c-2.586-2.362-3.091-4.563-7.219-5.008c2.079,1.095,3.299,3.404,5.148,4.914c-2.669,0.843-5.439,0.069-7.392-1.868
				c-0.855-0.984-1.237-3.146-2.345-3.865c-1.009-0.852-3.654-0.613-4.871-0.586c2.417,1.418,4.71,2.716,5.962,5.297
				c-5.548,0.692-8.724-5.911-14.428-4.638c2.33,1.84,5.938,2.214,7.485,4.805c-2.608,0.783-6.106-0.097-8.579-1.297
				c-3.538-1.9-6.189-2.681-10.42-1.396c3.185,0.172,5.674,1.4,8.429,2.354c-2.804,2.579-9.402,0.658-13.24,0.988
				c-4.931,0.379-9.906,5.099-12.195,8.934"/>
			<circle fill="#42B6A1" cx="114.271" cy="15.877" r="0.958"/>
			<circle fill="#42B6A1" cx="112.356" cy="26.242" r="0.958"/>
			<circle fill="#42B6A1" cx="100.467" cy="14.919" r="0.958"/>
			<circle fill="#42B6A1" cx="86.539" cy="23.369" r="0.957"/>
			<circle fill="#42B6A1" cx="84.624" cy="5.79" r="0.958"/>
			<circle fill="#42B6A1" cx="55.256" cy="20.496" r="0.958"/>
			<circle fill="#42B6A1" cx="62.08" cy="25.285" r="0.957"/>
		</g>
		<g>
			<path fill="#42B6A1" d="M11.279,97.541c-3.608-4.27-2.25-10.456-5.038-15.367c-1.224-2.117-2.558-3.934-3.418-6.396
				c-1.082-3.122-0.76-5.535-0.696-8.893c3.279,2.332,3.244,7.712,4.926,11.127c3.05-6.648-4.163-13.809-1.514-21.635
				c3.263,3.832,2.034,8.169,3.895,12.575c1.587-4.514,1.045-6.575,0.368-10.74c-0.659-3.778,0.616-7.622,3.208-10.651
				c2.459,2.486-0.507,9.087,0.191,12.287c1.417-0.886,2.739-3.125,3.326-4.715c0.695-2.191-0.109-2.836-0.256-5.109
				c-0.376-2.877,0.954-6.619,3.396-8.733c0.352,1.252,0.967,2.729,0.745,4.231c-0.075,1.956-1.421,3.664-0.679,5.608
				c1.786-0.883,3.199-2.744,4.379-4.448c1.455-2.498,0.662-2.84,0.287-5.444c-0.346-3.118,0.524-7.272,3.489-9.408
				c-0.054,1.71,0.739,3.139,0.751,4.815c0.046,1.834-0.525,3.713-0.729,5.478c6.539-4.487,3.773-12.647,12.927-19.29
				c0.238,1.592,0.188,3.545-0.485,5.298c-0.933,2.447-2.96,3.542-4.079,5.956c2.163-1.037,4.496-2.184,6.757-2.428
				c-0.9,5.799-9.518,7.689-13.2,11.291c2.115-0.91,4.596-1.68,7.074-1.542c-0.351,2.666-3.667,4.635-6.168,5.225
				c-3.34,1.058-5.497,0.395-7.947,3.747c1.987-1.254,4.598-1.154,6.831-2.002c-0.606,2.733-2.661,4.745-5.313,5.468
				c-1.281,0.248-3.344-0.501-4.521,0.098c-1.242,0.448-2.36,2.858-2.942,3.925c2.437-1.384,4.707-2.72,7.568-2.514
				c-2.174,5.15-9.481,4.599-11.229,10.176c2.756-1.098,4.885-4.035,7.904-4.079c-0.628,2.649-3.139,5.237-5.414,6.779
				c-3.415,2.114-5.415,4.02-6.418,8.326c1.742-2.672,4.05-4.213,6.252-6.123c0.831,3.719-4.131,8.472-5.764,11.96
				c-2.137,4.46-0.537,11.13,1.639,15.028"/>
			<circle fill="#42B6A1" cx="30.691" cy="32.986" r="0.957"/>
			<circle fill="#42B6A1" cx="38.71" cy="39.828" r="0.958"/>
			<circle fill="#42B6A1" cx="22.959" cy="44.463" r="0.957"/>
			<circle fill="#42B6A1" cx="23.314" cy="60.749" r="0.957"/>
			<circle fill="#42B6A1" cx="7.132" cy="53.619" r="0.958"/>
			<circle fill="#42B6A1" cx="5.185" cy="86.405" r="0.958"/>
			<circle fill="#42B6A1" cx="12.743" cy="82.89" r="0.958"/>
		</g>
		<g>
			<path fill="#42B6A1" d="M49.917,163.012c-5.5,0.99-10.179-3.278-15.828-3.319c-2.445,0.002-4.685,0.248-7.245-0.238
				c-3.246-0.623-5.174-2.11-8.051-3.844c3.66-1.673,8.3,1.047,12.099,1.298c-4.23-5.966-14.04-3.3-19.493-9.506
				c4.95-0.909,8.091,2.322,12.838,2.914c-3.115-3.632-5.171-4.193-9.118-5.69c-3.601-1.318-6.292-4.343-7.62-8.104
				c3.383-0.886,7.617,4.982,10.736,5.978c-0.059-1.669-1.336-3.934-2.419-5.237c-1.55-1.696-2.512-1.323-4.555-2.333
				c-2.679-1.111-5.254-4.135-5.863-7.308c1.26,0.322,2.847,0.527,4.036,1.472c1.655,1.04,2.463,3.062,4.518,3.392
				c0.127-1.989-0.778-4.143-1.663-6.016c-1.437-2.51-2.129-1.994-4.572-2.972c-2.873-1.259-6.037-4.091-6.403-7.726
				c1.455,0.901,3.088,0.929,4.545,1.758c1.612,0.876,2.954,2.311,4.38,3.371C9.626,112.993,1.173,111.308,0,100.058
				c1.496,0.591,3.163,1.612,4.344,3.071c1.654,2.031,1.587,4.333,3.119,6.511c0.183-2.393,0.357-4.986,1.275-7.066
				c4.571,3.68,1.902,12.088,3.179,17.077c0.27-2.286,0.844-4.819,2.203-6.897c2.132,1.637,2.179,5.493,1.44,7.953
				c-0.754,3.421-2.407,4.959-0.727,8.756c-0.093-2.349,1.299-4.561,1.681-6.917c2.065,1.891,2.78,4.677,2.078,7.336
				c-0.425,1.235-2.106,2.646-2.174,3.963c-0.233,1.301,1.294,3.473,1.928,4.513c0.019-2.803-0.003-5.436,1.606-7.811
				c3.372,4.459-0.758,10.51,3.198,14.812c0.427-2.937-1.053-6.249,0.418-8.885c1.981,1.868,2.969,5.337,3.164,8.079
				c0.123,4.014,0.774,6.699,4.003,9.721c-1.443-2.846-1.625-5.613-2.178-8.475c3.637,1.139,5.272,7.813,7.477,10.972
				c2.793,4.08,9.369,6.029,13.834,6.094"/>
			<circle fill="#42B6A1" cx="3.718" cy="113.924" r="0.958"/>
			<circle fill="#42B6A1" cx="13.653" cy="110.4" r="0.958"/>
			<circle fill="#42B6A1" cx="9.791" cy="126.359" r="0.957"/>
			<circle fill="#42B6A1" cx="24.073" cy="134.194" r="0.958"/>
			<circle fill="#42B6A1" cx="9.807" cy="144.643" r="0.958"/>
			<circle fill="#42B6A1" cx="37.227" cy="162.723" r="0.958"/>
			<circle fill="#42B6A1" cx="37.962" cy="154.419" r="0.957"/>
		</g>
		<g>
			<path fill="#42B6A1" d="M125.937,162.287c-1.893,5.258-7.93,7.176-10.788,12.046c-1.222,2.119-2.128,4.182-3.828,6.156
				c-2.164,2.499-4.415,3.426-7.356,5.05c0.381-4.006,5.058-6.665,7.174-9.829c-7.283,0.681-9.878,10.51-17.979,12.128
				c1.687-4.741,6.057-5.845,8.942-9.66c-4.702,0.882-6.216,2.381-9.485,5.05c-2.943,2.46-6.908,3.278-10.828,2.548
				c0.923-3.372,8.123-4.104,10.546-6.309c-1.478-0.783-4.075-0.811-5.747-0.523c-2.244,0.494-2.401,1.514-4.297,2.778
				c-2.302,1.763-6.208,2.482-9.26,1.424c0.908-0.932,1.88-2.201,3.291-2.761c1.73-0.913,3.884-0.602,5.197-2.216
				c-1.658-1.106-3.977-1.398-6.041-1.568c-2.892-0.012-2.792,0.848-4.858,2.474c-2.528,1.857-6.561,3.183-9.893,1.683
				c1.506-0.809,2.349-2.21,3.795-3.059c1.564-0.958,3.478-1.401,5.109-2.107c-7.156-3.42-12.841,3.058-23.171-1.552
				c1.259-1.001,2.977-1.934,4.831-2.227c2.587-0.417,4.547,0.792,7.197,0.554c-1.979-1.354-4.139-2.8-5.48-4.637
				c5.471-2.12,11.419,4.395,16.377,5.785c-1.843-1.376-3.75-3.14-4.871-5.356c2.485-1.027,5.848,0.859,7.608,2.729
				c2.585,2.363,3.091,4.564,7.218,5.009c-2.079-1.094-3.299-3.405-5.148-4.914c2.669-0.843,5.44-0.07,7.392,1.867
				c0.855,0.985,1.237,3.148,2.345,3.864c1.009,0.853,3.654,0.616,4.87,0.587c-2.416-1.418-4.709-2.715-5.961-5.297
				c5.548-0.69,8.723,5.911,14.428,4.637c-2.329-1.838-5.938-2.213-7.485-4.804c2.608-0.782,6.106,0.098,8.578,1.299
				c3.539,1.899,6.189,2.679,10.42,1.395c-3.185-0.173-5.674-1.4-8.43-2.353c2.806-2.58,9.403-0.658,13.24-0.988
				c4.931-0.379,9.907-5.101,12.196-8.934"/>
			<circle fill="#42B6A1" cx="60.327" cy="177.752" r="0.957"/>
			<circle fill="#42B6A1" cx="62.242" cy="167.387" r="0.958"/>
			<circle fill="#42B6A1" cx="74.131" cy="178.711" r="0.957"/>
			<circle fill="#42B6A1" cx="88.058" cy="170.258" r="0.957"/>
			<circle fill="#42B6A1" cx="89.974" cy="187.838" r="0.959"/>
			<circle fill="#42B6A1" cx="119.341" cy="173.132" r="0.958"/>
			<circle fill="#42B6A1" cx="112.518" cy="168.344" r="0.958"/>
		</g>
		<g>
			<path fill="#42B6A1" d="M163.319,96.089c3.607,4.268,2.25,10.455,5.039,15.366c1.223,2.117,2.557,3.935,3.417,6.395
				c1.081,3.122,0.759,5.534,0.695,8.894c-3.279-2.332-3.244-7.713-4.927-11.127c-3.05,6.647,4.164,13.81,1.515,21.634
				c-3.263-3.83-2.033-8.168-3.895-12.574c-1.587,4.514-1.045,6.575-0.368,10.74c0.658,3.778-0.615,7.621-3.208,10.651
				c-2.459-2.486,0.508-9.087-0.19-12.288c-1.417,0.889-2.739,3.125-3.327,4.715c-0.694,2.191,0.11,2.837,0.258,5.111
				c0.376,2.876-0.954,6.618-3.397,8.731c-0.352-1.252-0.966-2.729-0.744-4.23c0.074-1.955,1.42-3.665,0.679-5.609
				c-1.786,0.883-3.199,2.745-4.379,4.448c-1.455,2.498-0.662,2.841-0.286,5.445c0.345,3.117-0.525,7.273-3.49,9.408
				c0.054-1.71-0.739-3.138-0.751-4.816c-0.047-1.833,0.524-3.712,0.73-5.478c-6.54,4.487-3.773,12.649-12.929,19.291
				c-0.237-1.591-0.187-3.545,0.485-5.298c0.934-2.448,2.961-3.542,4.081-5.956c-2.163,1.036-4.497,2.184-6.757,2.428
				c0.898-5.799,9.517-7.689,13.198-11.29c-2.113,0.909-4.595,1.678-7.074,1.541c0.352-2.666,3.668-4.635,6.168-5.225
				c3.34-1.058,5.498-0.395,7.946-3.747c-1.986,1.254-4.599,1.155-6.831,2.002c0.605-2.733,2.661-4.746,5.314-5.469
				c1.281-0.248,3.345,0.504,4.52-0.098c1.243-0.447,2.36-2.857,2.943-3.925c-2.438,1.384-4.707,2.722-7.568,2.514
				c2.175-5.149,9.482-4.599,11.23-10.175c-2.758,1.098-4.887,4.035-7.904,4.08c0.627-2.651,3.138-5.239,5.413-6.78
				c3.415-2.114,5.416-4.02,6.418-8.326c-1.741,2.672-4.049,4.214-6.252,6.123c-0.833-3.718,4.131-8.471,5.765-11.96
				c2.137-4.461,0.536-11.129-1.64-15.028"/>
			<circle fill="#42B6A1" cx="143.907" cy="160.642" r="0.958"/>
			<circle fill="#42B6A1" cx="135.887" cy="153.8" r="0.958"/>
			<circle fill="#42B6A1" cx="151.639" cy="149.166" r="0.958"/>
			<circle fill="#42B6A1" cx="151.284" cy="132.879" r="0.958"/>
			<circle fill="#42B6A1" cx="167.466" cy="140.01" r="0.958"/>
			<circle fill="#42B6A1" cx="169.413" cy="107.224" r="0.958"/>
			<circle fill="#42B6A1" cx="161.855" cy="110.74" r="0.958"/>
		</g>
		<g>
			<path fill="#42B6A1" d="M124.68,30.617c5.501-0.99,10.18,3.279,15.828,3.319c2.444-0.001,4.684-0.248,7.246,0.238
				c3.244,0.623,5.173,2.109,8.05,3.844c-3.659,1.673-8.301-1.048-12.1-1.297c4.231,5.965,14.041,3.298,19.493,9.506
				c-4.949,0.909-8.09-2.324-12.837-2.915c3.114,3.631,5.17,4.192,9.116,5.689c3.602,1.319,6.293,4.344,7.62,8.104
				c-3.383,0.888-7.616-4.982-10.736-5.978c0.06,1.67,1.336,3.935,2.42,5.237c1.55,1.697,2.512,1.324,4.554,2.334
				c2.679,1.11,5.254,4.134,5.863,7.307c-1.26-0.321-2.846-0.527-4.036-1.47c-1.655-1.041-2.463-3.064-4.519-3.393
				c-0.127,1.988,0.778,4.143,1.663,6.017c1.437,2.509,2.129,1.993,4.572,2.97c2.873,1.261,6.037,4.091,6.403,7.727
				c-1.454-0.901-3.089-0.929-4.545-1.758c-1.612-0.875-2.953-2.31-4.379-3.37c0.615,7.907,9.066,9.592,10.24,20.842
				c-1.497-0.591-3.163-1.612-4.344-3.069c-1.654-2.032-1.588-4.335-3.118-6.512c-0.184,2.391-0.357,4.984-1.277,7.066
				c-4.57-3.679-1.9-12.087-3.179-17.076c-0.268,2.285-0.843,4.818-2.202,6.896c-2.132-1.638-2.179-5.493-1.439-7.954
				c0.753-3.421,2.407-4.958,0.728-8.755c0.093,2.348-1.299,4.56-1.681,6.917c-2.064-1.892-2.781-4.677-2.079-7.337
				c0.426-1.233,2.107-2.645,2.175-3.963c0.233-1.3-1.294-3.472-1.929-4.512c-0.018,2.802,0.004,5.438-1.606,7.812
				c-3.371-4.459,0.759-10.51-3.196-14.813c-0.429,2.938,1.052,6.249-0.419,8.886c-1.982-1.869-2.969-5.338-3.164-8.079
				c-0.125-4.015-0.775-6.699-4.002-9.722c1.442,2.845,1.624,5.614,2.176,8.478c-3.636-1.139-5.271-7.813-7.475-10.973
				c-2.795-4.08-9.371-6.029-13.835-6.095"/>
			<circle fill="#42B6A1" cx="170.879" cy="79.704" r="0.957"/>
			<circle fill="#42B6A1" cx="160.944" cy="83.228" r="0.958"/>
			<circle fill="#42B6A1" cx="164.807" cy="67.27" r="0.957"/>
			<circle fill="#42B6A1" cx="150.524" cy="59.435" r="0.958"/>
			<circle fill="#42B6A1" cx="164.792" cy="48.986" r="0.958"/>
			<circle fill="#42B6A1" cx="137.371" cy="30.906" r="0.958"/>
			<circle fill="#42B6A1" cx="136.636" cy="39.209" r="0.958"/>
		</g>
	</g>
	<g>
		<path fill="#064857" d="M129.027,143.93c0,0,14.262,12.101,4.754,33.276c-6.113,13.616-4.321,29.386,0.432,35.437
			c0,0-9.075,11.668-27.657,5.186c0,0-8.643-25.497,0.864-40.19c9.507-14.693-0.433-21.607-0.433-21.607L129.027,143.93z"/>
		<path fill="#02779D" d="M128.198,124.977c0,0,4.156,7.72,2.078,18.408c0,0-5.139,23.017-40.675,23.017
			c-34.473,0-41.27-23.017-41.27-23.017s-0.594-10.985,2.078-17.813c0,0,15.143,12.47,38.895,12.47
			C113.056,138.041,128.198,124.977,128.198,124.977z"/>
		<g>
			<g>
				<linearGradient id="SVGID_1_" gradientUnits="userSpaceOnUse" x1="41.3095" y1="10.5274" x2="48.2103" y2="10.5274">
					<stop  offset="0" style="stop-color:#F9B351"/>
					<stop  offset="0.1501" style="stop-color:#F5A043"/>
					<stop  offset="0.5507" style="stop-color:#ED6A25"/>
					<stop  offset="0.8453" style="stop-color:#E84517"/>
					<stop  offset="1" style="stop-color:#E63512"/>
				</linearGradient>
				<path fill="url(#SVGID_1_)" d="M46.356,7.079c0.783,2.131,0.766,5.471,0.009,7.555C45.229,10.375,45.923,3.636,43.01,0
					c1.396,4.311,2.499,11.001,1.335,15.535c-1.598-2.586-2.134-5.811-2.74-8.689c-1.018,3.808,0.672,12.011,3.861,14.209
					l0.681-0.226c0.065-0.615,0.947-1.716,1.303-2.553c0.517-1.217,0.646-2.453,0.735-3.796
					C48.345,12.114,47.746,9.011,46.356,7.079z"/>
				<path fill="#EB5B2A" d="M58.559,109.006c-2.868-5.367-5.481-10.862-8.282-16.262c-1.529-2.945-3.579-5.816-4.13-9.117
					l-5.215-2.494c-2.626,0-5.178-0.15-7.679,0.498c0.139,0.661,0.803,1.058,1.467,1.315c-1.37,1.125-3.455,1.952-4.88,2.896
					c0.654,0.073,1.343,0.03,1.998,0.097c-0.782,1.043-2.211,1.51-3.162,2.438c-1.537,1.501-2.762,3.633-3.829,5.451
					c-1.513,2.577-3.985,6.096,0.667,4.987c0.909-0.215,3.274-1.069,3.814,0.002c0.449,0.891-1.571,3.821-1.949,4.705
					c-0.741,1.726-2.16,4.479-2.084,6.363c0.078,1.911,0.635,0.673,2.05-0.101c-0.132,1.702-1.444,3.131-1.342,4.874
					c0.961-0.176,1.804-0.816,2.639-1.309c0.11,1.562-0.932,2.656-0.576,4.227c0.388,1.725,0.372,3.221,0.396,5.216
					c0.091,7.146,5.26-1.884,7.708-1.716c3.004,0.204-0.932,8.613,2.04,9.05c1.285,0.186,2.602-4.001,3.92-2.984
					c1.006,0.772-0.508,4.186,0.207,5.363c1.115-0.456,1.502-1.967,2.634-2.146c0.057,0.741-0.314,2.374,0.494,2.714
					c0.247,0.105,0.757-0.589,1.139-0.47c0.112,0.035,0.759,0.174,0.901,0.209c0.276,0.071,0.29,0.859,0.9,0.936
					c0.532,0.065,0.711-0.71,1.141-0.696c1.493,0.05,0.739,0.395,1.857,1.315c1.891,1.558,5.232,0.85,7.499,0.951
					c2.396,0.107,5.048,1.491,7.385,1.099C66.249,126.479,63.289,117.862,58.559,109.006z"/>
				<path fill="#EB5B2A" d="M157.398,96.268c-0.834-2.731-3.361-5.284-3.756-8.067c4.21-0.341-4.409-5.816-4.778-6.568
					c0.636-0.303,1.174-0.615,1.553-1.128c-1.262-0.779-3.071-1.192-4.098-2.09c0.425-0.248,1.138-0.33,1.767-0.217
					c-2.805-2.223-6.352-3.49-9.838-4.268c-1.671-0.372-8.347-0.177-7.765,2.67l-5.896,10.43
					c-4.328,10.081-4.365,21.708-6.176,32.418c-0.374,2.201-1.463,4.812-1.356,7.029c0.081,1.674,0.399,1.575,2.078,1.802
					c2.936,0.398,5.857,0.465,8.854,0.465c3.468,0,4.189-0.335,4.567-3.823c0.836,0.124,1.415,1.072,1.909,1.76
					c-0.177-0.717-0.177-1.486-0.085-2.221c1.443,0.836,4.43,5.662,5.579,3.37c1.114-2.221-1.499-5.416-1.28-7.672
					c2.509,0.047,6.221,6.86,7.628,2.227c0.614-2.023-0.262-9.81,4.092-7.277c-1.097-2.39-0.295-4.536,2.506-3.849
					c-0.987-2.803-1.117-3.411,2.028-3.632c0.418-2.169-1.488-4.376-1.978-6.279c2.013,0.204,3.514,1.277,5.378,1.982
					C158.483,100.908,158.103,98.578,157.398,96.268z"/>
				<path fill="#EB5B2A" d="M59.754,38.738c-2.492-4.735-5.034-9.517-8.396-13.779c-1.335-1.695-2.78-3.317-4.036-5.05
					c-0.717-0.989-1.187-2.291-2.329-2.85c-0.899,7.834-2.596,16.002-3.616,24.109c-0.667,5.307-0.533,10.863,0.409,16.102
					c0.482,2.683,0.964,8.211,3.225,10.034l7.255-1.588c2.935-1.707,6.18-2.922,9.119-4.592c1.794-1.019,3.518-2.269,5.362-3.162
					C65.688,51.703,62.834,44.591,59.754,38.738z"/>
				<path fill="#F8B78E" d="M53.57,51.043c-1.621-3.937-3.782-9.657-6.7-12.735c-0.675,4.588-1.572,9.048-1.857,13.812
					c-0.225,3.775-0.088,10.137,2.267,13.144l9.748-3.628C55.764,59.009,54.969,54.441,53.57,51.043z"/>
				<linearGradient id="SVGID_2_" gradientUnits="userSpaceOnUse" x1="121.8419" y1="10.5274" x2="128.7428" y2="10.5274">
					<stop  offset="0" style="stop-color:#E63512"/>
					<stop  offset="0.1547" style="stop-color:#E84517"/>
					<stop  offset="0.4493" style="stop-color:#ED6A25"/>
					<stop  offset="0.8499" style="stop-color:#F5A043"/>
					<stop  offset="1" style="stop-color:#F9B351"/>
				</linearGradient>
				<path fill="url(#SVGID_2_)" d="M123.696,7.079c-0.781,2.131-0.767,5.471-0.009,7.555c1.138-4.259,0.441-10.998,3.354-14.634
					c-1.395,4.311-2.497,11.001-1.333,15.535c1.599-2.586,2.133-5.811,2.738-8.689c1.02,3.808-0.673,12.011-3.859,14.209
					l-0.681-0.226c-0.065-0.615-0.947-1.716-1.303-2.553c-0.52-1.217-0.646-2.453-0.737-3.796
					C121.708,12.114,122.306,9.011,123.696,7.079z"/>
				<path fill="#EB5B2A" d="M110.297,38.738c2.491-4.735,5.035-9.517,8.396-13.779c1.337-1.695,2.781-3.317,4.036-5.05
					c0.717-0.989,1.188-2.291,2.329-2.85c0.899,7.834,2.597,16.002,3.617,24.109c0.666,5.307,0.532,10.863-0.41,16.102
					c-0.48,2.683-0.964,8.211-3.226,10.034l-7.254-1.588c-2.935-1.707-6.181-2.922-9.118-4.592
					c-1.796-1.019-3.518-2.269-5.361-3.162C104.365,51.703,107.219,44.591,110.297,38.738z"/>
				<path fill="#F8B78E" d="M116.482,51.043c1.621-3.937,3.782-9.657,6.7-12.735c0.677,4.588,1.572,9.048,1.857,13.812
					c0.226,3.775,0.089,10.137-2.267,13.144l-9.749-3.628C114.289,59.009,115.084,54.441,116.482,51.043z"/>
			</g>
			<g>
				<path fill="#F08153" d="M135.413,69.345c-2.316-6.754-7.498-12.044-13.547-15.694c-6.519-3.932-13.396-4.296-20.856-4.761
					c-7.44-0.464-15.214-0.223-22.444,0.73c-7.527,0.99-14.206,1.731-21.085,4.987c-6.818,3.229-12.991,7.286-17.74,13.144
					c-4.94,6.092-3.694,14.346-2.386,21.317c2.948,15.739,9.936,30.03,19.503,43.025c4.599,6.245,9.979,12.113,16.493,16.543
					c3.051,2.075,5.537,3.496,8.842,4.818c2.267,0.906,5.395,1.226,7.255,1.36c3.173,0.226,7.708-0.454,7.708-0.454
					c4.17-0.315,8.781-3.285,12.192-5.718c5.389-3.843,10.146-9.104,13.703-14.636c2.058-3.2,4.037-6.206,5.385-9.8
					c1.362-3.632,2.436-7.297,3.805-10.932c2.691-7.146,5.949-14.837,6.404-22.395C139.081,83.604,137.702,76.016,135.413,69.345z"
					/>
				<path fill="#482D21" d="M99.02,145.695c-3.12-0.673-7.648,0.422-10.705,1.354c-2.277,0.695-7.686,3.439-5.277,6.468
					c2.142,2.695,6.264,2.658,9.357,2.658h1.359c2.968,0.247,7.925-1.573,9.586-4.257C105.349,148.67,101.864,146.308,99.02,145.695
					z"/>
				<path fill="#482D21" d="M119.787,91.081c-0.724-2.343-2.312-2.137-4.25-2.653c-0.26,0.021-0.522,0.151-0.682,0.264h-0.68
					c-4.365,1.972-0.854,8.716,3.239,7.142C119.302,95.107,120.342,92.883,119.787,91.081z"/>
				<path fill="#482D21" d="M57.268,93.789c0.374-2.423,1.974-2.45,3.818-3.244c0.259-0.016,0.534,0.075,0.71,0.163l0.672-0.1
					c4.606,1.314,2.117,8.497-2.163,7.537C58.334,97.702,56.979,95.653,57.268,93.789z"/>
				<path fill="#FFFFFF" d="M61.064,94.554c-0.189-0.137-0.415-0.154-0.608-0.01v0.001c-0.08,0.01-0.154,0.063-0.185,0.156
					c-0.074,0.229,0.058,0.487,0.29,0.563c0.265,0.089,0.495-0.073,0.607-0.309C61.245,94.801,61.202,94.653,61.064,94.554z"/>
				<path fill="#FFFFFF" d="M115.848,92.798c-0.191-0.137-0.414-0.154-0.607-0.009v0.001c-0.082,0.01-0.155,0.063-0.186,0.156
					c-0.076,0.229,0.059,0.487,0.29,0.562c0.268,0.089,0.494-0.072,0.607-0.308C116.029,93.046,115.986,92.897,115.848,92.798z"/>
			</g>
		</g>
		<g opacity="0.6">
			<path fill="#FBE3E1" d="M120.13,109.767c-2.321-2.581-7.071-0.979-8.512,2.178c-1.647,3.613,0.389,8.468,4.162,9.701
				c3.774,1.234,8.357-1.613,8.798-5.56c0.44-3.946-3.557-7.771-7.459-7.034"/>
		</g>
		<g opacity="0.6">
			<path fill="#FBE3E1" d="M65.641,109.767c-2.319-2.581-7.069-0.979-8.51,2.178c-1.648,3.613,0.388,8.468,4.162,9.701
				c3.774,1.234,8.357-1.613,8.799-5.56c0.44-3.946-3.558-7.771-7.46-7.034"/>
		</g>
	</g>
</g>
</svg>
