<?xml version="1.0" encoding="utf-8"?>
<!-- Generator: Adobe Illustrator 17.0.0, SVG Export Plug-In . SVG Version: 6.00 Build 0)  -->
<!DOCTYPE svg PUBLIC "-//W3C//DTD SVG 1.1//EN" "http://www.w3.org/Graphics/SVG/1.1/DTD/svg11.dtd">
<svg version="1.1" id="Calque_1" xmlns="http://www.w3.org/2000/svg" xmlns:xlink="http://www.w3.org/1999/xlink" x="0px" y="0px"
	 width="185.958px" height="195.933px" viewBox="0 0 185.958 195.933" enable-background="new 0 0 185.958 195.933"
	 xml:space="preserve">
<g>
	<path fill="#DDDDDD" d="M95.763,122.739c58.136,0,34.703-49.356,34.703-49.356c56.28,60.047,14.416,108.059-33.924,108.059
		c-25.258,0-55.862-12.102-60.9-43.665c-5.385-33.738,20.073-64.394,20.073-64.394S39.409,122.739,95.763,122.739z"/>
</g>
<g>
	<g>
		<path fill="#E75244" d="M51.827,28.234c2.016-5.601,8.445-7.643,11.49-12.83c1.302-2.256,2.267-4.454,4.079-6.558
			c2.304-2.659,4.702-3.648,7.834-5.378c-0.407,4.267-5.387,7.1-7.641,10.47C75.344,13.21,78.109,2.743,86.738,1.02
			c-1.797,5.05-6.451,6.227-9.525,10.291c5.009-0.94,6.622-2.538,10.103-5.38c3.136-2.619,7.358-3.491,11.533-2.713
			c-0.983,3.592-8.651,4.371-11.23,6.719c1.572,0.835,4.339,0.864,6.119,0.558c2.39-0.526,2.559-1.612,4.577-2.958
			c2.451-1.879,6.612-2.644,9.863-1.517c-0.967,0.991-2.003,2.345-3.506,2.941c-1.844,0.973-4.137,0.64-5.535,2.36
			c1.766,1.177,4.235,1.489,6.435,1.67c3.079,0.011,2.973-0.902,5.175-2.636c2.692-1.979,6.987-3.388,10.535-1.791
			c-1.605,0.86-2.501,2.352-4.04,3.256c-1.667,1.021-3.704,1.494-5.441,2.245c7.621,3.644,13.677-3.255,24.678,1.652
			c-1.342,1.066-3.171,2.06-5.145,2.373c-2.754,0.443-4.844-0.843-7.665-0.59c2.106,1.443,4.407,2.983,5.837,4.94
			c-5.828,2.258-12.161-4.683-17.443-6.162c1.965,1.465,3.995,3.344,5.189,5.704c-2.646,1.094-6.229-0.914-8.104-2.907
			c-2.755-2.516-3.292-4.86-7.688-5.334c2.215,1.164,3.514,3.626,5.484,5.234c-2.844,0.898-5.794,0.073-7.874-1.99
			c-0.911-1.048-1.317-3.351-2.497-4.116c-1.074-0.908-3.892-0.654-5.188-0.625c2.574,1.511,5.016,2.892,6.35,5.642
			c-5.908,0.736-9.291-6.296-15.367-4.94c2.481,1.959,6.325,2.358,7.972,5.118c-2.778,0.834-6.502-0.104-9.136-1.382
			c-3.768-2.025-6.591-2.854-11.098-1.487c3.392,0.183,6.042,1.491,8.978,2.506c-2.986,2.748-10.014,0.7-14.102,1.053
			c-5.251,0.404-10.549,5.431-12.988,9.515"/>
		<circle fill="#E75244" cx="121.707" cy="11.763" r="1.02"/>
		<circle fill="#E75244" cx="119.666" cy="22.803" r="1.02"/>
		<circle fill="#E75244" cx="107.004" cy="10.742" r="1.02"/>
		<circle fill="#E75244" cx="92.17" cy="19.744" r="1.02"/>
		<circle fill="#E75244" cx="90.131" cy="1.019" r="1.02"/>
		<circle fill="#E75244" cx="58.852" cy="16.683" r="1.02"/>
		<circle fill="#E75244" cx="66.119" cy="21.783" r="1.02"/>
	</g>
	<g>
		<path fill="#E75244" d="M12.013,98.74c-3.841-4.546-2.396-11.136-5.366-16.367c-1.302-2.256-2.723-4.19-3.639-6.812
			c-1.153-3.326-0.81-5.896-0.742-9.472c3.492,2.485,3.455,8.214,5.246,11.85c3.248-7.079-4.435-14.707-1.612-23.042
			c3.475,4.082,2.166,8.701,4.148,13.393c1.691-4.807,1.114-7.002,0.393-11.439c-0.701-4.024,0.655-8.118,3.416-11.344
			c2.62,2.647-0.54,9.677,0.204,13.086c1.509-0.945,2.917-3.327,3.543-5.022c0.739-2.332-0.117-3.021-0.274-5.443
			c-0.4-3.062,1.017-7.048,3.619-9.3c0.375,1.334,1.029,2.907,0.792,4.506c-0.079,2.082-1.513,3.903-0.723,5.974
			c1.902-0.94,3.407-2.923,4.664-4.738c1.55-2.66,0.705-3.025,0.305-5.798c-0.368-3.321,0.559-7.746,3.716-10.021
			c-0.057,1.821,0.789,3.342,0.8,5.129c0.05,1.953-0.559,3.955-0.777,5.833c6.965-4.778,4.019-13.47,13.769-20.544
			c0.254,1.694,0.199,3.774-0.517,5.642c-0.995,2.608-3.153,3.772-4.346,6.344c2.303-1.105,4.788-2.327,7.197-2.587
			c-0.96,6.178-10.136,8.192-14.059,12.026c2.252-0.967,4.895-1.787,7.535-1.641c-0.375,2.839-3.906,4.936-6.57,5.563
			c-3.557,1.126-5.855,0.421-8.463,3.991c2.116-1.335,4.897-1.229,7.275-2.13c-0.645,2.91-2.833,5.054-5.66,5.823
			c-1.365,0.265-3.562-0.535-4.814,0.105c-1.323,0.478-2.514,3.042-3.135,4.179c2.595-1.473,5.013-2.898,8.061-2.678
			c-2.316,5.485-10.098,4.898-11.961,10.838c2.936-1.168,5.204-4.298,8.418-4.345c-0.668,2.823-3.343,5.579-5.766,7.221
			c-3.637,2.252-5.767,4.282-6.835,8.868c1.854-2.846,4.312-4.488,6.659-6.522c0.885,3.961-4.4,9.023-6.139,12.739
			c-2.276,4.75-0.572,11.852,1.746,16.006"/>
		<circle fill="#E75244" cx="32.688" cy="29.986" r="1.02"/>
		<circle fill="#E75244" cx="41.229" cy="37.272" r="1.02"/>
		<circle fill="#E75244" cx="24.454" cy="42.209" r="1.02"/>
		<circle fill="#E75244" cx="24.832" cy="59.555" r="1.019"/>
		<circle fill="#E75244" cx="7.597" cy="51.96" r="1.02"/>
		<circle fill="#E75244" cx="5.522" cy="86.88" r="1.02"/>
		<circle fill="#E75244" cx="13.572" cy="83.136" r="1.02"/>
	</g>
	<g>
		<path fill="#E75244" d="M53.165,168.471c-5.857,1.055-10.841-3.492-16.856-3.535c-2.605,0.001-4.99,0.263-7.718-0.253
			c-3.456-0.665-5.51-2.248-8.575-4.095c3.898-1.781,8.842,1.115,12.887,1.383c-4.507-6.354-14.955-3.514-20.761-10.125
			c5.271-0.969,8.617,2.475,13.672,3.104c-3.317-3.868-5.507-4.466-9.709-6.06c-3.836-1.405-6.702-4.626-8.116-8.631
			c3.603-0.944,8.112,5.307,11.435,6.366c-0.064-1.778-1.423-4.19-2.577-5.578c-1.651-1.808-2.676-1.41-4.85-2.485
			c-2.854-1.184-5.597-4.404-6.246-7.783c1.343,0.343,3.032,0.563,4.299,1.567c1.764,1.108,2.624,3.262,4.813,3.613
			c0.136-2.118-0.829-4.412-1.771-6.408c-1.53-2.673-2.268-2.124-4.87-3.165c-3.06-1.341-6.43-4.356-6.82-8.228
			c1.549,0.96,3.289,0.989,4.841,1.872c1.717,0.933,3.146,2.46,4.665,3.59C10.253,115.198,1.251,113.403,0,101.422
			c1.593,0.629,3.369,1.716,4.626,3.27c1.763,2.164,1.692,4.616,3.322,6.935c0.196-2.547,0.38-5.31,1.359-7.525
			c4.869,3.918,2.025,12.873,3.385,18.187c0.288-2.434,0.899-5.132,2.347-7.346c2.27,1.744,2.321,5.852,1.534,8.471
			c-0.803,3.645-2.564,5.282-0.775,9.325c-0.1-2.5,1.383-4.855,1.791-7.365c2.198,2.014,2.961,4.98,2.213,7.812
			c-0.453,1.314-2.245,2.818-2.315,4.222c-0.249,1.384,1.377,3.697,2.052,4.806c0.02-2.985-0.004-5.791,1.711-8.32
			c3.592,4.748-0.808,11.194,3.406,15.777c0.456-3.127-1.121-6.657,0.446-9.464c2.11,1.99,3.162,5.685,3.37,8.606
			c0.131,4.274,0.824,7.134,4.262,10.354c-1.537-3.03-1.73-5.979-2.319-9.028c3.874,1.212,5.614,8.322,7.963,11.686
			c2.976,4.347,9.979,6.421,14.735,6.492"/>
		<circle fill="#E75244" cx="3.961" cy="116.191" r="1.02"/>
		<circle fill="#E75244" cx="14.542" cy="112.436" r="1.02"/>
		<circle fill="#E75244" cx="10.429" cy="129.433" r="1.02"/>
		<circle fill="#E75244" cx="25.64" cy="137.778" r="1.02"/>
		<circle fill="#E75244" cx="10.445" cy="148.906" r="1.02"/>
		<circle fill="#E75244" cx="39.649" cy="168.163" r="1.02"/>
		<circle fill="#E75244" cx="40.433" cy="159.32" r="1.02"/>
	</g>
	<g>
		<path fill="#E75244" d="M134.131,167.699c-2.015,5.601-8.445,7.643-11.49,12.831c-1.301,2.256-2.267,4.454-4.077,6.557
			c-2.305,2.661-4.702,3.648-7.834,5.378c0.406-4.267,5.387-7.099,7.641-10.469c-7.757,0.726-10.521,11.194-19.149,12.916
			c1.797-5.048,6.451-6.224,9.524-10.288c-5.008,0.939-6.621,2.536-10.103,5.379c-3.135,2.619-7.358,3.49-11.533,2.713
			c0.984-3.593,8.652-4.371,11.232-6.721c-1.573-0.834-4.341-0.862-6.12-0.556c-2.391,0.526-2.558,1.613-4.577,2.959
			c-2.452,1.878-6.612,2.643-9.863,1.515c0.967-0.99,2.003-2.344,3.505-2.939c1.843-0.973,4.137-0.639,5.535-2.36
			c-1.765-1.178-4.235-1.489-6.434-1.669c-3.08-0.014-2.973,0.9-5.176,2.634c-2.691,1.98-6.987,3.389-10.536,1.792
			c1.605-0.86,2.501-2.354,4.041-3.257c1.666-1.02,3.704-1.492,5.441-2.244c-7.621-3.644-13.677,3.255-24.679-1.653
			c1.342-1.065,3.171-2.06,5.146-2.372c2.754-0.443,4.844,0.843,7.666,0.591c-2.107-1.443-4.408-2.984-5.837-4.94
			c5.828-2.258,12.161,4.683,17.443,6.163c-1.964-1.467-3.995-3.346-5.189-5.706c2.646-1.094,6.228,0.915,8.104,2.907
			c2.753,2.517,3.292,4.862,7.688,5.334c-2.214-1.165-3.514-3.625-5.484-5.234c2.843-0.897,5.795-0.074,7.873,1.99
			c0.912,1.049,1.318,3.353,2.498,4.115c1.074,0.907,3.892,0.656,5.188,0.626c-2.574-1.51-5.016-2.893-6.349-5.642
			c5.908-0.736,9.291,6.295,15.367,4.939c-2.481-1.959-6.325-2.357-7.973-5.118c2.778-0.833,6.503,0.105,9.137,1.383
			c3.769,2.024,6.591,2.854,11.098,1.485c-3.392-0.184-6.042-1.492-8.979-2.505c2.987-2.749,10.015-0.701,14.102-1.053
			c5.252-0.405,10.552-5.432,12.989-9.515"/>
		<circle fill="#E75244" cx="64.252" cy="184.171" r="1.02"/>
		<circle fill="#E75244" cx="66.292" cy="173.131" r="1.021"/>
		<circle fill="#E75244" cx="78.955" cy="185.191" r="1.02"/>
		<circle fill="#E75244" cx="93.788" cy="176.19" r="1.02"/>
		<circle fill="#E75244" cx="95.829" cy="194.913" r="1.021"/>
		<circle fill="#E75244" cx="127.106" cy="179.25" r="1.02"/>
		<circle fill="#E75244" cx="119.84" cy="174.15" r="1.02"/>
	</g>
	<g>
		<path fill="#E75244" d="M173.946,97.194c3.842,4.546,2.395,11.136,5.366,16.366c1.303,2.254,2.723,4.19,3.64,6.812
			c1.151,3.325,0.809,5.894,0.741,9.471c-3.493-2.484-3.456-8.214-5.247-11.851c-3.249,7.08,4.435,14.708,1.612,23.042
			c-3.475-4.08-2.166-8.701-4.148-13.392c-1.69,4.807-1.113,7.002-0.393,11.438c0.701,4.024-0.655,8.118-3.417,11.344
			c-2.618-2.648,0.541-9.678-0.203-13.087c-1.509,0.946-2.917,3.329-3.543,5.021c-0.739,2.334,0.117,3.022,0.274,5.445
			c0.4,3.063-1.017,7.048-3.618,9.299c-0.375-1.333-1.029-2.907-0.793-4.505c0.079-2.082,1.513-3.903,0.723-5.974
			c-1.902,0.939-3.407,2.923-4.664,4.736c-1.55,2.661-0.704,3.026-0.305,5.8c0.368,3.32-0.559,7.746-3.717,10.02
			c0.058-1.821-0.788-3.343-0.8-5.128c-0.05-1.953,0.559-3.954,0.777-5.835c-6.966,4.779-4.02,13.472-13.77,20.546
			c-0.254-1.696-0.199-3.776,0.517-5.642c0.994-2.608,3.152-3.772,4.346-6.344c-2.304,1.104-4.789,2.327-7.196,2.586
			c0.957-6.177,10.136-8.19,14.057-12.025c-2.251,0.968-4.894,1.788-7.534,1.641c0.374-2.839,3.906-4.936,6.569-5.563
			c3.557-1.127,5.855-0.421,8.464-3.992c-2.116,1.336-4.897,1.231-7.275,2.132c0.645-2.912,2.833-5.056,5.66-5.823
			c1.364-0.265,3.562,0.535,4.813-0.105c1.323-0.476,2.514-3.042,3.135-4.179c-2.596,1.474-5.013,2.897-8.061,2.677
			c2.316-5.485,10.098-4.898,11.96-10.838c-2.936,1.17-5.204,4.299-8.418,4.346c0.668-2.823,3.342-5.58,5.767-7.221
			c3.636-2.252,5.767-4.281,6.835-8.868c-1.854,2.845-4.312,4.487-6.659,6.521c-0.886-3.96,4.399-9.022,6.14-12.739
			c2.276-4.749,0.571-11.852-1.746-16.004"/>
		<circle fill="#E75244" cx="153.27" cy="165.947" r="1.02"/>
		<circle fill="#E75244" cx="144.729" cy="158.661" r="1.021"/>
		<circle fill="#E75244" cx="161.505" cy="153.725" r="1.019"/>
		<circle fill="#E75244" cx="161.127" cy="136.377" r="1.02"/>
		<circle fill="#E75244" cx="178.362" cy="143.973" r="1.02"/>
		<circle fill="#E75244" cx="180.437" cy="109.053" r="1.021"/>
		<circle fill="#E75244" cx="172.386" cy="112.797" r="1.02"/>
	</g>
	<g>
		<path fill="#E75244" d="M132.792,27.462c5.858-1.055,10.842,3.493,16.857,3.536c2.604-0.001,4.989-0.264,7.718,0.253
			c3.456,0.664,5.51,2.248,8.574,4.095c-3.897,1.782-8.841-1.116-12.888-1.381c4.508,6.352,14.956,3.511,20.763,10.124
			c-5.272,0.968-8.617-2.474-13.673-3.104c3.317,3.868,5.507,4.465,9.71,6.06c3.836,1.404,6.702,4.625,8.116,8.63
			c-3.604,0.944-8.112-5.307-11.436-6.367c0.063,1.779,1.423,4.191,2.577,5.578c1.65,1.808,2.676,1.412,4.851,2.486
			c2.854,1.183,5.597,4.403,6.245,7.782c-1.343-0.342-3.031-0.562-4.299-1.566c-1.763-1.108-2.623-3.261-4.813-3.613
			c-0.135,2.118,0.83,4.412,1.771,6.407c1.53,2.674,2.268,2.124,4.87,3.165c3.061,1.342,6.43,4.356,6.819,8.229
			c-1.549-0.96-3.289-0.99-4.841-1.873c-1.717-0.932-3.145-2.459-4.664-3.589c0.655,8.422,9.657,10.216,10.907,22.197
			c-1.595-0.627-3.369-1.715-4.627-3.269c-1.762-2.164-1.69-4.616-3.32-6.936c-0.196,2.547-0.381,5.311-1.36,7.525
			c-4.868-3.917-2.025-12.873-3.385-18.187c-0.286,2.435-0.898,5.132-2.346,7.347c-2.271-1.744-2.321-5.852-1.534-8.472
			c0.802-3.644,2.564-5.28,0.775-9.325c0.099,2.501-1.383,4.857-1.79,7.366c-2.199-2.014-2.962-4.98-2.215-7.814
			c0.453-1.312,2.245-2.816,2.316-4.22c0.249-1.385-1.378-3.698-2.054-4.805c-0.02,2.984,0.004,5.79-1.711,8.318
			c-3.591-4.748,0.808-11.192-3.405-15.775c-0.455,3.127,1.121,6.655-0.445,9.462c-2.111-1.99-3.162-5.684-3.37-8.605
			c-0.134-4.274-0.824-7.135-4.263-10.354c1.537,3.03,1.73,5.979,2.318,9.029c-3.873-1.212-5.612-8.322-7.962-11.686
			c-2.977-4.347-9.98-6.421-14.735-6.492"/>
		<circle fill="#E75244" cx="181.998" cy="79.743" r="1.019"/>
		<circle fill="#E75244" cx="171.417" cy="83.497" r="1.021"/>
		<path fill="#E75244" d="M176.04,67.382c-0.488,0.284-1.112,0.117-1.393-0.373c-0.281-0.487-0.115-1.111,0.374-1.392
			c0.487-0.281,1.11-0.113,1.392,0.373C176.695,66.478,176.528,67.103,176.04,67.382z"/>
		<circle fill="#E75244" cx="160.319" cy="58.154" r="1.019"/>
		<circle fill="#E75244" cx="175.514" cy="47.026" r="1.02"/>
		<circle fill="#E75244" cx="146.309" cy="27.77" r="1.021"/>
		<circle fill="#E75244" cx="145.527" cy="36.613" r="1.02"/>
	</g>
</g>
<g>
	<path fill="#FBE3E1" d="M133.1,77.523c-9.285-11.118-25.108-15.662-43.507-16.792c-11.716,1.757-23.02,3.449-33.404,12.555
		c-6.843,5.998-12.807,14.084-12.73,23.183c0.048,5.759,2.549,11.275,5.953,15.92c8.956,12.212,23.791,18.885,38.649,21.811
		c15.915,3.135,34.397,1.73,45.428-10.162C145.008,111.617,143.96,90.524,133.1,77.523z"/>
</g>
<g>
	<path fill="#FFFFFF" d="M92.576,119.421c58.136,0,34.703-49.356,34.703-49.356c56.28,60.047,14.416,108.059-33.924,108.059
		c-25.258,0-55.862-12.102-60.9-43.665C27.07,100.72,52.528,70.065,52.528,70.065S36.222,119.421,92.576,119.421z"/>
</g>
<g>
	<path fill="#201A1B" d="M78.807,86.38c1.139,0.296,1.602,1.976,0.776,2.814c-0.827,0.838-2.513,0.398-2.825-0.735
		C76.446,87.325,77.669,86.084,78.807,86.38"/>
</g>
<g>
	<path fill="#201A1B" d="M101.265,86.38c1.14,0.296,1.603,1.976,0.776,2.814c-0.826,0.838-2.512,0.398-2.825-0.735
		C98.905,87.325,100.128,86.084,101.265,86.38"/>
</g>
<g>
	<path fill="#F1B7B3" d="M66.806,95.108c-2.325-2.587-7.084-0.982-8.527,2.183c-1.651,3.619,0.388,8.484,4.17,9.721
		c3.782,1.236,8.375-1.618,8.817-5.572c0.441-3.955-3.565-7.787-7.477-7.049"/>
</g>
<g>
	<path fill="#F1B7B3" d="M118.847,102.62c2.481-2.438,0.663-7.121-2.563-8.42c-3.69-1.488-8.458,0.769-9.523,4.603
		c-1.065,3.833,1.992,8.294,5.962,8.558c3.971,0.264,7.619-3.911,6.706-7.786"/>
</g>
<g>
	<path fill="#FFFFFF" d="M60.331,87.329c0,0-0.091-0.165-0.263-0.475c-0.094-0.159-0.179-0.339-0.274-0.55
		c-0.066-0.24-0.137-0.555-0.148-0.89c-0.014-0.363-0.037-0.703-0.031-1.088c0.016-0.384,0.058-0.787,0.147-1.194
		c0.167-0.841,0.484-1.715,0.96-2.553c0.227-0.443,0.514-0.805,0.809-1.233c0.314-0.355,0.64-0.775,1.008-1.107
		c0.73-0.7,1.578-1.294,2.54-1.635c0.959-0.344,2.027-0.416,3.086-0.373c1.062,0.031,2.108,0.132,3.115,0.138
		c1.011,0.028,2.006,0.067,2.984,0.21c0.975,0.119,1.926,0.325,2.834,0.565c1.816,0.497,3.447,1.201,4.757,1.982
		c0.656,0.383,1.22,0.807,1.692,1.213c0.475,0.389,0.852,0.789,1.128,1.136c0.282,0.341,0.476,0.622,0.592,0.831
		c0.117,0.198,0.179,0.304,0.179,0.304l-0.793,0.9c0,0-0.103-0.024-0.295-0.071c-0.185-0.048-0.454-0.113-0.804-0.152
		c-0.165-0.03-0.364-0.038-0.571-0.049c-0.2-0.021-0.42-0.029-0.66-0.024c-0.463-0.012-1.004,0.052-1.566,0.114
		c-0.564,0.062-1.177,0.18-1.81,0.334c-0.639,0.172-1.293,0.328-1.966,0.571c-0.669,0.207-1.348,0.474-2.023,0.73
		c-0.674,0.27-1.345,0.547-1.993,0.856c-0.645,0.317-1.248,0.765-1.777,1.256c-0.539,0.476-1.015,0.935-1.526,1.162
		c-0.503,0.242-1.046,0.28-1.586,0.27c-0.547-0.019-1.082-0.077-1.63-0.175c-0.6-0.11-1.15-0.211-1.637-0.301
		c-0.274-0.046-0.557-0.096-0.809-0.125c-0.274-0.041-0.561-0.07-0.765-0.116c-0.213-0.028-0.468-0.07-0.687-0.069
		c-0.227,0.044-0.423,0.08-0.607,0.096c-0.353,0.041-0.54,0.062-0.54,0.062L60.331,87.329z"/>
</g>
<g>
	<path fill="#FFFFFF" d="M93.91,83.731c0,0,0.168-0.407,0.486-1.093c0.106-0.346,0.511-0.767,0.904-1.261
		c0.439-0.542,0.892-0.934,1.464-1.444c0.567-0.492,1.219-0.893,1.938-1.387c0.714-0.393,1.515-0.859,2.351-1.192
		c0.428-0.168,0.861-0.338,1.302-0.511c0.443-0.156,0.897-0.267,1.362-0.399c0.931-0.293,1.885-0.393,2.863-0.574
		c0.976-0.086,1.977-0.357,3.01-0.477c0.514-0.06,1.033-0.129,1.543-0.146c0.514,0.015,1.018,0.086,1.503,0.192
		c0.96,0.188,1.861,0.789,2.617,1.347c0.777,0.67,1.437,1.337,1.953,2.142c0.524,0.828,0.896,1.552,1.109,2.405
		c0.219,0.816,0.3,1.494,0.251,2.158c-0.041,0.641-0.152,1.127-0.268,1.464c-0.116,0.337-0.188,0.502-0.188,0.502l-1.025,0.624
		c0,0-0.192,0.005-0.536,0.042c-0.343,0.037-0.788,0.084-1.253,0.165c-0.214,0.029-0.482,0.095-0.768,0.173
		c-0.265,0.063-0.536,0.143-0.786,0.214c-0.461,0.144-0.981,0.306-1.549,0.483c-0.226,0.077-0.515,0.144-0.771,0.223
		c-0.25,0.047-0.487,0.111-0.73,0.143c-0.55,0.114-0.971,0.081-1.484-0.06c-0.475-0.176-0.943-0.562-1.481-0.968
		c-0.259-0.225-0.539-0.42-0.836-0.584c-0.293-0.187-0.599-0.331-0.91-0.462c-0.626-0.194-1.278-0.446-1.926-0.602
		c-0.331-0.091-0.659-0.182-0.983-0.271c-0.329-0.072-0.653-0.143-0.973-0.212c-0.665-0.187-1.262-0.206-1.902-0.339
		c-0.581-0.038-1.207-0.122-1.729-0.099c-0.501,0.031-1.107,0.002-1.452,0.06c-0.211,0.024-0.408,0.046-0.59,0.066
		c-0.101,0.011-0.196,0.021-0.288,0.031c-0.098,0.03-0.191,0.071-0.28,0.103c-0.707,0.274-1.126,0.416-1.126,0.416L93.91,83.731z"/>
</g>
<g>
	<path fill="#B8361B" d="M46.902,63.521C45.968,23.46,73.807,1.264,108.904,6.275c32.461,4.636,43.628,43.172,43.628,43.172
		s-6.768-9.665-21.162-9.665c-14.397,0-1.591,22.757-1.591,22.757"/>
</g>
<g>
	<path fill="#F4F4F4" d="M47.422,81.031c-2.005-3.159-5.075-7.746-5.7-11.433c-4.23-24.977,94.914-36.512,95.15-4.507
		c0.046,6.342-5.468,9.837-5.468,9.837s-18.015-4.862-43.772-5.096C61.327,69.593,47.422,81.031,47.422,81.031z"/>
</g>
<g>
	<path fill="#DDDDDD" d="M131.405,74.927c0,0-1.355-0.132-3.728-0.363c-1.18-0.106-2.613-0.236-4.257-0.384
		c-1.639-0.134-3.487-0.286-5.504-0.451c-1.008-0.069-2.057-0.141-3.144-0.215c-1.085-0.069-2.198-0.196-3.355-0.233
		c-2.308-0.108-4.728-0.307-7.237-0.421c-2.513-0.081-5.102-0.213-7.731-0.334c-2.635-0.024-5.308-0.099-7.981-0.168l-0.936-0.028
		l-1.014,0.013l-2.025,0.025c-1.373-0.005-2.642,0.068-3.91,0.146c-0.636,0.035-1.27,0.07-1.9,0.104
		c-0.637,0.061-1.271,0.122-1.901,0.182c-1.262,0.12-2.511,0.236-3.727,0.428c-1.22,0.172-2.426,0.324-3.589,0.557
		c-1.168,0.216-2.32,0.4-3.419,0.67c-1.105,0.248-2.191,0.469-3.218,0.759c-1.035,0.267-2.047,0.507-2.99,0.817
		c-0.954,0.285-1.866,0.571-2.722,0.875c-0.868,0.28-1.687,0.56-2.442,0.861c-0.769,0.275-1.467,0.577-2.124,0.843
		c-0.662,0.256-1.254,0.524-1.791,0.768c-2.15,0.968-3.339,1.655-3.339,1.655s0.227-0.257,0.695-0.699
		c0.474-0.431,1.167-1.084,2.128-1.807c0.954-0.733,2.135-1.615,3.581-2.474c1.426-0.898,3.091-1.831,4.98-2.699
		c1.876-0.899,3.964-1.77,6.232-2.524c1.122-0.423,2.312-0.717,3.519-1.07c1.203-0.378,2.463-0.61,3.738-0.898
		c1.271-0.312,2.585-0.498,3.913-0.7c0.666-0.1,1.335-0.201,2.008-0.303c0.685-0.061,1.375-0.122,2.067-0.184
		c1.389-0.123,2.795-0.267,4.12-0.262l2.024-0.048l1.014-0.024l0.323-0.001l0.256,0.006l0.513,0.015
		c2.735,0.098,5.472,0.19,8.161,0.33c2.686,0.207,5.322,0.493,7.87,0.765c2.547,0.296,4.991,0.737,7.309,1.104
		c2.317,0.38,4.481,0.919,6.482,1.346c2.003,0.424,3.81,0.974,5.415,1.404c1.605,0.433,2.979,0.929,4.116,1.289
		c1.137,0.372,2.011,0.739,2.61,0.954C131.089,74.797,131.405,74.927,131.405,74.927z"/>
</g>
<path fill="#FFFFFF" d="M92.336,112.177c0,0-30.576,13.971-40.305-15.226c0,0-4.198,27.218,19.251,36.761
	C95.49,143.567,92.336,112.177,92.336,112.177z"/>
<path fill="#FFFFFF" d="M91.169,112.177c0,0,30.576,13.971,40.306-15.226c0,0-3.049,33.161-19.25,36.761
	C87.33,139.246,91.169,112.177,91.169,112.177z"/>
<g>
	<path fill="#EBEBEB" d="M52.031,96.951c0,0,0.012,1.326,0.222,3.591c0.213,2.263,0.655,5.475,1.638,9.139
		c1.018,3.646,2.619,7.754,5.241,11.463c1.307,1.853,2.862,3.591,4.64,5.131c1.784,1.531,3.784,2.872,5.939,3.953
		c0.521,0.3,1.083,0.532,1.633,0.785l0.826,0.376l0.827,0.312c1.284,0.501,2.283,0.807,3.377,1.09
		c2.229,0.542,4.393,0.661,6.264,0.182c0.923-0.262,1.796-0.629,2.557-1.187c0.409-0.235,0.736-0.592,1.105-0.888
		c0.315-0.363,0.675-0.678,0.957-1.077c1.193-1.525,2.075-3.313,2.693-5.062c1.222-3.521,1.717-6.753,2.022-9
		c0.287-2.26,0.364-3.583,0.364-3.583s0.088,0.319,0.211,0.927c0.113,0.608,0.299,1.505,0.419,2.661
		c0.129,1.154,0.262,2.568,0.246,4.204c-0.001,1.636-0.093,3.502-0.489,5.534c-0.375,2.03-1.03,4.266-2.367,6.456
		c-1.283,2.181-3.547,4.275-6.378,5.242c-2.826,0.967-5.883,0.915-8.649,0.327c-1.404-0.305-2.899-0.723-4.036-1.171l-1.003-0.369
		l-0.96-0.42c-0.638-0.286-1.287-0.546-1.902-0.892c-2.495-1.286-4.86-2.89-6.896-4.8c-2.048-1.895-3.767-4.07-5.112-6.329
		c-1.354-2.258-2.335-4.602-3.03-6.863c-0.7-2.264-1.086-4.458-1.309-6.476c-0.24-2.017-0.259-3.873-0.202-5.503
		c0.041-1.63,0.216-3.041,0.385-4.191C51.613,98.211,52.031,96.951,52.031,96.951z"/>
</g>
<g>
	<path fill="#EBEBEB" d="M131.475,96.951c0,0,0.112,1.144,0.103,3.149c-0.01,2.004-0.142,4.87-0.62,8.29
		c-0.485,3.416-1.335,7.39-2.859,11.532c-0.763,2.069-1.714,4.177-2.934,6.227c-1.21,2.052-2.71,4.046-4.581,5.792
		c-1.886,1.713-4.209,3.145-6.76,3.837l-0.952,0.251l-0.119,0.03l-0.2,0.037l-0.204,0.033l-0.408,0.065
		c-0.545,0.081-1.086,0.16-1.625,0.24c-0.503,0.097-1.186,0.104-1.766,0.153c-0.601,0.029-1.203,0.094-1.786,0.063
		c-2.32-0.021-4.614-0.429-6.673-1.208c-2.066-0.803-3.796-2.108-5.057-3.512c-0.652-0.694-1.132-1.456-1.588-2.164
		c-0.373-0.757-0.758-1.446-0.988-2.145c-0.557-1.356-0.763-2.604-0.933-3.604c-0.146-1.008-0.184-1.801-0.19-2.341
		c-0.004-0.537-0.006-0.824-0.006-0.824s0.101,0.268,0.289,0.771c0.162,0.505,0.484,1.223,0.862,2.116
		c0.417,0.879,0.939,1.934,1.679,3.007c0.722,1.081,1.668,2.185,2.872,3.083c1.192,0.905,2.605,1.649,4.243,2.039
		c1.645,0.371,3.448,0.493,5.359,0.349c0.476-0.012,0.931-0.128,1.4-0.171c0.486-0.078,0.894-0.073,1.455-0.216
		c0.532-0.115,1.068-0.23,1.606-0.346l0.405-0.081l0.202-0.041l0.051-0.01l0.025-0.005c-0.035,0.007,0.115-0.023-0.072,0.014
		l0.081-0.026l0.645-0.205c1.715-0.564,3.336-1.545,4.773-2.876c1.45-1.318,2.712-2.944,3.843-4.66
		c1.12-1.727,2.106-3.553,2.974-5.387c1.727-3.672,3.062-7.315,4.128-10.482c1.077-3.167,1.879-5.87,2.447-7.77
		C131.157,98.044,131.475,96.951,131.475,96.951z"/>
</g>
<g>
	<path fill="#F1B7B3" d="M97.365,96.823c-3.567-3.297-8.487-2.485-12.122,0c-3.673,2.51-6.186,8.536-4.153,14.027
		c2.51,6.785,14.758,7.42,19.332,1.431C103.326,108.479,102.331,101.413,97.365,96.823z"/>
</g>
<g>
	<path fill="#E0A7A4" d="M80.364,108.033c0,0,0.081,0.082,0.232,0.237c0.145,0.146,0.354,0.414,0.625,0.656
		c0.131,0.12,0.275,0.252,0.432,0.396c0.18,0.132,0.348,0.282,0.533,0.43c0.381,0.289,0.814,0.575,1.283,0.844
		c0.959,0.519,2.081,0.938,3.332,1.205c0.623,0.141,1.287,0.218,1.956,0.301c0.677,0.052,1.368,0.093,2.065,0.082
		c0.697-0.003,1.396-0.049,2.086-0.115c0.685-0.091,1.37-0.162,2.02-0.306c0.654-0.127,1.284-0.281,1.875-0.465
		c0.6-0.173,1.152-0.384,1.669-0.602c0.52-0.216,0.983-0.459,1.407-0.695c0.404-0.249,0.796-0.472,1.083-0.7
		c0.302-0.217,0.54-0.408,0.7-0.544c0.171-0.135,0.263-0.207,0.263-0.207s0.006,0.115-0.004,0.331
		c-0.019,0.211-0.005,0.552-0.112,0.942c-0.078,0.407-0.223,0.893-0.46,1.433c-0.248,0.529-0.586,1.11-1.041,1.683
		c-0.908,1.139-2.268,2.267-3.927,3.014c-0.823,0.394-1.72,0.688-2.65,0.896c-0.93,0.221-1.9,0.3-2.872,0.333
		c-0.973-0.016-1.951-0.093-2.897-0.304c-0.946-0.214-1.864-0.512-2.704-0.935c-0.84-0.416-1.611-0.914-2.257-1.497
		c-0.658-0.561-1.176-1.214-1.589-1.83c-0.394-0.642-0.669-1.262-0.842-1.827c-0.073-0.29-0.147-0.55-0.19-0.798
		c-0.028-0.255-0.054-0.49-0.077-0.701c-0.063-0.41,0.026-0.713,0.024-0.929C80.351,108.147,80.364,108.033,80.364,108.033z"/>
</g>
<ellipse fill="#F4F4F4" cx="154.919" cy="52.876" rx="8.098" ry="7.094"/>
</svg>
