<?xml version="1.0" encoding="utf-8"?>
<!-- Generator: Adobe Illustrator 17.0.0, SVG Export Plug-In . SVG Version: 6.00 Build 0)  -->
<!DOCTYPE svg PUBLIC "-//W3C//DTD SVG 1.1//EN" "http://www.w3.org/Graphics/SVG/1.1/DTD/svg11.dtd">
<svg version="1.1" id="Calque_1" xmlns="http://www.w3.org/2000/svg" xmlns:xlink="http://www.w3.org/1999/xlink" x="0px" y="0px"
	 width="188.102px" height="217.784px" viewBox="0 0 188.102 217.784" enable-background="new 0 0 188.102 217.784"
	 xml:space="preserve">
<g>
	<g>
		<path fill="#42B6A1" d="M81.703,197.57c-2.625-0.022-5.239-0.206-7.829-0.525c0.363-3.057,0.202-6.87-0.587-10.454
			c2.47-1.295,3.763-3.552,4.186-6.198c0.74-0.265,1.276-0.965,1.28-1.798c0.005-1.064-0.852-1.93-1.915-1.935
			c-1.064-0.005-1.93,0.852-1.936,1.917c-0.003,0.733,0.408,1.364,1.008,1.692c-0.334,2.003-1.263,3.667-3.017,4.751
			c-0.575-2.051-1.378-3.957-2.424-5.532c0.156-0.276,0.253-0.59,0.254-0.929c0.006-1.064-0.852-1.931-1.915-1.936
			c-1.063-0.005-1.93,0.853-1.935,1.917c-0.005,1.063,0.853,1.928,1.916,1.933c0.149,0.001,0.292-0.018,0.433-0.05
			c1.601,2.432,2.581,5.836,3.018,9.215c-2.18-0.256-4.977-1.351-6.016-3.323c0.451-0.352,0.748-0.892,0.751-1.508
			c0.004-1.064-0.853-1.93-1.916-1.935c-1.064-0.004-1.931,0.853-1.935,1.918c-0.005,0.955,0.689,1.746,1.601,1.9
			c1.266,2.756,4.708,4.287,7.681,4.538c0.164,2.023,0.134,3.965-0.072,5.614c-4.81-0.703-9.518-1.914-14.034-3.63
			c0.173-1.242,0.254-2.622,0.24-4.073c2.595-1.277,3.937-3.588,4.369-6.302c0.742-0.263,1.278-0.965,1.282-1.798
			c0.004-1.062-0.853-1.929-1.917-1.934c-1.065-0.005-1.929,0.852-1.935,1.915c-0.003,0.733,0.406,1.365,1.009,1.692
			c-0.326,1.95-1.208,3.587-2.869,4.668c-0.27-4.317-1.383-8.952-3.523-12.175c0.154-0.277,0.251-0.592,0.252-0.931
			c0.007-1.064-0.851-1.93-1.915-1.935c-1.062-0.005-1.93,0.853-1.935,1.917c-0.005,1.064,0.854,1.928,1.917,1.934
			c0.149,0,0.292-0.018,0.432-0.049c1.385,2.1,2.304,4.923,2.811,7.835c-2.129-0.715-4.539-2.336-5.166-4.497
			c0.497-0.254,0.885-0.716,1.011-1.305c0.223-1.04-0.438-2.062-1.479-2.285c-1.04-0.223-2.063,0.439-2.285,1.48
			c-0.197,0.919,0.298,1.822,1.133,2.174c0.664,3.095,4.15,5.42,7.035,6.141c0.297,2.49,0.301,4.934,0.046,6.936
			c-3.59-1.466-7.044-3.258-10.318-5.369c0.374-3.067,0.216-6.907-0.579-10.514c2.471-1.295,3.766-3.553,4.188-6.198
			c0.741-0.264,1.278-0.965,1.281-1.799c0.005-1.064-0.854-1.928-1.916-1.933c-1.063-0.006-1.93,0.852-1.934,1.916
			c-0.005,0.733,0.406,1.363,1.008,1.691c-0.338,2.003-1.266,3.67-3.017,4.752c-0.575-2.051-1.379-3.956-2.425-5.531
			c0.156-0.275,0.254-0.59,0.256-0.931c0.005-1.064-0.855-1.929-1.917-1.935c-1.063-0.004-1.93,0.853-1.935,1.918
			c-0.004,1.064,0.854,1.929,1.917,1.934c0.149,0.001,0.292-0.019,0.433-0.051c1.601,2.433,2.58,5.836,3.017,9.215
			c-2.18-0.256-4.976-1.35-6.016-3.323c0.452-0.352,0.749-0.892,0.751-1.508c0.005-1.064-0.853-1.929-1.916-1.934
			s-1.93,0.852-1.934,1.916c-0.005,0.956,0.689,1.748,1.602,1.9c1.262,2.757,4.707,4.288,7.68,4.539
			c0.142,1.74,0.14,3.421,0.005,4.907c-2.134-1.462-4.191-3.055-6.144-4.797c-2.753-2.458-5.193-5.145-7.343-8.011
			c0.01-0.013,0.021-0.023,0.03-0.036c0.721-1.071,1.418-2.343,2.055-3.725c2.875-0.073,5.087-1.562,6.635-3.841
			c0.782,0.075,1.562-0.331,1.92-1.081c0.458-0.96,0.052-2.108-0.907-2.567c-0.96-0.459-2.108-0.053-2.567,0.908
			c-0.316,0.659-0.214,1.401,0.185,1.954c-1.121,1.611-2.602,2.737-4.567,3.002c1.594-4.016,2.562-8.698,1.997-12.518
			c0.258-0.182,0.477-0.425,0.623-0.73c0.459-0.96,0.053-2.108-0.907-2.567c-0.961-0.458-2.108-0.051-2.568,0.908
			c-0.458,0.961-0.051,2.11,0.908,2.567c0.133,0.063,0.268,0.106,0.403,0.137c0.347,2.498-0.027,5.428-0.808,8.267
			c-1.61-1.572-3.101-4.035-2.741-6.251c0.56-0.016,1.107-0.268,1.475-0.747c0.646-0.846,0.483-2.054-0.364-2.699
			c-0.846-0.645-2.053-0.482-2.698,0.362c-0.578,0.758-0.503,1.8,0.123,2.476c-0.688,3.094,1.363,6.586,3.7,8.513
			c-0.792,2.371-1.826,4.583-2.914,6.312c-2.719-3.858-4.933-8.021-6.685-12.386c0.098-0.031,0.193-0.079,0.285-0.153
			c2.642-2.197,4.607-5.319,6.339-8.243c0.09-0.15,0.181-0.31,0.269-0.464c2.848,0.774,5.396-0.04,7.551-1.822
			c0.731,0.292,1.596,0.118,2.148-0.503c0.707-0.796,0.636-2.012-0.159-2.719c-0.797-0.708-2.013-0.635-2.718,0.161
			c-0.484,0.545-0.596,1.284-0.366,1.927c-1.641,1.332-3.504,1.977-5.657,1.522c0.947-1.784,1.767-3.723,2.078-5.689
			c0.305-0.104,0.592-0.278,0.82-0.536c0.707-0.796,0.636-2.012-0.16-2.718c-0.796-0.706-2.012-0.635-2.718,0.16
			c-0.706,0.796-0.636,2.013,0.16,2.719c0.11,0.099,0.231,0.178,0.355,0.246c-0.411,2.905-1.948,6.126-3.876,8.968
			c-1.607-1.663-3.069-4.38-2.546-6.705c0.625,0.096,1.285-0.111,1.735-0.62c0.706-0.796,0.635-2.011-0.16-2.719
			c-0.795-0.706-2.012-0.635-2.72,0.161c-0.562,0.635-0.624,1.531-0.226,2.229c-1.058,3.06,0.789,6.799,2.994,8.947
			c-1.296,1.724-2.69,3.24-4.005,4.372c-1.921-5.139-3.219-10.533-3.965-16.025c1-0.703,1.935-1.516,2.813-2.399
			c2.76,1.12,5.353,0.559,7.695-0.954c0.694,0.379,1.579,0.31,2.202-0.247c0.793-0.709,0.861-1.928,0.151-2.721
			c-0.709-0.792-1.927-0.859-2.72-0.15c-0.547,0.488-0.738,1.216-0.579,1.883c-1.727,1.099-3.576,1.501-5.566,0.933
			c0.847-0.952,1.64-1.945,2.387-2.931c1.747-2.301,3.662-4.913,4.458-7.779c0.312-0.069,0.614-0.209,0.869-0.437
			c0.793-0.71,0.86-1.927,0.15-2.72c-0.71-0.792-1.926-0.859-2.719-0.149c-0.792,0.709-0.86,1.926-0.151,2.718
			c0.098,0.109,0.205,0.201,0.318,0.282c-0.691,2.425-2.356,4.685-3.782,6.639c-0.091,0.125-0.188,0.251-0.28,0.377
			c-0.803-2.035-1.09-4.684,0.031-6.514c0.519,0.192,1.112,0.169,1.629-0.129c0.922-0.533,1.237-1.71,0.704-2.631
			c-0.531-0.921-1.708-1.235-2.629-0.704c-0.815,0.471-1.153,1.447-0.852,2.303c-1.804,2.495-1.262,6.419,0.035,9.084
			c-1.3,1.63-2.761,3.221-4.387,4.48c-0.371-3.239-0.556-6.506-0.564-9.767c-0.001-0.026-0.013-0.043-0.015-0.068
			c0.004-1.536,0.044-3.218,0.173-4.94c3.081-0.224,6.77-1.846,7.96-4.801c0.763-0.266,1.308-0.986,1.296-1.837
			c-0.015-1.063-0.888-1.914-1.951-1.898c-1.065,0.015-1.914,0.888-1.898,1.952c0.01,0.694,0.389,1.292,0.944,1.624
			c-1.075,2.038-4.006,3.167-6.206,3.385c0.373-3.402,1.165-6.792,2.787-9.316c0.14,0.031,0.282,0.048,0.432,0.046
			c1.062-0.014,1.911-0.889,1.899-1.952c-0.016-1.063-0.89-1.914-1.953-1.899c-1.063,0.015-1.913,0.888-1.898,1.953
			c0.005,0.345,0.107,0.662,0.27,0.939c-1.041,1.624-1.777,3.542-2.286,5.593c-1.816-1.063-2.796-2.738-3.155-4.771
			c0.599-0.334,1.004-0.968,0.993-1.703c-0.014-1.063-0.889-1.913-1.952-1.897c-1.063,0.014-1.913,0.889-1.898,1.952
			c0.011,0.834,0.555,1.53,1.301,1.787c0.455,2.685,1.795,4.968,4.364,6.225c-0.73,3.816-0.814,7.886-0.78,11.139
			c-1.946-1.142-3.666-2.717-5.265-4.318c1.038-2.782,1.101-6.665-0.911-8.977c0.227-0.89-0.207-1.84-1.074-2.229
			c-0.97-0.435-2.108-0.002-2.544,0.969c-0.436,0.969-0.002,2.109,0.968,2.544c0.553,0.248,1.155,0.207,1.657-0.047
			c1.302,1.682,1.244,4.374,0.665,6.479c-1.801-1.86-3.781-4.085-4.755-6.555c0.107-0.093,0.207-0.196,0.294-0.315
			c0.625-0.861,0.434-2.065-0.428-2.69c-0.859-0.625-2.062-0.434-2.687,0.427c-0.627,0.86-0.436,2.063,0.424,2.688
			c0.277,0.202,0.59,0.308,0.906,0.346c0.959,2.455,2.831,4.622,4.525,6.532c1.03,1.161,2.155,2.344,3.359,3.445
			c-1.932,0.787-3.797,0.519-5.613-0.39c0.088-0.676-0.18-1.376-0.77-1.805c-0.86-0.626-2.064-0.435-2.69,0.426
			c-0.624,0.861-0.434,2.064,0.427,2.69c0.675,0.49,1.557,0.471,2.208,0.029c2.492,1.275,5.113,1.506,7.736,0.174
			c1.11,0.903,2.279,1.711,3.51,2.339c0.046,0.023,0.09,0.023,0.134,0.037c0.101,2.628,0.317,5.24,0.652,7.826
			c-0.004,0.097,0.01,0.194,0.039,0.287c0.459,3.457,1.135,6.865,2.04,10.195c-1.571-0.655-3.053-1.584-4.464-2.573
			c1.221-2.833,1.527-6.769-0.498-9.204c0.128-0.799-0.251-1.621-1.007-2.014c-0.944-0.49-2.106-0.122-2.596,0.823
			c-0.489,0.945-0.12,2.105,0.822,2.596c0.612,0.318,1.312,0.271,1.864-0.056c1.262,1.882,0.935,4.865,0.118,6.924
			c-0.186-0.138-0.373-0.274-0.557-0.411c-2.217-1.643-4.933-3.763-6.397-6.307c0.096-0.109,0.183-0.23,0.251-0.364
			c0.49-0.944,0.122-2.106-0.822-2.595c-0.943-0.49-2.104-0.122-2.595,0.824c-0.49,0.943-0.121,2.105,0.822,2.595
			c0.309,0.16,0.64,0.219,0.964,0.207c1.003,1.731,2.466,3.222,3.99,4.554c-1.854,1.178-3.82,1.289-5.847,0.629
			c-0.011-0.685-0.379-1.343-1.031-1.681c-0.943-0.49-2.105-0.122-2.595,0.823c-0.49,0.944-0.122,2.105,0.822,2.596
			c0.744,0.386,1.619,0.232,2.198-0.309c2.647,0.882,5.302,0.781,7.699-1c0.128,0.106,0.257,0.215,0.384,0.318
			c2.66,2.185,5.703,4.386,8.998,5.493c0.004,0.001,0.007,0,0.013,0.001c1.244,4.138,2.854,8.145,4.858,11.958
			c-1.955,0.238-4.305,0.237-6.699-0.032c-0.746-2.88-3.087-6.355-6.184-6.997c-0.357-0.833-1.264-1.323-2.183-1.119
			c-1.038,0.229-1.693,1.254-1.465,2.296c0.229,1.037,1.257,1.693,2.295,1.463c0.588-0.129,1.045-0.518,1.297-1.017
			c2.168,0.619,3.804,3.01,4.53,5.135c-2.916-0.487-5.747-1.388-7.854-2.759c0.031-0.14,0.05-0.285,0.049-0.434
			c-0.012-1.064-0.883-1.917-1.946-1.905c-1.063,0.012-1.916,0.882-1.903,1.945c0.011,1.064,0.881,1.916,1.944,1.906
			c0.343-0.005,0.656-0.104,0.932-0.262c3.237,2.119,7.88,3.206,12.196,3.451c-1.074,1.664-2.704,2.559-4.65,2.898
			c-0.332-0.601-0.965-1.008-1.699-1c-1.062,0.012-1.916,0.883-1.903,1.946c0.011,1.064,0.88,1.916,1.945,1.904
			c0.834-0.008,1.532-0.55,1.792-1.294c2.707-0.45,5.013-1.799,6.272-4.405c1.435,0.005,2.8-0.082,4.029-0.26
			c2.737,4.893,6.146,9.446,10.286,13.536c-1.648,0.482-3.624,0.831-5.706,0.994c-0.689-2.837-2.787-6.108-5.697-6.89
			c-0.308-0.855-1.188-1.397-2.119-1.246c-1.048,0.172-1.759,1.162-1.588,2.212c0.172,1.05,1.161,1.761,2.212,1.588
			c0.597-0.098,1.076-0.464,1.354-0.952c2.122,0.724,3.621,3.218,4.237,5.371c-3.399,0.1-6.897-0.328-9.566-1.521
			c0.009-0.139,0.005-0.281-0.018-0.422c-0.172-1.05-1.162-1.761-2.211-1.589c-1.052,0.171-1.762,1.163-1.59,2.211
			c0.173,1.051,1.163,1.762,2.212,1.588c0.334-0.055,0.627-0.199,0.875-0.395c1.715,0.788,3.727,1.283,5.845,1.531
			c-0.78,1.907-2.307,3.068-4.218,3.712c-0.421-0.54-1.105-0.841-1.825-0.725c-1.051,0.173-1.762,1.162-1.589,2.211
			c0.173,1.05,1.163,1.76,2.211,1.588c0.821-0.135,1.428-0.77,1.574-1.541c2.552-0.825,4.559-2.489,5.46-5.106
			c3.932,0.236,8.025-0.285,11.035-1.247c0.143-0.046,0.245-0.123,0.33-0.211c3.146,2.935,6.602,5.478,10.278,7.647
			c-1.757,0.855-3.9,1.611-6.156,2.143c-1.765-2.523-4.987-4.849-8.141-4.449c-0.613-0.694-1.652-0.867-2.464-0.358
			c-0.899,0.567-1.171,1.755-0.604,2.655c0.566,0.901,1.754,1.171,2.654,0.605c0.517-0.324,0.816-0.854,0.88-1.416
			c2.233-0.158,4.605,1.589,5.99,3.313c-2.895,0.521-5.846,0.622-8.32,0.053c-0.017-0.139-0.048-0.276-0.1-0.411
			c-0.369-0.998-1.478-1.506-2.475-1.135c-0.998,0.37-1.505,1.476-1.136,2.474c0.371,0.997,1.477,1.506,2.476,1.136
			c0.316-0.119,0.577-0.315,0.78-0.554c3.736,0.911,8.504,0.354,12.655-0.876c-0.43,1.94-1.712,3.317-3.409,4.289
			c-0.513-0.448-1.244-0.613-1.928-0.359c-0.998,0.37-1.505,1.477-1.136,2.475c0.37,0.997,1.478,1.505,2.475,1.135
			c0.781-0.29,1.255-1.031,1.249-1.819c2.42-1.333,4.064-3.415,4.407-6.262c1.442-0.509,2.775-1.088,3.91-1.706
			c4.743,2.606,9.827,4.584,15.077,5.956c-1.315,0.868-2.898,1.714-4.605,2.45c-1.6-2.465-4.598-4.882-7.613-4.68
			c-0.567-0.712-1.577-0.941-2.408-0.495c-0.938,0.5-1.292,1.667-0.789,2.604c0.501,0.938,1.668,1.291,2.605,0.79
			c0.526-0.283,0.862-0.777,0.97-1.321c2.261,0.01,4.463,1.845,5.748,3.701c-3.188,1.197-6.642,1.927-9.543,1.653
			c-0.035-0.137-0.086-0.271-0.155-0.403c-0.503-0.938-1.669-1.291-2.607-0.789c-0.937,0.501-1.291,1.668-0.79,2.605
			c0.503,0.938,1.67,1.293,2.607,0.79c0.298-0.159,0.531-0.391,0.702-0.657c1.876,0.189,3.938,0.008,6.022-0.44
			c-0.137,2.058-1.181,3.648-2.791,4.879c-0.57-0.375-1.317-0.442-1.963-0.098c-0.938,0.502-1.292,1.669-0.79,2.606
			c0.502,0.939,1.669,1.291,2.606,0.789c0.732-0.393,1.103-1.191,0.991-1.97c2.146-1.613,3.537-3.809,3.535-6.598
			c3.776-1.037,7.455-2.833,9.98-4.711c0.089-0.064,0.155-0.142,0.207-0.224c5.025,1.161,10.182,1.768,15.322,1.811
			C82.706,199.146,82.715,197.579,81.703,197.57z"/>
		<path fill="#42B6A1" d="M167.888,136.08c-0.021,2.627-0.206,5.241-0.525,7.831c-3.057-0.362-6.871-0.203-10.454,0.587
			c-1.296-2.47-3.553-3.764-6.199-4.187c-0.264-0.742-0.964-1.277-1.799-1.281c-1.064-0.005-1.929,0.853-1.934,1.916
			c-0.004,1.064,0.852,1.929,1.916,1.935c0.733,0.002,1.364-0.407,1.692-1.008c2.003,0.335,3.668,1.264,4.751,3.015
			c-2.049,0.576-3.956,1.38-5.531,2.424c-0.276-0.154-0.59-0.252-0.93-0.253c-1.063-0.006-1.931,0.853-1.934,1.916
			c-0.006,1.063,0.852,1.93,1.916,1.935c1.064,0.005,1.93-0.853,1.934-1.917c0.001-0.149-0.019-0.292-0.051-0.431
			c2.433-1.601,5.837-2.581,9.215-3.018c-0.256,2.18-1.35,4.977-3.323,6.016c-0.351-0.452-0.891-0.749-1.508-0.751
			c-1.064-0.005-1.929,0.853-1.934,1.917c-0.004,1.063,0.854,1.929,1.917,1.934c0.955,0.004,1.746-0.689,1.901-1.602
			c2.756-1.263,4.286-4.706,4.537-7.681c2.023-0.164,3.965-0.133,5.615,0.075c-0.703,4.809-1.915,9.517-3.631,14.034
			c-1.242-0.172-2.621-0.254-4.072-0.241c-1.277-2.595-3.588-3.937-6.302-4.369c-0.263-0.742-0.964-1.277-1.798-1.281
			c-1.064-0.004-1.929,0.852-1.934,1.915c-0.005,1.064,0.852,1.931,1.917,1.936c0.732,0.002,1.362-0.407,1.689-1.008
			c1.95,0.325,3.586,1.208,4.669,2.869c-4.316,0.269-8.951,1.383-12.174,3.524c-0.277-0.155-0.593-0.253-0.933-0.254
			c-1.062-0.005-1.929,0.853-1.934,1.917c-0.006,1.062,0.853,1.928,1.916,1.934c1.063,0.005,1.93-0.854,1.936-1.917
			c0-0.15-0.02-0.293-0.052-0.432c2.101-1.384,4.924-2.303,7.837-2.81c-0.716,2.128-2.338,4.537-4.497,5.165
			c-0.255-0.497-0.715-0.884-1.306-1.01c-1.039-0.222-2.062,0.439-2.284,1.479c-0.224,1.041,0.44,2.063,1.48,2.286
			c0.919,0.197,1.822-0.298,2.174-1.134c3.095-0.665,5.419-4.15,6.141-7.035c2.491-0.296,4.934-0.301,6.936-0.046
			c-1.468,3.59-3.259,7.044-5.37,10.318c-3.067-0.373-6.905-0.216-10.513,0.579c-1.296-2.47-3.552-3.765-6.198-4.186
			c-0.265-0.742-0.965-1.278-1.799-1.282c-1.064-0.004-1.929,0.853-1.934,1.917c-0.007,1.064,0.853,1.928,1.917,1.933
			c0.733,0.004,1.363-0.406,1.69-1.007c2.003,0.335,3.669,1.266,4.752,3.017c-2.052,0.576-3.956,1.379-5.531,2.426
			c-0.276-0.157-0.591-0.254-0.931-0.256c-1.065-0.005-1.93,0.854-1.936,1.917c-0.004,1.063,0.855,1.929,1.919,1.934
			c1.063,0.004,1.928-0.852,1.933-1.915c0.001-0.15-0.018-0.294-0.051-0.434c2.432-1.601,5.836-2.58,9.215-3.016
			c-0.256,2.18-1.351,4.975-3.322,6.015c-0.352-0.452-0.893-0.749-1.508-0.751c-1.065-0.004-1.93,0.853-1.935,1.917
			c-0.005,1.063,0.852,1.928,1.917,1.933c0.955,0.004,1.746-0.689,1.9-1.603c2.757-1.261,4.287-4.706,4.538-7.68
			c1.739-0.139,3.421-0.138,4.907-0.004c-1.463,2.135-3.055,4.192-4.797,6.145c-2.46,2.752-5.145,5.193-8.01,7.343
			c-0.013-0.009-0.023-0.021-0.037-0.031c-1.071-0.721-2.344-1.419-3.726-2.053c-0.072-2.876-1.563-5.088-3.841-6.636
			c0.074-0.781-0.331-1.561-1.081-1.919c-0.96-0.458-2.109-0.051-2.567,0.907c-0.459,0.96-0.052,2.109,0.909,2.567
			c0.657,0.315,1.4,0.215,1.953-0.185c1.612,1.121,2.737,2.602,3.002,4.567c-4.015-1.594-8.698-2.562-12.517-1.997
			c-0.184-0.258-0.426-0.479-0.73-0.624c-0.96-0.458-2.109-0.051-2.568,0.908c-0.456,0.96-0.05,2.108,0.909,2.568
			c0.96,0.457,2.11,0.05,2.567-0.91c0.062-0.13,0.105-0.266,0.137-0.401c2.498-0.347,5.428,0.026,8.268,0.808
			c-1.573,1.609-4.035,3.1-6.25,2.74c-0.018-0.56-0.269-1.107-0.749-1.475c-0.846-0.645-2.054-0.482-2.698,0.363
			c-0.646,0.847-0.483,2.054,0.361,2.699c0.758,0.578,1.8,0.504,2.475-0.122c3.094,0.688,6.587-1.363,8.514-3.7
			c2.37,0.792,4.583,1.827,6.312,2.913c-3.858,2.718-8.021,4.933-12.386,6.685c-0.031-0.097-0.077-0.193-0.153-0.285
			c-2.197-2.642-5.318-4.609-8.243-6.338c-0.149-0.09-0.308-0.18-0.463-0.27c0.773-2.847-0.039-5.394-1.821-7.551
			c0.291-0.73,0.118-1.595-0.505-2.148c-0.795-0.706-2.013-0.635-2.717,0.162c-0.708,0.795-0.636,2.01,0.16,2.717
			c0.546,0.484,1.285,0.595,1.927,0.364c1.332,1.642,1.979,3.505,1.523,5.658c-1.785-0.949-3.724-1.768-5.69-2.078
			c-0.103-0.306-0.277-0.592-0.534-0.82c-0.797-0.708-2.013-0.636-2.72,0.16c-0.705,0.795-0.634,2.011,0.16,2.718
			c0.797,0.706,2.013,0.636,2.72-0.16c0.099-0.111,0.177-0.232,0.246-0.355c2.903,0.411,6.126,1.947,8.968,3.875
			c-1.664,1.608-4.381,3.069-6.705,2.546c0.098-0.625-0.11-1.285-0.619-1.736c-0.797-0.706-2.012-0.635-2.719,0.16
			c-0.707,0.795-0.635,2.013,0.161,2.718c0.634,0.563,1.529,0.625,2.228,0.226c3.061,1.06,6.801-0.788,8.947-2.992
			c1.725,1.294,3.24,2.69,4.371,4.004c-5.139,1.921-10.532,3.218-16.025,3.965c-0.703-0.999-1.517-1.934-2.399-2.813
			c1.12-2.761,0.559-5.353-0.955-7.695c0.381-0.696,0.311-1.579-0.248-2.203c-0.708-0.793-1.926-0.86-2.719-0.151
			c-0.792,0.709-0.859,1.926-0.15,2.719c0.489,0.546,1.217,0.738,1.884,0.579c1.098,1.727,1.501,3.576,0.934,5.566
			c-0.952-0.846-1.945-1.639-2.932-2.387c-2.302-1.746-4.912-3.664-7.779-4.458c-0.068-0.312-0.207-0.613-0.437-0.869
			c-0.71-0.794-1.926-0.86-2.719-0.15c-0.791,0.71-0.859,1.925-0.15,2.718c0.71,0.792,1.927,0.86,2.719,0.151
			c0.108-0.096,0.201-0.205,0.282-0.318c2.425,0.691,4.685,2.357,6.639,3.783c0.125,0.092,0.251,0.187,0.376,0.281
			c-2.035,0.802-4.684,1.089-6.515-0.031c0.193-0.519,0.17-1.113-0.128-1.63c-0.533-0.922-1.71-1.236-2.631-0.704
			c-0.922,0.531-1.236,1.709-0.705,2.629c0.471,0.816,1.448,1.153,2.305,0.853c2.494,1.803,6.417,1.261,9.084-0.035
			c1.63,1.299,3.221,2.76,4.48,4.387c-3.239,0.37-6.506,0.556-9.768,0.562c-0.026,0.001-0.044,0.013-0.067,0.015
			c-1.536-0.004-3.219-0.044-4.94-0.173c-0.225-3.08-1.847-6.768-4.802-7.96c-0.265-0.761-0.988-1.307-1.839-1.295
			c-1.063,0.015-1.912,0.889-1.898,1.953c0.016,1.064,0.89,1.914,1.953,1.898c0.693-0.01,1.291-0.389,1.623-0.945
			c2.039,1.074,3.166,4.005,3.385,6.206c-3.401-0.372-6.793-1.165-9.315-2.787c0.03-0.139,0.048-0.283,0.047-0.432
			c-0.016-1.063-0.889-1.912-1.952-1.898c-1.064,0.015-1.913,0.889-1.899,1.954c0.016,1.062,0.889,1.912,1.953,1.896
			c0.344-0.004,0.66-0.106,0.939-0.269c1.622,1.04,3.542,1.776,5.594,2.286c-1.064,1.815-2.739,2.794-4.774,3.154
			c-0.332-0.599-0.968-1.004-1.7-0.993c-1.063,0.014-1.914,0.888-1.899,1.953c0.014,1.064,0.888,1.913,1.951,1.898
			c0.835-0.012,1.532-0.556,1.787-1.301c2.687-0.455,4.968-1.795,6.225-4.364c3.817,0.729,7.887,0.814,11.141,0.781
			c-1.142,1.946-2.718,3.664-4.318,5.264c-2.781-1.039-6.665-1.102-8.976,0.911c-0.891-0.228-1.839,0.206-2.229,1.073
			c-0.436,0.97-0.004,2.11,0.969,2.545c0.97,0.436,2.108,0.002,2.546-0.967c0.245-0.553,0.204-1.156-0.049-1.658
			c1.682-1.303,4.375-1.244,6.479-0.665c-1.859,1.801-4.085,3.78-6.553,4.757c-0.094-0.108-0.197-0.209-0.316-0.295
			c-0.86-0.625-2.064-0.435-2.689,0.428c-0.626,0.859-0.434,2.063,0.427,2.688c0.86,0.624,2.064,0.434,2.688-0.424
			c0.2-0.278,0.31-0.59,0.346-0.907c2.454-0.958,4.621-2.83,6.532-4.525c1.16-1.029,2.344-2.154,3.444-3.36
			c0.786,1.933,0.519,3.798-0.39,5.614c-0.676-0.086-1.376,0.18-1.805,0.771c-0.626,0.862-0.435,2.064,0.425,2.69
			c0.862,0.624,2.065,0.434,2.69-0.428c0.49-0.674,0.472-1.556,0.03-2.208c1.274-2.491,1.506-5.112,0.173-7.736
			c0.903-1.11,1.711-2.28,2.339-3.51c0.023-0.046,0.023-0.088,0.037-0.134c2.627-0.1,5.239-0.317,7.826-0.651
			c0.098,0.004,0.194-0.01,0.286-0.038c3.457-0.461,6.865-1.138,10.195-2.042c-0.656,1.571-1.584,3.054-2.572,4.464
			c-2.835-1.22-6.77-1.527-9.205,0.498c-0.798-0.127-1.621,0.251-2.013,1.008c-0.49,0.943-0.121,2.105,0.823,2.594
			c0.943,0.49,2.104,0.122,2.596-0.822c0.317-0.612,0.27-1.312-0.056-1.864c1.883-1.261,4.865-0.935,6.923-0.118
			c-0.138,0.186-0.274,0.372-0.41,0.557c-1.643,2.217-3.764,4.932-6.306,6.397c-0.111-0.095-0.231-0.182-0.366-0.252
			c-0.944-0.49-2.105-0.121-2.595,0.823c-0.49,0.946-0.122,2.106,0.823,2.596c0.942,0.489,2.105,0.12,2.595-0.823
			c0.16-0.309,0.221-0.64,0.207-0.964c1.731-1.003,3.222-2.465,4.555-3.991c1.178,1.854,1.288,3.822,0.629,5.847
			c-0.686,0.011-1.343,0.38-1.682,1.031c-0.488,0.944-0.122,2.105,0.824,2.594c0.943,0.49,2.105,0.123,2.595-0.822
			c0.386-0.743,0.232-1.618-0.309-2.197c0.883-2.648,0.781-5.303-0.999-7.701c0.105-0.128,0.215-0.257,0.319-0.384
			c2.184-2.66,4.385-5.703,5.489-8.999c0.003-0.003,0-0.006,0.003-0.011c4.138-1.246,8.145-2.854,11.958-4.859
			c0.237,1.954,0.237,4.304-0.032,6.699c-2.881,0.746-6.354,3.085-6.996,6.184c-0.833,0.357-1.323,1.264-1.119,2.181
			c0.229,1.039,1.254,1.695,2.295,1.466c1.038-0.23,1.693-1.256,1.464-2.295c-0.129-0.588-0.519-1.046-1.017-1.298
			c0.619-2.167,3.009-3.802,5.135-4.528c-0.488,2.915-1.388,5.746-2.76,7.853c-0.139-0.03-0.285-0.049-0.434-0.047
			c-1.063,0.012-1.916,0.882-1.905,1.946c0.013,1.064,0.883,1.916,1.946,1.904c1.064-0.012,1.917-0.882,1.906-1.945
			c-0.006-0.341-0.104-0.656-0.263-0.932c2.119-3.237,3.206-7.879,3.452-12.195c1.665,1.074,2.559,2.704,2.898,4.648
			c-0.6,0.333-1.009,0.966-1,1.701c0.012,1.063,0.882,1.916,1.945,1.904c1.065-0.012,1.916-0.881,1.905-1.945
			c-0.009-0.835-0.55-1.533-1.295-1.793c-0.449-2.708-1.8-5.012-4.406-6.271c0.008-1.437-0.081-2.799-0.259-4.029
			c4.893-2.738,9.445-6.147,13.536-10.287c0.481,1.649,0.831,3.624,0.992,5.708c-2.836,0.689-6.105,2.785-6.888,5.697
			c-0.855,0.306-1.396,1.188-1.246,2.118c0.173,1.049,1.162,1.76,2.212,1.588c1.051-0.172,1.762-1.162,1.589-2.211
			c-0.099-0.598-0.464-1.077-0.953-1.354c0.725-2.123,3.219-3.621,5.372-4.237c0.1,3.399-0.328,6.895-1.522,9.566
			c-0.138-0.008-0.279-0.004-0.422,0.02c-1.051,0.17-1.761,1.161-1.589,2.211c0.172,1.05,1.162,1.76,2.212,1.588
			c1.05-0.173,1.762-1.163,1.588-2.212c-0.055-0.335-0.199-0.628-0.394-0.874c0.787-1.715,1.282-3.727,1.529-5.845
			c1.907,0.781,3.069,2.308,3.712,4.218c-0.538,0.419-0.842,1.105-0.725,1.826c0.173,1.049,1.163,1.759,2.212,1.588
			c1.05-0.172,1.761-1.163,1.588-2.211c-0.134-0.821-0.77-1.427-1.541-1.574c-0.826-2.552-2.489-4.559-5.106-5.46
			c0.235-3.933-0.284-8.025-1.247-11.036c-0.044-0.143-0.123-0.245-0.211-0.331c2.934-3.145,5.478-6.602,7.647-10.278
			c0.855,1.756,1.61,3.901,2.143,6.156c-2.524,1.765-4.849,4.988-4.449,8.142c-0.693,0.613-0.867,1.652-0.357,2.463
			c0.566,0.899,1.755,1.171,2.654,0.603c0.9-0.565,1.172-1.754,0.605-2.654c-0.324-0.517-0.855-0.815-1.416-0.88
			c-0.158-2.233,1.589-4.605,3.312-5.99c0.521,2.895,0.621,5.845,0.053,8.319c-0.139,0.018-0.275,0.049-0.41,0.101
			c-0.998,0.37-1.507,1.477-1.137,2.475c0.37,0.997,1.477,1.505,2.475,1.135c0.997-0.371,1.506-1.478,1.136-2.475
			c-0.117-0.317-0.314-0.577-0.554-0.782c0.912-3.735,0.355-8.503-0.875-12.654c1.94,0.429,3.317,1.711,4.287,3.408
			c-0.445,0.513-0.612,1.244-0.358,1.929c0.37,0.997,1.478,1.504,2.476,1.134c0.997-0.37,1.504-1.477,1.134-2.475
			c-0.288-0.781-1.031-1.253-1.818-1.249c-1.332-2.42-3.415-4.064-6.263-4.408c-0.508-1.442-1.088-2.774-1.706-3.908
			c2.606-4.744,4.585-9.828,5.957-15.078c0.868,1.314,1.714,2.898,2.449,4.605c-2.464,1.6-4.883,4.597-4.679,7.613
			c-0.712,0.568-0.941,1.577-0.495,2.408c0.499,0.938,1.665,1.292,2.604,0.79c0.939-0.502,1.291-1.668,0.791-2.607
			c-0.283-0.527-0.778-0.862-1.322-0.97c0.011-2.261,1.846-4.462,3.701-5.748c1.197,3.189,1.929,6.643,1.653,9.542
			c-0.136,0.038-0.271,0.088-0.402,0.158c-0.938,0.501-1.291,1.668-0.789,2.606c0.503,0.938,1.669,1.291,2.605,0.789
			c0.939-0.501,1.292-1.669,0.789-2.605c-0.158-0.299-0.391-0.531-0.657-0.702c0.189-1.877,0.008-3.939-0.438-6.023
			c2.057,0.137,3.647,1.18,4.877,2.79c-0.374,0.572-0.441,1.319-0.097,1.963c0.502,0.939,1.669,1.292,2.606,0.79
			c0.939-0.502,1.291-1.67,0.789-2.607c-0.393-0.733-1.192-1.102-1.97-0.991c-1.614-2.146-3.811-3.537-6.598-3.536
			c-1.038-3.776-2.833-7.455-4.711-9.979c-0.065-0.089-0.142-0.156-0.224-0.208c1.16-5.025,1.768-10.182,1.811-15.322
			C169.462,135.078,167.897,135.07,167.888,136.08z"/>
		<path fill="#42B6A1" d="M106.4,49.896c2.625,0.023,5.238,0.207,7.83,0.525c-0.363,3.058-0.203,6.872,0.586,10.454
			c-2.47,1.296-3.765,3.553-4.187,6.2c-0.741,0.264-1.276,0.965-1.28,1.798c-0.006,1.063,0.852,1.929,1.915,1.934
			c1.065,0.005,1.93-0.853,1.936-1.916c0.002-0.733-0.408-1.364-1.008-1.692c0.334-2.003,1.263-3.669,3.015-4.751
			c0.576,2.05,1.379,3.956,2.425,5.53c-0.155,0.277-0.253,0.591-0.255,0.931c-0.005,1.064,0.854,1.929,1.917,1.935
			c1.063,0.005,1.93-0.853,1.935-1.916c0.006-1.063-0.854-1.93-1.917-1.934c-0.148-0.001-0.292,0.02-0.432,0.05
			c-1.602-2.431-2.581-5.835-3.019-9.214c2.181,0.256,4.978,1.351,6.017,3.323c-0.451,0.35-0.748,0.891-0.751,1.507
			c-0.005,1.063,0.853,1.929,1.916,1.934c1.064,0.005,1.93-0.853,1.935-1.917c0.004-0.955-0.689-1.746-1.602-1.9
			c-1.265-2.757-4.708-4.288-7.681-4.539c-0.164-2.022-0.134-3.964,0.073-5.614c4.81,0.702,9.517,1.915,14.033,3.631
			c-0.172,1.24-0.253,2.62-0.239,4.071c-2.596,1.277-3.938,3.588-4.369,6.301c-0.743,0.264-1.278,0.965-1.282,1.798
			c-0.005,1.064,0.853,1.93,1.916,1.934c1.064,0.005,1.929-0.853,1.935-1.917c0.002-0.733-0.406-1.364-1.008-1.692
			c0.326-1.949,1.207-3.585,2.868-4.669c0.269,4.317,1.384,8.953,3.524,12.175c-0.155,0.277-0.253,0.592-0.254,0.932
			c-0.005,1.064,0.854,1.929,1.917,1.934c1.063,0.004,1.929-0.853,1.935-1.917c0.004-1.063-0.855-1.93-1.918-1.935
			c-0.148,0-0.292,0.02-0.432,0.051c-1.384-2.1-2.304-4.925-2.81-7.836c2.129,0.714,4.538,2.335,5.165,4.497
			c-0.498,0.255-0.885,0.715-1.01,1.305c-0.224,1.04,0.438,2.063,1.478,2.285c1.042,0.223,2.064-0.439,2.286-1.479
			c0.197-0.92-0.299-1.824-1.134-2.175c-0.664-3.094-4.15-5.419-7.034-6.141c-0.298-2.491-0.302-4.934-0.046-6.936
			c3.59,1.467,7.043,3.258,10.317,5.369c-0.372,3.067-0.216,6.907,0.579,10.512c-2.471,1.296-3.765,3.554-4.186,6.2
			c-0.742,0.265-1.277,0.965-1.282,1.799c-0.004,1.064,0.854,1.929,1.917,1.934c1.063,0.005,1.929-0.853,1.934-1.916
			c0.004-0.733-0.406-1.364-1.007-1.691c0.334-2.003,1.264-3.67,3.015-4.751c0.576,2.05,1.38,3.956,2.426,5.53
			c-0.156,0.276-0.254,0.591-0.255,0.931c-0.006,1.064,0.853,1.929,1.916,1.935c1.063,0.004,1.931-0.853,1.934-1.917
			c0.005-1.063-0.853-1.93-1.916-1.934c-0.149-0.001-0.293,0.02-0.433,0.05c-1.602-2.431-2.58-5.835-3.017-9.213
			c2.18,0.255,4.977,1.351,6.015,3.323c-0.451,0.35-0.748,0.891-0.751,1.507c-0.004,1.064,0.853,1.929,1.917,1.933
			c1.063,0.005,1.929-0.852,1.934-1.916c0.005-0.956-0.689-1.746-1.603-1.901c-1.263-2.757-4.706-4.289-7.681-4.538
			c-0.14-1.74-0.138-3.42-0.004-4.907c2.133,1.463,4.191,3.053,6.146,4.796c2.752,2.459,5.193,5.145,7.343,8.01
			c-0.01,0.013-0.02,0.023-0.031,0.038c-0.721,1.071-1.417,2.343-2.054,3.724c-2.876,0.072-5.087,1.563-6.636,3.841
			c-0.782-0.074-1.562,0.331-1.919,1.081c-0.459,0.96-0.052,2.109,0.908,2.567c0.958,0.459,2.107,0.053,2.566-0.908
			c0.314-0.659,0.215-1.402-0.186-1.954c1.121-1.612,2.602-2.737,4.568-3.002c-1.595,4.016-2.563,8.698-1.998,12.517
			c-0.257,0.184-0.478,0.425-0.623,0.73c-0.458,0.961-0.052,2.11,0.907,2.567c0.961,0.458,2.109,0.052,2.568-0.908
			c0.459-0.96,0.052-2.108-0.909-2.567c-0.131-0.062-0.265-0.106-0.401-0.137c-0.346-2.499,0.027-5.429,0.808-8.268
			c1.609,1.572,3.101,4.036,2.74,6.251c-0.559,0.017-1.108,0.268-1.475,0.75c-0.646,0.844-0.483,2.052,0.363,2.697
			c0.847,0.646,2.053,0.483,2.698-0.363c0.578-0.756,0.505-1.799-0.122-2.473c0.686-3.096-1.364-6.588-3.7-8.515
			c0.791-2.371,1.826-4.583,2.914-6.312c2.718,3.858,4.933,8.021,6.685,12.385c-0.099,0.03-0.193,0.078-0.286,0.153
			c-2.642,2.197-4.608,5.319-6.338,8.242c-0.09,0.15-0.18,0.309-0.269,0.463c-2.848-0.772-5.396,0.042-7.553,1.823
			c-0.73-0.291-1.595-0.119-2.148,0.503c-0.707,0.795-0.635,2.012,0.161,2.718c0.796,0.706,2.011,0.634,2.717-0.16
			c0.484-0.546,0.596-1.287,0.364-1.928c1.642-1.331,3.506-1.978,5.658-1.522c-0.948,1.784-1.767,3.723-2.078,5.688
			c-0.305,0.104-0.591,0.278-0.819,0.536c-0.707,0.796-0.636,2.013,0.159,2.719c0.796,0.707,2.013,0.634,2.718-0.161
			c0.707-0.795,0.636-2.012-0.16-2.718c-0.11-0.099-0.23-0.178-0.354-0.247c0.41-2.903,1.947-6.126,3.875-8.967
			c1.607,1.664,3.07,4.38,2.547,6.704c-0.625-0.097-1.285,0.113-1.735,0.62c-0.707,0.796-0.635,2.012,0.16,2.719
			c0.795,0.707,2.012,0.634,2.718-0.161c0.564-0.634,0.625-1.531,0.226-2.229c1.06-3.061-0.787-6.8-2.992-8.947
			c1.295-1.723,2.691-3.239,4.005-4.369c1.92,5.136,3.218,10.531,3.965,16.022c-0.999,0.704-1.936,1.518-2.813,2.4
			c-2.761-1.121-5.354-0.558-7.696,0.955c-0.694-0.379-1.577-0.31-2.201,0.249c-0.793,0.709-0.861,1.925-0.152,2.718
			c0.71,0.793,1.927,0.861,2.72,0.15c0.547-0.488,0.739-1.218,0.579-1.884c1.727-1.097,3.577-1.501,5.567-0.933
			c-0.847,0.952-1.64,1.947-2.386,2.931c-1.747,2.301-3.665,4.911-4.459,7.779c-0.312,0.069-0.614,0.207-0.869,0.437
			c-0.793,0.709-0.861,1.925-0.149,2.717c0.708,0.792,1.925,0.86,2.717,0.151c0.792-0.709,0.86-1.926,0.151-2.718
			c-0.097-0.108-0.205-0.2-0.318-0.282c0.691-2.425,2.357-4.685,3.782-6.639c0.092-0.124,0.188-0.25,0.281-0.376
			c0.802,2.034,1.09,4.682-0.031,6.514c-0.519-0.193-1.112-0.17-1.63,0.13c-0.922,0.532-1.236,1.709-0.705,2.629
			c0.532,0.922,1.709,1.236,2.631,0.706c0.816-0.472,1.153-1.449,0.852-2.305c1.803-2.495,1.262-6.417-0.035-9.083
			c1.3-1.63,2.761-3.222,4.386-4.48c0.371,3.24,0.557,6.506,0.564,9.768c0.001,0.026,0.013,0.044,0.015,0.068
			c-0.004,1.536-0.043,3.218-0.174,4.939c-3.079,0.225-6.769,1.846-7.959,4.803c-0.762,0.263-1.308,0.986-1.296,1.837
			c0.016,1.064,0.889,1.913,1.952,1.898c1.066-0.015,1.914-0.89,1.898-1.953c-0.01-0.695-0.389-1.292-0.945-1.623
			c1.075-2.039,4.005-3.166,6.207-3.384c-0.372,3.401-1.166,6.792-2.788,9.315c-0.139-0.03-0.283-0.048-0.432-0.047
			c-1.062,0.017-1.911,0.889-1.898,1.954c0.017,1.063,0.891,1.911,1.953,1.898c1.063-0.016,1.914-0.889,1.899-1.954
			c-0.006-0.344-0.108-0.66-0.27-0.939c1.041-1.623,1.777-3.543,2.286-5.594c1.815,1.064,2.795,2.739,3.155,4.773
			c-0.599,0.333-1.005,0.969-0.993,1.701c0.014,1.063,0.888,1.914,1.951,1.899c1.064-0.015,1.914-0.888,1.897-1.952
			c-0.011-0.835-0.555-1.531-1.301-1.787c-0.453-2.686-1.794-4.967-4.363-6.224c0.73-3.817,0.814-7.887,0.78-11.141
			c1.946,1.143,3.665,2.717,5.265,4.318c-1.038,2.782-1.102,6.664,0.91,8.976c-0.227,0.89,0.207,1.839,1.073,2.23
			c0.971,0.434,2.11,0.003,2.546-0.969c0.435-0.97,0.001-2.108-0.968-2.544c-0.553-0.247-1.157-0.206-1.657,0.048
			c-1.303-1.684-1.244-4.375-0.666-6.479c1.801,1.859,3.78,4.084,4.756,6.553c-0.107,0.094-0.208,0.197-0.295,0.317
			c-0.625,0.86-0.434,2.064,0.428,2.688c0.859,0.625,2.063,0.435,2.688-0.426c0.625-0.861,0.436-2.065-0.425-2.689
			c-0.276-0.2-0.59-0.309-0.906-0.345c-0.958-2.455-2.83-4.623-4.526-6.532c-1.029-1.161-2.153-2.343-3.359-3.445
			c1.933-0.786,3.799-0.518,5.613,0.39c-0.085,0.676,0.181,1.376,0.771,1.804c0.861,0.626,2.065,0.436,2.689-0.425
			c0.625-0.861,0.435-2.065-0.427-2.689c-0.675-0.49-1.556-0.473-2.208-0.03c-2.491-1.275-5.113-1.506-7.735-0.173
			c-1.11-0.903-2.28-1.711-3.511-2.34c-0.045-0.023-0.089-0.022-0.134-0.038c-0.101-2.626-0.315-5.24-0.652-7.826
			c0.004-0.096-0.01-0.193-0.037-0.284c-0.461-3.458-1.138-6.867-2.042-10.196c1.571,0.656,3.053,1.584,4.465,2.572
			c-1.221,2.834-1.527,6.77,0.499,9.205c-0.128,0.796,0.25,1.62,1.006,2.012c0.943,0.489,2.105,0.121,2.595-0.823
			c0.49-0.944,0.121-2.106-0.821-2.596c-0.612-0.316-1.312-0.269-1.864,0.057c-1.263-1.883-0.936-4.866-0.118-6.923
			c0.186,0.136,0.372,0.273,0.557,0.41c2.216,1.643,4.932,3.764,6.396,6.307c-0.095,0.111-0.182,0.23-0.251,0.365
			c-0.49,0.944-0.121,2.106,0.821,2.595c0.946,0.49,2.106,0.121,2.597-0.822c0.489-0.945,0.12-2.106-0.823-2.596
			c-0.308-0.16-0.64-0.22-0.964-0.206c-1.003-1.732-2.465-3.223-3.99-4.556c1.854-1.179,3.822-1.288,5.848-0.628
			c0.011,0.685,0.379,1.344,1.03,1.681c0.944,0.49,2.106,0.122,2.595-0.823c0.49-0.945,0.122-2.105-0.821-2.595
			c-0.744-0.386-1.618-0.233-2.198,0.309c-2.647-0.883-5.303-0.781-7.7,0.999c-0.127-0.105-0.257-0.215-0.384-0.319
			c-2.659-2.184-5.702-4.386-8.998-5.49c-0.004-0.002-0.007,0-0.011-0.002c-1.246-4.139-2.854-8.144-4.86-11.959
			c1.955-0.237,4.306-0.236,6.699,0.033c0.746,2.88,3.086,6.354,6.185,6.996c0.357,0.833,1.265,1.322,2.182,1.12
			c1.039-0.23,1.694-1.256,1.465-2.295c-0.229-1.038-1.256-1.694-2.294-1.465c-0.589,0.13-1.046,0.519-1.298,1.017
			c-2.167-0.617-3.803-3.009-4.529-5.134c2.914,0.487,5.746,1.387,7.854,2.758c-0.031,0.141-0.05,0.285-0.049,0.435
			c0.012,1.064,0.882,1.916,1.946,1.904c1.064-0.011,1.917-0.882,1.904-1.945c-0.011-1.064-0.881-1.916-1.944-1.905
			c-0.342,0.004-0.656,0.103-0.933,0.261c-3.237-2.12-7.879-3.208-12.195-3.452c1.073-1.665,2.704-2.559,4.649-2.897
			c0.333,0.6,0.965,1.007,1.7,0.999c1.063-0.011,1.916-0.882,1.904-1.946c-0.012-1.063-0.882-1.916-1.946-1.905
			c-0.834,0.009-1.532,0.55-1.792,1.295c-2.708,0.45-5.012,1.798-6.273,4.404c-1.436-0.005-2.799,0.083-4.029,0.26
			c-2.737-4.892-6.147-9.446-10.286-13.535c1.65-0.482,3.624-0.831,5.707-0.994c0.689,2.836,2.785,6.106,5.697,6.888
			c0.308,0.856,1.188,1.398,2.118,1.246c1.049-0.173,1.761-1.163,1.587-2.212c-0.17-1.049-1.16-1.761-2.211-1.588
			c-0.597,0.098-1.075,0.465-1.353,0.952c-2.123-0.725-3.623-3.218-4.238-5.372c3.398-0.099,6.896,0.33,9.565,1.522
			c-0.008,0.139-0.004,0.28,0.02,0.423c0.171,1.049,1.162,1.759,2.211,1.588c1.051-0.172,1.762-1.162,1.59-2.211
			c-0.173-1.05-1.164-1.761-2.212-1.589c-0.335,0.055-0.629,0.199-0.875,0.395c-1.715-0.788-3.727-1.283-5.845-1.53
			c0.78-1.906,2.307-3.068,4.217-3.712c0.421,0.539,1.105,0.842,1.826,0.724c1.05-0.171,1.76-1.162,1.589-2.212
			c-0.173-1.049-1.163-1.76-2.212-1.587c-0.82,0.134-1.428,0.769-1.573,1.541c-2.552,0.826-4.559,2.489-5.46,5.107
			c-3.933-0.235-8.025,0.285-11.035,1.247c-0.144,0.045-0.246,0.122-0.331,0.211c-3.146-2.934-6.602-5.479-10.278-7.646
			c1.756-0.857,3.901-1.612,6.156-2.145c1.764,2.524,4.987,4.85,8.143,4.449c0.612,0.694,1.651,0.867,2.462,0.357
			c0.9-0.566,1.172-1.754,0.605-2.655c-0.567-0.9-1.754-1.17-2.655-0.604c-0.515,0.324-0.816,0.854-0.879,1.415
			c-2.234,0.158-4.607-1.587-5.991-3.312c2.896-0.52,5.847-0.623,8.32-0.053c0.018,0.138,0.049,0.275,0.1,0.411
			c0.37,0.998,1.479,1.505,2.475,1.135c0.997-0.369,1.506-1.477,1.136-2.474c-0.37-0.998-1.477-1.506-2.475-1.136
			c-0.316,0.118-0.577,0.314-0.781,0.553c-3.736-0.911-8.503-0.354-12.655,0.875c0.43-1.94,1.712-3.317,3.408-4.289
			c0.515,0.447,1.245,0.613,1.93,0.359c0.998-0.37,1.505-1.478,1.135-2.475c-0.369-0.997-1.477-1.505-2.475-1.135
			c-0.782,0.29-1.254,1.032-1.249,1.819c-2.42,1.333-4.063,3.416-4.407,6.261c-1.442,0.509-2.775,1.09-3.909,1.707
			c-4.742-2.606-9.828-4.585-15.077-5.957c1.315-0.869,2.897-1.714,4.604-2.449c1.6,2.465,4.598,4.883,7.613,4.681
			c0.567,0.711,1.576,0.94,2.407,0.495c0.938-0.501,1.292-1.668,0.79-2.606c-0.501-0.937-1.668-1.291-2.605-0.789
			c-0.527,0.282-0.862,0.777-0.97,1.321c-2.262-0.011-4.463-1.845-5.748-3.702c3.189-1.197,6.642-1.928,9.541-1.653
			c0.036,0.137,0.088,0.272,0.157,0.402c0.502,0.938,1.668,1.291,2.606,0.79c0.937-0.501,1.291-1.668,0.788-2.606
			c-0.501-0.938-1.668-1.291-2.604-0.79c-0.301,0.16-0.532,0.393-0.702,0.659c-1.876-0.189-3.939-0.009-6.024,0.438
			c0.138-2.056,1.182-3.646,2.79-4.877c0.571,0.375,1.319,0.442,1.965,0.097c0.938-0.501,1.292-1.668,0.789-2.605
			c-0.503-0.938-1.669-1.292-2.606-0.79c-0.732,0.393-1.103,1.192-0.991,1.97c-2.145,1.612-3.536,3.81-3.535,6.597
			c-3.776,1.039-7.455,2.833-9.98,4.71c-0.089,0.066-0.155,0.143-0.207,0.224c-5.024-1.161-10.181-1.767-15.321-1.811
			C105.395,48.321,105.388,49.888,106.4,49.896z"/>
		<path fill="#42B6A1" d="M20.214,111.386c0.022-2.626,0.207-5.24,0.524-7.831c3.058,0.362,6.872,0.204,10.454-0.587
			c1.295,2.471,3.553,3.765,6.199,4.187c0.266,0.742,0.965,1.278,1.799,1.282c1.062,0.004,1.93-0.853,1.934-1.917
			c0.006-1.064-0.853-1.93-1.916-1.935c-0.733-0.003-1.364,0.407-1.692,1.008c-2.003-0.335-3.668-1.264-4.75-3.017
			c2.05-0.575,3.955-1.379,5.529-2.424c0.278,0.156,0.592,0.253,0.932,0.255c1.062,0.005,1.93-0.852,1.935-1.916
			c0.005-1.064-0.855-1.93-1.917-1.935c-1.064-0.005-1.929,0.853-1.934,1.917c-0.001,0.149,0.019,0.293,0.051,0.432
			c-2.432,1.602-5.836,2.581-9.215,3.018c0.256-2.181,1.351-4.976,3.323-6.016c0.351,0.452,0.892,0.749,1.508,0.751
			c1.063,0.005,1.929-0.853,1.933-1.917c0.006-1.064-0.852-1.929-1.915-1.935c-0.956-0.004-1.746,0.69-1.901,1.604
			c-2.757,1.263-4.287,4.707-4.537,7.68c-2.024,0.163-3.966,0.132-5.615-0.073c0.702-4.81,1.914-9.519,3.63-14.034
			c1.242,0.172,2.621,0.253,4.071,0.239c1.277,2.596,3.589,3.938,6.303,4.37c0.264,0.742,0.965,1.277,1.797,1.281
			c1.065,0.005,1.931-0.853,1.935-1.917c0.005-1.063-0.851-1.929-1.915-1.933c-0.733-0.003-1.365,0.406-1.692,1.008
			c-1.948-0.327-3.586-1.207-4.667-2.868c4.315-0.269,8.95-1.384,12.174-3.525c0.277,0.156,0.592,0.253,0.933,0.254
			c1.063,0.004,1.929-0.853,1.934-1.917c0.005-1.063-0.854-1.929-1.917-1.934c-1.063-0.005-1.929,0.853-1.934,1.917
			c0,0.149,0.019,0.292,0.05,0.432c-2.101,1.384-4.924,2.303-7.836,2.809c0.715-2.127,2.337-4.537,4.498-5.165
			c0.252,0.498,0.714,0.886,1.304,1.011c1.039,0.223,2.062-0.439,2.284-1.479c0.225-1.041-0.439-2.063-1.479-2.286
			c-0.919-0.197-1.823,0.299-2.174,1.135c-3.093,0.664-5.419,4.149-6.141,7.034c-2.49,0.297-4.933,0.301-6.936,0.045
			c1.467-3.589,3.259-7.043,5.37-10.317c3.067,0.373,6.907,0.215,10.512-0.579c1.297,2.47,3.554,3.765,6.2,4.187
			c0.264,0.742,0.963,1.277,1.798,1.281c1.064,0.005,1.93-0.853,1.935-1.917c0.004-1.064-0.853-1.929-1.917-1.934
			c-0.732-0.003-1.363,0.408-1.692,1.009c-2.002-0.336-3.667-1.265-4.751-3.017c2.051-0.576,3.957-1.378,5.532-2.424
			c0.275,0.156,0.59,0.253,0.929,0.254c1.064,0.005,1.932-0.854,1.936-1.916c0.006-1.064-0.853-1.93-1.917-1.934
			c-1.063-0.005-1.929,0.853-1.933,1.916c-0.001,0.149,0.017,0.293,0.05,0.432c-2.432,1.601-5.835,2.58-9.214,3.018
			c0.256-2.181,1.35-4.977,3.322-6.016c0.352,0.451,0.893,0.748,1.508,0.751c1.064,0.004,1.93-0.853,1.935-1.916
			c0.005-1.064-0.854-1.93-1.918-1.935c-0.955-0.004-1.746,0.69-1.9,1.603c-2.756,1.262-4.286,4.707-4.538,7.681
			c-1.738,0.139-3.421,0.138-4.906,0.004c1.462-2.134,3.054-4.192,4.796-6.146c2.461-2.753,5.146-5.193,8.012-7.343
			c0.013,0.01,0.022,0.021,0.036,0.031c1.072,0.72,2.343,1.418,3.726,2.054c0.071,2.876,1.562,5.087,3.841,6.635
			c-0.074,0.782,0.33,1.562,1.081,1.92c0.959,0.458,2.108,0.052,2.567-0.908c0.457-0.959,0.052-2.108-0.909-2.567
			c-0.658-0.315-1.4-0.214-1.953,0.185c-1.612-1.122-2.738-2.601-3.002-4.567c4.015,1.595,8.697,2.562,12.516,1.997
			c0.184,0.258,0.425,0.478,0.73,0.624c0.96,0.458,2.109,0.052,2.568-0.908c0.457-0.96,0.051-2.109-0.909-2.567
			c-0.96-0.458-2.109-0.052-2.567,0.908c-0.062,0.131-0.105,0.266-0.137,0.402c-2.498,0.346-5.429-0.026-8.267-0.808
			c1.572-1.609,4.034-3.1,6.251-2.74c0.016,0.56,0.268,1.107,0.748,1.473c0.846,0.646,2.054,0.483,2.698-0.362
			c0.645-0.846,0.482-2.054-0.362-2.699c-0.758-0.577-1.801-0.504-2.475,0.123c-3.095-0.687-6.587,1.364-8.514,3.701
			c-2.37-0.792-4.584-1.827-6.313-2.914c3.859-2.72,8.021-4.933,12.386-6.685c0.031,0.097,0.079,0.193,0.154,0.285
			c2.197,2.642,5.318,4.609,8.242,6.339c0.149,0.09,0.309,0.179,0.464,0.268c-0.773,2.847,0.039,5.395,1.82,7.551
			c-0.291,0.731-0.117,1.596,0.505,2.149c0.796,0.707,2.012,0.634,2.718-0.161c0.707-0.795,0.635-2.012-0.16-2.719
			c-0.547-0.484-1.286-0.594-1.929-0.364c-1.33-1.642-1.977-3.505-1.521-5.658c1.784,0.948,3.724,1.768,5.689,2.078
			c0.104,0.305,0.278,0.591,0.535,0.821c0.796,0.706,2.011,0.634,2.719-0.161c0.706-0.795,0.635-2.012-0.16-2.718
			c-0.795-0.707-2.012-0.635-2.719,0.16c-0.099,0.11-0.177,0.231-0.246,0.356c-2.904-0.411-6.127-1.949-8.969-3.878
			c1.664-1.606,4.38-3.069,6.705-2.545c-0.098,0.625,0.112,1.284,0.62,1.735c0.796,0.707,2.011,0.635,2.719-0.16
			c0.706-0.795,0.634-2.012-0.16-2.718c-0.635-0.562-1.533-0.624-2.229-0.226c-3.06-1.06-6.799,0.788-8.946,2.992
			c-1.724-1.294-3.24-2.69-4.371-4.004c5.138-1.921,10.532-3.217,16.024-3.965c0.703,1,1.518,1.935,2.399,2.813
			c-1.121,2.761-0.559,5.353,0.954,7.695c-0.379,0.696-0.31,1.579,0.247,2.204c0.711,0.793,1.927,0.86,2.721,0.151
			c0.792-0.709,0.859-1.926,0.15-2.719c-0.489-0.546-1.219-0.739-1.885-0.58c-1.098-1.726-1.5-3.576-0.933-5.566
			c0.952,0.847,1.945,1.639,2.932,2.386c2.301,1.747,4.912,3.664,7.778,4.459c0.068,0.312,0.209,0.614,0.438,0.869
			c0.709,0.792,1.925,0.859,2.718,0.15c0.791-0.709,0.859-1.926,0.15-2.718c-0.709-0.792-1.928-0.86-2.719-0.15
			c-0.107,0.097-0.199,0.205-0.282,0.318c-2.424-0.691-4.685-2.357-6.638-3.783c-0.125-0.091-0.251-0.187-0.377-0.28
			c2.035-0.803,4.684-1.089,6.515,0.03c-0.192,0.519-0.17,1.113,0.129,1.631c0.533,0.921,1.71,1.236,2.631,0.704
			c0.921-0.532,1.235-1.709,0.704-2.629c-0.47-0.815-1.448-1.153-2.304-0.852c-2.495-1.803-6.418-1.261-9.084,0.035
			c-1.629-1.299-3.222-2.761-4.48-4.387c3.239-0.371,6.507-0.557,9.768-0.563c0.026,0,0.044-0.012,0.068-0.014
			c1.536,0.002,3.218,0.044,4.939,0.173c0.225,3.08,1.846,6.768,4.802,7.96c0.264,0.762,0.987,1.307,1.837,1.295
			c1.063-0.016,1.913-0.889,1.898-1.953c-0.015-1.064-0.888-1.913-1.952-1.898c-0.694,0.009-1.292,0.389-1.623,0.944
			c-2.039-1.074-3.167-4.004-3.385-6.204c3.4,0.371,6.791,1.164,9.314,2.785c-0.029,0.14-0.047,0.283-0.047,0.432
			c0.017,1.064,0.891,1.913,1.954,1.898c1.064-0.015,1.912-0.889,1.898-1.952c-0.017-1.063-0.889-1.913-1.953-1.898
			c-0.346,0.004-0.661,0.106-0.938,0.268c-1.624-1.041-3.543-1.776-5.595-2.285c1.064-1.816,2.74-2.796,4.773-3.156
			c0.333,0.6,0.968,1.005,1.701,0.994c1.063-0.015,1.913-0.888,1.897-1.952c-0.014-1.064-0.887-1.913-1.95-1.899
			c-0.836,0.012-1.532,0.556-1.788,1.302c-2.685,0.455-4.967,1.795-6.225,4.364c-3.816-0.729-7.886-0.814-11.141-0.78
			c1.143-1.947,2.718-3.666,4.318-5.266c2.782,1.04,6.666,1.103,8.976-0.91c0.892,0.227,1.84-0.206,2.229-1.074
			c0.436-0.97,0.004-2.109-0.968-2.544c-0.97-0.436-2.109-0.002-2.546,0.968c-0.246,0.553-0.204,1.156,0.049,1.657
			c-1.683,1.303-4.376,1.244-6.479,0.665c1.86-1.799,4.085-3.78,6.554-4.754c0.094,0.106,0.197,0.206,0.316,0.293
			c0.861,0.625,2.064,0.434,2.688-0.427c0.626-0.86,0.435-2.064-0.426-2.689c-0.861-0.624-2.065-0.434-2.688,0.426
			c-0.202,0.276-0.31,0.589-0.347,0.905c-2.454,0.957-4.62,2.832-6.532,4.526c-1.159,1.029-2.342,2.155-3.443,3.359
			c-0.788-1.932-0.518-3.797,0.389-5.614c0.677,0.087,1.377-0.179,1.806-0.769c0.626-0.861,0.435-2.065-0.426-2.691
			c-0.861-0.624-2.064-0.434-2.691,0.427c-0.488,0.674-0.47,1.556-0.028,2.208c-1.274,2.49-1.506,5.112-0.174,7.735
			c-0.902,1.11-1.71,2.28-2.338,3.51c-0.023,0.046-0.023,0.089-0.039,0.135c-2.626,0.1-5.238,0.317-7.824,0.652
			c-0.098-0.004-0.194,0.01-0.286,0.039c-3.456,0.46-6.865,1.136-10.195,2.042c0.654-1.572,1.583-3.054,2.572-4.465
			c2.834,1.221,6.769,1.528,9.204-0.498c0.799,0.127,1.62-0.25,2.013-1.007c0.49-0.944,0.122-2.105-0.823-2.594
			c-0.943-0.49-2.104-0.122-2.595,0.822c-0.317,0.611-0.271,1.312,0.057,1.863c-1.883,1.262-4.866,0.935-6.925,0.118
			c0.138-0.186,0.274-0.373,0.409-0.556c1.644-2.217,3.766-4.933,6.309-6.397c0.109,0.095,0.229,0.182,0.365,0.252
			c0.942,0.489,2.104,0.121,2.594-0.823c0.491-0.945,0.122-2.106-0.822-2.596c-0.944-0.489-2.105-0.121-2.596,0.823
			c-0.16,0.309-0.22,0.641-0.206,0.964c-1.731,1.002-3.224,2.466-4.557,3.991c-1.177-1.854-1.287-3.821-0.627-5.847
			c0.685-0.011,1.343-0.379,1.681-1.03c0.49-0.944,0.121-2.107-0.823-2.596c-0.944-0.49-2.105-0.121-2.596,0.822
			c-0.385,0.744-0.231,1.618,0.308,2.197c-0.881,2.649-0.779,5.303,1,7.7c-0.104,0.128-0.213,0.257-0.318,0.384
			c-2.183,2.661-4.385,5.704-5.491,8.998c-0.002,0.004,0,0.007-0.002,0.012c-4.137,1.245-8.144,2.854-11.958,4.859
			c-0.237-1.955-0.237-4.305,0.032-6.699c2.882-0.746,6.356-3.086,6.998-6.185c0.83-0.357,1.321-1.263,1.118-2.182
			c-0.23-1.038-1.255-1.694-2.295-1.465c-1.037,0.229-1.693,1.256-1.465,2.294c0.13,0.588,0.518,1.045,1.017,1.297
			c-0.618,2.167-3.009,3.805-5.135,4.53c0.488-2.915,1.389-5.747,2.76-7.853c0.14,0.03,0.284,0.05,0.435,0.048
			c1.062-0.011,1.915-0.883,1.904-1.946c-0.012-1.063-0.882-1.915-1.945-1.904c-1.064,0.012-1.917,0.882-1.906,1.946
			c0.006,0.341,0.104,0.655,0.263,0.932c-2.12,3.238-3.208,7.878-3.452,12.195c-1.665-1.074-2.56-2.703-2.898-4.649
			c0.601-0.331,1.008-0.966,1-1.699c-0.012-1.064-0.882-1.917-1.945-1.905c-1.065,0.011-1.917,0.882-1.905,1.946
			c0.009,0.834,0.55,1.532,1.295,1.791c0.449,2.708,1.8,5.013,4.404,6.272c-0.005,1.436,0.082,2.8,0.259,4.03
			c-4.892,2.737-9.444,6.146-13.534,10.287c-0.481-1.649-0.832-3.624-0.994-5.706c2.838-0.69,6.106-2.787,6.89-5.697
			c0.855-0.309,1.396-1.189,1.245-2.119c-0.172-1.049-1.162-1.761-2.211-1.588c-1.051,0.172-1.762,1.161-1.59,2.211
			c0.1,0.597,0.464,1.077,0.953,1.354c-0.725,2.122-3.219,3.621-5.371,4.237c-0.1-3.398,0.328-6.896,1.521-9.565
			c0.138,0.007,0.279,0.004,0.422-0.02c1.05-0.172,1.76-1.162,1.59-2.211c-0.173-1.05-1.163-1.76-2.212-1.588
			c-1.05,0.172-1.761,1.162-1.589,2.211c0.056,0.335,0.2,0.628,0.396,0.875c-0.787,1.715-1.283,3.726-1.53,5.845
			c-1.908-0.782-3.069-2.308-3.712-4.219c0.538-0.419,0.841-1.104,0.725-1.825c-0.174-1.049-1.163-1.76-2.213-1.588
			c-1.049,0.172-1.76,1.162-1.587,2.211c0.134,0.82,0.77,1.428,1.54,1.574c0.826,2.553,2.489,4.56,5.106,5.46
			c-0.234,3.933,0.285,8.024,1.248,11.034c0.045,0.143,0.122,0.246,0.21,0.331c-2.933,3.146-5.479,6.601-7.646,10.278
			c-0.854-1.756-1.611-3.901-2.143-6.156c2.524-1.765,4.85-4.987,4.449-8.142c0.694-0.613,0.867-1.653,0.358-2.463
			c-0.566-0.9-1.755-1.171-2.656-0.604c-0.899,0.565-1.17,1.753-0.604,2.654c0.324,0.516,0.854,0.816,1.416,0.88
			c0.157,2.232-1.588,4.605-3.312,5.99c-0.521-2.895-0.622-5.846-0.053-8.319c0.139-0.019,0.275-0.05,0.411-0.1
			c0.997-0.371,1.506-1.477,1.135-2.475c-0.369-0.997-1.477-1.506-2.475-1.136c-0.998,0.371-1.506,1.479-1.136,2.476
			c0.118,0.316,0.314,0.576,0.554,0.782c-0.91,3.736-0.356,8.503,0.876,12.655c-1.941-0.43-3.318-1.712-4.288-3.409
			c0.447-0.514,0.613-1.244,0.358-1.929c-0.371-0.997-1.477-1.505-2.475-1.135c-0.998,0.371-1.506,1.478-1.136,2.475
			c0.291,0.781,1.032,1.254,1.819,1.249c1.333,2.419,3.416,4.064,6.262,4.407c0.509,1.442,1.089,2.775,1.706,3.908
			c-2.605,4.743-4.583,9.829-5.955,15.079c-0.868-1.315-1.715-2.899-2.45-4.606c2.465-1.599,4.883-4.598,4.68-7.613
			c0.712-0.569,0.941-1.577,0.495-2.409c-0.5-0.938-1.666-1.291-2.605-0.789c-0.938,0.501-1.29,1.668-0.789,2.607
			c0.283,0.528,0.777,0.861,1.321,0.971c-0.011,2.26-1.846,4.462-3.701,5.747c-1.197-3.188-1.929-6.643-1.653-9.542
			c0.136-0.038,0.271-0.087,0.402-0.156c0.938-0.503,1.291-1.668,0.789-2.606c-0.502-0.938-1.668-1.291-2.605-0.789
			c-0.938,0.501-1.291,1.667-0.789,2.605c0.16,0.299,0.392,0.531,0.658,0.702c-0.189,1.877-0.008,3.939,0.438,6.022
			c-2.057-0.135-3.648-1.18-4.878-2.789c0.374-0.57,0.442-1.319,0.098-1.963c-0.502-0.938-1.67-1.292-2.606-0.79
			c-0.939,0.503-1.292,1.669-0.791,2.607c0.394,0.733,1.192,1.102,1.97,0.991c1.613,2.146,3.811,3.537,6.599,3.536
			c1.038,3.775,2.832,7.454,4.71,9.979c0.066,0.088,0.143,0.156,0.225,0.207c-1.161,5.026-1.767,10.182-1.811,15.322
			C18.638,112.39,20.206,112.396,20.214,111.386z"/>
	</g>
	<g>
		<g>
			<path fill="#F5CA7E" d="M67.249,82.15c-0.106,1.963-0.215,3.926-0.321,5.889c6.026-0.02,12.054-0.04,18.081-0.059
				c-0.813-12.882,0.219-31.261-8.667-41.131c-11.362-12.62-21.238-0.861-33.68-5.63c7.058-6.341,10.397-17.707,6.729-27.203
				c1.371,8.928-3.087,18.506-10.699,21.894c-2.868-9.703-1.014-20.928-6.701-29.706c-5.027-7.76-13.459-7.614-20.336-3.013
				c15.29-7.511,20.416,7.753,20.186,21.774c-6.746-0.599-8.846-7.165-8.244-13.66c-3.036,8.339-0.37,13.048,5.106,18.6
				c3.889,3.944,1.495-0.766,3.014,6.031c0.701,3.14,0.845,5.995,2.509,8.835c1.349,2.301,2.913,3.853,5.064,5.17
				c6.974,4.269,22.912-1.396,27.491,7.766C69.542,61.901,67.54,76.534,67.249,82.15C67.044,85.898,67.346,80.29,67.249,82.15z"/>
			<g>
				<path fill="#D29C45" d="M23.597,11.305c0,0-0.053,0.288-0.153,0.827c-0.128,0.535-0.224,1.336-0.354,2.316
					c-0.072,0.996-0.159,2.202,0.006,3.533c0.16,1.33,0.564,2.762,1.284,4.185c0.725,1.424,1.827,2.807,3.105,4.206
					c0.639,0.7,1.354,1.386,2.098,2.08c0.704,0.648,1.588,1.453,2.06,1.665l0.051,0.021l0.025,0.011l0.151,0.076l0.163,0.094
					c0.145,0.091,0.388,0.312,0.523,0.519c0.171,0.254,0.197,0.367,0.244,0.503c0.043,0.14,0.073,0.285,0.089,0.426l0.033,0.49
					l0.089,0.677c0.078,0.485,0.184,0.996,0.296,1.512c0.128,0.538,0.256,1.08,0.385,1.624c0.13,0.542,0.243,1.127,0.361,1.71
					c0.221,1.123,0.452,2.192,0.726,3.19c0.291,0.983,0.662,1.894,1.143,2.738l0.882,1.348c0.161,0.277,0.312,0.382,0.463,0.572
					l0.445,0.52c0.657,0.679,1.414,1.352,2.258,1.907l0.306,0.221l0.019,0.014c-0.152-0.087-0.028-0.017-0.057-0.033l0.047,0.026
					l0.093,0.053l0.185,0.105c0.118,0.065,0.258,0.151,0.359,0.2l0.267,0.117c0.34,0.167,0.839,0.349,1.29,0.48
					c0.934,0.278,1.941,0.455,2.958,0.604c2.041,0.272,4.127,0.408,6.124,0.569c2,0.141,3.928,0.351,5.703,0.696
					c1.776,0.333,3.403,0.817,4.752,1.492c1.359,0.649,2.403,1.494,3.111,2.289c0.732,0.782,1.097,1.54,1.34,2.033
					c0.203,0.513,0.312,0.786,0.312,0.786s-0.177-0.231-0.508-0.665c-0.167-0.212-0.407-0.447-0.664-0.73
					c-0.301-0.248-0.605-0.562-1.014-0.833c-0.789-0.572-1.851-1.082-3.131-1.452c-1.282-0.372-2.804-0.541-4.477-0.64
					c-1.68-0.077-3.524-0.023-5.509,0.009c-1.987,0.039-4.111,0.141-6.401-0.024c-1.146-0.076-2.332-0.223-3.563-0.519
					c-0.629-0.155-1.207-0.318-1.902-0.607l-0.512-0.224l-0.392-0.202l-0.188-0.1l-0.095-0.05l-0.047-0.025l-0.128-0.076
					l-0.399-0.265c-1.081-0.677-2.105-1.48-3.05-2.464c-0.438-0.513-0.969-1.083-1.31-1.574l-0.484-0.722l-0.242-0.361l-0.121-0.181
					l-0.061-0.09l-0.092-0.147l-0.029-0.056c-0.662-1.178-1.149-2.435-1.499-3.672c-0.335-1.233-0.524-2.429-0.718-3.551
					c-0.097-0.548-0.193-1.094-0.29-1.638c-0.103-0.563-0.206-1.124-0.308-1.681c-0.096-0.583-0.187-1.168-0.253-1.778
					c-0.03-0.313-0.055-0.627-0.062-0.966c0-0.153-0.005-0.389,0.006-0.33c0.009,0.108,0.032,0.22,0.068,0.326
					c0.039,0.102,0.062,0.181,0.204,0.413c0.111,0.182,0.335,0.375,0.453,0.445l0.073,0.046c0.017,0.01,0.068,0.034,0.061,0.029
					l-0.066-0.035l-0.133-0.07c-0.747-0.446-1.165-0.851-1.626-1.289c-0.244-0.227-0.397-0.4-0.585-0.599l-0.293-0.315l-0.268-0.306
					c-0.71-0.811-1.398-1.619-2.025-2.46c-1.272-1.656-2.317-3.425-2.928-5.222c-0.639-1.787-0.795-3.55-0.701-5.041
					c0.063-1.504,0.452-2.741,0.742-3.735c0.342-0.994,0.666-1.733,0.911-2.221C23.468,11.568,23.597,11.305,23.597,11.305z"/>
			</g>
			<path fill="#F5CA7E" d="M116.572,82.15c0.107,1.963,0.215,3.926,0.322,5.889c-6.027-0.02-12.055-0.04-18.081-0.059
				c0.813-12.882-0.22-31.261,8.667-41.131c11.362-12.62,21.238-0.861,33.68-5.63c-7.058-6.341-10.398-17.707-6.731-27.203
				c-1.371,8.928,3.087,18.506,10.7,21.894c2.868-9.703,1.014-20.928,6.701-29.706c5.027-7.76,13.459-7.614,20.335-3.013
				c-15.289-7.511-20.415,7.753-20.185,21.774c6.746-0.599,8.846-7.165,8.244-13.66c3.036,8.339,0.37,13.048-5.105,18.6
				c-3.889,3.944-1.495-0.766-3.014,6.031c-0.701,3.14-0.846,5.995-2.509,8.835c-1.349,2.301-2.915,3.853-5.065,5.17
				c-6.973,4.269-22.911-1.396-27.49,7.766C114.28,61.901,116.281,76.534,116.572,82.15C116.778,85.898,116.477,80.29,116.572,82.15
				z"/>
			<g>
				<path fill="#D29C45" d="M160.226,11.305c0,0,0.129,0.263,0.37,0.756c0.245,0.488,0.569,1.226,0.911,2.221
					c0.29,0.994,0.679,2.23,0.742,3.735c0.094,1.492-0.062,3.254-0.701,5.041c-0.61,1.797-1.656,3.566-2.928,5.222
					c-0.627,0.841-1.316,1.649-2.025,2.46l-0.268,0.306l-0.293,0.316c-0.188,0.199-0.341,0.372-0.585,0.599
					c-0.461,0.438-0.879,0.843-1.626,1.289l-0.132,0.07l-0.066,0.035c-0.009,0.005,0.042-0.018,0.06-0.029l0.073-0.046
					c0.115-0.068,0.341-0.261,0.452-0.443c0.142-0.232,0.166-0.312,0.205-0.414c0.036-0.106,0.06-0.218,0.067-0.326
					c0.012-0.061,0.007,0.177,0.007,0.329c-0.007,0.34-0.031,0.653-0.062,0.966c-0.065,0.611-0.157,1.195-0.253,1.778
					c-0.102,0.558-0.205,1.118-0.308,1.681c-0.097,0.543-0.193,1.09-0.29,1.638c-0.194,1.122-0.384,2.318-0.719,3.551
					c-0.349,1.237-0.836,2.494-1.498,3.672l-0.029,0.056l-0.092,0.148l-0.061,0.09l-0.121,0.181l-0.242,0.361l-0.485,0.722
					c-0.342,0.491-0.872,1.06-1.311,1.574c-0.944,0.983-1.968,1.787-3.049,2.464l-0.398,0.264l-0.129,0.076l-0.047,0.025
					l-0.095,0.05l-0.189,0.1l-0.392,0.202l-0.512,0.223c-0.695,0.289-1.273,0.452-1.902,0.607c-1.23,0.296-2.418,0.443-3.562,0.519
					c-2.29,0.165-4.414,0.063-6.401,0.024c-1.985-0.032-3.829-0.086-5.509-0.009c-1.673,0.099-3.194,0.269-4.477,0.64
					c-1.28,0.37-2.342,0.88-3.131,1.452c-0.408,0.271-0.713,0.586-1.014,0.833c-0.257,0.284-0.497,0.519-0.664,0.73
					c-0.331,0.434-0.508,0.665-0.508,0.665s0.108-0.273,0.312-0.786c0.243-0.493,0.607-1.251,1.34-2.033
					c0.708-0.795,1.752-1.64,3.111-2.289c1.349-0.675,2.976-1.16,4.752-1.492c1.775-0.345,3.703-0.555,5.703-0.696
					c1.997-0.161,4.083-0.296,6.124-0.569c1.016-0.149,2.023-0.325,2.958-0.604c0.451-0.131,0.949-0.314,1.29-0.48l0.267-0.117
					c0.101-0.049,0.24-0.134,0.359-0.2l0.186-0.105l0.093-0.053l0.046-0.026c-0.027,0.016,0.097-0.055-0.057,0.033l0.019-0.014
					l0.306-0.221c0.844-0.555,1.601-1.228,2.258-1.907l0.446-0.52c0.151-0.19,0.302-0.295,0.463-0.572l0.881-1.347
					c0.481-0.844,0.852-1.755,1.144-2.739c0.272-0.997,0.505-2.067,0.725-3.19c0.118-0.583,0.232-1.168,0.361-1.71
					c0.129-0.544,0.257-1.085,0.385-1.624c0.111-0.517,0.218-1.028,0.296-1.512l0.089-0.677l0.034-0.491
					c0.016-0.142,0.045-0.287,0.088-0.426c0.047-0.136,0.074-0.25,0.245-0.504c0.136-0.207,0.381-0.428,0.522-0.517l0.164-0.094
					l0.15-0.076l0.025-0.011l0.051-0.021c0.473-0.212,1.356-1.018,2.061-1.665c0.744-0.694,1.459-1.381,2.098-2.08
					c1.278-1.399,2.381-2.782,3.105-4.206c0.72-1.423,1.124-2.855,1.284-4.185c0.165-1.331,0.078-2.537,0.006-3.533
					c-0.13-0.98-0.226-1.781-0.354-2.316C160.279,11.593,160.226,11.305,160.226,11.305z"/>
			</g>
			<g>
				<path fill="#F0D9B8" d="M85.009,87.98c0,0-0.057-0.305-0.162-0.875c-0.091-0.572-0.263-1.406-0.404-2.479
					c-0.324-2.146-0.693-5.209-1.109-8.861c-0.213-1.826-0.471-3.792-0.741-5.859c-0.28-2.067-0.671-4.219-1.092-6.419
					c-0.464-2.188-1.033-4.421-1.799-6.581c-0.782-2.148-1.672-4.292-2.936-6.15l-0.445-0.717c-0.154-0.234-0.342-0.439-0.51-0.661
					l-0.968-1.222l-1.291-1.299l-0.639-0.651c-0.21-0.185-0.413-0.318-0.617-0.481c-0.406-0.317-0.81-0.634-1.212-0.948
					c-0.453-0.266-0.904-0.531-1.353-0.794c-0.434-0.308-0.934-0.429-1.401-0.634l-0.709-0.287
					c-0.242-0.076-0.494-0.117-0.739-0.178c-1.956-0.507-4.023-0.557-6.053-0.395c-2.025,0.151-4.004,0.421-5.878,0.575
					c-1.859,0.199-3.624,0.208-5.167,0.116c-1.548-0.121-2.879-0.358-3.936-0.694c-1.077-0.234-1.841-0.684-2.379-0.895
					c-0.526-0.241-0.808-0.37-0.808-0.37s0.306,0.053,0.88,0.151c0.571,0.088,1.382,0.306,2.448,0.331
					c1.05,0.114,2.331,0.057,3.774-0.053c1.451-0.167,3.059-0.447,4.835-0.855c1.77-0.393,3.707-0.926,5.877-1.27
					c1.075-0.205,2.231-0.299,3.423-0.388c1.21-0.005,2.458,0.032,3.729,0.305c0.317,0.06,0.641,0.102,0.956,0.181l0.937,0.305
					c0.618,0.223,1.282,0.376,1.854,0.714c0.592,0.306,1.188,0.613,1.786,0.921c0.555,0.407,1.111,0.817,1.672,1.227
					c0.271,0.208,0.57,0.42,0.818,0.631l0.657,0.632l1.313,1.276l0.082,0.08l0.02,0.02l0.104,0.11l0.04,0.048l0.158,0.195
					l0.316,0.391l0.631,0.784c0.205,0.265,0.431,0.518,0.617,0.794l0.537,0.842c1.475,2.232,2.472,4.677,3.25,7.094
					c0.18,0.608,0.359,1.214,0.537,1.816c0.153,0.607,0.271,1.215,0.406,1.816c0.289,1.201,0.438,2.397,0.641,3.567
					c0.16,1.172,0.307,2.323,0.397,3.452c0.065,1.127,0.164,2.23,0.195,3.3c0.106,2.139,0.097,4.158,0.063,6.013
					c-0.054,3.71-0.263,6.787-0.385,8.937C85.09,86.746,85.009,87.98,85.009,87.98z"/>
			</g>
			<g>
				<path fill="#F0D9B8" d="M98.814,87.98c0,0-0.081-1.234-0.224-3.393c-0.122-2.149-0.331-5.227-0.385-8.937
					c-0.034-1.855-0.043-3.874,0.062-6.014c0.03-1.069,0.13-2.172,0.194-3.3c0.092-1.129,0.237-2.28,0.398-3.452
					c0.202-1.17,0.352-2.366,0.641-3.567c0.135-0.601,0.253-1.209,0.405-1.816c0.179-0.603,0.357-1.208,0.538-1.816
					c0.778-2.417,1.775-4.862,3.25-7.094l0.537-0.842c0.187-0.276,0.412-0.529,0.617-0.794l0.631-0.784l0.316-0.391l0.158-0.195
					l0.04-0.048l0.103-0.11l0.021-0.02l0.082-0.08l1.313-1.276l0.657-0.632c0.248-0.211,0.547-0.422,0.818-0.631
					c0.561-0.411,1.117-0.82,1.672-1.227c0.599-0.308,1.194-0.616,1.786-0.921c0.571-0.338,1.235-0.491,1.854-0.714l0.937-0.305
					c0.315-0.079,0.639-0.121,0.956-0.181c1.271-0.274,2.52-0.311,3.729-0.305c1.191,0.089,2.348,0.183,3.423,0.388
					c2.17,0.344,4.107,0.877,5.877,1.27c1.776,0.408,3.384,0.688,4.835,0.855c1.443,0.109,2.725,0.167,3.774,0.053
					c1.066-0.024,1.877-0.242,2.448-0.331c0.574-0.098,0.88-0.151,0.88-0.151s-0.281,0.129-0.808,0.37
					c-0.538,0.211-1.302,0.661-2.379,0.895c-1.057,0.336-2.388,0.573-3.936,0.694c-1.543,0.093-3.308,0.083-5.167-0.116
					c-1.874-0.154-3.854-0.423-5.878-0.575c-2.029-0.162-4.097-0.113-6.053,0.395c-0.245,0.062-0.497,0.103-0.739,0.178
					l-0.709,0.287c-0.468,0.205-0.969,0.327-1.401,0.634c-0.448,0.264-0.899,0.528-1.353,0.794
					c-0.402,0.314-0.806,0.631-1.212,0.948c-0.204,0.163-0.407,0.296-0.617,0.481l-0.639,0.651l-1.291,1.299l-0.968,1.222
					c-0.169,0.222-0.356,0.427-0.51,0.661l-0.445,0.717c-1.264,1.859-2.154,4.002-2.935,6.15c-0.767,2.16-1.335,4.394-1.8,6.581
					c-0.42,2.2-0.811,4.352-1.091,6.418c-0.271,2.067-0.528,4.034-0.741,5.859c-0.416,3.652-0.785,6.716-1.109,8.861
					c-0.142,1.073-0.313,1.907-0.404,2.479C98.87,87.676,98.814,87.98,98.814,87.98z"/>
			</g>
		</g>
		<g>
			<path fill="#F08153" d="M119.767,110.885c6.502-15.608,22.764-27.003,40.196-28.166c0.34-0.022,0.716-0.032,0.979,0.175
				c0.234,0.183,0.319,0.486,0.384,0.771c1.937,8.478-1.485,17.881-8.498,23.342c-3.583,2.79-7.896,4.543-12.145,6.26
				c-4.689,1.895-9.718,3.83-14.717,2.928"/>
		</g>
		<g>
			<path fill="#F7B08D" d="M121.245,113.754c13.879-23.405,34.562-25.038,34.562-25.038s0.902,19.232-34.562,25.945"/>
		</g>
		<g>
			<path fill="#F08153" d="M66.181,110.885c-6.502-15.608-22.764-27.003-40.196-28.166c-0.34-0.022-0.716-0.032-0.979,0.175
				c-0.234,0.183-0.318,0.486-0.384,0.771c-1.938,8.478,1.485,17.881,8.498,23.342c3.583,2.79,7.895,4.543,12.144,6.26
				c4.69,1.895,9.719,3.83,14.717,2.928"/>
		</g>
		<g>
			<path fill="#EE734A" d="M161.326,83.664c0,0,0.059,0.208,0.167,0.598c0.103,0.393,0.298,0.952,0.411,1.71
				c0.158,0.752,0.267,1.674,0.331,2.741c0.041,1.067,0.039,2.282-0.132,3.595c-0.143,1.317-0.442,2.73-0.897,4.187
				c-0.485,1.442-1.056,2.965-1.91,4.407c-0.838,1.443-1.788,2.911-3.001,4.198c-0.282,0.341-0.607,0.644-0.922,0.957
				c-0.318,0.311-0.627,0.634-0.977,0.914c-0.363,0.302-0.632,0.554-1.076,0.898l-1.062,0.733l-1.071,0.72
				c-0.353,0.244-0.71,0.482-1.119,0.682c-0.789,0.419-1.576,0.836-2.355,1.25c-0.78,0.398-1.566,0.706-2.34,1.044
				c-0.773,0.341-1.54,0.653-2.297,0.936c-1.513,0.597-2.98,1.139-4.388,1.619c-1.417,0.49-2.774,0.908-4.061,1.189
				c-0.64,0.153-1.253,0.295-1.852,0.367c-0.596,0.084-1.153,0.187-1.693,0.198c-0.536,0.023-1.032,0.08-1.495,0.066
				c-0.461-0.028-0.885-0.053-1.268-0.076c-0.381-0.006-0.718-0.065-1.009-0.133c-0.289-0.058-0.535-0.108-0.735-0.148
				c-0.396-0.08-0.607-0.123-0.607-0.123s0.217,0.005,0.622,0.015c0.406-0.014,0.991,0.076,1.736-0.009
				c0.371-0.032,0.781-0.067,1.227-0.104c0.442-0.058,0.919-0.161,1.426-0.247c0.509-0.07,1.037-0.236,1.595-0.385
				c0.561-0.135,1.141-0.318,1.741-0.527c0.605-0.188,1.225-0.427,1.862-0.681c0.643-0.238,1.299-0.515,1.973-0.796
				c1.351-0.589,2.774-1.209,4.248-1.852c1.487-0.619,2.947-1.377,4.446-2.081c0.713-0.388,1.431-0.78,2.152-1.173
				c0.364-0.177,0.718-0.419,1.07-0.671l1.062-0.732l1.072-0.719l0.907-0.746c0.324-0.251,0.611-0.545,0.906-0.827
				c0.294-0.284,0.598-0.557,0.859-0.867c1.122-1.176,2.084-2.468,2.908-3.785c0.835-1.314,1.474-2.686,2.021-4.011
				c0.245-0.673,0.497-1.327,0.675-1.98c0.215-0.644,0.361-1.282,0.497-1.898c0.269-1.232,0.412-2.386,0.498-3.416
				c0.051-1.03,0.087-1.938,0.038-2.68c-0.011-0.746-0.086-1.341-0.124-1.743C161.348,83.879,161.326,83.664,161.326,83.664z"/>
		</g>
		<g>
			<path fill="#EE734A" d="M24.621,83.664c0,0-0.022,0.215-0.062,0.618c-0.038,0.401-0.113,0.997-0.124,1.743
				c-0.049,0.742-0.013,1.65,0.038,2.68c0.086,1.03,0.23,2.184,0.498,3.416c0.136,0.616,0.282,1.254,0.497,1.898
				c0.178,0.653,0.43,1.307,0.675,1.98c0.548,1.325,1.187,2.697,2.022,4.011c0.824,1.317,1.786,2.609,2.908,3.785
				c0.262,0.311,0.565,0.583,0.859,0.867c0.295,0.282,0.582,0.576,0.906,0.827l0.907,0.746l1.072,0.719l1.062,0.732
				c0.353,0.252,0.706,0.493,1.07,0.671c0.722,0.393,1.439,0.785,2.152,1.173c1.499,0.703,2.959,1.462,4.446,2.081
				c1.474,0.642,2.897,1.263,4.248,1.852c0.674,0.281,1.33,0.558,1.973,0.796c0.638,0.254,1.257,0.494,1.862,0.681
				c0.601,0.208,1.181,0.392,1.741,0.527c0.558,0.149,1.086,0.314,1.595,0.385c0.507,0.086,0.983,0.188,1.426,0.247
				c0.446,0.038,0.856,0.073,1.228,0.104c0.745,0.085,1.33-0.005,1.736,0.009c0.405-0.01,0.622-0.015,0.622-0.015
				s-0.211,0.043-0.607,0.123c-0.2,0.04-0.446,0.09-0.735,0.148c-0.291,0.068-0.628,0.127-1.009,0.133
				c-0.383,0.022-0.807,0.048-1.268,0.076c-0.463,0.013-0.959-0.043-1.495-0.066c-0.54-0.011-1.098-0.114-1.693-0.198
				c-0.6-0.072-1.213-0.214-1.853-0.367c-1.287-0.281-2.645-0.7-4.062-1.189c-1.408-0.48-2.875-1.022-4.388-1.619
				c-0.757-0.284-1.524-0.595-2.297-0.936c-0.774-0.338-1.56-0.646-2.34-1.044c-0.779-0.414-1.566-0.831-2.355-1.25
				c-0.409-0.2-0.767-0.438-1.119-0.682l-1.071-0.72l-1.061-0.733c-0.444-0.345-0.713-0.596-1.076-0.898
				c-0.35-0.28-0.658-0.603-0.976-0.914c-0.316-0.313-0.64-0.616-0.922-0.957c-1.213-1.287-2.163-2.755-3.001-4.198
				c-0.854-1.441-1.425-2.965-1.91-4.407c-0.455-1.457-0.755-2.87-0.897-4.187c-0.171-1.313-0.173-2.528-0.132-3.595
				c0.064-1.067,0.173-1.989,0.331-2.741c0.113-0.758,0.309-1.317,0.411-1.71C24.563,83.872,24.621,83.664,24.621,83.664z"/>
		</g>
		<g>
			<path fill="#F7B08D" d="M64.895,113.754C51.016,90.349,30.332,88.716,30.332,88.716s-0.902,19.232,34.562,25.945"/>
		</g>
		<g>
			<path fill="#EE734A" d="M155.808,88.716c0,0,0.107,0.726,0.012,2.015c-0.038,0.321-0.079,0.676-0.125,1.063
				c-0.058,0.385-0.166,0.792-0.259,1.236c-0.081,0.448-0.243,0.9-0.397,1.385c-0.159,0.483-0.317,0.999-0.567,1.498
				c-0.233,0.506-0.467,1.044-0.733,1.587c-0.313,0.517-0.638,1.05-0.971,1.599c-0.312,0.569-0.748,1.064-1.152,1.605
				c-0.425,0.521-0.809,1.111-1.324,1.584c-0.989,0.987-1.966,2.075-3.162,2.93c-0.58,0.448-1.146,0.929-1.751,1.356l-1.877,1.195
				c-1.239,0.832-2.588,1.442-3.895,2.083c-0.657,0.31-1.292,0.664-1.961,0.904c-0.668,0.245-1.327,0.486-1.976,0.723
				c-1.295,0.475-2.54,0.953-3.774,1.226c-1.218,0.324-2.374,0.605-3.44,0.861c-1.055,0.299-2.067,0.376-2.942,0.529
				c-0.881,0.125-1.648,0.233-2.28,0.323c-1.264,0.166-1.986,0.242-1.986,0.242s0.692-0.229,1.904-0.631
				c0.605-0.188,1.341-0.416,2.185-0.678c0.838-0.277,1.808-0.491,2.816-0.892c1.016-0.374,2.113-0.775,3.28-1.173
				c1.182-0.362,2.35-0.939,3.589-1.444c0.617-0.26,1.243-0.524,1.878-0.792c0.634-0.269,1.229-0.631,1.859-0.933
				c1.246-0.636,2.533-1.245,3.696-2.052l1.807-1.107c0.579-0.396,1.117-0.842,1.674-1.256c1.141-0.801,2.119-1.74,3.092-2.634
				c0.517-0.42,0.877-0.962,1.324-1.412c0.418-0.475,0.873-0.91,1.201-1.416c0.357-0.488,0.705-0.963,1.042-1.422
				c0.294-0.488,0.579-0.958,0.853-1.411c0.295-0.445,0.483-0.915,0.699-1.35c0.211-0.436,0.43-0.847,0.564-1.257
				c0.151-0.408,0.294-0.789,0.426-1.142c0.107-0.362,0.205-0.695,0.294-0.996c0.145-0.608,0.271-1.095,0.311-1.43
				C155.798,88.899,155.808,88.716,155.808,88.716z"/>
		</g>
		<g>
			<path fill="#EE734A" d="M30.332,88.716c0,0,0.01,0.184,0.068,0.519c0.039,0.334,0.166,0.821,0.31,1.43
				c0.089,0.301,0.188,0.633,0.294,0.996c0.132,0.353,0.273,0.734,0.426,1.142c0.135,0.411,0.354,0.821,0.565,1.257
				c0.216,0.434,0.404,0.904,0.699,1.35c0.273,0.453,0.559,0.923,0.853,1.411c0.337,0.459,0.685,0.934,1.042,1.422
				c0.328,0.506,0.783,0.941,1.201,1.416c0.447,0.45,0.808,0.992,1.324,1.412c0.973,0.894,1.951,1.833,3.092,2.634
				c0.557,0.414,1.095,0.86,1.674,1.256l1.807,1.107c1.162,0.807,2.45,1.415,3.696,2.052c0.631,0.301,1.226,0.664,1.859,0.933
				c0.635,0.268,1.261,0.532,1.878,0.792c1.239,0.505,2.407,1.082,3.589,1.444c1.167,0.398,2.265,0.799,3.28,1.173
				c1.009,0.4,1.979,0.615,2.816,0.892c0.844,0.262,1.579,0.49,2.185,0.678c1.212,0.401,1.904,0.631,1.904,0.631
				s-0.723-0.076-1.986-0.242c-0.632-0.089-1.399-0.198-2.28-0.323c-0.875-0.153-1.888-0.23-2.942-0.529
				c-1.066-0.256-2.223-0.537-3.44-0.861c-1.234-0.273-2.48-0.751-3.774-1.226c-0.649-0.237-1.308-0.479-1.976-0.723
				c-0.67-0.24-1.304-0.594-1.961-0.904c-1.307-0.642-2.655-1.252-3.895-2.083l-1.877-1.195c-0.604-0.428-1.171-0.909-1.751-1.356
				c-1.196-0.855-2.173-1.942-3.162-2.93c-0.516-0.474-0.899-1.063-1.324-1.584c-0.404-0.541-0.84-1.036-1.152-1.605
				c-0.333-0.549-0.657-1.082-0.971-1.599c-0.267-0.543-0.499-1.08-0.733-1.587c-0.25-0.499-0.408-1.015-0.566-1.498
				c-0.155-0.485-0.317-0.937-0.398-1.385c-0.093-0.443-0.201-0.851-0.259-1.236c-0.046-0.387-0.087-0.743-0.125-1.063
				C30.225,89.441,30.332,88.716,30.332,88.716z"/>
		</g>
		<g>
			<path fill="#F08153" d="M61.165,138.136c0.473,9.481-1.871,25.618-4.39,34.746l2.385,1.164c9.6,4.496,20.311,7.013,31.612,7.013
				c16.355,0,31.479-5.266,43.777-14.189c-4.559-9.432-7.085-19.905-7.32-30.443L61.165,138.136z"/>
		</g>
		<g>
			<g>
				<path fill="#F29065" d="M81.372,110.523c-2.104-6.159-5.777-11.831-10.882-14.415c-3.4-1.721-7.461-1.754-10.807-0.043
					c-1.955,3.469-3.319,7.31-3.904,11.21c-2.027,13.494,2.925,27.036,8.837,39.25c5.661,11.694,12.293,22.886,19.798,33.414
					c1.848,2.59,3.938,5.264,6.606,6.772c-2.035-18.912-4.069-37.824-6.104-56.736C84.205,123.373,83.476,116.682,81.372,110.523z"
					/>
			</g>
			<g>
				<path fill="#F29065" d="M118.348,96.108c-5.105,2.584-8.78,8.255-10.883,14.415c-2.104,6.159-2.833,12.85-3.544,19.453
					c-2.069,19.232-4.139,38.463-6.208,57.695c2.46-0.572,4.785-2.033,6.58-3.902c2.806-2.923,4.562-6.721,6.267-10.441
					c3.466-7.56,6.93-15.119,10.396-22.679c4.21-9.186,8.47-18.531,9.994-28.571c1.419-9.332,0.162-19.503-5.137-27.112
					C123.308,94.548,120.673,94.931,118.348,96.108z"/>
			</g>
			<g>
				<path fill="#EE734A" d="M64.617,146.525c0,0,1.674,2.544,3.948,6.479c0.569,0.983,1.179,2.055,1.87,3.15
					c0.68,1.104,1.405,2.262,2.119,3.479c0.72,1.213,1.464,2.466,2.22,3.739c0.793,1.254,1.598,2.527,2.403,3.801
					c0.785,1.286,1.57,2.572,2.344,3.837c0.806,1.246,1.599,2.471,2.366,3.657c0.775,1.181,1.495,2.344,2.184,3.444
					c0.686,1.094,1.334,2.149,1.969,3.067c0.631,0.924,1.236,1.753,1.81,2.457c0.579,0.698,1.115,1.285,1.588,1.738
					c0.241,0.224,0.456,0.423,0.644,0.597c0.2,0.159,0.371,0.295,0.509,0.405c0.281,0.22,0.431,0.337,0.431,0.337
					s-0.17-0.085-0.488-0.245c-0.327-0.15-0.79-0.401-1.346-0.784c-0.554-0.38-1.208-0.88-1.895-1.523
					c-0.689-0.639-1.428-1.402-2.166-2.288c-0.76-0.873-1.509-1.843-2.277-2.904c-0.775-1.049-1.6-2.152-2.422-3.315
					c-0.815-1.167-1.717-2.336-2.526-3.593c-0.799-1.265-1.61-2.549-2.422-3.833c-0.792-1.297-1.584-2.593-2.363-3.87
					c-0.75-1.296-1.415-2.616-2.097-3.869c-0.68-1.254-1.303-2.484-1.902-3.644c-0.624-1.15-1.111-2.279-1.57-3.319
					C65.694,149.372,64.617,146.525,64.617,146.525z"/>
			</g>
			<g>
				<path fill="#EE734A" d="M104.293,183.768c0,0,0.329-0.484,0.905-1.331c0.256-0.443,0.591-0.942,0.926-1.559
					c0.345-0.609,0.702-1.312,1.081-2.083c0.743-1.552,1.519-3.401,2.359-5.407c0.431-0.998,0.849-2.047,1.321-3.088
					c0.467-1.044,0.94-2.106,1.414-3.167c0.494-1.052,0.988-2.103,1.476-3.138c0.477-1.04,1-2.039,1.477-3.018
					c0.972-1.952,1.916-3.755,2.76-5.286c1.669-3.07,2.943-5.042,2.943-5.042s-0.662,2.253-1.899,5.521
					c-0.608,1.638-1.358,3.532-2.202,5.542c-0.432,1.001-0.847,2.049-1.323,3.089c-0.466,1.045-0.939,2.106-1.414,3.167
					c-0.494,1.051-0.989,2.103-1.477,3.138c-0.48,1.039-0.999,2.037-1.479,3.019c-0.974,1.955-1.97,3.771-2.964,5.242
					c-0.253,0.364-0.496,0.714-0.726,1.046c-0.253,0.317-0.493,0.617-0.719,0.899c-0.44,0.568-0.912,1.01-1.255,1.389
					C104.744,183.393,104.293,183.768,104.293,183.768z"/>
			</g>
			<g>
				<path fill="#F08153" d="M102.094,81.987c-8.455-1.079-19.816,0.033-19.816,0.033c-9.372-0.758-17.784,5.51-22.594,14.045
					c3.346-1.711,7.406-1.678,10.807,0.043c5.104,2.584,8.778,8.255,10.882,14.415c2.104,6.159,2.833,12.85,3.544,19.453
					c2.035,18.912,4.069,37.824,6.104,56.736c0.776,0.438,1.598,0.784,2.48,0.992c1.4,0.333,2.827,0.29,4.212-0.033
					c2.069-19.232,4.139-38.462,6.208-57.695c0.711-6.602,1.439-13.294,3.544-19.453c2.103-6.159,5.777-11.831,10.883-14.415
					c2.325-1.177,4.96-1.561,7.465-1.144c-0.403-0.577-0.821-1.144-1.271-1.69C119.028,86.569,110.549,83.064,102.094,81.987z"/>
			</g>
			<g>
				<path fill="#EE734A" d="M124.541,93.274c0,0-0.788-0.853-2.343-2.085c-1.55-1.235-3.893-2.815-6.896-4.246
					c-1.502-0.714-3.178-1.363-4.971-1.956c-1.798-0.583-3.741-1.031-5.763-1.393c-2.026-0.347-4.141-0.575-6.301-0.67
					c-1.078-0.062-2.171-0.061-3.266-0.049c-0.539,0.013-1.119,0.004-1.627,0.036l-1.712,0.086
					c-2.198,0.133-4.389,0.347-6.548,0.665c-2.147,0.337-4.243,0.751-6.24,1.277c-1.994,0.529-3.9,1.13-5.66,1.832
					c-1.752,0.714-3.377,1.482-4.831,2.288c-2.897,1.628-5.116,3.366-6.561,4.719c-1.447,1.352-2.141,2.286-2.141,2.286
					s0.381-1.106,1.531-2.805c1.14-1.691,3.062-3.977,5.899-6.126c2.804-2.184,6.52-4.179,10.735-5.602
					c2.109-0.706,4.337-1.283,6.626-1.702c2.28-0.43,4.644-0.668,7.008-0.824l1.712-0.069c0.633-0.03,1.195-0.014,1.794-0.022
					c1.181,0,2.358,0.053,3.524,0.15c2.331,0.183,4.618,0.543,6.786,1.082c2.172,0.522,4.214,1.257,6.086,2.072
					c1.88,0.805,3.562,1.767,5.041,2.746c2.97,1.956,5.051,4.078,6.326,5.666C124.038,92.222,124.541,93.274,124.541,93.274z"/>
			</g>
			<g>
				<path fill="#EE734A" d="M97.713,187.67c0,0,0.073-1.506,0.25-4.136c0.197-2.628,0.421-6.389,0.792-10.891
					c0.355-4.503,0.812-9.753,1.346-15.373c0.274-2.809,0.558-5.711,0.845-8.661c0.306-2.947,0.616-5.942,0.927-8.936
					c0.333-2.992,0.667-5.984,0.995-8.929c0.334-2.96,0.678-5.834,1.133-8.659c0.107-0.704,0.214-1.401,0.318-2.092
					c0.145-0.686,0.288-1.366,0.431-2.038c0.145-0.671,0.289-1.336,0.431-1.991c0.073-0.327,0.136-0.654,0.218-0.976
					c0.097-0.319,0.193-0.635,0.289-0.949c0.386-1.254,0.76-2.474,1.122-3.654c0.481-1.172,0.858-2.232,1.406-3.281
					c0.958-2.113,2.162-3.842,3.261-5.344c0.617-0.7,1.156-1.385,1.722-1.956c0.594-0.545,1.107-1.076,1.624-1.495
					c0.536-0.393,1.016-0.744,1.433-1.049c0.422-0.294,0.833-0.465,1.139-0.643c0.623-0.333,0.955-0.51,0.955-0.51
					s-0.312,0.21-0.899,0.604c-0.285,0.207-0.669,0.412-1.056,0.744c-0.382,0.334-0.821,0.717-1.313,1.147
					c-0.474,0.447-0.938,1.006-1.473,1.575c-0.508,0.596-0.983,1.304-1.528,2.021c-0.949,1.536-1.992,3.309-2.808,5.358
					c-0.453,0.977-0.81,2.161-1.194,3.261c-0.305,1.161-0.619,2.361-0.943,3.595c-0.081,0.308-0.163,0.618-0.245,0.929
					c-0.067,0.316-0.116,0.641-0.176,0.963c-0.113,0.646-0.229,1.301-0.346,1.962c-0.118,0.661-0.237,1.328-0.358,2.003
					c-0.087,0.682-0.175,1.37-0.264,2.064c-0.395,2.756-0.628,5.688-0.957,8.617c-0.306,2.948-0.617,5.942-0.928,8.937
					c-0.333,2.992-0.667,5.983-0.995,8.929c-0.347,2.943-0.688,5.84-1.018,8.643c-0.674,5.604-1.344,10.831-1.955,15.307
					c-0.595,4.478-1.177,8.2-1.543,10.81C97.961,186.183,97.713,187.67,97.713,187.67z"/>
			</g>
			<g>
				<path fill="#EE734A" d="M70.491,96.108c0,0,0.329,0.176,0.946,0.505c0.302,0.175,0.702,0.344,1.122,0.63
					c0.414,0.303,0.891,0.651,1.424,1.041c0.521,0.409,1.021,0.939,1.611,1.477c0.57,0.557,1.096,1.241,1.71,1.931
					c1.1,1.473,2.295,3.2,3.248,5.265c0.531,1.008,0.943,2.118,1.413,3.252c0.399,1.21,0.73,2.359,1.115,3.597
					c0.42,1.203,0.647,2.538,0.95,3.871c0.143,0.671,0.287,1.349,0.433,2.034c0.13,0.685,0.217,1.373,0.328,2.069
					c0.896,5.568,1.433,11.493,2.122,17.415c0.308,2.964,0.615,5.928,0.918,8.847c0.313,2.917,0.563,5.794,0.837,8.574
					c0.528,5.564,0.979,10.76,1.329,15.219c0.367,4.457,0.585,8.18,0.778,10.782c0.174,2.604,0.245,4.095,0.245,4.095
					s-0.248-1.472-0.632-4.053c-0.364-2.584-0.944-6.268-1.533-10.701c-0.606-4.431-1.271-9.604-1.938-15.153
					c-0.324-2.775-0.691-5.64-1.006-8.556c-0.325-2.916-0.655-5.878-0.985-8.839c-0.308-2.964-0.614-5.929-0.917-8.847
					c-0.319-2.911-0.565-5.783-0.955-8.524c-0.094-0.686-0.164-1.376-0.274-2.042c-0.118-0.662-0.236-1.317-0.353-1.966
					c-0.242-1.299-0.398-2.575-0.775-3.812c-0.325-1.227-0.641-2.42-0.945-3.574c-0.395-1.115-0.734-2.213-1.194-3.212
					c-0.829-2.041-1.849-3.788-2.806-5.302c-0.542-0.707-1.005-1.416-1.518-1.997c-0.531-0.561-0.986-1.122-1.46-1.555
					c-0.485-0.424-0.919-0.803-1.296-1.132c-0.386-0.325-0.77-0.535-1.052-0.739C70.8,96.316,70.491,96.108,70.491,96.108z"/>
			</g>
		</g>
		<g>
			<path fill="#212121" d="M116.49,123.62c-1.683,0.154-2.876,2.311-2.112,3.865c0.765,1.554,3.213,1.801,4.219,0.401
				c1.006-1.4,0.013-4.502-1.668-4.667"/>
		</g>
		<g>
			<path fill="#212121" d="M73.544,123.62c-1.682,0.154-2.876,2.311-2.111,3.865c0.764,1.554,3.212,1.801,4.218,0.401
				c1.006-1.4,0.013-3.783-1.669-3.948"/>
		</g>
		<g>
			<path fill="#B8361B" d="M101.299,172.327c-3.583-3.311-8.523-2.497-12.176,0c-3.688,2.522-6.212,8.575-4.171,14.09
				c2.521,6.815,14.824,7.454,19.418,1.439C107.287,184.034,106.287,176.936,101.299,172.327z"/>
		</g>
	</g>
</g>
</svg>
