<?xml version="1.0" encoding="utf-8"?>
<!-- Generator: Adobe Illustrator 17.0.0, SVG Export Plug-In . SVG Version: 6.00 Build 0)  -->
<!DOCTYPE svg PUBLIC "-//W3C//DTD SVG 1.1//EN" "http://www.w3.org/Graphics/SVG/1.1/DTD/svg11.dtd">
<svg version="1.1" id="Calque_1" xmlns="http://www.w3.org/2000/svg" xmlns:xlink="http://www.w3.org/1999/xlink" x="0px" y="0px"
	 width="182.472px" height="192.259px" viewBox="0 0 182.472 192.259" enable-background="new 0 0 182.472 192.259"
	 xml:space="preserve">
<g>
	<g>
		<g>
			<path fill="#E75244" d="M50.855,27.705c1.978-5.496,8.287-7.5,11.274-12.59c1.277-2.214,2.225-4.37,4.002-6.436
				c2.261-2.609,4.613-3.579,7.687-5.276c-0.398,4.187-5.286,6.967-7.497,10.273C73.931,12.963,76.644,2.691,85.111,1
				c-1.763,4.956-6.33,6.11-9.347,10.098c4.915-0.923,6.498-2.49,9.913-5.279c3.077-2.569,7.22-3.425,11.316-2.662
				c-0.965,3.524-8.488,4.289-11.019,6.593c1.542,0.819,4.258,0.848,6.003,0.548c2.346-0.517,2.511-1.582,4.492-2.903
				c2.406-1.844,6.488-2.595,9.678-1.488c-0.948,0.973-1.965,2.301-3.439,2.886c-1.809,0.954-4.059,0.628-5.431,2.315
				c1.732,1.155,4.156,1.461,6.313,1.64c3.021,0.011,2.917-0.886,5.078-2.587c2.642-1.941,6.856-3.324,10.338-1.757
				c-1.575,0.844-2.454,2.309-3.965,3.194c-1.635,1.002-3.634,1.467-5.338,2.203c7.478,3.575,13.419-3.194,24.215,1.621
				c-1.317,1.047-3.112,2.021-5.049,2.328c-2.703,0.434-4.753-0.827-7.521-0.579c2.067,1.415,4.325,2.928,5.727,4.847
				c-5.719,2.216-11.934-4.595-17.116-6.046c1.927,1.437,3.92,3.281,5.091,5.597c-2.597,1.074-6.111-0.896-7.951-2.853
				c-2.703-2.469-3.23-4.769-7.544-5.233c2.172,1.143,3.447,3.558,5.381,5.136c-2.79,0.881-5.685,0.071-7.726-1.953
				c-0.895-1.028-1.294-3.288-2.451-4.038c-1.054-0.891-3.818-0.643-5.091-0.614c2.527,1.483,4.922,2.839,6.23,5.537
				c-5.797,0.723-9.117-6.179-15.078-4.847c2.435,1.922,6.207,2.314,7.823,5.021c-2.726,0.818-6.38-0.102-8.965-1.355
				c-3.698-1.988-6.468-2.801-10.89-1.459c3.328,0.18,5.929,1.463,8.809,2.459c-2.93,2.696-9.826,0.688-13.837,1.033
				c-5.152,0.396-10.351,5.328-12.745,9.336"/>
			<circle fill="#E75244" cx="119.425" cy="11.542" r="1.001"/>
			<circle fill="#E75244" cx="117.423" cy="22.375" r="1.001"/>
			<circle fill="#E75244" cx="104.997" cy="10.54" r="1.001"/>
			<circle fill="#E75244" cx="90.442" cy="19.373" r="1"/>
			<circle fill="#E75244" cx="88.44" cy="1" r="1.001"/>
			<path fill="#E75244" d="M58.749,16.369c0,0.555-0.448,1.003-1.001,1.003c-0.552,0-1.001-0.448-1.001-1.003
				c0-0.551,0.448-1,1.001-1C58.301,15.369,58.749,15.818,58.749,16.369z"/>
			<circle fill="#E75244" cx="64.879" cy="21.375" r="1"/>
		</g>
		<g>
			<path fill="#E75244" d="M11.788,96.889c-3.769-4.461-2.352-10.927-5.265-16.06c-1.278-2.214-2.672-4.112-3.571-6.685
				c-1.132-3.263-0.795-5.785-0.728-9.294c3.426,2.438,3.39,8.061,5.148,11.628c3.187-6.945-4.352-14.431-1.582-22.609
				c3.41,4.005,2.125,8.538,4.07,13.142c1.659-4.717,1.093-6.87,0.385-11.224c-0.688-3.949,0.643-7.966,3.352-11.132
				c2.571,2.598-0.53,9.496,0.201,12.841c1.481-0.927,2.862-3.265,3.476-4.927c0.725-2.289-0.115-2.965-0.269-5.342
				c-0.393-3.004,0.997-6.916,3.551-9.125c0.368,1.309,1.01,2.853,0.778,4.422c-0.078,2.043-1.484,3.829-0.709,5.861
				c1.866-0.923,3.343-2.867,4.576-4.648c1.521-2.61,0.692-2.969,0.299-5.689c-0.361-3.259,0.548-7.601,3.646-9.833
				c-0.056,1.787,0.773,3.279,0.785,5.032c0.049,1.917-0.548,3.881-0.762,5.724c6.835-4.688,3.944-13.218,13.511-20.158
				c0.249,1.662,0.195,3.704-0.507,5.536c-0.976,2.558-3.094,3.701-4.264,6.225c2.26-1.084,4.698-2.283,7.062-2.539
				c-0.941,6.062-9.946,8.038-13.795,11.801c2.209-0.949,4.803-1.754,7.394-1.61c-0.368,2.786-3.833,4.844-6.447,5.46
				c-3.49,1.105-5.745,0.412-8.304,3.915c2.077-1.31,4.806-1.206,7.139-2.09c-0.633,2.855-2.781,4.959-5.554,5.713
				c-1.339,0.261-3.495-0.524-4.724,0.104c-1.298,0.469-2.466,2.985-3.076,4.101c2.546-1.445,4.918-2.843,7.91-2.628
				c-2.273,5.383-9.909,4.807-11.736,10.636c2.881-1.147,5.106-4.218,8.26-4.264c-0.656,2.77-3.28,5.475-5.658,7.085
				c-3.568,2.21-5.659,4.202-6.707,8.702c1.82-2.793,4.231-4.403,6.534-6.399c0.869,3.887-4.318,8.854-6.024,12.5
				c-2.233,4.661-0.561,11.63,1.713,15.706"/>
			<circle fill="#E75244" cx="32.075" cy="29.423" r="1.001"/>
			<circle fill="#E75244" cx="40.456" cy="36.573" r="1.001"/>
			<circle fill="#E75244" cx="23.995" cy="41.417" r="1.001"/>
			<circle fill="#E75244" cx="24.366" cy="58.438" r="1"/>
			<circle fill="#E75244" cx="7.454" cy="50.985" r="1.001"/>
			<circle fill="#E75244" cx="5.418" cy="85.251" r="1"/>
			<circle fill="#E75244" cx="13.317" cy="81.577" r="1.001"/>
		</g>
		<g>
			<path fill="#E75244" d="M52.168,165.312c-5.748,1.035-10.638-3.426-16.541-3.468c-2.557,0-4.896,0.258-7.573-0.249
				c-3.391-0.652-5.406-2.205-8.414-4.019c3.825-1.747,8.676,1.094,12.645,1.357c-4.422-6.235-14.674-3.448-20.372-9.936
				c5.173-0.951,8.455,2.429,13.417,3.046c-3.255-3.796-5.404-4.383-9.528-5.946c-3.764-1.379-6.576-4.54-7.964-8.47
				c3.535-0.926,7.959,5.207,11.221,6.247c-0.063-1.744-1.396-4.111-2.529-5.474c-1.62-1.773-2.625-1.383-4.759-2.438
				c-2.801-1.162-5.492-4.321-6.129-7.638c1.318,0.336,2.975,0.553,4.218,1.538c1.73,1.087,2.575,3.2,4.723,3.545
				c0.133-2.078-0.813-4.329-1.738-6.288c-1.502-2.623-2.226-2.084-4.778-3.104c-3.003-1.316-6.309-4.275-6.693-8.074
				c1.52,0.942,3.228,0.97,4.751,1.836c1.685,0.916,3.087,2.415,4.577,3.522C10.061,113.037,1.228,111.276,0,99.52
				c1.563,0.617,3.305,1.685,4.54,3.209c1.729,2.123,1.66,4.529,3.259,6.805c0.192-2.499,0.373-5.211,1.334-7.385
				c4.777,3.845,1.987,12.632,3.321,17.846c0.282-2.389,0.882-5.036,2.303-7.208c2.228,1.711,2.278,5.741,1.505,8.312
				c-0.788,3.576-2.516,5.182-0.76,9.149c-0.098-2.453,1.357-4.764,1.757-7.227c2.157,1.976,2.906,4.887,2.172,7.665
				c-0.445,1.29-2.203,2.766-2.273,4.143c-0.245,1.358,1.351,3.628,2.014,4.716c0.021-2.93-0.003-5.683,1.679-8.164
				c3.525,4.659-0.792,10.984,3.342,15.481c0.447-3.069-1.1-6.532,0.438-9.287c2.07,1.953,3.103,5.579,3.307,8.444
				c0.129,4.194,0.809,7.001,4.182,10.159c-1.507-2.973-1.697-5.866-2.276-8.858c3.801,1.189,5.509,8.166,7.814,11.467
				c2.92,4.265,9.792,6.301,14.459,6.369"/>
			<circle fill="#E75244" cx="3.886" cy="114.012" r="1"/>
			<circle fill="#E75244" cx="14.269" cy="110.328" r="1"/>
			<circle fill="#E75244" cx="10.233" cy="127.005" r="1.001"/>
			<circle fill="#E75244" cx="25.159" cy="135.194" r="1.001"/>
			<circle fill="#E75244" cx="10.25" cy="146.114" r="1.001"/>
			<circle fill="#E75244" cx="38.906" cy="165.009" r="1.002"/>
			<circle fill="#E75244" cx="39.674" cy="156.333" r="1.001"/>
		</g>
		<g>
			<path fill="#E75244" d="M131.616,164.554c-1.977,5.496-8.287,7.499-11.274,12.59c-1.276,2.214-2.224,4.37-4.001,6.435
				c-2.261,2.61-4.613,3.579-7.687,5.277c0.398-4.186,5.286-6.966,7.497-10.273c-7.611,0.713-10.323,10.984-18.79,12.675
				c1.763-4.954,6.33-6.107,9.346-10.095c-4.915,0.922-6.497,2.488-9.913,5.278c-3.076,2.569-7.22,3.424-11.316,2.662
				c0.966-3.525,8.489-4.289,11.021-6.595c-1.543-0.818-4.259-0.846-6.005-0.546c-2.346,0.516-2.51,1.582-4.491,2.904
				c-2.406,1.842-6.488,2.593-9.678,1.486c0.949-0.972,1.965-2.3,3.439-2.885c1.808-0.955,4.059-0.627,5.431-2.315
				c-1.732-1.156-4.156-1.461-6.313-1.639c-3.022-0.013-2.917,0.884-5.078,2.585c-2.641,1.942-6.856,3.325-10.339,1.758
				c1.576-0.844,2.454-2.31,3.966-3.195c1.634-1.001,3.634-1.465,5.339-2.202c-7.479-3.575-13.42,3.194-24.216-1.622
				c1.317-1.046,3.111-2.021,5.049-2.327c2.703-0.435,4.752,0.827,7.521,0.579c-2.067-1.415-4.325-2.928-5.728-4.847
				c5.719-2.216,11.934,4.595,17.116,6.047c-1.927-1.439-3.92-3.283-5.091-5.599c2.597-1.074,6.111,0.897,7.951,2.852
				c2.702,2.47,3.23,4.771,7.544,5.233c-2.172-1.143-3.448-3.557-5.381-5.136c2.79-0.88,5.686-0.072,7.725,1.953
				c0.895,1.029,1.293,3.29,2.451,4.038c1.054,0.891,3.818,0.645,5.09,0.614c-2.526-1.482-4.921-2.839-6.229-5.536
				c5.797-0.723,9.116,6.178,15.078,4.847c-2.435-1.923-6.206-2.314-7.822-5.023c2.726-0.817,6.381,0.104,8.965,1.357
				c3.698,1.987,6.468,2.8,10.89,1.458c-3.328-0.181-5.929-1.464-8.81-2.458c2.931-2.697,9.827-0.688,13.837-1.034
				c5.153-0.396,10.353-5.329,12.746-9.336"/>
			<circle fill="#E75244" cx="63.047" cy="180.717" r="1"/>
			<circle fill="#E75244" cx="65.049" cy="169.884" r="1.001"/>
			<circle fill="#E75244" cx="77.474" cy="181.719" r="1"/>
			<circle fill="#E75244" cx="92.029" cy="172.886" r="1.001"/>
			<circle fill="#E75244" cx="94.031" cy="191.258" r="1.001"/>
			<circle fill="#E75244" cx="124.723" cy="175.889" r="1.001"/>
			<circle fill="#E75244" cx="117.592" cy="170.884" r="1.001"/>
		</g>
		<g>
			<path fill="#E75244" d="M170.684,95.371c3.769,4.461,2.351,10.927,5.265,16.06c1.278,2.212,2.672,4.111,3.572,6.684
				c1.13,3.263,0.793,5.783,0.727,9.294c-3.427-2.438-3.391-8.061-5.149-11.629c-3.188,6.946,4.351,14.432,1.582,22.609
				c-3.41-4.003-2.125-8.537-4.071-13.141c-1.658,4.717-1.092,6.87-0.384,11.224c0.688,3.948-0.643,7.966-3.353,11.132
				c-2.57-2.598,0.531-9.496-0.2-12.842c-1.481,0.928-2.862,3.267-3.476,4.927c-0.726,2.289,0.115,2.965,0.269,5.343
				c0.393,3.005-0.997,6.916-3.551,9.124c-0.368-1.308-1.01-2.853-0.778-4.421c0.078-2.043,1.484-3.83,0.709-5.861
				c-1.866,0.922-3.343,2.868-4.576,4.647c-1.521,2.611-0.692,2.97-0.299,5.691c0.361,3.258-0.548,7.601-3.647,9.832
				c0.057-1.787-0.772-3.28-0.784-5.032c-0.049-1.916,0.548-3.88,0.762-5.726c-6.834,4.689-3.944,13.219-13.511,20.16
				c-0.249-1.663-0.195-3.704,0.507-5.536c0.976-2.559,3.094-3.701,4.264-6.225c-2.26,1.083-4.699,2.283-7.061,2.538
				c0.939-6.062,9.946-8.037,13.794-11.801c-2.208,0.95-4.802,1.755-7.393,1.611c0.367-2.786,3.833-4.844,6.446-5.46
				c3.491-1.106,5.746-0.413,8.305-3.916c-2.077,1.311-4.806,1.207-7.139,2.092c0.633-2.856,2.781-4.961,5.554-5.714
				c1.339-0.261,3.496,0.524,4.724-0.104c1.298-0.468,2.466-2.985,3.076-4.1c-2.547,1.446-4.918,2.843-7.91,2.627
				c2.273-5.382,9.909-4.807,11.736-10.635c-2.882,1.147-5.106,4.218-8.26,4.264c0.656-2.77,3.279-5.476,5.658-7.086
				c3.568-2.21,5.659-4.2,6.707-8.701c-1.82,2.792-4.232,4.402-6.534,6.398c-0.87-3.886,4.317-8.853,6.024-12.5
				c2.233-4.66,0.561-11.63-1.713-15.704"/>
			<circle fill="#E75244" cx="150.396" cy="162.835" r="1"/>
			<circle fill="#E75244" cx="142.015" cy="155.686" r="1.001"/>
			<circle fill="#E75244" cx="158.477" cy="150.842" r="1"/>
			<circle fill="#E75244" cx="158.106" cy="133.82" r="1.001"/>
			<circle fill="#E75244" cx="175.017" cy="141.273" r="1"/>
			<circle fill="#E75244" cx="177.053" cy="107.008" r="1.001"/>
			<circle fill="#E75244" cx="169.154" cy="110.682" r="1.001"/>
		</g>
		<g>
			<path fill="#E75244" d="M130.302,26.947c5.749-1.036,10.638,3.427,16.542,3.469c2.555-0.001,4.896-0.259,7.573,0.248
				c3.391,0.652,5.406,2.205,8.413,4.018c-3.824,1.748-8.675-1.095-12.645-1.355c4.423,6.233,14.675,3.445,20.372,9.934
				c-5.172,0.95-8.455-2.428-13.416-3.046c3.255,3.795,5.404,4.382,9.528,5.946c3.764,1.378,6.576,4.539,7.964,8.469
				c-3.536,0.926-7.959-5.207-11.221-6.247c0.063,1.745,1.397,4.112,2.529,5.474c1.62,1.773,2.625,1.385,4.759,2.438
				c2.8,1.161,5.492,4.321,6.128,7.637c-1.317-0.336-2.975-0.552-4.219-1.537c-1.729-1.087-2.574-3.2-4.723-3.545
				c-0.132,2.078,0.814,4.329,1.739,6.287c1.502,2.623,2.225,2.084,4.778,3.104c3.003,1.317,6.309,4.275,6.692,8.075
				c-1.52-0.942-3.228-0.971-4.75-1.837c-1.685-0.915-3.085-2.414-4.576-3.522c0.643,8.265,9.476,10.024,10.703,21.781
				c-1.565-0.616-3.306-1.684-4.54-3.208c-1.729-2.123-1.66-4.529-3.259-6.805c-0.192,2.499-0.373,5.21-1.335,7.384
				c-4.777-3.844-1.987-12.631-3.321-17.846c-0.281,2.39-0.882,5.036-2.302,7.209c-2.229-1.711-2.278-5.741-1.505-8.313
				c0.787-3.574,2.516-5.181,0.76-9.149c0.097,2.454-1.357,4.766-1.756,7.227c-2.158-1.976-2.907-4.887-2.173-7.667
				c0.445-1.288,2.203-2.764,2.272-4.141c0.245-1.358-1.352-3.628-2.015-4.715c-0.02,2.929,0.003,5.682-1.68,8.162
				c-3.523-4.658,0.793-10.982-3.34-15.479c-0.447,3.068,1.1,6.53-0.438,9.285c-2.071-1.953-3.102-5.578-3.307-8.443
				c-0.131-4.195-0.809-7.002-4.182-10.16c1.507,2.974,1.697,5.867,2.274,8.859c-3.8-1.188-5.507-8.166-7.812-11.467
				c-2.92-4.265-9.792-6.301-14.459-6.369"/>
			<circle fill="#E75244" cx="178.585" cy="78.248" r="1.001"/>
			<circle fill="#E75244" cx="168.202" cy="81.931" r="1.001"/>
			<path fill="#E75244" d="M172.739,66.118c-0.479,0.279-1.091,0.115-1.367-0.366c-0.276-0.478-0.113-1.09,0.367-1.366
				c0.478-0.275,1.089-0.111,1.366,0.366C173.381,65.231,173.217,65.844,172.739,66.118z"/>
			<circle fill="#E75244" cx="157.312" cy="57.064" r="1.001"/>
			<circle fill="#E75244" cx="172.222" cy="46.144" r="1.001"/>
			<circle fill="#E75244" cx="143.565" cy="27.249" r="1.001"/>
			<circle fill="#E75244" cx="142.797" cy="35.926" r="1.001"/>
		</g>
	</g>
	<g>
		<g id="wolf">
			<g>
				<g id="XMLID_1_">
					<g>
						<path fill="#676767" d="M38.713,128.624c12.873,9.991,32.179,18.198,56.917,17.722c23.357-1.844,39.167-12.403,49.558-23.145
							c0.63,2.837,1.457,6.804,2.368,11.181c-14.299,14.701-34.296,23.835-56.424,23.835c-21.529,0-41.047-8.647-55.255-22.659
							c1.517-3.785,2.707-6.767,2.707-6.767L38.713,128.624z"/>
						<path fill="#DBDBDB" d="M59.096,7.593c-1.812-2.208-3.641-4.173-5.423-5.796c-1.29,3.133-1.866,6.508-2.42,9.846
							c-0.007,0.038-0.015,0.075-0.022,0.114c-1.343,8.063-2.693,16.181-2.511,24.35c0.182,8.171,1.236,16.485,5.757,23.297
							l0.16,0.091c2.329-4.014,4.977-7.571,7.958-10.21c3.938-3.49,8.511-6.281,13.412-8.307
							C73.972,30.319,66.666,16.816,59.096,7.593z"/>
						<path fill="#F5ADB6" d="M62.314,22.604c-1.289-1.569-2.588-2.966-3.855-4.119c-0.917,2.226-1.326,4.626-1.719,6.998
							c-0.006,0.026-0.012,0.054-0.017,0.081c-0.954,5.731-1.915,11.5-1.784,17.308c0.128,5.807,0.878,11.716,4.092,16.558
							l0.113,0.065c1.655-2.852,3.537-5.381,5.655-7.257c2.799-2.479,6.05-4.465,9.533-5.904
							C72.887,38.758,67.695,29.16,62.314,22.604z"/>
						<path fill="#DBDBDB" d="M135.948,14.806c-0.235-1.524-0.493-3.049-0.744-4.566c-0.569-3.375-1.138-6.789-2.442-9.96
							c-2.436,2.216-4.961,5.074-7.411,8.329c-6.836,9.05-13.071,21.142-14.922,30.859l-0.075,0.212
							c4.886,1.783,9.392,4.537,13.177,8.321c3.102,3.104,5.947,7.07,8.389,11.425l0.039-0.022
							c4.521-6.812,5.575-16.643,5.757-24.813C137.86,27.96,137.004,21.368,135.948,14.806z"/>
						<g>
							<path fill="#ABABAB" d="M51.252,11.643c0,0,0.004,0.775-0.048,2.123c-0.035,1.346-0.176,3.273-0.303,5.559
								c-0.064,1.144-0.134,2.381-0.25,3.681c-0.138,1.301-0.106,2.678-0.219,4.09c-0.072,1.414-0.195,2.877-0.171,4.352
								c-0.014,1.476-0.028,2.975-0.041,4.475c0.041,1.466,0.067,3.069,0.163,4.498c0.066,1.463,0.178,2.905,0.308,4.303
								c0.054,0.7,0.199,1.369,0.263,2.041c0.082,0.669,0.145,1.329,0.286,1.951c0.246,1.255,0.438,2.459,0.75,3.534
								c0.139,0.546,0.272,1.069,0.399,1.566c0.163,0.487,0.317,0.948,0.462,1.382c0.144,0.439,0.279,0.85,0.404,1.23
								c0.125,0.382,0.293,0.706,0.418,1.016c0.524,1.224,0.804,1.96,0.804,1.96s-0.494-0.584-1.325-1.669
								c-0.2-0.275-0.453-0.566-0.672-0.913c-0.217-0.348-0.433-0.737-0.674-1.148c-0.24-0.415-0.495-0.857-0.764-1.323
								c-0.232-0.482-0.443-1.004-0.681-1.544c-0.221-0.545-0.509-1.1-0.703-1.704c-0.193-0.606-0.392-1.232-0.597-1.876
								c-0.406-1.292-0.706-2.685-0.983-4.13c-0.22-1.449-0.498-2.946-0.597-4.492c-0.17-1.571-0.196-3.031-0.257-4.621
								c0.049-1.559,0.099-3.119,0.148-4.654c-0.009-1.541,0.284-3.022,0.437-4.466c0.187-1.44,0.344-2.839,0.63-4.135
								c0.245-1.304,0.517-2.53,0.768-3.658c0.23-1.134,0.507-2.154,0.754-3.058c0.235-0.906,0.471-1.692,0.658-2.339
								C50.999,12.377,51.252,11.643,51.252,11.643z"/>
						</g>
						<g>
							<path fill="#ABABAB" d="M132.763,0.279c0,0,1.301,3.589,2.864,9.058c0.395,1.366,0.823,2.846,1.234,4.421l0.159,0.594
								l0.04,0.15l0.01,0.037l0.023,0.115l0.015,0.076l0.061,0.306c0.081,0.41,0.163,0.824,0.246,1.244
								c0.173,0.837,0.315,1.698,0.475,2.571c0.292,1.754,0.569,3.606,0.808,5.476c0.163,1.884,0.351,3.796,0.456,5.719
								c-0.013,1.931,0.076,3.863-0.032,5.759c-0.046,1.844-0.275,3.731-0.459,5.528c-0.131,0.895-0.237,1.777-0.382,2.634
								c-0.136,0.858-0.346,1.691-0.509,2.503c-0.288,1.631-0.84,3.128-1.235,4.513c-0.545,1.354-0.959,2.613-1.528,3.653
								c-0.565,1.039-0.987,1.966-1.493,2.648c-0.985,1.375-1.558,2.121-1.558,2.121s0.367-0.897,1.028-2.395
								c0.186-0.364,0.313-0.805,0.459-1.279c0.153-0.468,0.318-0.974,0.495-1.515c0.2-0.528,0.323-1.125,0.463-1.747
								c0.15-0.616,0.308-1.263,0.472-1.939c0.114-0.688,0.233-1.404,0.355-2.146c0.065-0.369,0.13-0.743,0.197-1.124
								c0.045-0.386,0.091-0.777,0.138-1.174c0.22-1.579,0.318-3.263,0.467-4.998c0.1-1.739,0.148-3.509,0.195-5.39
								c0.073-1.827-0.057-3.68-0.069-5.533c-0.067-1.855-0.216-3.716-0.339-5.545c-0.223-1.826-0.322-3.622-0.535-5.38
								c-0.104-0.881-0.223-1.745-0.303-2.596c-0.044-0.425-0.088-0.845-0.131-1.261l-0.032-0.311l-0.008-0.077
								c0.006,0.028-0.015-0.09,0.012,0.057l-0.003-0.019l-0.007-0.038l-0.026-0.153l-0.104-0.606
								c-0.286-1.602-0.516-3.125-0.729-4.532C133.083,4.083,132.763,0.279,132.763,0.279z"/>
						</g>
						<path fill="#F5ADB6" d="M131.773,25.522c-0.181-1.173-0.379-2.346-0.572-3.513c-0.438-2.598-0.875-5.224-1.88-7.663
							c-1.873,1.704-3.816,3.904-5.701,6.408c-5.258,6.962-10.056,16.265-11.48,23.741l-0.059,0.163
							c3.758,1.371,7.225,3.489,10.138,6.402c2.387,2.386,4.575,5.438,6.454,8.788l0.03-0.017c3.479-5.241,4.289-12.804,4.43-19.09
							C133.243,35.643,132.584,30.57,131.773,25.522z"/>
						<g>
							<path fill="#E68794" d="M59.031,59.43c-0.437-0.582-0.879-1.161-1.297-1.754c-0.366-0.633-0.729-1.282-1.08-1.942
								c-0.294-0.674-0.589-1.354-0.858-2.045c-0.22-0.703-0.462-1.406-0.665-2.119l-0.484-2.165
								c-0.122-0.727-0.246-1.456-0.34-2.188l-0.217-2.196c-0.049-0.748-0.094-1.425-0.116-2.235
								c0.024-1.447,0.019-2.891,0.066-4.339l0.445-4.414l0.722-4.312c0.304-1.419,0.575-2.844,0.906-4.257l0.009-0.046
								c0.712-2.327,1.478-4.641,2.337-6.932c-0.298,2.428-0.69,4.834-1.135,7.226l0.009-0.046
								c-0.132,1.442-0.326,2.872-0.486,4.308l-0.471,4.284l-0.348,4.228l-0.121,4.336c0.016,0.636,0.037,1.404,0.037,2.101
								l0.096,2.131l0.174,2.12l0.278,2.106l0.393,2.088l0.543,2.06l0.705,2.012L59.031,59.43z"/>
						</g>
						<g>
							<path fill="#E68794" d="M128.704,59.833c0,0,0.289-0.674,0.823-1.837c0.284-0.577,0.456-1.331,0.76-2.14
								c0.293-0.811,0.457-1.807,0.749-2.831c0.093-0.53,0.189-1.082,0.289-1.653c0.111-0.567,0.207-1.157,0.27-1.771
								c0.179-1.217,0.261-2.517,0.38-3.855c0.081-1.345,0.131-2.734,0.162-4.152c0.006-0.34,0.03-0.741,0.02-1.035l-0.023-1.085
								c-0.016-0.725-0.031-1.453-0.047-2.181c-0.059-1.438-0.171-2.844-0.269-4.25c-0.146-1.414-0.29-2.806-0.428-4.152
								c-0.315-2.706-0.608-5.231-0.86-7.396c-0.132-1.08-0.253-2.07-0.36-2.948c-0.126-0.871-0.277-1.622-0.375-2.253
								c-0.301-1.239-0.473-1.946-0.473-1.946s0.322,0.65,0.854,1.832c0.205,0.607,0.499,1.34,0.742,2.205
								c0.244,0.865,0.514,1.847,0.743,2.911c0.497,2.15,1.004,4.634,1.473,7.349c0.222,1.355,0.426,2.768,0.606,4.204
								c0.125,1.451,0.269,2.95,0.346,4.42c0.004,0.728,0.008,1.456,0.012,2.182l0.006,1.086c0.003,0.428-0.027,0.746-0.039,1.123
								c-0.04,1.449-0.204,2.874-0.341,4.251c-0.171,1.378-0.381,2.702-0.664,3.947c-0.214,1.254-0.629,2.404-0.921,3.47
								c-0.41,1.043-0.716,2.006-1.147,2.818c-0.427,0.806-0.748,1.532-1.122,2.049C129.138,59.243,128.704,59.833,128.704,59.833z"
								/>
						</g>
						<path fill="#E0D9D5" d="M145.188,123.201c-10.391,10.741-26.201,21.301-49.558,23.145
							c-24.737,0.477-44.044-7.73-56.917-17.722c-7.806-6.053-13.246-12.76-16.105-18.593c8.375,3.202,15.931,0.16,15.931,0.16
							s-17.827-5.939-17.827-17.502c7.745,2.618,21.081-2.465,23.304-6.266c4.384,7.018,17.44,15.302,49.042,15.81
							c31.018,0.5,47.017-20.049,47.017-20.049c5.281,5.765,6.941,8.382,22.099,2.715c-3.02,7.79-13.472,13.313-16.227,13.116
							c6.608,3.618,9.824,3.497,16.227,1.122C160.306,102.111,155.307,112.74,145.188,123.201z"/>
						<g>
							<path fill="#ABABAB" d="M140.075,82.185c0,0,0.355,0.197,0.933,0.582c0.286,0.196,0.643,0.42,1.022,0.703
								c0.382,0.27,0.814,0.574,1.284,0.905c0.469,0.306,0.955,0.665,1.482,0.95c0.258,0.162,0.523,0.304,0.8,0.421l0.408,0.198
								l0.428,0.145l0.428,0.15l0.449,0.097c0.293,0.082,0.604,0.123,0.925,0.149l0.475,0.056l0.5,0.002
								c0.336,0.001,0.664,0.031,1.017-0.018l1.044-0.068c0.354-0.057,0.709-0.093,1.061-0.137c0.703-0.073,1.414-0.232,2.102-0.318
								c1.403-0.239,2.712-0.463,3.834-0.654c1.149-0.156,2.114-0.311,2.806-0.37c0.689-0.07,1.098-0.078,1.098-0.078
								s-0.316,0.253-0.895,0.639c-0.58,0.384-1.41,0.93-2.467,1.461c-1.046,0.554-2.317,1.101-3.732,1.584
								c-0.726,0.205-1.452,0.47-2.252,0.604c-0.396,0.075-0.796,0.158-1.199,0.222l-1.256,0.11
								c-0.414,0.043-0.856,0.006-1.287-0.008c-0.43,0.002-0.864-0.066-1.299-0.157l-0.644-0.124
								c-0.211-0.063-0.419-0.141-0.626-0.212l-0.612-0.219c-0.195-0.09-0.381-0.199-0.568-0.297l-0.549-0.301
								c-0.164-0.12-0.326-0.239-0.487-0.356c-0.324-0.234-0.622-0.47-0.872-0.736c-0.543-0.497-0.946-1.024-1.326-1.501
								c-0.71-0.98-1.202-1.832-1.533-2.444C140.238,82.557,140.075,82.185,140.075,82.185z"/>
						</g>
						<g>
							<path fill="#ABABAB" d="M20.712,92.689c0,0,0.414-0.024,1.123-0.008c0.356,0.03,0.786-0.011,1.246-0.041
								c0.462-0.024,0.966-0.059,1.544-0.133c0.567-0.052,1.175-0.138,1.817-0.253c0.64-0.078,1.311-0.227,2.003-0.356
								c0.693-0.112,1.401-0.322,2.125-0.454c0.715-0.202,1.454-0.342,2.176-0.561c1.46-0.378,2.898-0.832,4.25-1.264
								c0.667-0.232,1.323-0.445,1.932-0.671c0.602-0.236,1.199-0.428,1.714-0.66c0.534-0.215,0.999-0.436,1.422-0.638
								c0.438-0.191,0.75-0.421,1.065-0.582c0.296-0.173,0.486-0.352,0.646-0.464c0.157-0.116,0.241-0.178,0.241-0.178
								s-0.034,0.096-0.098,0.275c-0.081,0.167-0.151,0.477-0.356,0.777c-0.207,0.287-0.426,0.721-0.785,1.071
								c-0.337,0.383-0.733,0.818-1.221,1.199c-0.468,0.425-1.012,0.814-1.604,1.214c-0.594,0.39-1.244,0.757-1.929,1.113
								c-0.694,0.328-1.411,0.687-2.173,0.949c-0.749,0.305-1.538,0.532-2.327,0.757c-0.79,0.22-1.602,0.367-2.395,0.516
								c-0.808,0.097-1.591,0.228-2.371,0.237c-0.775,0.032-1.522,0.043-2.237-0.03c-0.356-0.034-0.7-0.049-1.032-0.096
								c-0.332-0.065-0.652-0.127-0.96-0.187c-0.307-0.068-0.593-0.1-0.873-0.191c-0.276-0.093-0.539-0.182-0.785-0.265
								c-0.493-0.153-0.888-0.326-1.19-0.508C21.058,92.916,20.712,92.689,20.712,92.689z"/>
						</g>
						<g>
							<path fill="#A6A6A6" d="M162.173,99.138c0,0-0.303,0.597-0.872,1.716c-0.552,1.126-1.343,2.785-2.445,4.861
								c-1.116,2.065-2.503,4.568-4.309,7.312c-0.927,1.354-1.848,2.849-2.987,4.304c-0.557,0.738-1.129,1.494-1.714,2.269
								c-0.589,0.773-1.265,1.503-1.916,2.282c-0.67,0.774-1.315,1.556-2.047,2.369c-0.727,0.757-1.42,1.538-2.211,2.314
								c-1.571,1.57-3.239,3.112-5.044,4.605c-3.592,3.001-7.659,5.873-12.185,8.299c-4.513,2.438-9.44,4.512-14.635,5.973
								c-1.306,0.334-2.606,0.719-3.931,1.012c-1.329,0.27-2.655,0.588-3.998,0.819c-1.346,0.207-2.693,0.446-4.047,0.627
								l-2.037,0.221l-1.019,0.11l-0.51,0.055l-0.255,0.027l-0.127,0.014l-0.064,0.007c0.124-0.003-0.24,0.012-0.225,0.01
								l-4.008-0.025c-1.343-0.02-2.735-0.122-4.096-0.18c-2.726-0.181-5.408-0.432-8.066-0.832
								c-5.317-0.742-10.465-2.028-15.32-3.612c-9.72-3.19-18.135-7.955-24.521-12.993c-0.399-0.316-0.794-0.628-1.184-0.937
								l-0.292-0.231c-0.14-0.109-0.197-0.168-0.3-0.254l-0.547-0.474c-0.723-0.634-1.438-1.231-2.116-1.858
								c-1.341-1.303-2.621-2.521-3.714-3.755c-1.144-1.186-2.096-2.408-3.004-3.502c-0.836-1.157-1.651-2.179-2.279-3.18
								c-0.64-0.992-1.229-1.862-1.645-2.681c-0.434-0.806-0.836-1.469-1.082-2.052c-0.53-1.139-0.813-1.746-0.813-1.746
								s0.349,0.571,1.002,1.64c0.667,1.057,1.72,2.561,3.179,4.368c0.705,0.921,1.602,1.851,2.519,2.899
								c1,0.98,1.997,2.11,3.21,3.177c1.16,1.123,2.483,2.196,3.855,3.341c0.724,0.556,1.467,1.126,2.227,1.709l0.575,0.44
								c0.088,0.065,0.213,0.168,0.27,0.202l0.297,0.207c0.397,0.276,0.798,0.556,1.203,0.838c3.255,2.237,6.953,4.401,11.01,6.376
								c4.063,1.964,8.51,3.679,13.209,5.107c4.703,1.429,9.69,2.436,14.795,3.146c2.548,0.362,5.156,0.581,7.742,0.731
								c1.299,0.043,2.569,0.131,3.897,0.14l4.008-0.006l3.735-0.378c1.293-0.161,2.577-0.379,3.864-0.564
								c1.282-0.209,2.545-0.502,3.814-0.746c1.264-0.267,2.502-0.625,3.748-0.93c4.94-1.373,9.696-3.136,14.05-5.372
								c4.354-2.228,8.375-4.768,11.953-7.508c1.803-1.352,3.465-2.798,5.041-4.188c0.796-0.69,1.564-1.455,2.326-2.158
								c0.706-0.697,1.412-1.453,2.098-2.155c0.678-0.72,1.382-1.391,2.001-2.109c0.621-0.718,1.227-1.419,1.818-2.102
								c1.224-1.337,2.234-2.728,3.249-3.988c1.965-2.569,3.579-4.894,4.872-6.837c1.266-1.967,2.262-3.513,2.94-4.567
								C161.806,99.697,162.173,99.138,162.173,99.138z"/>
						</g>
						<path fill="#9A9999" d="M76.005,40.978c12.625-4.912,24.809-5.521,34.349-1.298c4.755,2.107,9.392,4.537,13.177,8.321
							c3.102,3.104,5.947,7.07,8.389,11.425c4.052,7.245,6.987,15.552,8.155,22.759c0,0-17.341,28.646-48.359,28.145
							c-31.604-0.507-43.316-16.888-47.7-23.905c2.223-8.086,5.719-18.51,10.62-26.93c2.329-4.014,4.977-7.571,7.958-10.21
							C66.531,45.794,71.063,42.9,76.005,40.978z"/>
						<g>
							<path fill="#828383" d="M44.016,86.424c0,0,0.122-0.564,0.35-1.62c0.223-1.058,0.565-2.606,1.068-4.568
								c0.513-1.956,1.156-4.329,2.029-7.016c0.441-1.341,0.937-2.762,1.468-4.259c0.585-1.477,1.156-3.05,1.892-4.639
								c1.38-3.222,3.107-6.62,5.391-9.986c0.29-0.428,0.583-0.859,0.877-1.293c0.311-0.42,0.648-0.822,0.974-1.238
								c0.33-0.414,0.663-0.83,0.997-1.248c0.334-0.419,0.741-0.79,1.113-1.191c0.382-0.394,0.766-0.791,1.152-1.189l0.145-0.149
								l0.202-0.172l0.302-0.255l0.607-0.511c0.405-0.341,0.813-0.684,1.222-1.029c0.407-0.345,0.809-0.695,1.292-1.018
								c0.93-0.659,1.869-1.323,2.814-1.993c0.985-0.577,1.978-1.158,2.976-1.743c0.491-0.308,1.017-0.557,1.55-0.797l1.594-0.74
								c0.544-0.242,1.046-0.5,1.636-0.714l1.588-0.595c4.422-1.587,9.024-2.783,13.799-3.305c4.758-0.508,9.649-0.287,14.311,0.827
								l1.733,0.467l1.699,0.565c0.567,0.182,1.104,0.447,1.654,0.667c0.276,0.12,0.54,0.22,0.824,0.356l0.754,0.357
								c2.021,0.963,4.076,2.005,5.973,3.185c1.906,1.19,3.724,2.5,5.336,3.99c0.393,0.384,0.783,0.765,1.172,1.145l0.145,0.142
								l0.174,0.193l0.252,0.289l0.502,0.576c0.663,0.777,1.339,1.481,1.95,2.35c2.589,3.294,4.419,6.546,5.982,9.774
								c0.72,1.57,1.409,3.075,2.065,4.507c0.537,1.512,1.046,2.946,1.525,4.294c0.23,0.674,0.482,1.316,0.67,1.952
								c0.165,0.642,0.325,1.26,0.478,1.854c0.299,1.186,0.574,2.275,0.823,3.259c0.27,0.975,0.332,1.893,0.47,2.666
								c0.116,0.777,0.215,1.438,0.294,1.974c0.153,1.069,0.234,1.639,0.234,1.639s-0.16-0.555-0.46-1.596
								c-0.313-1.035-0.68-2.572-1.306-4.474c-0.349-0.939-0.736-1.979-1.157-3.111c-0.207-0.565-0.423-1.153-0.646-1.762
								c-0.239-0.602-0.541-1.203-0.822-1.834c-0.574-1.252-1.185-2.585-1.828-3.99c-0.759-1.379-1.558-2.829-2.391-4.343
								c-1.649-2.87-3.756-6.033-6.191-8.856c-0.557-0.732-1.308-1.445-2.001-2.177l-0.53-0.55l-0.266-0.276l-0.067-0.069
								l-0.033-0.035c-0.053-0.055,0.035,0.035,0.013,0.015l-0.137-0.12c-0.363-0.32-0.728-0.642-1.096-0.966
								c-1.519-1.239-3.165-2.404-4.959-3.435c-1.804-1.044-3.696-1.934-5.712-2.82c-1.989-0.858-3.916-1.564-6.019-2.045
								c-4.167-0.951-8.605-1.115-12.991-0.609c-4.388,0.428-8.773,1.521-12.888,2.951l-1.594,0.578
								c-0.475,0.16-0.976,0.423-1.465,0.619l-1.474,0.629c-0.494,0.202-0.982,0.413-1.441,0.685
								c-0.934,0.509-1.863,1.014-2.785,1.516c-0.862,0.57-1.718,1.137-2.567,1.698c-0.428,0.258-0.849,0.601-1.268,0.935
								c-0.419,0.332-0.837,0.662-1.253,0.991l-0.622,0.492l-0.31,0.245l-0.077,0.061l-0.039,0.03
								c0.01-0.009-0.078,0.064,0.013-0.013l-0.135,0.127c-0.361,0.338-0.72,0.675-1.078,1.01c-0.351,0.343-0.732,0.649-1.056,1.018
								c-0.325,0.368-0.649,0.735-0.97,1.099c-0.319,0.367-0.651,0.721-0.955,1.091c-0.288,0.382-0.573,0.762-0.857,1.138
								c-2.296,3.083-4.216,6.256-5.773,9.278c-1.588,3.017-2.884,5.883-3.995,8.443c-1.077,2.574-1.986,4.84-2.7,6.72
								c-0.689,1.886-1.269,3.365-1.615,4.389C44.209,85.881,44.016,86.424,44.016,86.424z"/>
						</g>
					</g>
				</g>
				<g>
					<path fill="#201A1B" d="M74.811,75.728c1.206,0.313,1.696,2.094,0.821,2.98c-0.875,0.888-2.661,0.422-2.992-0.779
						C72.309,76.727,73.605,75.413,74.811,75.728"/>
				</g>
				<g>
					<path fill="#201A1B" d="M110.288,75.728c1.206,0.313,1.696,2.094,0.821,2.98c-0.876,0.888-2.662,0.422-2.993-0.779
						C107.787,76.727,109.082,75.413,110.288,75.728"/>
				</g>
				<g>
					<g>
						<path fill="#888989" d="M92.88,117.49c0.308,5.829,0.411,11.668,0.719,17.497c0.025,0.481,0.776,0.484,0.75,0
							c-0.308-5.829-0.411-11.668-0.719-17.497C93.604,117.009,92.854,117.007,92.88,117.49L92.88,117.49z"/>
					</g>
				</g>
				<g>
					<g>
						<path fill="#888989" d="M61.695,71.257c3.368-6.74,12.611-8.842,18.514-4.093c0.373,0.3,0.907-0.227,0.53-0.53
							c-6.25-5.028-16.088-2.965-19.691,4.245C60.832,71.309,61.479,71.689,61.695,71.257L61.695,71.257z"/>
					</g>
				</g>
				<g>
					<g>
						<path fill="#888989" d="M101.678,68.338c5.243-5.44,14.653-4.662,18.889,1.621c0.269,0.399,0.919,0.024,0.648-0.379
							c-4.494-6.666-14.474-7.576-20.067-1.773C100.812,68.156,101.342,68.687,101.678,68.338L101.678,68.338z"/>
					</g>
				</g>
				<g>
					<path fill="#201A1B" d="M94.453,133.29c1.206,0.313,1.696,2.093,0.821,2.98c-0.876,0.887-2.662,0.421-2.992-0.779
						C91.951,134.288,93.247,132.975,94.453,133.29"/>
				</g>
				<g>
					<path fill="#4F3636" d="M99.689,98.346c-3.779-2.146-8.991-1.618-12.843,0c-3.89,1.637-7.311,6.494-5.158,10.07
						c2.66,4.419,8.597,9.074,11.567,9.074c4.363,0,7.72-4.896,9.673-9.074C104.602,104.838,104.952,101.336,99.689,98.346z"/>
				</g>
				<g>
					<path fill="#160707" d="M81.688,108.416c0,0,0.384,0.303,1.017,0.819c0.313,0.243,0.694,0.538,1.131,0.877
						c0.432,0.336,0.939,0.691,1.476,1.077c1.076,0.77,2.338,1.628,3.691,2.447c0.677,0.405,1.38,0.802,2.077,1.133
						c0.686,0.323,1.421,0.632,1.926,0.697c0.05-0.001,0.098,0.005,0.147,0.012l0.073,0.013l0.018,0.004l0.009,0.002
						c0.031,0-0.257,0.01-0.13,0.005l0.011-0.001l0.085-0.005l0.678-0.038c0.138-0.031,0.226-0.062,0.347-0.07
						c0.103,0.002,0.288-0.079,0.43-0.11c0.604-0.197,1.234-0.473,1.832-0.865c0.593-0.394,1.188-0.819,1.72-1.298
						c0.548-0.46,1.048-0.949,1.521-1.405c0.939-0.923,1.716-1.766,2.276-2.358c0.558-0.594,0.906-0.936,0.906-0.936
						s-0.029,0.484-0.199,1.301c-0.084,0.409-0.197,0.906-0.376,1.459c-0.177,0.555-0.395,1.18-0.694,1.843
						c-0.61,1.314-1.498,2.823-2.959,4.181c-0.726,0.675-1.634,1.297-2.7,1.725c-0.285,0.098-0.509,0.216-0.851,0.291
						c-0.32,0.08-0.672,0.152-0.978,0.198l-0.677,0.056l-0.085,0.007l-0.162,0.006l-0.033-0.002l-0.066-0.004l-0.266-0.017
						l-0.531-0.05c-1.292-0.242-2.226-0.719-3.11-1.231c-0.88-0.508-1.642-1.092-2.335-1.694c-1.383-1.205-2.468-2.504-3.267-3.705
						c-0.403-0.597-0.725-1.178-0.984-1.705c-0.275-0.509-0.458-1.005-0.608-1.398c-0.163-0.386-0.21-0.713-0.28-0.925
						C81.716,108.533,81.688,108.416,81.688,108.416z"/>
				</g>
			</g>
		</g>
		<g>
			<g>
				<path fill="#267868" d="M61.44,42.185C60.741,17.316,81.588,3.536,107.871,6.648c24.308,2.879,32.67,26.799,32.67,26.799
					s-5.068-5.999-15.847-5.999c-10.781,0-1.191,14.128-1.191,14.128"/>
			</g>
			<g>
				<path fill="#F4F4F4" d="M59.87,50.911c-1.501-2.364-1.841-1.414-2.309-4.177c-3.167-18.703,71.077-27.342,71.253-3.375
					c0.035,4.749-3.198,5.852-3.198,5.852s-14.282-7.195-33.571-7.197C74.436,42.011,59.87,50.911,59.87,50.911z"/>
			</g>
			<ellipse fill="#F4F4F4" cx="141.508" cy="36.232" rx="5.242" ry="5.058"/>
		</g>
		<g>
			<circle fill="none" stroke="#4F3636" stroke-width="2" stroke-miterlimit="10" cx="74.332" cy="78.3" r="10.972"/>
			<circle fill="none" stroke="#4F3636" stroke-width="2" stroke-miterlimit="10" cx="110.354" cy="78.3" r="10.972"/>
			<line fill="none" stroke="#4F3636" stroke-width="2" stroke-miterlimit="10" x1="63.36" y1="75.044" x2="51.589" y2="63.309"/>
			<line fill="none" stroke="#4F3636" stroke-width="2" stroke-miterlimit="10" x1="121.326" y1="78.3" x2="133.145" y2="61.646"/>
			<path fill="none" stroke="#4F3636" stroke-width="2" stroke-miterlimit="10" d="M85.314,74.5c0,0,6.7-5.981,14.612,0.384"/>
		</g>
	</g>
</g>
</svg>
